<svg width="140" height="34" viewBox="0 0 140 34" fill="none" xmlns="http://www.w3.org/2000/svg">
<path d="M15.6445 32V26.5455H18.9711V27.166H16.3503V28.9585H18.7979V29.5763H16.3503V31.3794H19.011V32H15.6445ZM20.7355 29.5471V32H20.0617V27.9091H20.7116V28.5563H20.7648C20.8607 28.345 21.0072 28.1754 21.2043 28.0476C21.4014 27.9197 21.6535 27.8558 21.9607 27.8558C22.2394 27.8558 22.4827 27.9126 22.6904 28.0263C22.8982 28.1399 23.0597 28.3113 23.1752 28.5403C23.2906 28.7676 23.3483 29.0543 23.3483 29.4006V32H22.6744V29.4565C22.6744 29.1422 22.5928 28.8972 22.4294 28.7214C22.2661 28.5439 22.0415 28.4551 21.7556 28.4551C21.5603 28.4551 21.3854 28.4977 21.2309 28.5829C21.0782 28.6681 20.9575 28.7924 20.8687 28.9558C20.7799 29.1191 20.7355 29.3162 20.7355 29.5471ZM25.6767 32.0932C25.4175 32.0932 25.1822 32.0444 24.9709 31.9467C24.7614 31.8491 24.5945 31.707 24.4702 31.5206C24.3477 31.3342 24.2864 31.1078 24.2864 30.8414C24.2864 30.6071 24.3317 30.4162 24.4223 30.2688C24.5146 30.1214 24.6371 30.006 24.7898 29.9226C24.9443 29.8374 25.1147 29.7734 25.3012 29.7308C25.4876 29.6882 25.6767 29.6554 25.8685 29.6323C26.1153 29.6003 26.3159 29.5763 26.4704 29.5604C26.6249 29.5426 26.7376 29.5133 26.8086 29.4725C26.8814 29.4299 26.9178 29.3588 26.9178 29.2594V29.2381C26.9178 28.9842 26.8477 28.7871 26.7074 28.6468C26.5689 28.5066 26.3594 28.4364 26.0789 28.4364C25.7877 28.4364 25.5586 28.5004 25.3917 28.6282C25.2266 28.7543 25.1112 28.891 25.0455 29.0384L24.4063 28.8386C24.5075 28.59 24.646 28.3938 24.8218 28.25C24.9976 28.1062 25.1929 28.005 25.4077 27.9464C25.6243 27.886 25.8418 27.8558 26.0602 27.8558C26.2005 27.8558 26.3576 27.8727 26.5316 27.9064C26.7074 27.9384 26.8752 28.0032 27.035 28.1009C27.1966 28.1985 27.3298 28.3432 27.4345 28.535C27.5393 28.7267 27.5917 28.9815 27.5917 29.2994V32H26.9232V31.446H26.8912C26.845 31.5384 26.7714 31.6351 26.6701 31.7363C26.5707 31.8358 26.4384 31.9201 26.2733 31.9893C26.11 32.0586 25.9111 32.0932 25.6767 32.0932ZM25.7939 31.5099C26.0354 31.5099 26.2396 31.4629 26.4065 31.3688C26.5752 31.2729 26.7021 31.1495 26.7873 30.9986C26.8743 30.8477 26.9178 30.6887 26.9178 30.5218V29.9599C26.8912 29.9901 26.8335 30.0176 26.7447 30.0424C26.6577 30.0673 26.5583 30.0895 26.4464 30.109C26.3346 30.1268 26.2254 30.1428 26.1188 30.157C26.0123 30.1694 25.9253 30.18 25.8578 30.1889C25.698 30.2102 25.5489 30.244 25.4104 30.2901C25.2737 30.3363 25.1636 30.4055 25.0801 30.4979C24.9984 30.5884 24.9576 30.7109 24.9576 30.8654C24.9576 31.0785 25.0357 31.2392 25.192 31.3475C25.35 31.4558 25.5506 31.5099 25.7939 31.5099ZM28.7988 32V26.5455H29.4727V28.5616H29.5259C29.5721 28.487 29.6369 28.3947 29.7203 28.2846C29.8038 28.1728 29.9228 28.0733 30.0772 27.9863C30.2335 27.8993 30.443 27.8558 30.7058 27.8558C31.0467 27.8558 31.3477 27.9411 31.6087 28.1115C31.8697 28.282 32.0739 28.5252 32.2212 28.8413C32.3704 29.1573 32.445 29.532 32.445 29.9652C32.445 30.4002 32.3713 30.7766 32.2239 31.0945C32.0765 31.4105 31.8723 31.6547 31.6113 31.8269C31.3521 31.9973 31.0529 32.0826 30.7138 32.0826C30.4563 32.0826 30.2486 32.04 30.0906 31.9547C29.9325 31.8677 29.81 31.7683 29.723 31.6564C29.6378 31.5428 29.5721 31.4469 29.5259 31.3688H29.4513V32H28.7988ZM29.462 29.9545C29.462 30.2582 29.5055 30.5254 29.5925 30.7562C29.6813 30.9853 29.81 31.1646 29.9787 31.2942C30.1491 31.4221 30.3578 31.486 30.6046 31.486C30.8603 31.486 31.0742 31.4185 31.2464 31.2836C31.4187 31.1468 31.5483 30.9631 31.6353 30.7322C31.7223 30.4996 31.7658 30.2404 31.7658 29.9545C31.7658 29.6722 31.7223 29.4174 31.6353 29.1902C31.5501 28.9629 31.4213 28.7836 31.2491 28.6522C31.0787 28.519 30.8638 28.4524 30.6046 28.4524C30.356 28.4524 30.1465 28.5154 29.976 28.6415C29.8056 28.7676 29.6768 28.9434 29.5898 29.1689C29.5046 29.3926 29.462 29.6545 29.462 29.9545ZM34.0583 26.5455V32H33.3845V26.5455H34.0583ZM35.1862 32V27.9091H35.86V32H35.1862ZM35.5298 27.2406C35.4019 27.2406 35.2927 27.198 35.2022 27.1127C35.1116 27.0257 35.0664 26.9219 35.0664 26.8011C35.0664 26.6804 35.1116 26.5774 35.2022 26.4922C35.2927 26.4052 35.4011 26.3617 35.5271 26.3617C35.655 26.3617 35.7642 26.4052 35.8547 26.4922C35.9453 26.5774 35.9905 26.6804 35.9905 26.8011C35.9905 26.9219 35.9453 27.0257 35.8547 27.1127C35.7642 27.198 35.6559 27.2406 35.5298 27.2406ZM37.6618 29.5471V32H36.988V27.9091H37.6378V28.5563H37.6911C37.787 28.345 37.9335 28.1754 38.1305 28.0476C38.3276 27.9197 38.5798 27.8558 38.8869 27.8558C39.1657 27.8558 39.409 27.9126 39.6167 28.0263C39.8244 28.1399 39.986 28.3113 40.1014 28.5403C40.2168 28.7676 40.2745 29.0543 40.2745 29.4006V32H39.6007V29.4565C39.6007 29.1422 39.519 28.8972 39.3557 28.7214C39.1923 28.5439 38.9677 28.4551 38.6819 28.4551C38.4866 28.4551 38.3117 28.4977 38.1572 28.5829C38.0045 28.6681 37.8837 28.7924 37.795 28.9558C37.7062 29.1191 37.6618 29.3162 37.6618 29.5471ZM43.0717 33.6193C42.7628 33.6193 42.4964 33.5794 42.2727 33.4995C42.0508 33.4213 41.867 33.3175 41.7214 33.1879C41.5758 33.0582 41.4631 32.9189 41.3832 32.7697L41.9345 32.4368C41.9877 32.5131 42.057 32.5984 42.1422 32.6925C42.2292 32.7866 42.3464 32.8683 42.4938 32.9375C42.6429 33.0067 42.8365 33.0414 43.0744 33.0414C43.3975 33.0414 43.6639 32.9632 43.8734 32.807C44.0829 32.6507 44.1877 32.4048 44.1877 32.0692V31.2463H44.1371C44.0891 31.3244 44.0225 31.4176 43.9373 31.5259C43.8521 31.6342 43.7305 31.7301 43.5724 31.8136C43.4162 31.8952 43.2067 31.9361 42.9439 31.9361C42.6172 31.9361 42.3233 31.8588 42.0623 31.7044C41.8013 31.5499 41.5945 31.3235 41.4418 31.0252C41.2908 30.7269 41.2154 30.3629 41.2154 29.9332C41.2154 29.5107 41.2891 29.144 41.4364 28.8333C41.5838 28.5208 41.788 28.2802 42.049 28.1115C42.3118 27.9411 42.6136 27.8558 42.9545 27.8558C43.2173 27.8558 43.4268 27.8993 43.5831 27.9863C43.7411 28.0733 43.8627 28.1728 43.948 28.2846C44.0332 28.3947 44.0989 28.487 44.1451 28.5616H44.2063V27.9091H44.8642V32.1092C44.8642 32.4608 44.7834 32.7475 44.6218 32.9695C44.462 33.1914 44.2472 33.3548 43.9773 33.4595C43.7074 33.5661 43.4055 33.6193 43.0717 33.6193ZM43.0558 31.3448C43.3008 31.3448 43.5076 31.2889 43.6763 31.177C43.8468 31.0634 43.9764 30.9 44.0652 30.687C44.1539 30.4739 44.1983 30.22 44.1983 29.9252C44.1983 29.6358 44.1548 29.381 44.0678 29.1609C43.9808 28.9389 43.8521 28.7658 43.6816 28.6415C43.513 28.5154 43.3043 28.4524 43.0558 28.4524C42.7965 28.4524 42.5808 28.5181 42.4086 28.6495C42.2363 28.7809 42.1076 28.9585 42.0224 29.1822C41.9371 29.4041 41.8945 29.6518 41.8945 29.9252C41.8945 30.204 41.938 30.4499 42.025 30.663C42.112 30.8761 42.2417 31.043 42.4139 31.1637C42.5861 31.2844 42.8001 31.3448 43.0558 31.3448ZM48.1421 32V26.5455H50.0118C50.4397 26.5455 50.7903 26.6227 51.0638 26.7772C51.3372 26.9299 51.5405 27.1376 51.6737 27.4004C51.8086 27.6632 51.8761 27.957 51.8761 28.282C51.8761 28.6069 51.8095 28.9016 51.6764 29.1662C51.5432 29.4308 51.3399 29.6412 51.0665 29.7974C50.793 29.9519 50.4441 30.0291 50.0198 30.0291H48.6934V29.4112H49.9825C50.2683 29.4112 50.4983 29.3615 50.6723 29.2621C50.8481 29.1626 50.9759 29.0286 51.0558 28.8599C51.1357 28.6895 51.1756 28.4968 51.1756 28.282C51.1756 28.0671 51.1357 27.8754 51.0558 27.7067C50.9759 27.538 50.8472 27.4057 50.6696 27.3098C50.4938 27.214 50.2612 27.166 49.9718 27.166H48.8479V32H48.1421ZM54.4642 32.0852C54.0914 32.0852 53.7646 31.9973 53.4841 31.8216C53.2036 31.6458 52.9852 31.3999 52.8289 31.0838C52.6744 30.7678 52.5972 30.3984 52.5972 29.9759C52.5972 29.5497 52.6744 29.1777 52.8289 28.8599C52.9852 28.5421 53.2036 28.2953 53.4841 28.1195C53.7646 27.9437 54.0914 27.8558 54.4642 27.8558C54.8389 27.8558 55.1656 27.9437 55.4443 28.1195C55.7249 28.2953 55.9433 28.5421 56.0995 28.8599C56.2558 29.1777 56.3339 29.5497 56.3339 29.9759C56.3339 30.3984 56.2558 30.7678 56.0995 31.0838C55.9433 31.3999 55.7249 31.6458 55.4443 31.8216C55.1656 31.9973 54.8389 32.0852 54.4642 32.0852ZM54.4642 31.4913C54.7377 31.4913 54.9623 31.4212 55.1381 31.2809C55.3138 31.1406 55.4434 30.956 55.5269 30.7269C55.6121 30.4961 55.6547 30.2457 55.6547 29.9759C55.6547 29.7042 55.6121 29.4529 55.5269 29.2221C55.4434 28.9913 55.3138 28.8049 55.1381 28.6628C54.9623 28.5208 54.7377 28.4498 54.4642 28.4498C54.1926 28.4498 53.9688 28.5208 53.7931 28.6628C53.6173 28.8049 53.4868 28.9913 53.4015 29.2221C53.3163 29.4529 53.2737 29.7042 53.2737 29.9759C53.2737 30.2457 53.3163 30.4961 53.4015 30.7269C53.4868 30.956 53.6173 31.1406 53.7931 31.2809C53.9688 31.4212 54.1926 31.4913 54.4642 31.4913ZM60.2117 28.8493L59.6045 28.9984C59.5708 28.9061 59.5202 28.8164 59.4527 28.7294C59.3852 28.6406 59.2938 28.5678 59.1784 28.511C59.0629 28.4524 58.9165 28.4231 58.7389 28.4231C58.4956 28.4231 58.2923 28.479 58.129 28.5909C57.9674 28.701 57.8875 28.8413 57.8893 29.0117C57.8875 29.1626 57.9417 29.2825 58.0518 29.3713C58.1636 29.46 58.3376 29.5337 58.5738 29.5923L59.1943 29.7415C59.5619 29.8285 59.8362 29.9634 60.0173 30.1463C60.1984 30.3274 60.289 30.5618 60.289 30.8494C60.289 31.0856 60.2206 31.2969 60.0839 31.4833C59.949 31.6697 59.7599 31.8171 59.5166 31.9254C59.2733 32.032 58.991 32.0852 58.6697 32.0852C58.2417 32.0852 57.8884 31.9929 57.6096 31.8082C57.3327 31.6218 57.1586 31.3528 57.0876 31.0012L57.7322 30.8601C57.7872 31.0749 57.8928 31.2365 58.0491 31.3448C58.2053 31.4531 58.4095 31.5073 58.6617 31.5073C58.9458 31.5073 59.1713 31.4469 59.3382 31.3262C59.5068 31.2054 59.5912 31.0589 59.5912 30.8867C59.5912 30.7482 59.5423 30.6328 59.4447 30.5405C59.347 30.4464 59.1961 30.3754 58.9919 30.3274L58.3074 30.1703C57.931 30.0815 57.654 29.943 57.4765 29.7548C57.3007 29.5666 57.2128 29.3304 57.2128 29.0463C57.2128 28.812 57.2785 28.606 57.4099 28.4284C57.5413 28.2491 57.7215 28.1088 57.9506 28.0076C58.1814 27.9064 58.4433 27.8558 58.7362 27.8558C59.1517 27.8558 59.4784 27.9464 59.7164 28.1275C59.9543 28.3086 60.1194 28.5492 60.2117 28.8493ZM64.1595 28.8493L63.5522 28.9984C63.5185 28.9061 63.4679 28.8164 63.4004 28.7294C63.333 28.6406 63.2415 28.5678 63.1261 28.511C63.0107 28.4524 62.8642 28.4231 62.6867 28.4231C62.4434 28.4231 62.2401 28.479 62.0767 28.5909C61.9152 28.701 61.8353 28.8413 61.837 29.0117C61.8353 29.1626 61.8894 29.2825 61.9995 29.3713C62.1114 29.46 62.2854 29.5337 62.5215 29.5923L63.1421 29.7415C63.5096 29.8285 63.784 29.9634 63.9651 30.1463C64.1462 30.3274 64.2367 30.5618 64.2367 30.8494C64.2367 31.0856 64.1684 31.2969 64.0316 31.4833C63.8967 31.6697 63.7076 31.8171 63.4644 31.9254C63.2211 32.032 62.9388 32.0852 62.6174 32.0852C62.1895 32.0852 61.8362 31.9929 61.5574 31.8082C61.2804 31.6218 61.1064 31.3528 61.0354 31.0012L61.6799 30.8601C61.735 31.0749 61.8406 31.2365 61.9968 31.3448C62.1531 31.4531 62.3573 31.5073 62.6094 31.5073C62.8935 31.5073 63.119 31.4469 63.2859 31.3262C63.4546 31.2054 63.5389 31.0589 63.5389 30.8867C63.5389 30.7482 63.4901 30.6328 63.3924 30.5405C63.2948 30.4464 63.1439 30.3754 62.9397 30.3274L62.2552 30.1703C61.8788 30.0815 61.6018 29.943 61.4242 29.7548C61.2484 29.5666 61.1606 29.3304 61.1606 29.0463C61.1606 28.812 61.2263 28.606 61.3576 28.4284C61.489 28.2491 61.6693 28.1088 61.8983 28.0076C62.1291 27.9064 62.391 27.8558 62.684 27.8558C63.0995 27.8558 63.4262 27.9464 63.6641 28.1275C63.902 28.3086 64.0672 28.5492 64.1595 28.8493ZM65.1642 32V27.9091H65.8381V32H65.1642ZM65.5078 27.2406C65.38 27.2406 65.2708 27.198 65.1802 27.1127C65.0897 27.0257 65.0444 26.9219 65.0444 26.8011C65.0444 26.6804 65.0897 26.5774 65.1802 26.4922C65.2708 26.4052 65.3791 26.3617 65.5051 26.3617C65.633 26.3617 65.7422 26.4052 65.8327 26.4922C65.9233 26.5774 65.9686 26.6804 65.9686 26.8011C65.9686 26.9219 65.9233 27.0257 65.8327 27.1127C65.7422 27.198 65.6339 27.2406 65.5078 27.2406ZM67.0459 32V26.5455H67.7197V28.5616H67.773C67.8192 28.487 67.884 28.3947 67.9674 28.2846C68.0509 28.1728 68.1698 28.0733 68.3243 27.9863C68.4806 27.8993 68.6901 27.8558 68.9529 27.8558C69.2938 27.8558 69.5947 27.9411 69.8557 28.1115C70.1167 28.282 70.3209 28.5252 70.4683 28.8413C70.6175 29.1573 70.692 29.532 70.692 29.9652C70.692 30.4002 70.6183 30.7766 70.471 31.0945C70.3236 31.4105 70.1194 31.6547 69.8584 31.8269C69.5992 31.9973 69.3 32.0826 68.9608 32.0826C68.7034 32.0826 68.4956 32.04 68.3376 31.9547C68.1796 31.8677 68.0571 31.7683 67.9701 31.6564C67.8849 31.5428 67.8192 31.4469 67.773 31.3688H67.6984V32H67.0459ZM67.7091 29.9545C67.7091 30.2582 67.7526 30.5254 67.8396 30.7562C67.9284 30.9853 68.0571 31.1646 68.2258 31.2942C68.3962 31.4221 68.6048 31.486 68.8517 31.486C69.1073 31.486 69.3213 31.4185 69.4935 31.2836C69.6657 31.1468 69.7954 30.9631 69.8824 30.7322C69.9694 30.4996 70.0129 30.2404 70.0129 29.9545C70.0129 29.6722 69.9694 29.4174 69.8824 29.1902C69.7971 28.9629 69.6684 28.7836 69.4962 28.6522C69.3257 28.519 69.1109 28.4524 68.8517 28.4524C68.6031 28.4524 68.3936 28.5154 68.2231 28.6415C68.0526 28.7676 67.9239 28.9434 67.8369 29.1689C67.7517 29.3926 67.7091 29.6545 67.7091 29.9545ZM71.6315 32V27.9091H72.3054V32H71.6315ZM71.9751 27.2406C71.8473 27.2406 71.7381 27.198 71.6475 27.1127C71.557 27.0257 71.5117 26.9219 71.5117 26.8011C71.5117 26.6804 71.557 26.5774 71.6475 26.4922C71.7381 26.4052 71.8464 26.3617 71.9724 26.3617C72.1003 26.3617 72.2095 26.4052 72.3 26.4922C72.3906 26.5774 72.4359 26.6804 72.4359 26.8011C72.4359 26.9219 72.3906 27.0257 72.3 27.1127C72.2095 27.198 72.1012 27.2406 71.9751 27.2406ZM74.1071 26.5455V32H73.4333V26.5455H74.1071ZM75.235 32V27.9091H75.9089V32H75.235ZM75.5786 27.2406C75.4508 27.2406 75.3416 27.198 75.251 27.1127C75.1605 27.0257 75.1152 26.9219 75.1152 26.8011C75.1152 26.6804 75.1605 26.5774 75.251 26.4922C75.3416 26.4052 75.4499 26.3617 75.5759 26.3617C75.7038 26.3617 75.813 26.4052 75.9035 26.4922C75.9941 26.5774 76.0394 26.6804 76.0394 26.8011C76.0394 26.9219 75.9941 27.0257 75.9035 27.1127C75.813 27.198 75.7047 27.2406 75.5786 27.2406ZM78.8532 27.9091V28.4711H76.7012V27.9091H78.8532ZM77.3138 26.929H77.9876V30.8201C77.9876 30.9906 78.0125 31.1184 78.0622 31.2037C78.1137 31.2889 78.1794 31.3457 78.2593 31.3741C78.341 31.4025 78.4271 31.4167 78.5176 31.4167C78.5851 31.4167 78.641 31.4132 78.6854 31.4061C78.7316 31.3972 78.768 31.3901 78.7946 31.3848L78.9278 31.976C78.8834 31.992 78.8212 32.0089 78.7413 32.0266C78.6632 32.0444 78.5638 32.0533 78.443 32.0533C78.2566 32.055 78.0773 32.0178 77.9051 31.9414C77.7328 31.8633 77.5908 31.7452 77.4789 31.5872C77.3671 31.4292 77.312 31.2294 77.3138 30.9879V26.929ZM79.7834 32V27.9091H80.4572V32H79.7834ZM80.127 27.2406C79.9991 27.2406 79.8899 27.198 79.7994 27.1127C79.7088 27.0257 79.6635 26.9219 79.6635 26.8011C79.6635 26.6804 79.7088 26.5774 79.7994 26.4922C79.8899 26.4052 79.9982 26.3617 80.1243 26.3617C80.2521 26.3617 80.3613 26.4052 80.4519 26.4922C80.5424 26.5774 80.5877 26.6804 80.5877 26.8011C80.5877 26.9219 80.5424 27.0257 80.4519 27.1127C80.3613 27.198 80.253 27.2406 80.127 27.2406ZM83.3137 32.0852C82.9177 32.0852 82.5759 31.9982 82.2883 31.8242C82.0024 31.6484 81.7822 31.4034 81.6278 31.0891C81.4733 30.7731 81.396 30.4055 81.396 29.9865C81.396 29.5657 81.4733 29.1955 81.6278 28.8759C81.7822 28.5563 81.998 28.3068 82.2749 28.1275C82.5537 27.9464 82.8795 27.8558 83.2524 27.8558C83.4708 27.8558 83.6847 27.8922 83.8943 27.965C84.1038 28.0378 84.2938 28.1541 84.4642 28.3139C84.6365 28.4737 84.7723 28.6841 84.8717 28.9451C84.9729 29.2061 85.0235 29.5257 85.0235 29.9039V30.1756H81.8435V29.6163H84.3444C84.3444 29.3926 84.2991 29.1928 84.2085 29.017C84.1198 28.8395 83.9937 28.7001 83.8303 28.5989C83.667 28.4977 83.4743 28.4471 83.2524 28.4471C83.0091 28.4471 82.7987 28.5066 82.6212 28.6255C82.4454 28.7445 82.3096 28.8999 82.2137 29.0916C82.1178 29.2816 82.0699 29.4867 82.0699 29.7069V30.0984C82.0699 30.3967 82.1222 30.6497 82.227 30.8574C82.3318 31.0652 82.4774 31.2232 82.6638 31.3315C82.8502 31.4398 83.0677 31.494 83.3163 31.494C83.4779 31.494 83.6235 31.4709 83.7531 31.4247C83.8845 31.3786 83.9981 31.3093 84.094 31.217C84.1899 31.1246 84.2636 31.0092 84.3151 30.8707L84.9649 31.0305C84.901 31.2418 84.7927 31.4265 84.64 31.5845C84.4891 31.7425 84.3009 31.8659 84.0754 31.9547C83.8499 32.0417 83.596 32.0852 83.3137 32.0852ZM88.908 28.8493L88.3008 28.9984C88.267 28.9061 88.2164 28.8164 88.149 28.7294C88.0815 28.6406 87.9901 28.5678 87.8746 28.511C87.7592 28.4524 87.6127 28.4231 87.4352 28.4231C87.1919 28.4231 86.9886 28.479 86.8253 28.5909C86.6637 28.701 86.5838 28.8413 86.5856 29.0117C86.5838 29.1626 86.638 29.2825 86.748 29.3713C86.8599 29.46 87.0339 29.5337 87.2701 29.5923L87.8906 29.7415C88.2582 29.8285 88.5325 29.9634 88.7136 30.1463C88.8947 30.3274 88.9853 30.5618 88.9853 30.8494C88.9853 31.0856 88.9169 31.2969 88.7802 31.4833C88.6452 31.6697 88.4561 31.8171 88.2129 31.9254C87.9696 32.032 87.6873 32.0852 87.3659 32.0852C86.938 32.0852 86.5847 31.9929 86.3059 31.8082C86.0289 31.6218 85.8549 31.3528 85.7839 31.0012L86.4284 30.8601C86.4835 31.0749 86.5891 31.2365 86.7454 31.3448C86.9016 31.4531 87.1058 31.5073 87.358 31.5073C87.642 31.5073 87.8675 31.4469 88.0344 31.3262C88.2031 31.2054 88.2875 31.0589 88.2875 30.8867C88.2875 30.7482 88.2386 30.6328 88.141 30.5405C88.0433 30.4464 87.8924 30.3754 87.6882 30.3274L87.0037 30.1703C86.6273 30.0815 86.3503 29.943 86.1728 29.7548C85.997 29.5666 85.9091 29.3304 85.9091 29.0463C85.9091 28.812 85.9748 28.606 86.1062 28.4284C86.2376 28.2491 86.4178 28.1088 86.6468 28.0076C86.8777 27.9064 87.1396 27.8558 87.4325 27.8558C87.848 27.8558 88.1747 27.9464 88.4126 28.1275C88.6506 28.3086 88.8157 28.5492 88.908 28.8493ZM92.0654 32V26.5455H95.392V27.166H92.7712V28.9585H95.2188V29.5763H92.7712V31.3794H95.4319V32H92.0654ZM97.1564 29.5471V32H96.4826V27.9091H97.1325V28.5563H97.1857C97.2816 28.345 97.4281 28.1754 97.6252 28.0476C97.8223 27.9197 98.0744 27.8558 98.3816 27.8558C98.6603 27.8558 98.9036 27.9126 99.1113 28.0263C99.3191 28.1399 99.4806 28.3113 99.5961 28.5403C99.7115 28.7676 99.7692 29.0543 99.7692 29.4006V32H99.0953V29.4565C99.0953 29.1422 99.0137 28.8972 98.8503 28.7214C98.687 28.5439 98.4624 28.4551 98.1765 28.4551C97.9812 28.4551 97.8063 28.4977 97.6518 28.5829C97.4991 28.6681 97.3784 28.7924 97.2896 28.9558C97.2008 29.1191 97.1564 29.3162 97.1564 29.5471ZM100.899 32V27.9091H101.552V28.535H101.594C101.669 28.329 101.803 28.163 101.996 28.0369C102.19 27.9091 102.408 27.8452 102.652 27.8452C102.7 27.8452 102.757 27.8469 102.825 27.8505C102.894 27.8523 102.947 27.8549 102.985 27.8585V28.5323C102.96 28.5252 102.908 28.5163 102.83 28.5057C102.754 28.4933 102.675 28.487 102.593 28.487C102.396 28.487 102.221 28.5279 102.068 28.6096C101.916 28.6912 101.795 28.804 101.706 28.9478C101.617 29.0916 101.573 29.255 101.573 29.4379V32H100.899ZM103.719 32V27.9091H104.393V32H103.719ZM104.062 27.2406C103.935 27.2406 103.825 27.198 103.735 27.1127C103.644 27.0257 103.599 26.9219 103.599 26.8011C103.599 26.6804 103.644 26.5774 103.735 26.4922C103.825 26.4052 103.934 26.3617 104.06 26.3617C104.188 26.3617 104.297 26.4052 104.387 26.4922C104.478 26.5774 104.523 26.6804 104.523 26.8011C104.523 26.9219 104.478 27.0257 104.387 27.1127C104.297 27.198 104.189 27.2406 104.062 27.2406ZM107.199 32.0852C106.812 32.0852 106.479 31.9947 106.2 31.8136C105.921 31.6325 105.706 31.383 105.555 31.0652C105.406 30.7473 105.332 30.3842 105.332 29.9759C105.332 29.5604 105.409 29.1937 105.563 28.8759C105.718 28.5563 105.934 28.3068 106.21 28.1275C106.489 27.9464 106.815 27.8558 107.188 27.8558C107.483 27.8558 107.747 27.91 107.982 28.0183C108.216 28.1266 108.407 28.2793 108.554 28.4764C108.703 28.6717 108.795 28.8999 108.829 29.1609H108.157C108.111 28.9727 108.007 28.8075 107.846 28.6655C107.686 28.5217 107.471 28.4498 107.201 28.4498C106.962 28.4498 106.752 28.5119 106.573 28.6362C106.395 28.7605 106.257 28.9354 106.157 29.1609C106.058 29.3864 106.008 29.6509 106.008 29.9545C106.008 30.2653 106.057 30.536 106.155 30.7669C106.252 30.9959 106.39 31.1735 106.567 31.2995C106.747 31.4256 106.958 31.4886 107.201 31.4886C107.361 31.4886 107.506 31.4611 107.635 31.4061C107.767 31.3493 107.877 31.2676 107.966 31.161C108.056 31.0545 108.12 30.9267 108.157 30.7775H108.829C108.795 31.0261 108.708 31.2489 108.568 31.446C108.427 31.6431 108.241 31.7994 108.008 31.9148C107.776 32.0284 107.506 32.0852 107.199 32.0852ZM110.406 29.5471V32H109.732V26.5455H110.403V28.5563H110.457C110.552 28.3414 110.697 28.171 110.891 28.0449C111.084 27.9189 111.342 27.8558 111.663 27.8558C111.942 27.8558 112.186 27.9118 112.395 28.0236C112.605 28.1355 112.767 28.3059 112.883 28.535C113 28.7623 113.059 29.0508 113.059 29.4006V32H112.385V29.4565C112.385 29.1387 112.302 28.8928 112.137 28.7188C111.974 28.543 111.746 28.4551 111.455 28.4551C111.255 28.4551 111.075 28.4977 110.917 28.5829C110.759 28.6681 110.634 28.7924 110.542 28.9558C110.451 29.1191 110.406 29.3162 110.406 29.5471ZM114.185 32V27.9091H114.859V32H114.185ZM114.529 27.2406C114.401 27.2406 114.292 27.198 114.201 27.1127C114.111 27.0257 114.065 26.9219 114.065 26.8011C114.065 26.6804 114.111 26.5774 114.201 26.4922C114.292 26.4052 114.4 26.3617 114.526 26.3617C114.654 26.3617 114.763 26.4052 114.854 26.4922C114.944 26.5774 114.99 26.6804 114.99 26.8011C114.99 26.9219 114.944 27.0257 114.854 27.1127C114.763 27.198 114.655 27.2406 114.529 27.2406ZM116.661 29.5471V32H115.987V27.9091H116.637V28.5563H116.69C116.786 28.345 116.932 28.1754 117.13 28.0476C117.327 27.9197 117.579 27.8558 117.886 27.8558C118.165 27.8558 118.408 27.9126 118.616 28.0263C118.823 28.1399 118.985 28.3113 119.1 28.5403C119.216 28.7676 119.274 29.0543 119.274 29.4006V32H118.6V29.4565C118.6 29.1422 118.518 28.8972 118.355 28.7214C118.191 28.5439 117.967 28.4551 117.681 28.4551C117.486 28.4551 117.311 28.4977 117.156 28.5829C117.004 28.6681 116.883 28.7924 116.794 28.9558C116.705 29.1191 116.661 29.3162 116.661 29.5471ZM122.071 33.6193C121.762 33.6193 121.495 33.5794 121.272 33.4995C121.05 33.4213 120.866 33.3175 120.72 33.1879C120.575 33.0582 120.462 32.9189 120.382 32.7697L120.934 32.4368C120.987 32.5131 121.056 32.5984 121.141 32.6925C121.228 32.7866 121.345 32.8683 121.493 32.9375C121.642 33.0067 121.835 33.0414 122.073 33.0414C122.397 33.0414 122.663 32.9632 122.872 32.807C123.082 32.6507 123.187 32.4048 123.187 32.0692V31.2463H123.136C123.088 31.3244 123.022 31.4176 122.936 31.5259C122.851 31.6342 122.729 31.7301 122.571 31.8136C122.415 31.8952 122.206 31.9361 121.943 31.9361C121.616 31.9361 121.322 31.8588 121.061 31.7044C120.8 31.5499 120.593 31.3235 120.441 31.0252C120.29 30.7269 120.214 30.3629 120.214 29.9332C120.214 29.5107 120.288 29.144 120.435 28.8333C120.583 28.5208 120.787 28.2802 121.048 28.1115C121.311 27.9411 121.613 27.8558 121.954 27.8558C122.216 27.8558 122.426 27.8993 122.582 27.9863C122.74 28.0733 122.862 28.1728 122.947 28.2846C123.032 28.3947 123.098 28.487 123.144 28.5616H123.205V27.9091H123.863V32.1092C123.863 32.4608 123.782 32.7475 123.621 32.9695C123.461 33.1914 123.246 33.3548 122.976 33.4595C122.706 33.5661 122.405 33.6193 122.071 33.6193ZM122.055 31.3448C122.3 31.3448 122.507 31.2889 122.675 31.177C122.846 31.0634 122.975 30.9 123.064 30.687C123.153 30.4739 123.197 30.22 123.197 29.9252C123.197 29.6358 123.154 29.381 123.067 29.1609C122.98 28.9389 122.851 28.7658 122.681 28.6415C122.512 28.5154 122.303 28.4524 122.055 28.4524C121.796 28.4524 121.58 28.5181 121.408 28.6495C121.235 28.7809 121.107 28.9585 121.021 29.1822C120.936 29.4041 120.894 29.6518 120.894 29.9252C120.894 30.204 120.937 30.4499 121.024 30.663C121.111 30.8761 121.241 31.043 121.413 31.1637C121.585 31.2844 121.799 31.3448 122.055 31.3448ZM127.141 32V26.5455H127.847V31.3794H130.364V32H127.141ZM131.28 32V27.9091H131.954V32H131.28ZM131.624 27.2406C131.496 27.2406 131.386 27.198 131.296 27.1127C131.205 27.0257 131.16 26.9219 131.16 26.8011C131.16 26.6804 131.205 26.5774 131.296 26.4922C131.386 26.4052 131.495 26.3617 131.621 26.3617C131.749 26.3617 131.858 26.4052 131.948 26.4922C132.039 26.5774 132.084 26.6804 132.084 26.8011C132.084 26.9219 132.039 27.0257 131.948 27.1127C131.858 27.198 131.75 27.2406 131.624 27.2406ZM134.938 27.9091V28.4711H132.704V27.9091H134.938ZM133.356 32V27.3684C133.356 27.1287 133.411 26.929 133.521 26.7692C133.633 26.6094 133.778 26.4895 133.955 26.4096C134.133 26.3297 134.323 26.2898 134.525 26.2898C134.682 26.2898 134.81 26.3022 134.911 26.3271C135.014 26.3519 135.091 26.375 135.14 26.3963L134.957 26.9689C134.923 26.9583 134.878 26.945 134.821 26.929C134.764 26.913 134.692 26.905 134.605 26.905C134.401 26.905 134.254 26.9565 134.166 27.0595C134.077 27.1607 134.033 27.3098 134.033 27.5069V32H133.356ZM137.366 32.0852C136.97 32.0852 136.629 31.9982 136.341 31.8242C136.055 31.6484 135.835 31.4034 135.68 31.0891C135.526 30.7731 135.449 30.4055 135.449 29.9865C135.449 29.5657 135.526 29.1955 135.68 28.8759C135.835 28.5563 136.051 28.3068 136.328 28.1275C136.606 27.9464 136.932 27.8558 137.305 27.8558C137.524 27.8558 137.737 27.8922 137.947 27.965C138.157 28.0378 138.347 28.1541 138.517 28.3139C138.689 28.4737 138.825 28.6841 138.924 28.9451C139.026 29.2061 139.076 29.5257 139.076 29.9039V30.1756H135.896V29.6163H138.397C138.397 29.3926 138.352 29.1928 138.261 29.017C138.172 28.8395 138.046 28.7001 137.883 28.5989C137.72 28.4977 137.527 28.4471 137.305 28.4471C137.062 28.4471 136.851 28.5066 136.674 28.6255C136.498 28.7445 136.362 28.8999 136.266 29.0916C136.171 29.2816 136.123 29.4867 136.123 29.7069V30.0984C136.123 30.3967 136.175 30.6497 136.28 30.8574C136.384 31.0652 136.53 31.2232 136.717 31.3315C136.903 31.4398 137.12 31.494 137.369 31.494C137.531 31.494 137.676 31.4709 137.806 31.4247C137.937 31.3786 138.051 31.3093 138.147 31.217C138.243 31.1246 138.316 31.0092 138.368 30.8707L139.018 31.0305C138.954 31.2418 138.845 31.4265 138.693 31.5845C138.542 31.7425 138.354 31.8659 138.128 31.9547C137.903 32.0417 137.649 32.0852 137.366 32.0852Z" fill="white"/>
<path fill-rule="evenodd" clip-rule="evenodd" d="M0.485452 0.487963L0 0.975727V16.6563C0 31.5948 0.0172039 32.3522 0.361667 32.6657C0.665396 32.942 1.21412 32.9946 3.79404 32.9946H6.86475L7.01068 22.808C7.09096 17.2055 7.19794 12.5543 7.24816 12.4724C7.29859 12.3903 9.94396 12.3233 13.127 12.3233C19.6324 12.3233 19.1304 12.437 20.1479 10.7332C20.5371 10.0819 20.5636 9.75489 20.5642 5.59975L20.565 1.16197L20.1479 0.537632L19.409 0H10.1897H0.970707L0.485452 0.487963ZM23.4134 0.418197C23.0549 0.816121 23.034 1.32714 22.9804 10.9528C22.941 18.024 22.9895 21.1919 23.1413 21.4771C23.2608 21.7015 23.642 22.0589 23.9886 22.2714C24.59 22.6399 25.063 22.6576 34.3573 22.6582L44.096 22.659V21.0689V19.4788H37.3136C32.302 19.4788 30.4692 19.4166 30.2938 19.2403C30.1281 19.0737 30.0565 17.9946 30.0565 15.6625V12.3233H37.0763H44.096V10.932V9.54062H37.0626H30.0292L30.0923 6.34233C30.1532 3.25772 30.172 3.13071 30.6222 2.76459C31.0604 2.40841 31.4867 2.38515 37.5926 2.38515H44.096V1.19258V0H33.9431C23.8738 0 23.7869 0.003379 23.4134 0.418197ZM47.0127 0.214664C46.0895 0.7551 46.0734 0.94989 46.0734 11.6V21.6298L46.6819 22.1444C47.2769 22.6476 47.3552 22.659 50.2373 22.659H53.1842L53.2376 18.4716L53.291 14.2845L56.3419 18.4716L59.3928 22.659H64.2021C66.847 22.659 69.0113 22.6111 69.0113 22.5524C69.0113 22.494 67.2316 20.2186 65.0565 17.4961C62.8814 14.7737 61.1017 12.4513 61.1017 12.3352C61.1017 12.1991 61.9043 12.1245 63.3729 12.1245H65.6442L66.1907 11.2951C66.7327 10.4724 66.7379 10.4345 66.8006 6.67386C66.8775 2.05084 66.7857 1.31005 66.0434 0.56389L65.4824 0L56.4206 0.00596302C50.6343 0.00993828 47.2336 0.0852693 47.0127 0.214664ZM71.5204 0.128004C71.4455 0.203335 71.3842 5.25887 71.3842 11.3627V22.4602H72.3729H73.3616V13.3767C73.3616 7.56074 73.43 4.36205 73.5518 4.48449C73.6564 4.58963 76.3611 8.69946 79.5621 13.6176L85.3822 22.5596L89.2589 22.6135L93.1356 22.6673V11.3337V0H91.9513H90.7669L90.7155 8.66268L90.6638 17.3252L84.5254 8.71237L78.387 0.0993815L75.0218 0.0451194C73.1712 0.015305 71.5956 0.0526724 71.5204 0.128004ZM95.7863 0.418197C95.4278 0.816319 95.407 1.32595 95.3548 10.9558C95.3171 17.9803 95.3661 21.1991 95.5158 21.4803C95.6344 21.7029 96.0149 22.0589 96.3615 22.2714C96.9625 22.6397 97.4349 22.6576 106.631 22.6582L116.271 22.659V21.0689V19.4788H109.588C104.653 19.4788 102.842 19.4164 102.667 19.2403C102.501 19.0737 102.429 17.9946 102.429 15.6625V12.3233H109.35H116.271V10.932V9.54062H109.35H102.429V6.45085C102.429 3.43522 102.441 3.34915 102.915 2.87312L103.4 2.38515H109.836H116.271V1.19258V0H106.217C96.248 0 96.1598 0.00357777 95.7863 0.418197ZM122.044 0.514796C120.873 1.10115 120.108 1.94708 119.362 3.47895C118.503 5.24118 118.414 6.12369 118.482 12.1623C118.538 17.1196 118.588 17.8755 118.904 18.5148C119.638 19.9954 121.371 21.3302 123.529 22.0768C124.55 22.4298 125.247 22.4602 132.319 22.4602H140V20.9806V19.5012L134.315 19.4402C128.865 19.382 128.596 19.3609 127.801 18.934C126.879 18.4384 126.13 17.539 125.79 16.5174C125.495 15.6311 125.482 6.21015 125.775 5.42921C126.029 4.75222 127.008 3.69977 127.903 3.14185C128.516 2.76002 128.948 2.72524 134.28 2.62904L140 2.52588V1.26294V0H131.536H123.072L122.044 0.514796ZM60.6918 3.70395C61.0497 4.1611 61.1017 4.50337 61.1017 6.39619C61.1017 8.43371 61.0724 8.59431 60.6162 9.05266C60.1369 9.53466 60.0875 9.54062 56.5626 9.54062H52.9944V6.36041V3.18021H56.6381H60.2821L60.6918 3.70395ZM12.8784 4.08776C14.6593 5.0134 14.7034 9.26891 12.9389 9.94311C12.6601 10.0497 11.1474 10.1369 9.57754 10.1369H6.72316V6.9567V3.7765H9.50141C11.6364 3.7765 12.4183 3.84865 12.8784 4.08776Z" fill="#00AEEF"/>
</svg>
