<?xml version="1.0" encoding="utf-8"?>
<!-- Generator: Adobe Illustrator 28.3.0, SVG Export Plug-In . SVG Version: 6.00 Build 0)  -->
<svg version="1.1" xmlns="http://www.w3.org/2000/svg" xmlns:xlink="http://www.w3.org/1999/xlink" x="0px" y="0px"
	 viewBox="0 0 230 80" style="enable-background:new 0 0 230 80;" xml:space="preserve">
<style type="text/css">
	.st0{display:none;}
	.st1{fill:#00AEEF;}
	.st2{display:none;fill:#00AEEF;}
	.st3{fill:#FFFFFF;}
	.st4{display:none;fill:#FFFFFF;}
</style>
<g id="Layer_1">
</g>
<g id="Layer_2">
	<path class="st1" d="M38.25,16.98c-0.27-2.18-2.01-2.49-2.25-2.52c-0.02,0-0.03,0-0.05,0H8.03c-0.04,0-0.08,0.01-0.12,0.02
		C6.67,14.88,6.1,16.25,6.1,16.6c-0.01,0.49,0,0.71,0,0.75v46.47c0,0.03,0,0.07,0.01,0.1c0.27,1.27,1.59,1.69,1.86,1.77
		c0.03,0.01,0.07,0.01,0.1,0.01h8.69c0.22,0,0.4-0.18,0.4-0.4l0.18-31.17c0-0.22,0.18-0.4,0.4-0.4h17.05
		c1.85-0.08,3.23-3.42,3.44-3.95c0.02-0.05,0.03-0.1,0.03-0.15V17.04C38.25,17.02,38.25,17,38.25,16.98z M28.07,27.79
		c-0.22,0.64-0.6,1.28-1.16,1.68c-0.57,0.41-1.2,0.56-1.9,0.6c-0.82,0.05-1.38,0.04-2.22,0.04c-0.69,0-1.37,0.02-2.07,0.01
		c-1.3-0.02-2.6,0.02-3.89,0.02c0,0-0.03,0-0.03,0c0,0,0-9.77,0-9.77c0-0.01,0.01-0.02,0.02-0.02c1.36,0,2.71,0,4.07,0
		c1.94,0,4.48-0.4,6.06,1.03c0.56,0.51,0.9,1.23,1.08,1.97c0.19,0.81,0.2,1.64,0.22,2.46C28.28,26.49,28.3,27.14,28.07,27.79z"/>
	<path class="st1" d="M41.86,46.6l0.05-29.7c0,0,0.17-2.57,2-2.57h30.81v3.94c-0.41,0-0.82,0-1.23,0c-1.05,0-2.09,0-3.14,0
		c-1.41,0-2.81,0-4.22,0c-1.5,0-2.99,0-4.49,0c-1.31,0-2.62,0-3.93,0c-0.85,0-1.7,0-2.55,0c-0.45,0-0.82,0.08-1.19,0.4
		c-0.54,0.47-0.87,1.09-0.91,1.8c-0.06,0.9-0.02,1.8-0.03,2.69c-0.02,1.54-0.03,3.09-0.05,4.63c0,0.48-0.01,0.95-0.01,1.43
		l21.73,0.01v4.25H55.01h-1.92l-0.13,9.32c0,0-0.31,1.86,1.72,1.82l20.04-0.04v4.98H44.78C44.78,49.57,41.85,48.8,41.86,46.6z"/>
	<path class="st1" d="M100.89,33.45h6.51c1.58-0.14,2.6-3.29,2.6-3.29V17.56c0-2.33-2.6-3.22-2.6-3.22H80.61
		c-2.12,0-2.81,2.53-2.81,2.53s-0.07,29.18,0,30.62c0.07,1.44,2.19,2.08,2.19,2.08h8.91V36.53l9.52,13.04h15.41L100.89,33.45z
		 M100.22,28.71c-0.87,0.69-2.03,0.5-3.07,0.5c-1.04,0-2.09,0-3.13,0c-1.7,0-3.41,0-5.11,0c-0.05,0-0.1,0-0.15,0v-9.8
		c1.27,0,2.54,0,3.8,0c1.94,0,3.88,0,5.82,0c0.57,0,1-0.04,1.48,0.31c0.4,0.29,0.75,0.66,0.99,1.1c0.46,0.84,0.27,1.8,0.27,2.72
		c0,1.01,0,2.03,0,3.04C101.13,27.42,100.92,28.16,100.22,28.71z"/>
	<path class="st1" d="M116.88,49.32l0.1-34.09c0,0,0-0.86,0.89-0.89h9.97l19.28,26.89V14.34h3.84v35.32h-12.02l-18.61-28.49l0,28.18
		L116.88,49.32z"/>
	<path class="st1" d="M154.21,46.6l0.05-29.7c0,0,0.17-2.57,2-2.57h30.81v3.94c-0.41,0-0.82,0-1.23,0c-1.05,0-2.09,0-3.14,0
		c-1.41,0-2.81,0-4.22,0c-1.5,0-2.99,0-4.49,0c-1.31,0-2.62,0-3.93,0c-0.85,0-1.7,0-2.55,0c-0.45,0-0.82,0.08-1.19,0.4
		c-0.54,0.47-0.87,1.09-0.91,1.8c-0.06,0.9-0.02,1.8-0.03,2.69c-0.02,1.54-0.03,3.09-0.05,4.63c0,0.48-0.01,0.95-0.01,1.43
		l21.73,0.01v4.25h-19.71h-1.92l-0.13,9.32c0,0-0.31,1.86,1.72,1.82l20.04-0.04v4.98h-29.94C157.13,49.57,154.21,48.8,154.21,46.6z"
		/>
	<path class="st1" d="M190.24,23.72c0,0,1.55-9.32,8.81-9.39c7.26-0.07,24.85,0,24.85,0v4.22l-16.58,0.23h-1.1
		c0,0-4.93,1.78-4.93,5.94v13.7c0,0,0.3,6.05,7.35,6.12c7.06,0.07,15.25,0,15.25,0v4.8h-23.84c0,0-9.77-2.19-9.82-8.86V23.72z"/>
	<g>
		<g>
			<path class="st3" d="M38.43,62.33c0,0.07,0,0.14-0.01,0.2c-0.01,0.06-0.02,0.1-0.04,0.14s-0.04,0.06-0.07,0.08
				s-0.06,0.02-0.09,0.02h-3.88c-0.1,0-0.19-0.03-0.27-0.1s-0.13-0.18-0.13-0.34v-7.21c0-0.16,0.04-0.28,0.13-0.34
				c0.09-0.06,0.18-0.1,0.27-0.1h3.83c0.03,0,0.06,0.01,0.09,0.02s0.05,0.04,0.07,0.08s0.03,0.08,0.04,0.14
				c0.01,0.06,0.02,0.13,0.02,0.21c0,0.07-0.01,0.14-0.02,0.2c-0.01,0.06-0.02,0.1-0.04,0.14c-0.02,0.04-0.04,0.06-0.07,0.08
				c-0.03,0.02-0.06,0.02-0.09,0.02h-3.16v2.54h2.71c0.03,0,0.06,0.01,0.09,0.03c0.03,0.02,0.05,0.04,0.07,0.08
				c0.02,0.03,0.03,0.08,0.04,0.14c0.01,0.06,0.01,0.13,0.01,0.21c0,0.07,0,0.14-0.01,0.19s-0.02,0.1-0.04,0.13
				c-0.02,0.03-0.04,0.06-0.07,0.07c-0.03,0.01-0.06,0.02-0.09,0.02h-2.71v2.89h3.2c0.03,0,0.06,0.01,0.09,0.02s0.05,0.04,0.07,0.08
				c0.02,0.04,0.04,0.08,0.04,0.14C38.43,62.17,38.43,62.24,38.43,62.33z"/>
			<path class="st3" d="M45.22,62.61c0,0.03-0.01,0.06-0.02,0.08s-0.04,0.04-0.08,0.06c-0.04,0.02-0.09,0.03-0.16,0.04
				c-0.07,0.01-0.15,0.01-0.25,0.01c-0.1,0-0.19,0-0.26-0.01c-0.07-0.01-0.12-0.02-0.16-0.04c-0.04-0.02-0.06-0.04-0.08-0.06
				s-0.02-0.05-0.02-0.08v-3.29c0-0.32-0.02-0.58-0.07-0.77c-0.05-0.2-0.12-0.36-0.22-0.51c-0.1-0.14-0.22-0.25-0.37-0.32
				c-0.15-0.07-0.33-0.11-0.53-0.11c-0.26,0-0.52,0.09-0.77,0.27c-0.26,0.18-0.53,0.45-0.81,0.81v3.93c0,0.03-0.01,0.06-0.02,0.08
				s-0.04,0.04-0.08,0.06c-0.04,0.02-0.09,0.03-0.16,0.04c-0.07,0.01-0.15,0.01-0.26,0.01c-0.1,0-0.18,0-0.25-0.01
				c-0.07-0.01-0.12-0.02-0.16-0.04c-0.04-0.02-0.07-0.04-0.08-0.06c-0.01-0.02-0.02-0.05-0.02-0.08v-5.62
				c0-0.03,0.01-0.06,0.02-0.08c0.01-0.02,0.04-0.04,0.07-0.06c0.04-0.02,0.09-0.03,0.14-0.04c0.06-0.01,0.14-0.01,0.23-0.01
				c0.09,0,0.17,0,0.23,0.01c0.06,0.01,0.11,0.02,0.14,0.04c0.03,0.02,0.06,0.04,0.07,0.06c0.01,0.02,0.02,0.05,0.02,0.08v0.74
				c0.32-0.35,0.63-0.61,0.95-0.78c0.31-0.16,0.63-0.25,0.95-0.25c0.37,0,0.69,0.06,0.95,0.19c0.26,0.13,0.46,0.3,0.62,0.51
				s0.27,0.46,0.34,0.75c0.07,0.29,0.1,0.63,0.1,1.03V62.61z"/>
			<path class="st3" d="M51.65,62.62c0,0.05-0.02,0.09-0.05,0.11c-0.03,0.02-0.08,0.04-0.14,0.06c-0.06,0.01-0.14,0.02-0.26,0.02
				c-0.11,0-0.19-0.01-0.26-0.02c-0.06-0.01-0.11-0.03-0.14-0.06c-0.03-0.02-0.04-0.06-0.04-0.11v-0.56
				c-0.25,0.26-0.52,0.47-0.82,0.61c-0.3,0.15-0.62,0.22-0.96,0.22c-0.3,0-0.56-0.04-0.8-0.12c-0.24-0.08-0.44-0.19-0.61-0.33
				s-0.3-0.32-0.39-0.54s-0.14-0.45-0.14-0.72c0-0.32,0.06-0.59,0.19-0.82s0.31-0.43,0.56-0.58c0.24-0.15,0.54-0.27,0.89-0.35
				c0.35-0.08,0.74-0.12,1.18-0.12h0.77v-0.44c0-0.22-0.02-0.41-0.07-0.57c-0.05-0.17-0.12-0.3-0.22-0.42
				c-0.1-0.11-0.23-0.19-0.4-0.25c-0.16-0.06-0.36-0.08-0.6-0.08c-0.25,0-0.48,0.03-0.68,0.09c-0.2,0.06-0.38,0.13-0.53,0.2
				c-0.15,0.07-0.28,0.14-0.38,0.2s-0.18,0.09-0.23,0.09c-0.03,0-0.06-0.01-0.09-0.02c-0.02-0.02-0.05-0.04-0.07-0.07
				c-0.02-0.03-0.03-0.08-0.04-0.13c-0.01-0.05-0.01-0.11-0.01-0.17c0-0.1,0.01-0.19,0.02-0.25c0.01-0.06,0.05-0.12,0.11-0.17
				c0.06-0.05,0.15-0.12,0.29-0.19c0.14-0.07,0.3-0.14,0.47-0.2c0.18-0.06,0.37-0.11,0.59-0.15c0.21-0.04,0.43-0.06,0.64-0.06
				c0.4,0,0.75,0.05,1.03,0.14c0.28,0.09,0.51,0.23,0.69,0.4c0.17,0.18,0.3,0.4,0.38,0.66c0.08,0.26,0.12,0.57,0.12,0.92V62.62z
				 M50.63,60.05h-0.88c-0.28,0-0.53,0.02-0.74,0.07c-0.21,0.05-0.38,0.12-0.52,0.21c-0.14,0.09-0.24,0.21-0.3,0.34
				c-0.06,0.13-0.1,0.28-0.1,0.45c0,0.29,0.09,0.52,0.28,0.7s0.44,0.26,0.78,0.26c0.27,0,0.52-0.07,0.75-0.21
				c0.23-0.14,0.47-0.35,0.73-0.63V60.05z"/>
			<path class="st3" d="M59.03,59.73c0,0.49-0.05,0.93-0.16,1.31c-0.11,0.39-0.26,0.72-0.47,1c-0.21,0.27-0.46,0.48-0.76,0.63
				c-0.3,0.15-0.64,0.22-1.03,0.22c-0.18,0-0.34-0.02-0.5-0.05c-0.15-0.04-0.3-0.09-0.45-0.17c-0.15-0.08-0.29-0.18-0.44-0.3
				s-0.3-0.27-0.46-0.44v0.69c0,0.03-0.01,0.06-0.02,0.09c-0.02,0.02-0.04,0.04-0.08,0.06c-0.04,0.01-0.08,0.03-0.14,0.03
				c-0.06,0.01-0.13,0.01-0.22,0.01c-0.08,0-0.15,0-0.21-0.01c-0.06-0.01-0.11-0.02-0.14-0.03c-0.04-0.01-0.06-0.03-0.07-0.06
				c-0.01-0.02-0.02-0.05-0.02-0.09v-8.34c0-0.03,0.01-0.06,0.02-0.09c0.01-0.02,0.04-0.05,0.08-0.06s0.09-0.03,0.16-0.04
				c0.07-0.01,0.15-0.01,0.25-0.01c0.1,0,0.19,0,0.26,0.01c0.07,0.01,0.12,0.02,0.16,0.04s0.06,0.04,0.08,0.06
				c0.02,0.02,0.02,0.05,0.02,0.09v3.37c0.17-0.17,0.33-0.31,0.48-0.43c0.16-0.12,0.31-0.21,0.46-0.28c0.15-0.07,0.3-0.13,0.45-0.16
				c0.15-0.03,0.31-0.05,0.47-0.05c0.41,0,0.76,0.08,1.05,0.24s0.52,0.38,0.71,0.65c0.18,0.27,0.31,0.59,0.4,0.96
				C58.99,58.93,59.03,59.32,59.03,59.73z M57.97,59.85c0-0.29-0.02-0.57-0.07-0.84c-0.04-0.27-0.12-0.51-0.23-0.72
				c-0.11-0.21-0.25-0.38-0.43-0.5c-0.18-0.13-0.4-0.19-0.67-0.19c-0.13,0-0.27,0.02-0.4,0.06c-0.13,0.04-0.26,0.1-0.4,0.19
				c-0.13,0.09-0.27,0.2-0.42,0.34c-0.14,0.14-0.3,0.31-0.46,0.52v2.24c0.28,0.35,0.56,0.61,0.82,0.79
				c0.26,0.18,0.53,0.27,0.81,0.27c0.26,0,0.48-0.06,0.67-0.19s0.33-0.29,0.45-0.5c0.12-0.21,0.2-0.44,0.25-0.69
				C57.94,60.37,57.97,60.11,57.97,59.85z"/>
			<path class="st3" d="M61.93,62.61c0,0.03-0.01,0.06-0.02,0.08s-0.04,0.04-0.08,0.06c-0.04,0.02-0.09,0.03-0.16,0.04
				c-0.07,0.01-0.15,0.01-0.26,0.01c-0.1,0-0.18,0-0.25-0.01c-0.07-0.01-0.12-0.02-0.16-0.04c-0.04-0.02-0.07-0.04-0.08-0.06
				c-0.01-0.02-0.02-0.05-0.02-0.08v-8.34c0-0.03,0.01-0.06,0.02-0.09c0.01-0.02,0.04-0.05,0.08-0.06c0.04-0.02,0.09-0.03,0.16-0.04
				c0.07-0.01,0.15-0.01,0.25-0.01c0.1,0,0.19,0,0.26,0.01c0.07,0.01,0.12,0.02,0.16,0.04s0.06,0.04,0.08,0.06
				c0.02,0.02,0.02,0.05,0.02,0.09V62.61z"/>
			<path class="st3" d="M65.31,55.1c0,0.24-0.05,0.41-0.14,0.49c-0.09,0.09-0.26,0.13-0.51,0.13c-0.24,0-0.41-0.04-0.5-0.13
				c-0.09-0.09-0.13-0.25-0.13-0.48c0-0.24,0.05-0.41,0.14-0.49c0.09-0.09,0.26-0.13,0.51-0.13c0.24,0,0.41,0.04,0.5,0.13
				C65.26,54.7,65.31,54.86,65.31,55.1z M65.19,62.61c0,0.03-0.01,0.06-0.02,0.08c-0.02,0.02-0.04,0.04-0.08,0.06
				c-0.04,0.02-0.09,0.03-0.16,0.04c-0.07,0.01-0.15,0.01-0.26,0.01c-0.1,0-0.18,0-0.25-0.01c-0.07-0.01-0.12-0.02-0.16-0.04
				c-0.04-0.02-0.07-0.04-0.08-0.06s-0.02-0.05-0.02-0.08v-5.62c0-0.03,0.01-0.06,0.02-0.08s0.04-0.05,0.08-0.06
				c0.04-0.02,0.09-0.03,0.16-0.04c0.07-0.01,0.15-0.01,0.25-0.01c0.1,0,0.19,0,0.26,0.01c0.07,0.01,0.12,0.02,0.16,0.04
				c0.04,0.02,0.06,0.04,0.08,0.06c0.02,0.02,0.02,0.05,0.02,0.08V62.61z"/>
			<path class="st3" d="M72.25,62.61c0,0.03-0.01,0.06-0.02,0.08c-0.02,0.02-0.04,0.04-0.08,0.06c-0.04,0.02-0.09,0.03-0.16,0.04
				c-0.07,0.01-0.15,0.01-0.25,0.01c-0.1,0-0.19,0-0.26-0.01c-0.07-0.01-0.12-0.02-0.16-0.04c-0.04-0.02-0.06-0.04-0.08-0.06
				c-0.02-0.02-0.02-0.05-0.02-0.08v-3.29c0-0.32-0.02-0.58-0.07-0.77c-0.05-0.2-0.12-0.36-0.22-0.51s-0.22-0.25-0.37-0.32
				c-0.15-0.07-0.33-0.11-0.53-0.11c-0.26,0-0.52,0.09-0.77,0.27c-0.26,0.18-0.53,0.45-0.81,0.81v3.93c0,0.03-0.01,0.06-0.02,0.08
				c-0.02,0.02-0.04,0.04-0.08,0.06c-0.04,0.02-0.09,0.03-0.16,0.04c-0.07,0.01-0.15,0.01-0.26,0.01c-0.1,0-0.18,0-0.25-0.01
				c-0.07-0.01-0.12-0.02-0.16-0.04c-0.04-0.02-0.07-0.04-0.08-0.06s-0.02-0.05-0.02-0.08v-5.62c0-0.03,0.01-0.06,0.02-0.08
				c0.01-0.02,0.04-0.04,0.07-0.06c0.04-0.02,0.09-0.03,0.14-0.04c0.06-0.01,0.14-0.01,0.23-0.01c0.09,0,0.17,0,0.23,0.01
				c0.06,0.01,0.11,0.02,0.14,0.04c0.03,0.02,0.06,0.04,0.07,0.06c0.01,0.02,0.02,0.05,0.02,0.08v0.74
				c0.32-0.35,0.63-0.61,0.95-0.78c0.31-0.16,0.63-0.25,0.95-0.25c0.37,0,0.69,0.06,0.95,0.19c0.26,0.13,0.46,0.3,0.62,0.51
				c0.16,0.21,0.27,0.46,0.34,0.75c0.07,0.29,0.1,0.63,0.1,1.03V62.61z"/>
			<path class="st3" d="M79.14,57.25c0,0.15-0.02,0.25-0.06,0.32c-0.04,0.06-0.09,0.1-0.15,0.1h-0.81c0.15,0.15,0.25,0.32,0.31,0.5
				c0.06,0.18,0.09,0.37,0.09,0.57c0,0.32-0.05,0.61-0.16,0.86c-0.1,0.25-0.25,0.46-0.45,0.63c-0.19,0.17-0.42,0.31-0.69,0.4
				c-0.27,0.09-0.56,0.14-0.89,0.14c-0.23,0-0.45-0.03-0.65-0.09c-0.21-0.06-0.37-0.14-0.48-0.23c-0.07,0.07-0.14,0.16-0.18,0.26
				c-0.05,0.1-0.07,0.21-0.07,0.33c0,0.15,0.07,0.27,0.2,0.36c0.14,0.1,0.32,0.15,0.54,0.16l1.47,0.06
				c0.28,0.01,0.53,0.05,0.77,0.12c0.23,0.07,0.44,0.17,0.61,0.29c0.17,0.13,0.3,0.28,0.4,0.47c0.1,0.19,0.14,0.4,0.14,0.65
				c0,0.26-0.05,0.5-0.16,0.74s-0.27,0.44-0.5,0.61c-0.22,0.18-0.51,0.32-0.85,0.42c-0.35,0.1-0.75,0.15-1.22,0.15
				c-0.45,0-0.84-0.04-1.16-0.12c-0.32-0.08-0.58-0.18-0.78-0.32s-0.35-0.29-0.44-0.48s-0.14-0.39-0.14-0.6
				c0-0.14,0.02-0.27,0.05-0.4c0.03-0.13,0.08-0.25,0.15-0.37c0.07-0.12,0.15-0.23,0.26-0.33c0.1-0.11,0.22-0.21,0.35-0.32
				c-0.2-0.1-0.35-0.24-0.45-0.39s-0.15-0.33-0.15-0.51c0-0.25,0.05-0.48,0.16-0.68c0.1-0.2,0.23-0.38,0.39-0.54
				c-0.13-0.15-0.23-0.33-0.31-0.52c-0.07-0.19-0.11-0.43-0.11-0.7c0-0.32,0.05-0.61,0.16-0.86s0.26-0.47,0.45-0.64
				c0.19-0.17,0.42-0.31,0.69-0.4c0.27-0.09,0.56-0.14,0.88-0.14c0.17,0,0.33,0.01,0.48,0.03c0.15,0.02,0.29,0.04,0.42,0.08h1.7
				c0.07,0,0.12,0.03,0.16,0.1C79.13,57,79.14,57.11,79.14,57.25z M78.05,63.18c0-0.24-0.1-0.43-0.3-0.56
				c-0.2-0.13-0.47-0.2-0.8-0.21l-1.45-0.05c-0.13,0.1-0.24,0.2-0.33,0.3c-0.09,0.09-0.15,0.18-0.2,0.27
				c-0.05,0.09-0.08,0.17-0.1,0.25c-0.02,0.08-0.03,0.17-0.03,0.26c0,0.27,0.14,0.48,0.41,0.61c0.27,0.14,0.66,0.21,1.15,0.21
				c0.31,0,0.57-0.03,0.78-0.09c0.21-0.06,0.38-0.14,0.51-0.24c0.13-0.1,0.22-0.21,0.28-0.34C78.02,63.46,78.05,63.32,78.05,63.18z
				 M77.53,58.73c0-0.38-0.11-0.68-0.32-0.9c-0.21-0.21-0.51-0.32-0.9-0.32c-0.2,0-0.37,0.03-0.52,0.1
				c-0.15,0.07-0.27,0.16-0.37,0.27c-0.1,0.12-0.17,0.25-0.22,0.4c-0.05,0.15-0.07,0.31-0.07,0.48c0,0.37,0.11,0.66,0.32,0.87
				c0.21,0.21,0.5,0.32,0.88,0.32c0.2,0,0.38-0.03,0.53-0.1s0.27-0.15,0.37-0.27c0.1-0.11,0.17-0.25,0.22-0.4
				C77.51,59.05,77.53,58.89,77.53,58.73z"/>
			<path class="st3" d="M89.08,57.06c0,0.4-0.07,0.77-0.2,1.09c-0.13,0.32-0.32,0.6-0.57,0.83s-0.55,0.41-0.91,0.53
				s-0.79,0.19-1.29,0.19h-0.92v2.91c0,0.03-0.01,0.06-0.03,0.09c-0.02,0.02-0.05,0.04-0.09,0.06c-0.04,0.01-0.09,0.03-0.16,0.04
				c-0.07,0.01-0.16,0.02-0.26,0.02s-0.19-0.01-0.26-0.02c-0.07-0.01-0.12-0.02-0.17-0.04c-0.04-0.01-0.07-0.03-0.09-0.06
				c-0.02-0.02-0.02-0.05-0.02-0.09v-7.46c0-0.17,0.04-0.29,0.13-0.36s0.19-0.11,0.29-0.11h1.73c0.17,0,0.34,0.01,0.5,0.02
				c0.16,0.01,0.35,0.05,0.57,0.09c0.22,0.05,0.44,0.14,0.67,0.27c0.23,0.13,0.42,0.29,0.58,0.48c0.16,0.19,0.28,0.41,0.37,0.66
				C89.04,56.48,89.08,56.75,89.08,57.06z M87.95,57.14c0-0.33-0.06-0.6-0.18-0.82c-0.12-0.22-0.27-0.39-0.46-0.49
				c-0.18-0.11-0.37-0.18-0.56-0.21c-0.19-0.03-0.38-0.04-0.57-0.04h-0.99v3.24h0.97c0.32,0,0.59-0.04,0.81-0.12
				c0.21-0.08,0.39-0.2,0.54-0.35c0.15-0.15,0.26-0.32,0.33-0.53C87.91,57.61,87.95,57.39,87.95,57.14z"/>
			<path class="st3" d="M95.9,59.74c0,0.46-0.06,0.88-0.18,1.26c-0.12,0.39-0.3,0.72-0.54,1c-0.24,0.28-0.54,0.5-0.9,0.65
				c-0.36,0.16-0.78,0.23-1.25,0.23c-0.46,0-0.86-0.07-1.21-0.21c-0.34-0.14-0.63-0.34-0.86-0.6c-0.23-0.26-0.4-0.58-0.51-0.96
				c-0.11-0.37-0.17-0.8-0.17-1.27c0-0.46,0.06-0.88,0.18-1.26s0.3-0.72,0.54-1c0.24-0.28,0.54-0.5,0.9-0.65
				c0.36-0.15,0.78-0.23,1.26-0.23c0.46,0,0.86,0.07,1.21,0.21c0.34,0.14,0.63,0.34,0.86,0.6c0.23,0.26,0.4,0.58,0.52,0.96
				S95.9,59.27,95.9,59.74z M94.83,59.81c0-0.3-0.03-0.59-0.09-0.86c-0.06-0.27-0.15-0.51-0.28-0.71c-0.13-0.2-0.31-0.37-0.53-0.48
				c-0.22-0.12-0.5-0.18-0.83-0.18c-0.31,0-0.57,0.05-0.79,0.16c-0.22,0.11-0.4,0.26-0.54,0.46c-0.14,0.2-0.25,0.43-0.32,0.7
				c-0.07,0.27-0.1,0.57-0.1,0.89c0,0.31,0.03,0.6,0.09,0.87c0.06,0.27,0.15,0.51,0.28,0.71c0.13,0.2,0.31,0.36,0.53,0.48
				c0.22,0.12,0.5,0.18,0.83,0.18c0.3,0,0.56-0.05,0.79-0.16c0.22-0.11,0.41-0.26,0.55-0.46c0.14-0.2,0.25-0.43,0.31-0.7
				C94.79,60.43,94.83,60.14,94.83,59.81z"/>
			<path class="st3" d="M101.26,61.08c0,0.29-0.05,0.54-0.16,0.77c-0.11,0.22-0.26,0.41-0.45,0.57c-0.2,0.15-0.43,0.27-0.7,0.35
				c-0.27,0.08-0.57,0.12-0.89,0.12c-0.2,0-0.39-0.02-0.57-0.05c-0.18-0.03-0.34-0.07-0.49-0.12c-0.14-0.05-0.27-0.1-0.37-0.15
				c-0.1-0.05-0.17-0.1-0.22-0.14c-0.05-0.04-0.08-0.1-0.1-0.17c-0.02-0.07-0.03-0.18-0.03-0.31c0-0.08,0-0.15,0.01-0.2
				c0.01-0.05,0.02-0.1,0.03-0.13s0.03-0.06,0.05-0.07c0.02-0.01,0.05-0.02,0.08-0.02c0.05,0,0.11,0.03,0.2,0.08
				c0.09,0.06,0.2,0.12,0.33,0.18c0.13,0.07,0.29,0.13,0.47,0.18c0.18,0.06,0.39,0.08,0.62,0.08c0.17,0,0.33-0.02,0.47-0.06
				c0.14-0.04,0.26-0.09,0.37-0.17c0.1-0.07,0.18-0.17,0.24-0.28c0.06-0.11,0.08-0.25,0.08-0.4c0-0.16-0.04-0.29-0.12-0.4
				c-0.08-0.11-0.19-0.2-0.32-0.29c-0.13-0.08-0.28-0.16-0.45-0.22c-0.17-0.06-0.34-0.13-0.52-0.2c-0.18-0.07-0.35-0.15-0.52-0.24
				c-0.17-0.09-0.32-0.2-0.45-0.33c-0.13-0.13-0.24-0.28-0.32-0.46c-0.08-0.18-0.12-0.39-0.12-0.64c0-0.22,0.04-0.43,0.13-0.63
				c0.09-0.2,0.21-0.38,0.38-0.53s0.38-0.27,0.64-0.37c0.26-0.09,0.55-0.14,0.9-0.14c0.15,0,0.3,0.01,0.45,0.04
				c0.15,0.02,0.29,0.06,0.41,0.09c0.12,0.04,0.22,0.08,0.31,0.12c0.09,0.04,0.15,0.08,0.19,0.12s0.07,0.06,0.09,0.09
				c0.01,0.02,0.02,0.05,0.03,0.08c0.01,0.03,0.01,0.07,0.02,0.12c0.01,0.05,0.01,0.1,0.01,0.17c0,0.07,0,0.13-0.01,0.18
				c-0.01,0.05-0.02,0.09-0.03,0.13c-0.01,0.03-0.03,0.06-0.05,0.07c-0.02,0.01-0.04,0.02-0.07,0.02c-0.04,0-0.09-0.02-0.16-0.07
				c-0.07-0.05-0.16-0.09-0.27-0.15c-0.11-0.05-0.24-0.1-0.4-0.15c-0.15-0.05-0.33-0.07-0.52-0.07c-0.17,0-0.33,0.02-0.46,0.06
				c-0.13,0.04-0.24,0.1-0.33,0.17c-0.09,0.07-0.15,0.16-0.19,0.26c-0.04,0.1-0.07,0.21-0.07,0.32c0,0.16,0.04,0.3,0.12,0.41
				c0.08,0.11,0.19,0.21,0.32,0.29c0.13,0.08,0.29,0.16,0.46,0.22s0.34,0.14,0.52,0.21c0.18,0.07,0.35,0.15,0.52,0.24
				s0.33,0.19,0.46,0.32c0.13,0.12,0.24,0.27,0.32,0.45C101.22,60.64,101.26,60.84,101.26,61.08z"/>
			<path class="st3" d="M106.58,61.08c0,0.29-0.05,0.54-0.16,0.77c-0.11,0.22-0.26,0.41-0.45,0.57c-0.2,0.15-0.43,0.27-0.7,0.35
				c-0.27,0.08-0.57,0.12-0.89,0.12c-0.2,0-0.39-0.02-0.57-0.05c-0.18-0.03-0.34-0.07-0.49-0.12c-0.14-0.05-0.27-0.1-0.37-0.15
				s-0.17-0.1-0.22-0.14c-0.05-0.04-0.08-0.1-0.1-0.17c-0.02-0.07-0.03-0.18-0.03-0.31c0-0.08,0-0.15,0.01-0.2
				c0.01-0.05,0.02-0.1,0.03-0.13c0.01-0.03,0.03-0.06,0.05-0.07c0.02-0.01,0.05-0.02,0.08-0.02c0.05,0,0.11,0.03,0.2,0.08
				c0.09,0.06,0.2,0.12,0.33,0.18c0.13,0.07,0.29,0.13,0.47,0.18c0.18,0.06,0.39,0.08,0.62,0.08c0.17,0,0.33-0.02,0.47-0.06
				c0.14-0.04,0.26-0.09,0.37-0.17c0.1-0.07,0.18-0.17,0.24-0.28s0.08-0.25,0.08-0.4c0-0.16-0.04-0.29-0.12-0.4
				c-0.08-0.11-0.19-0.2-0.32-0.29c-0.13-0.08-0.28-0.16-0.45-0.22c-0.17-0.06-0.34-0.13-0.52-0.2c-0.18-0.07-0.35-0.15-0.52-0.24
				c-0.17-0.09-0.32-0.2-0.45-0.33c-0.13-0.13-0.24-0.28-0.32-0.46c-0.08-0.18-0.12-0.39-0.12-0.64c0-0.22,0.04-0.43,0.13-0.63
				c0.09-0.2,0.21-0.38,0.38-0.53c0.17-0.15,0.38-0.27,0.64-0.37c0.26-0.09,0.55-0.14,0.9-0.14c0.15,0,0.3,0.01,0.45,0.04
				c0.15,0.02,0.29,0.06,0.41,0.09c0.12,0.04,0.22,0.08,0.31,0.12c0.09,0.04,0.15,0.08,0.19,0.12s0.07,0.06,0.09,0.09
				c0.01,0.02,0.02,0.05,0.03,0.08c0.01,0.03,0.01,0.07,0.02,0.12s0.01,0.1,0.01,0.17c0,0.07,0,0.13-0.01,0.18
				c-0.01,0.05-0.02,0.09-0.03,0.13c-0.01,0.03-0.03,0.06-0.05,0.07c-0.02,0.01-0.04,0.02-0.07,0.02c-0.04,0-0.09-0.02-0.16-0.07
				c-0.07-0.05-0.16-0.09-0.27-0.15c-0.11-0.05-0.24-0.1-0.4-0.15c-0.15-0.05-0.33-0.07-0.52-0.07c-0.17,0-0.33,0.02-0.46,0.06
				c-0.13,0.04-0.24,0.1-0.33,0.17c-0.09,0.07-0.15,0.16-0.19,0.26c-0.04,0.1-0.07,0.21-0.07,0.32c0,0.16,0.04,0.3,0.12,0.41
				c0.08,0.11,0.19,0.21,0.32,0.29c0.13,0.08,0.29,0.16,0.46,0.22c0.17,0.07,0.34,0.14,0.52,0.21s0.35,0.15,0.52,0.24
				s0.33,0.19,0.46,0.32s0.24,0.27,0.32,0.45C106.54,60.64,106.58,60.84,106.58,61.08z"/>
			<path class="st3" d="M109.52,55.1c0,0.24-0.05,0.41-0.14,0.49c-0.09,0.09-0.26,0.13-0.51,0.13c-0.24,0-0.41-0.04-0.5-0.13
				c-0.09-0.09-0.13-0.25-0.13-0.48c0-0.24,0.05-0.41,0.14-0.49c0.09-0.09,0.26-0.13,0.51-0.13c0.24,0,0.41,0.04,0.5,0.13
				C109.48,54.7,109.52,54.86,109.52,55.1z M109.4,62.61c0,0.03-0.01,0.06-0.02,0.08c-0.02,0.02-0.04,0.04-0.08,0.06
				c-0.04,0.02-0.09,0.03-0.16,0.04c-0.07,0.01-0.15,0.01-0.26,0.01c-0.1,0-0.18,0-0.25-0.01c-0.07-0.01-0.12-0.02-0.16-0.04
				c-0.04-0.02-0.07-0.04-0.08-0.06c-0.01-0.02-0.02-0.05-0.02-0.08v-5.62c0-0.03,0.01-0.06,0.02-0.08
				c0.01-0.02,0.04-0.05,0.08-0.06c0.04-0.02,0.09-0.03,0.16-0.04c0.07-0.01,0.15-0.01,0.25-0.01c0.1,0,0.19,0,0.26,0.01
				c0.07,0.01,0.12,0.02,0.16,0.04c0.04,0.02,0.06,0.04,0.08,0.06c0.02,0.02,0.02,0.05,0.02,0.08V62.61z"/>
			<path class="st3" d="M116.8,59.73c0,0.49-0.05,0.93-0.16,1.31c-0.11,0.39-0.26,0.72-0.47,1c-0.21,0.27-0.46,0.48-0.76,0.63
				c-0.3,0.15-0.64,0.22-1.03,0.22c-0.18,0-0.34-0.02-0.5-0.05c-0.15-0.04-0.3-0.09-0.45-0.17c-0.15-0.08-0.29-0.18-0.44-0.3
				c-0.15-0.12-0.3-0.27-0.46-0.44v0.69c0,0.03-0.01,0.06-0.02,0.09c-0.02,0.02-0.04,0.04-0.08,0.06c-0.04,0.01-0.08,0.03-0.14,0.03
				c-0.06,0.01-0.13,0.01-0.22,0.01c-0.08,0-0.15,0-0.21-0.01c-0.06-0.01-0.11-0.02-0.14-0.03c-0.04-0.01-0.06-0.03-0.07-0.06
				c-0.01-0.02-0.02-0.05-0.02-0.09v-8.34c0-0.03,0.01-0.06,0.02-0.09c0.01-0.02,0.04-0.05,0.08-0.06s0.09-0.03,0.16-0.04
				c0.07-0.01,0.15-0.01,0.25-0.01c0.1,0,0.19,0,0.26,0.01c0.07,0.01,0.12,0.02,0.16,0.04c0.04,0.02,0.06,0.04,0.08,0.06
				c0.02,0.02,0.02,0.05,0.02,0.09v3.37c0.17-0.17,0.33-0.31,0.48-0.43c0.16-0.12,0.31-0.21,0.46-0.28c0.15-0.07,0.3-0.13,0.45-0.16
				c0.15-0.03,0.31-0.05,0.47-0.05c0.41,0,0.76,0.08,1.05,0.24c0.29,0.16,0.52,0.38,0.7,0.65c0.18,0.27,0.31,0.59,0.4,0.96
				C116.76,58.93,116.8,59.32,116.8,59.73z M115.73,59.85c0-0.29-0.02-0.57-0.07-0.84c-0.04-0.27-0.12-0.51-0.23-0.72
				c-0.11-0.21-0.25-0.38-0.43-0.5c-0.18-0.13-0.4-0.19-0.67-0.19c-0.13,0-0.27,0.02-0.4,0.06c-0.13,0.04-0.26,0.1-0.4,0.19
				c-0.13,0.09-0.27,0.2-0.42,0.34c-0.14,0.14-0.3,0.31-0.46,0.52v2.24c0.28,0.35,0.56,0.61,0.82,0.79
				c0.26,0.18,0.53,0.27,0.81,0.27c0.26,0,0.48-0.06,0.67-0.19s0.33-0.29,0.45-0.5c0.11-0.21,0.2-0.44,0.25-0.69
				C115.7,60.37,115.73,60.11,115.73,59.85z"/>
			<path class="st3" d="M119.82,55.1c0,0.24-0.05,0.41-0.14,0.49c-0.09,0.09-0.26,0.13-0.51,0.13c-0.24,0-0.41-0.04-0.5-0.13
				c-0.09-0.09-0.13-0.25-0.13-0.48c0-0.24,0.05-0.41,0.14-0.49c0.09-0.09,0.26-0.13,0.51-0.13c0.24,0,0.41,0.04,0.5,0.13
				C119.77,54.7,119.82,54.86,119.82,55.1z M119.7,62.61c0,0.03-0.01,0.06-0.02,0.08c-0.02,0.02-0.04,0.04-0.08,0.06
				c-0.04,0.02-0.09,0.03-0.16,0.04c-0.07,0.01-0.15,0.01-0.26,0.01c-0.1,0-0.18,0-0.25-0.01c-0.07-0.01-0.12-0.02-0.16-0.04
				c-0.04-0.02-0.07-0.04-0.08-0.06c-0.01-0.02-0.02-0.05-0.02-0.08v-5.62c0-0.03,0.01-0.06,0.02-0.08
				c0.01-0.02,0.04-0.05,0.08-0.06c0.04-0.02,0.09-0.03,0.16-0.04c0.07-0.01,0.15-0.01,0.25-0.01c0.1,0,0.19,0,0.26,0.01
				c0.07,0.01,0.12,0.02,0.16,0.04c0.04,0.02,0.06,0.04,0.08,0.06c0.02,0.02,0.02,0.05,0.02,0.08V62.61z"/>
			<path class="st3" d="M122.95,62.61c0,0.03-0.01,0.06-0.02,0.08c-0.02,0.02-0.04,0.04-0.08,0.06c-0.04,0.02-0.09,0.03-0.16,0.04
				c-0.07,0.01-0.15,0.01-0.26,0.01c-0.1,0-0.18,0-0.25-0.01c-0.07-0.01-0.12-0.02-0.16-0.04c-0.04-0.02-0.07-0.04-0.08-0.06
				c-0.01-0.02-0.02-0.05-0.02-0.08v-8.34c0-0.03,0.01-0.06,0.02-0.09c0.01-0.02,0.04-0.05,0.08-0.06c0.04-0.02,0.09-0.03,0.16-0.04
				c0.07-0.01,0.15-0.01,0.25-0.01c0.1,0,0.19,0,0.26,0.01c0.07,0.01,0.12,0.02,0.16,0.04c0.04,0.02,0.06,0.04,0.08,0.06
				c0.02,0.02,0.02,0.05,0.02,0.09V62.61z"/>
			<path class="st3" d="M126.33,55.1c0,0.24-0.05,0.41-0.14,0.49c-0.09,0.09-0.26,0.13-0.51,0.13c-0.24,0-0.41-0.04-0.5-0.13
				c-0.09-0.09-0.13-0.25-0.13-0.48c0-0.24,0.05-0.41,0.14-0.49c0.09-0.09,0.26-0.13,0.51-0.13c0.24,0,0.41,0.04,0.5,0.13
				C126.28,54.7,126.33,54.86,126.33,55.1z M126.21,62.61c0,0.03-0.01,0.06-0.02,0.08c-0.02,0.02-0.04,0.04-0.08,0.06
				c-0.04,0.02-0.09,0.03-0.16,0.04c-0.07,0.01-0.15,0.01-0.26,0.01c-0.1,0-0.18,0-0.25-0.01c-0.07-0.01-0.12-0.02-0.16-0.04
				c-0.04-0.02-0.07-0.04-0.08-0.06c-0.01-0.02-0.02-0.05-0.02-0.08v-5.62c0-0.03,0.01-0.06,0.02-0.08
				c0.01-0.02,0.04-0.05,0.08-0.06c0.04-0.02,0.09-0.03,0.16-0.04c0.07-0.01,0.15-0.01,0.25-0.01c0.1,0,0.19,0,0.26,0.01
				c0.07,0.01,0.12,0.02,0.16,0.04c0.04,0.02,0.06,0.04,0.08,0.06c0.02,0.02,0.02,0.05,0.02,0.08V62.61z"/>
			<path class="st3" d="M131.41,62.2c0,0.12-0.01,0.22-0.02,0.29c-0.02,0.07-0.04,0.12-0.07,0.16c-0.03,0.03-0.08,0.06-0.15,0.09
				s-0.14,0.05-0.23,0.07c-0.09,0.02-0.18,0.03-0.27,0.05s-0.19,0.02-0.29,0.02c-0.29,0-0.54-0.04-0.75-0.12
				c-0.21-0.08-0.38-0.19-0.51-0.35c-0.13-0.16-0.23-0.35-0.29-0.59c-0.06-0.24-0.09-0.52-0.09-0.85v-3.28h-0.79
				c-0.06,0-0.11-0.03-0.15-0.1c-0.04-0.07-0.06-0.17-0.06-0.32c0-0.08,0-0.15,0.02-0.2s0.02-0.1,0.04-0.13
				c0.02-0.04,0.04-0.06,0.07-0.07c0.03-0.01,0.06-0.02,0.09-0.02h0.78V55.5c0-0.03,0.01-0.06,0.02-0.08s0.04-0.05,0.08-0.07
				c0.04-0.02,0.09-0.03,0.16-0.04c0.07-0.01,0.15-0.01,0.25-0.01c0.1,0,0.19,0,0.26,0.01c0.07,0.01,0.12,0.02,0.16,0.04
				c0.04,0.02,0.06,0.04,0.08,0.07c0.02,0.02,0.02,0.05,0.02,0.08v1.34h1.44c0.03,0,0.06,0.01,0.09,0.02
				c0.02,0.01,0.05,0.04,0.07,0.07c0.02,0.04,0.03,0.08,0.04,0.13s0.01,0.12,0.01,0.2c0,0.15-0.02,0.26-0.06,0.32
				c-0.04,0.07-0.09,0.1-0.15,0.1h-1.44v3.13c0,0.39,0.06,0.68,0.17,0.88c0.11,0.2,0.32,0.3,0.61,0.3c0.1,0,0.18-0.01,0.26-0.03
				c0.07-0.02,0.14-0.04,0.2-0.06c0.06-0.02,0.11-0.04,0.15-0.06c0.04-0.02,0.08-0.03,0.11-0.03c0.02,0,0.04,0.01,0.06,0.02
				c0.02,0.01,0.03,0.03,0.04,0.06c0.01,0.03,0.02,0.07,0.03,0.12C131.41,62.07,131.41,62.13,131.41,62.2z"/>
			<path class="st3" d="M133.93,55.1c0,0.24-0.05,0.41-0.14,0.49s-0.26,0.13-0.51,0.13c-0.24,0-0.41-0.04-0.5-0.13
				c-0.09-0.09-0.13-0.25-0.13-0.48c0-0.24,0.05-0.41,0.14-0.49s0.26-0.13,0.51-0.13c0.24,0,0.41,0.04,0.5,0.13
				C133.88,54.7,133.93,54.86,133.93,55.1z M133.81,62.61c0,0.03-0.01,0.06-0.02,0.08s-0.04,0.04-0.08,0.06
				c-0.04,0.02-0.09,0.03-0.16,0.04c-0.07,0.01-0.15,0.01-0.26,0.01c-0.1,0-0.18,0-0.25-0.01c-0.07-0.01-0.12-0.02-0.16-0.04
				c-0.04-0.02-0.07-0.04-0.08-0.06c-0.01-0.02-0.02-0.05-0.02-0.08v-5.62c0-0.03,0.01-0.06,0.02-0.08
				c0.01-0.02,0.04-0.05,0.08-0.06c0.04-0.02,0.09-0.03,0.16-0.04c0.07-0.01,0.15-0.01,0.25-0.01c0.1,0,0.19,0,0.26,0.01
				c0.07,0.01,0.12,0.02,0.16,0.04c0.04,0.02,0.06,0.04,0.08,0.06s0.02,0.05,0.02,0.08V62.61z"/>
			<path class="st4" d="M133.32,56.83c0.12,0,0.21,0.03,0.26,0.08c0.05,0.06,0.07,0.14,0.07,0.25v5.45c0,0.03-0.01,0.06-0.02,0.08
				s-0.04,0.04-0.08,0.06c-0.04,0.02-0.09,0.03-0.16,0.04c-0.07,0.01-0.15,0.01-0.24,0.01c-0.1,0-0.19,0-0.26-0.01
				c-0.07-0.01-0.12-0.02-0.16-0.04c-0.04-0.02-0.07-0.04-0.08-0.06c-0.02-0.02-0.02-0.05-0.02-0.08v-4.93h-2.9v3.13
				c0,0.39,0.06,0.68,0.17,0.88c0.11,0.2,0.32,0.3,0.61,0.3c0.1,0,0.18-0.01,0.26-0.03c0.07-0.02,0.14-0.04,0.2-0.06
				s0.11-0.04,0.15-0.06c0.04-0.02,0.08-0.03,0.11-0.03c0.02,0,0.04,0.01,0.06,0.02c0.02,0.01,0.03,0.03,0.04,0.06
				c0.01,0.03,0.02,0.07,0.03,0.12c0.01,0.05,0.01,0.11,0.01,0.19c0,0.12-0.01,0.22-0.02,0.28c-0.02,0.07-0.04,0.12-0.07,0.16
				c-0.03,0.04-0.08,0.07-0.15,0.1c-0.07,0.03-0.14,0.05-0.23,0.07c-0.09,0.02-0.18,0.03-0.27,0.05c-0.1,0.01-0.19,0.02-0.29,0.02
				c-0.29,0-0.54-0.04-0.75-0.12c-0.21-0.08-0.38-0.19-0.51-0.35c-0.13-0.16-0.23-0.35-0.29-0.59c-0.06-0.24-0.09-0.52-0.09-0.85
				v-3.28h-0.79c-0.06,0-0.11-0.03-0.15-0.1c-0.04-0.07-0.06-0.17-0.06-0.32c0-0.08,0-0.15,0.02-0.2s0.02-0.1,0.04-0.13
				c0.02-0.04,0.04-0.06,0.07-0.07c0.03-0.01,0.06-0.02,0.09-0.02h0.78V55.5c0-0.03,0.01-0.06,0.02-0.08
				c0.01-0.02,0.04-0.05,0.08-0.07c0.04-0.02,0.09-0.03,0.16-0.04c0.07-0.01,0.15-0.01,0.25-0.01c0.1,0,0.19,0,0.26,0.01
				c0.07,0.01,0.12,0.02,0.16,0.04c0.04,0.02,0.06,0.04,0.08,0.07s0.02,0.05,0.02,0.08v1.34H133.32z M133.76,55.1
				c0,0.24-0.05,0.41-0.14,0.49c-0.09,0.09-0.26,0.13-0.51,0.13c-0.24,0-0.41-0.04-0.5-0.13c-0.09-0.09-0.13-0.25-0.13-0.48
				c0-0.24,0.05-0.41,0.14-0.49c0.09-0.09,0.26-0.13,0.51-0.13c0.24,0,0.41,0.04,0.5,0.13C133.72,54.7,133.76,54.86,133.76,55.1z"/>
			<path class="st3" d="M140.67,59.56c0,0.16-0.04,0.28-0.12,0.35c-0.08,0.07-0.17,0.1-0.28,0.1h-3.7c0,0.31,0.03,0.59,0.09,0.84
				c0.06,0.25,0.17,0.46,0.31,0.64c0.15,0.18,0.34,0.32,0.57,0.41c0.23,0.1,0.52,0.14,0.86,0.14c0.27,0,0.51-0.02,0.72-0.07
				c0.21-0.04,0.39-0.09,0.54-0.15c0.15-0.05,0.28-0.1,0.38-0.15c0.1-0.04,0.17-0.07,0.22-0.07c0.03,0,0.06,0.01,0.08,0.02
				c0.02,0.01,0.04,0.04,0.05,0.07c0.01,0.03,0.02,0.07,0.03,0.12c0.01,0.05,0.01,0.12,0.01,0.19c0,0.05,0,0.1-0.01,0.14
				c0,0.04-0.01,0.07-0.02,0.11c-0.01,0.03-0.02,0.06-0.03,0.08c-0.01,0.02-0.03,0.05-0.06,0.07c-0.02,0.02-0.09,0.06-0.2,0.11
				c-0.11,0.05-0.26,0.1-0.44,0.15s-0.39,0.09-0.62,0.13c-0.24,0.04-0.49,0.06-0.75,0.06c-0.46,0-0.87-0.06-1.21-0.19
				c-0.35-0.13-0.64-0.32-0.88-0.57s-0.42-0.57-0.54-0.96c-0.12-0.38-0.18-0.83-0.18-1.34c0-0.48,0.06-0.92,0.19-1.3
				s0.3-0.71,0.54-0.98c0.24-0.27,0.52-0.47,0.85-0.62c0.33-0.14,0.71-0.22,1.12-0.22c0.44,0,0.82,0.07,1.13,0.21
				c0.31,0.14,0.57,0.33,0.77,0.57c0.2,0.24,0.35,0.52,0.44,0.84c0.09,0.32,0.14,0.67,0.14,1.03V59.56z M139.63,59.26
				c0.01-0.54-0.11-0.97-0.36-1.27c-0.25-0.31-0.63-0.46-1.13-0.46c-0.26,0-0.48,0.05-0.67,0.14s-0.35,0.22-0.48,0.38
				c-0.13,0.16-0.23,0.34-0.3,0.55c-0.07,0.21-0.11,0.43-0.12,0.66H139.63z"/>
			<path class="st3" d="M146.09,61.08c0,0.29-0.05,0.54-0.16,0.77c-0.11,0.22-0.26,0.41-0.45,0.57c-0.2,0.15-0.43,0.27-0.7,0.35
				c-0.27,0.08-0.57,0.12-0.89,0.12c-0.2,0-0.39-0.02-0.57-0.05c-0.18-0.03-0.34-0.07-0.49-0.12c-0.14-0.05-0.27-0.1-0.37-0.15
				c-0.1-0.05-0.17-0.1-0.22-0.14c-0.05-0.04-0.08-0.1-0.1-0.17c-0.02-0.07-0.03-0.18-0.03-0.31c0-0.08,0-0.15,0.01-0.2
				s0.02-0.1,0.03-0.13s0.03-0.06,0.05-0.07c0.02-0.01,0.05-0.02,0.08-0.02c0.05,0,0.11,0.03,0.2,0.08c0.09,0.06,0.2,0.12,0.33,0.18
				c0.13,0.07,0.29,0.13,0.46,0.18c0.18,0.06,0.39,0.08,0.62,0.08c0.17,0,0.33-0.02,0.47-0.06c0.14-0.04,0.26-0.09,0.37-0.17
				c0.1-0.07,0.18-0.17,0.24-0.28c0.06-0.11,0.08-0.25,0.08-0.4c0-0.16-0.04-0.29-0.12-0.4c-0.08-0.11-0.19-0.2-0.32-0.29
				c-0.13-0.08-0.28-0.16-0.45-0.22c-0.17-0.06-0.34-0.13-0.52-0.2c-0.18-0.07-0.35-0.15-0.52-0.24c-0.17-0.09-0.32-0.2-0.45-0.33
				c-0.13-0.13-0.24-0.28-0.32-0.46c-0.08-0.18-0.12-0.39-0.12-0.64c0-0.22,0.04-0.43,0.13-0.63c0.09-0.2,0.21-0.38,0.38-0.53
				s0.38-0.27,0.64-0.37c0.26-0.09,0.55-0.14,0.9-0.14c0.15,0,0.3,0.01,0.45,0.04c0.15,0.02,0.29,0.06,0.41,0.09
				c0.12,0.04,0.22,0.08,0.31,0.12c0.09,0.04,0.15,0.08,0.19,0.12c0.04,0.03,0.07,0.06,0.09,0.09c0.01,0.02,0.02,0.05,0.03,0.08
				c0.01,0.03,0.01,0.07,0.02,0.12c0.01,0.05,0.01,0.1,0.01,0.17c0,0.07,0,0.13-0.01,0.18c-0.01,0.05-0.02,0.09-0.03,0.13
				c-0.01,0.03-0.03,0.06-0.05,0.07c-0.02,0.01-0.04,0.02-0.07,0.02c-0.04,0-0.09-0.02-0.16-0.07c-0.07-0.05-0.16-0.09-0.27-0.15
				c-0.11-0.05-0.24-0.1-0.4-0.15c-0.15-0.05-0.33-0.07-0.52-0.07c-0.17,0-0.33,0.02-0.46,0.06c-0.13,0.04-0.24,0.1-0.33,0.17
				c-0.09,0.07-0.15,0.16-0.19,0.26c-0.04,0.1-0.07,0.21-0.07,0.32c0,0.16,0.04,0.3,0.12,0.41c0.08,0.11,0.19,0.21,0.32,0.29
				c0.13,0.08,0.29,0.16,0.46,0.22c0.17,0.07,0.34,0.14,0.52,0.21c0.18,0.07,0.35,0.15,0.52,0.24c0.17,0.09,0.33,0.19,0.46,0.32
				s0.24,0.27,0.32,0.45C146.04,60.64,146.09,60.84,146.09,61.08z"/>
			<path class="st3" d="M155.7,62.33c0,0.07,0,0.14-0.01,0.2c-0.01,0.06-0.02,0.1-0.04,0.14s-0.04,0.06-0.07,0.08
				c-0.03,0.02-0.06,0.02-0.09,0.02h-3.88c-0.1,0-0.19-0.03-0.27-0.1c-0.09-0.06-0.13-0.18-0.13-0.34v-7.21
				c0-0.16,0.04-0.28,0.13-0.34c0.08-0.06,0.18-0.1,0.27-0.1h3.83c0.03,0,0.06,0.01,0.09,0.02c0.03,0.02,0.05,0.04,0.07,0.08
				s0.03,0.08,0.04,0.14c0.01,0.06,0.02,0.13,0.02,0.21c0,0.07-0.01,0.14-0.02,0.2c-0.01,0.06-0.02,0.1-0.04,0.14
				c-0.02,0.04-0.04,0.06-0.07,0.08c-0.03,0.02-0.06,0.02-0.09,0.02h-3.16v2.54h2.71c0.03,0,0.06,0.01,0.09,0.03
				c0.03,0.02,0.05,0.04,0.07,0.08c0.02,0.03,0.03,0.08,0.04,0.14c0.01,0.06,0.01,0.13,0.01,0.21c0,0.07,0,0.14-0.01,0.19
				c-0.01,0.05-0.02,0.1-0.04,0.13c-0.02,0.03-0.04,0.06-0.07,0.07c-0.03,0.01-0.06,0.02-0.09,0.02h-2.71v2.89h3.2
				c0.03,0,0.06,0.01,0.09,0.02c0.03,0.02,0.05,0.04,0.07,0.08c0.02,0.04,0.04,0.08,0.04,0.14C155.7,62.17,155.7,62.24,155.7,62.33z
				"/>
			<path class="st3" d="M162.49,62.61c0,0.03-0.01,0.06-0.02,0.08s-0.04,0.04-0.08,0.06c-0.04,0.02-0.09,0.03-0.16,0.04
				c-0.07,0.01-0.15,0.01-0.25,0.01c-0.1,0-0.19,0-0.26-0.01c-0.07-0.01-0.12-0.02-0.16-0.04c-0.04-0.02-0.06-0.04-0.08-0.06
				c-0.02-0.02-0.02-0.05-0.02-0.08v-3.29c0-0.32-0.02-0.58-0.07-0.77s-0.12-0.36-0.22-0.51c-0.1-0.14-0.22-0.25-0.37-0.32
				c-0.15-0.07-0.33-0.11-0.53-0.11c-0.26,0-0.52,0.09-0.77,0.27c-0.26,0.18-0.53,0.45-0.81,0.81v3.93c0,0.03-0.01,0.06-0.02,0.08
				s-0.04,0.04-0.08,0.06c-0.04,0.02-0.09,0.03-0.16,0.04c-0.07,0.01-0.15,0.01-0.26,0.01c-0.1,0-0.18,0-0.25-0.01
				c-0.07-0.01-0.12-0.02-0.16-0.04c-0.04-0.02-0.07-0.04-0.08-0.06c-0.01-0.02-0.02-0.05-0.02-0.08v-5.62
				c0-0.03,0.01-0.06,0.02-0.08c0.01-0.02,0.04-0.04,0.07-0.06c0.04-0.02,0.09-0.03,0.14-0.04c0.06-0.01,0.14-0.01,0.23-0.01
				c0.09,0,0.17,0,0.23,0.01c0.06,0.01,0.11,0.02,0.14,0.04c0.03,0.02,0.06,0.04,0.07,0.06c0.01,0.02,0.02,0.05,0.02,0.08v0.74
				c0.32-0.35,0.63-0.61,0.95-0.78c0.31-0.16,0.63-0.25,0.95-0.25c0.37,0,0.69,0.06,0.95,0.19c0.26,0.13,0.46,0.3,0.62,0.51
				c0.16,0.21,0.27,0.46,0.34,0.75c0.07,0.29,0.1,0.63,0.1,1.03V62.61z"/>
			<path class="st3" d="M167.98,57.36c0,0.09,0,0.17-0.01,0.23c0,0.06-0.01,0.11-0.02,0.15c-0.01,0.04-0.03,0.06-0.05,0.08
				c-0.02,0.02-0.04,0.03-0.08,0.03c-0.03,0-0.07-0.01-0.12-0.03c-0.05-0.02-0.1-0.04-0.16-0.06c-0.06-0.02-0.13-0.04-0.2-0.05
				c-0.07-0.02-0.16-0.02-0.24-0.02c-0.1,0-0.21,0.02-0.31,0.06c-0.1,0.04-0.21,0.11-0.32,0.21c-0.11,0.1-0.23,0.22-0.35,0.38
				s-0.25,0.35-0.4,0.58v3.7c0,0.03-0.01,0.06-0.02,0.08c-0.02,0.02-0.04,0.04-0.08,0.06c-0.04,0.02-0.09,0.03-0.16,0.04
				c-0.07,0.01-0.15,0.01-0.26,0.01c-0.1,0-0.18,0-0.25-0.01c-0.07-0.01-0.12-0.02-0.16-0.04c-0.04-0.02-0.07-0.04-0.08-0.06
				c-0.01-0.02-0.02-0.05-0.02-0.08v-5.62c0-0.03,0.01-0.06,0.02-0.08c0.01-0.02,0.04-0.04,0.07-0.06c0.04-0.02,0.09-0.03,0.14-0.04
				c0.06-0.01,0.14-0.01,0.23-0.01c0.09,0,0.17,0,0.23,0.01c0.06,0.01,0.11,0.02,0.14,0.04c0.03,0.02,0.06,0.04,0.07,0.06
				c0.01,0.02,0.02,0.05,0.02,0.08v0.82c0.15-0.22,0.3-0.41,0.43-0.55c0.14-0.14,0.26-0.25,0.38-0.33c0.12-0.08,0.24-0.14,0.36-0.17
				c0.12-0.03,0.24-0.05,0.36-0.05c0.05,0,0.12,0,0.18,0.01c0.07,0.01,0.14,0.02,0.22,0.03c0.07,0.02,0.14,0.04,0.2,0.06
				c0.06,0.02,0.1,0.04,0.13,0.06s0.04,0.04,0.05,0.06c0.01,0.02,0.02,0.04,0.02,0.07c0.01,0.03,0.01,0.07,0.01,0.13
				C167.97,57.19,167.98,57.27,167.98,57.36z"/>
			<path class="st3" d="M170.62,55.1c0,0.24-0.05,0.41-0.14,0.49s-0.26,0.13-0.51,0.13c-0.24,0-0.41-0.04-0.5-0.13
				c-0.09-0.09-0.13-0.25-0.13-0.48c0-0.24,0.05-0.41,0.14-0.49s0.26-0.13,0.51-0.13c0.24,0,0.41,0.04,0.5,0.13
				C170.57,54.7,170.62,54.86,170.62,55.1z M170.5,62.61c0,0.03-0.01,0.06-0.02,0.08s-0.04,0.04-0.08,0.06
				c-0.04,0.02-0.09,0.03-0.16,0.04c-0.07,0.01-0.15,0.01-0.26,0.01c-0.1,0-0.18,0-0.25-0.01c-0.07-0.01-0.12-0.02-0.16-0.04
				c-0.04-0.02-0.07-0.04-0.08-0.06c-0.01-0.02-0.02-0.05-0.02-0.08v-5.62c0-0.03,0.01-0.06,0.02-0.08
				c0.01-0.02,0.04-0.05,0.08-0.06c0.04-0.02,0.09-0.03,0.16-0.04c0.07-0.01,0.15-0.01,0.25-0.01c0.1,0,0.19,0,0.26,0.01
				c0.07,0.01,0.12,0.02,0.16,0.04c0.04,0.02,0.06,0.04,0.08,0.06s0.02,0.05,0.02,0.08V62.61z"/>
			<path class="st3" d="M176.76,61.76c0,0.07,0,0.13-0.01,0.18c0,0.05-0.01,0.1-0.02,0.13c-0.01,0.04-0.02,0.07-0.04,0.09
				c-0.01,0.03-0.05,0.07-0.1,0.12s-0.14,0.12-0.27,0.19c-0.12,0.08-0.27,0.15-0.42,0.21c-0.16,0.06-0.33,0.11-0.51,0.15
				c-0.18,0.04-0.37,0.06-0.57,0.06c-0.4,0-0.76-0.07-1.07-0.2c-0.31-0.13-0.57-0.33-0.78-0.58c-0.21-0.26-0.37-0.57-0.48-0.94
				c-0.11-0.37-0.17-0.8-0.17-1.29c0-0.55,0.07-1.03,0.2-1.43c0.13-0.4,0.32-0.72,0.56-0.98c0.24-0.25,0.51-0.44,0.83-0.56
				c0.32-0.12,0.66-0.18,1.03-0.18c0.18,0,0.35,0.02,0.52,0.05c0.17,0.03,0.32,0.08,0.47,0.13c0.14,0.05,0.27,0.12,0.38,0.19
				c0.11,0.07,0.19,0.13,0.24,0.18c0.05,0.05,0.08,0.09,0.1,0.12c0.02,0.03,0.03,0.06,0.05,0.1c0.01,0.04,0.02,0.08,0.02,0.13
				s0.01,0.11,0.01,0.19c0,0.16-0.02,0.28-0.06,0.34s-0.08,0.1-0.14,0.1c-0.06,0-0.13-0.03-0.22-0.1c-0.08-0.07-0.18-0.14-0.31-0.23
				c-0.12-0.08-0.28-0.16-0.45-0.23c-0.18-0.07-0.39-0.1-0.63-0.1c-0.5,0-0.88,0.19-1.14,0.57c-0.26,0.38-0.4,0.93-0.4,1.66
				c0,0.36,0.03,0.68,0.1,0.95c0.07,0.27,0.17,0.5,0.3,0.68s0.3,0.32,0.49,0.41c0.19,0.09,0.42,0.13,0.67,0.13
				c0.24,0,0.45-0.04,0.62-0.11c0.18-0.07,0.33-0.16,0.47-0.25c0.13-0.09,0.24-0.17,0.33-0.24c0.09-0.07,0.16-0.11,0.21-0.11
				c0.03,0,0.05,0.01,0.07,0.02s0.04,0.04,0.05,0.08c0.01,0.04,0.02,0.09,0.03,0.15C176.76,61.6,176.76,61.68,176.76,61.76z"/>
			<path class="st3" d="M183.29,62.61c0,0.03-0.01,0.06-0.02,0.08s-0.04,0.04-0.08,0.06c-0.04,0.02-0.09,0.03-0.16,0.04
				c-0.07,0.01-0.15,0.01-0.25,0.01c-0.1,0-0.19,0-0.26-0.01c-0.07-0.01-0.12-0.02-0.16-0.04c-0.04-0.02-0.06-0.04-0.08-0.06
				c-0.02-0.02-0.02-0.05-0.02-0.08v-3.29c0-0.32-0.02-0.58-0.07-0.77s-0.12-0.36-0.22-0.51c-0.1-0.14-0.22-0.25-0.37-0.32
				c-0.15-0.07-0.33-0.11-0.53-0.11c-0.26,0-0.52,0.09-0.77,0.27c-0.26,0.18-0.53,0.45-0.81,0.81v3.93c0,0.03-0.01,0.06-0.02,0.08
				s-0.04,0.04-0.08,0.06c-0.04,0.02-0.09,0.03-0.16,0.04c-0.07,0.01-0.15,0.01-0.26,0.01c-0.1,0-0.18,0-0.25-0.01
				c-0.07-0.01-0.12-0.02-0.16-0.04c-0.04-0.02-0.07-0.04-0.08-0.06c-0.01-0.02-0.02-0.05-0.02-0.08v-8.34
				c0-0.03,0.01-0.06,0.02-0.09c0.01-0.02,0.04-0.05,0.08-0.06c0.04-0.02,0.09-0.03,0.16-0.04c0.07-0.01,0.15-0.01,0.25-0.01
				c0.1,0,0.19,0,0.26,0.01c0.07,0.01,0.12,0.02,0.16,0.04c0.04,0.02,0.06,0.04,0.08,0.06c0.02,0.02,0.02,0.05,0.02,0.09v3.37
				c0.3-0.31,0.59-0.54,0.89-0.7c0.3-0.15,0.6-0.23,0.91-0.23c0.37,0,0.69,0.06,0.95,0.19c0.26,0.13,0.46,0.3,0.62,0.51
				c0.16,0.21,0.27,0.46,0.34,0.75c0.07,0.29,0.1,0.63,0.1,1.03V62.61z"/>
			<path class="st3" d="M186.64,55.1c0,0.24-0.05,0.41-0.14,0.49s-0.26,0.13-0.51,0.13c-0.24,0-0.41-0.04-0.5-0.13
				c-0.09-0.09-0.13-0.25-0.13-0.48c0-0.24,0.05-0.41,0.14-0.49s0.26-0.13,0.51-0.13c0.24,0,0.41,0.04,0.5,0.13
				C186.59,54.7,186.64,54.86,186.64,55.1z M186.52,62.61c0,0.03-0.01,0.06-0.02,0.08c-0.02,0.02-0.04,0.04-0.08,0.06
				c-0.04,0.02-0.09,0.03-0.16,0.04c-0.07,0.01-0.15,0.01-0.26,0.01c-0.1,0-0.18,0-0.25-0.01c-0.07-0.01-0.12-0.02-0.16-0.04
				c-0.04-0.02-0.07-0.04-0.08-0.06c-0.01-0.02-0.02-0.05-0.02-0.08v-5.62c0-0.03,0.01-0.06,0.02-0.08
				c0.01-0.02,0.04-0.05,0.08-0.06c0.04-0.02,0.09-0.03,0.16-0.04c0.07-0.01,0.15-0.01,0.25-0.01c0.1,0,0.19,0,0.26,0.01
				c0.07,0.01,0.12,0.02,0.16,0.04c0.04,0.02,0.06,0.04,0.08,0.06c0.02,0.02,0.02,0.05,0.02,0.08V62.61z"/>
			<path class="st3" d="M193.58,62.61c0,0.03-0.01,0.06-0.02,0.08c-0.02,0.02-0.04,0.04-0.08,0.06c-0.04,0.02-0.09,0.03-0.16,0.04
				c-0.07,0.01-0.15,0.01-0.25,0.01c-0.1,0-0.19,0-0.26-0.01c-0.07-0.01-0.12-0.02-0.16-0.04c-0.04-0.02-0.06-0.04-0.08-0.06
				c-0.02-0.02-0.02-0.05-0.02-0.08v-3.29c0-0.32-0.02-0.58-0.07-0.77s-0.12-0.36-0.22-0.51c-0.1-0.14-0.22-0.25-0.37-0.32
				c-0.15-0.07-0.33-0.11-0.53-0.11c-0.26,0-0.52,0.09-0.77,0.27c-0.26,0.18-0.53,0.45-0.81,0.81v3.93c0,0.03-0.01,0.06-0.02,0.08
				s-0.04,0.04-0.08,0.06c-0.04,0.02-0.09,0.03-0.16,0.04c-0.07,0.01-0.15,0.01-0.26,0.01c-0.1,0-0.18,0-0.25-0.01
				c-0.07-0.01-0.12-0.02-0.16-0.04c-0.04-0.02-0.07-0.04-0.08-0.06c-0.01-0.02-0.02-0.05-0.02-0.08v-5.62
				c0-0.03,0.01-0.06,0.02-0.08c0.01-0.02,0.04-0.04,0.07-0.06c0.04-0.02,0.09-0.03,0.14-0.04c0.06-0.01,0.14-0.01,0.23-0.01
				c0.09,0,0.17,0,0.23,0.01c0.06,0.01,0.11,0.02,0.14,0.04c0.03,0.02,0.06,0.04,0.07,0.06c0.01,0.02,0.02,0.05,0.02,0.08v0.74
				c0.32-0.35,0.63-0.61,0.95-0.78c0.31-0.16,0.63-0.25,0.95-0.25c0.37,0,0.69,0.06,0.95,0.19c0.26,0.13,0.46,0.3,0.62,0.51
				c0.16,0.21,0.27,0.46,0.34,0.75c0.07,0.29,0.1,0.63,0.1,1.03V62.61z"/>
			<path class="st3" d="M200.48,57.25c0,0.15-0.02,0.25-0.06,0.32s-0.09,0.1-0.15,0.1h-0.81c0.15,0.15,0.25,0.32,0.31,0.5
				c0.06,0.18,0.09,0.37,0.09,0.57c0,0.32-0.05,0.61-0.16,0.86c-0.1,0.25-0.25,0.46-0.45,0.63c-0.19,0.17-0.42,0.31-0.69,0.4
				s-0.56,0.14-0.89,0.14c-0.23,0-0.45-0.03-0.65-0.09c-0.21-0.06-0.37-0.14-0.48-0.23c-0.07,0.07-0.14,0.16-0.18,0.26
				c-0.05,0.1-0.07,0.21-0.07,0.33c0,0.15,0.07,0.27,0.2,0.36c0.13,0.1,0.32,0.15,0.54,0.16l1.47,0.06
				c0.28,0.01,0.53,0.05,0.77,0.12c0.23,0.07,0.43,0.17,0.61,0.29c0.17,0.13,0.3,0.28,0.4,0.47c0.1,0.19,0.14,0.4,0.14,0.65
				c0,0.26-0.05,0.5-0.16,0.74s-0.27,0.44-0.5,0.61c-0.22,0.18-0.51,0.32-0.85,0.42c-0.35,0.1-0.75,0.15-1.22,0.15
				c-0.45,0-0.84-0.04-1.16-0.12c-0.32-0.08-0.58-0.18-0.78-0.32c-0.2-0.13-0.35-0.29-0.44-0.48c-0.09-0.19-0.14-0.39-0.14-0.6
				c0-0.14,0.02-0.27,0.05-0.4c0.03-0.13,0.08-0.25,0.15-0.37c0.07-0.12,0.15-0.23,0.26-0.33c0.1-0.11,0.22-0.21,0.35-0.32
				c-0.2-0.1-0.36-0.24-0.45-0.39c-0.1-0.16-0.15-0.33-0.15-0.51c0-0.25,0.05-0.48,0.16-0.68c0.1-0.2,0.23-0.38,0.39-0.54
				c-0.13-0.15-0.23-0.33-0.31-0.52c-0.07-0.19-0.11-0.43-0.11-0.7c0-0.32,0.05-0.61,0.16-0.86s0.26-0.47,0.45-0.64
				c0.19-0.17,0.42-0.31,0.69-0.4c0.27-0.09,0.56-0.14,0.88-0.14c0.17,0,0.33,0.01,0.48,0.03c0.15,0.02,0.29,0.04,0.42,0.08h1.7
				c0.07,0,0.12,0.03,0.16,0.1C200.46,57,200.48,57.11,200.48,57.25z M199.38,63.18c0-0.24-0.1-0.43-0.3-0.56
				c-0.2-0.13-0.47-0.2-0.8-0.21l-1.45-0.05c-0.13,0.1-0.24,0.2-0.33,0.3c-0.09,0.09-0.15,0.18-0.2,0.27
				c-0.05,0.09-0.08,0.17-0.1,0.25c-0.02,0.08-0.03,0.17-0.03,0.26c0,0.27,0.14,0.48,0.41,0.61c0.27,0.14,0.66,0.21,1.15,0.21
				c0.31,0,0.57-0.03,0.78-0.09c0.21-0.06,0.38-0.14,0.51-0.24c0.13-0.1,0.22-0.21,0.28-0.34
				C199.36,63.46,199.38,63.32,199.38,63.18z M198.87,58.73c0-0.38-0.11-0.68-0.32-0.9c-0.21-0.21-0.51-0.32-0.9-0.32
				c-0.2,0-0.37,0.03-0.52,0.1s-0.27,0.16-0.37,0.27c-0.1,0.12-0.17,0.25-0.22,0.4s-0.07,0.31-0.07,0.48c0,0.37,0.1,0.66,0.32,0.87
				c0.21,0.21,0.5,0.32,0.88,0.32c0.2,0,0.38-0.03,0.53-0.1s0.27-0.15,0.37-0.27c0.1-0.11,0.17-0.25,0.22-0.4
				C198.84,59.05,198.87,58.89,198.87,58.73z"/>
			<path class="st3" d="M209.64,62.3c0,0.08,0,0.15-0.01,0.21c-0.01,0.06-0.02,0.1-0.04,0.14c-0.02,0.04-0.04,0.07-0.07,0.09
				c-0.03,0.02-0.06,0.03-0.1,0.03h-3.57c-0.1,0-0.19-0.03-0.27-0.1c-0.09-0.06-0.13-0.18-0.13-0.34v-7.48
				c0-0.03,0.01-0.06,0.02-0.09c0.02-0.02,0.05-0.04,0.09-0.06s0.1-0.03,0.17-0.04s0.16-0.02,0.26-0.02c0.1,0,0.19,0.01,0.26,0.02
				c0.07,0.01,0.12,0.02,0.17,0.04s0.07,0.03,0.09,0.06c0.02,0.02,0.02,0.05,0.02,0.09v6.99h2.9c0.04,0,0.07,0.01,0.1,0.03
				c0.03,0.02,0.05,0.05,0.07,0.08c0.02,0.04,0.03,0.08,0.04,0.14C209.64,62.15,209.64,62.22,209.64,62.3z"/>
			<path class="st3" d="M212.18,55.1c0,0.24-0.05,0.41-0.14,0.49s-0.26,0.13-0.51,0.13c-0.24,0-0.41-0.04-0.5-0.13
				c-0.09-0.09-0.13-0.25-0.13-0.48c0-0.24,0.05-0.41,0.14-0.49s0.26-0.13,0.51-0.13c0.24,0,0.41,0.04,0.5,0.13
				C212.13,54.7,212.18,54.86,212.18,55.1z M212.06,62.61c0,0.03-0.01,0.06-0.02,0.08c-0.02,0.02-0.04,0.04-0.08,0.06
				c-0.04,0.02-0.09,0.03-0.16,0.04c-0.07,0.01-0.15,0.01-0.26,0.01c-0.1,0-0.18,0-0.25-0.01c-0.07-0.01-0.12-0.02-0.16-0.04
				c-0.04-0.02-0.07-0.04-0.08-0.06c-0.01-0.02-0.02-0.05-0.02-0.08v-5.62c0-0.03,0.01-0.06,0.02-0.08
				c0.01-0.02,0.04-0.05,0.08-0.06c0.04-0.02,0.09-0.03,0.16-0.04c0.07-0.01,0.15-0.01,0.25-0.01c0.1,0,0.19,0,0.26,0.01
				c0.07,0.01,0.12,0.02,0.16,0.04c0.04,0.02,0.06,0.04,0.08,0.06c0.02,0.02,0.02,0.05,0.02,0.08V62.61z"/>
			<path class="st3" d="M217.36,54.68c0,0.08,0,0.14-0.01,0.19c-0.01,0.05-0.02,0.09-0.03,0.12c-0.01,0.03-0.02,0.05-0.04,0.06
				c-0.02,0.01-0.04,0.02-0.06,0.02c-0.03,0-0.07-0.01-0.11-0.03c-0.04-0.02-0.1-0.04-0.16-0.06c-0.06-0.02-0.14-0.04-0.22-0.06
				c-0.09-0.02-0.18-0.03-0.3-0.03c-0.15,0-0.29,0.02-0.39,0.07s-0.2,0.13-0.26,0.23c-0.07,0.11-0.11,0.24-0.14,0.41
				c-0.03,0.17-0.04,0.37-0.04,0.61v0.61h1.26c0.03,0,0.06,0.01,0.08,0.02c0.02,0.01,0.04,0.04,0.06,0.07
				c0.02,0.04,0.03,0.08,0.04,0.13c0.01,0.05,0.02,0.12,0.02,0.2c0,0.15-0.02,0.26-0.06,0.32c-0.04,0.07-0.09,0.1-0.15,0.1h-1.26
				v4.93c0,0.03-0.01,0.06-0.02,0.08c-0.02,0.02-0.04,0.04-0.08,0.06c-0.04,0.02-0.09,0.03-0.16,0.04
				c-0.07,0.01-0.15,0.01-0.25,0.01c-0.1,0-0.18,0-0.25-0.01c-0.07-0.01-0.12-0.02-0.16-0.04c-0.04-0.02-0.07-0.04-0.08-0.06
				s-0.02-0.05-0.02-0.08v-4.93h-0.79c-0.07,0-0.12-0.03-0.15-0.1c-0.03-0.07-0.05-0.17-0.05-0.32c0-0.08,0-0.15,0.01-0.2
				c0.01-0.05,0.02-0.1,0.04-0.13c0.02-0.04,0.04-0.06,0.06-0.07c0.02-0.01,0.05-0.02,0.09-0.02h0.79v-0.58
				c0-0.39,0.04-0.73,0.11-1.01c0.07-0.28,0.18-0.51,0.33-0.69s0.34-0.31,0.56-0.4c0.23-0.09,0.49-0.13,0.8-0.13
				c0.15,0,0.29,0.01,0.42,0.04c0.14,0.03,0.24,0.06,0.32,0.09c0.07,0.03,0.12,0.06,0.15,0.08c0.02,0.02,0.05,0.06,0.06,0.1
				c0.02,0.04,0.03,0.09,0.03,0.14C217.36,54.54,217.36,54.61,217.36,54.68z"/>
			<path class="st3" d="M222.98,59.56c0,0.16-0.04,0.28-0.12,0.35c-0.08,0.07-0.17,0.1-0.28,0.1h-3.7c0,0.31,0.03,0.59,0.09,0.84
				c0.06,0.25,0.17,0.46,0.31,0.64c0.15,0.18,0.34,0.32,0.57,0.41c0.23,0.1,0.52,0.14,0.86,0.14c0.27,0,0.51-0.02,0.72-0.07
				c0.21-0.04,0.39-0.09,0.54-0.15c0.15-0.05,0.28-0.1,0.38-0.15c0.1-0.04,0.17-0.07,0.22-0.07c0.03,0,0.06,0.01,0.08,0.02
				c0.02,0.01,0.04,0.04,0.05,0.07c0.01,0.03,0.02,0.07,0.03,0.12c0.01,0.05,0.01,0.12,0.01,0.19c0,0.05,0,0.1-0.01,0.14
				c0,0.04-0.01,0.07-0.02,0.11c-0.01,0.03-0.02,0.06-0.03,0.08c-0.01,0.02-0.03,0.05-0.06,0.07c-0.02,0.02-0.09,0.06-0.2,0.11
				c-0.11,0.05-0.26,0.1-0.44,0.15c-0.18,0.05-0.39,0.09-0.62,0.13c-0.24,0.04-0.49,0.06-0.75,0.06c-0.46,0-0.87-0.06-1.21-0.19
				c-0.35-0.13-0.64-0.32-0.88-0.57s-0.42-0.57-0.54-0.96c-0.12-0.38-0.18-0.83-0.18-1.34c0-0.48,0.06-0.92,0.19-1.3
				c0.12-0.39,0.3-0.71,0.54-0.98c0.24-0.27,0.52-0.47,0.85-0.62c0.33-0.14,0.71-0.22,1.12-0.22c0.44,0,0.82,0.07,1.13,0.21
				s0.57,0.33,0.77,0.57c0.2,0.24,0.35,0.52,0.44,0.84c0.09,0.32,0.14,0.67,0.14,1.03V59.56z M221.94,59.26
				c0.01-0.54-0.11-0.97-0.36-1.27c-0.25-0.31-0.63-0.46-1.13-0.46c-0.26,0-0.48,0.05-0.67,0.14c-0.19,0.1-0.35,0.22-0.48,0.38
				c-0.13,0.16-0.23,0.34-0.3,0.55c-0.07,0.21-0.11,0.43-0.12,0.66H221.94z"/>
		</g>
		<g>
			<path class="st3" d="M38.43,62.33c0,0.07,0,0.14-0.01,0.2c-0.01,0.06-0.02,0.1-0.04,0.14s-0.04,0.06-0.07,0.08
				s-0.06,0.02-0.09,0.02h-3.88c-0.1,0-0.19-0.03-0.27-0.1s-0.13-0.18-0.13-0.34v-7.21c0-0.16,0.04-0.28,0.13-0.34
				c0.09-0.06,0.18-0.1,0.27-0.1h3.83c0.03,0,0.06,0.01,0.09,0.02s0.05,0.04,0.07,0.08s0.03,0.08,0.04,0.14
				c0.01,0.06,0.02,0.13,0.02,0.21c0,0.07-0.01,0.14-0.02,0.2c-0.01,0.06-0.02,0.1-0.04,0.14c-0.02,0.04-0.04,0.06-0.07,0.08
				c-0.03,0.02-0.06,0.02-0.09,0.02h-3.16v2.54h2.71c0.03,0,0.06,0.01,0.09,0.03c0.03,0.02,0.05,0.04,0.07,0.08
				c0.02,0.03,0.03,0.08,0.04,0.14c0.01,0.06,0.01,0.13,0.01,0.21c0,0.07,0,0.14-0.01,0.19s-0.02,0.1-0.04,0.13
				c-0.02,0.03-0.04,0.06-0.07,0.07c-0.03,0.01-0.06,0.02-0.09,0.02h-2.71v2.89h3.2c0.03,0,0.06,0.01,0.09,0.02s0.05,0.04,0.07,0.08
				c0.02,0.04,0.04,0.08,0.04,0.14C38.43,62.17,38.43,62.24,38.43,62.33z"/>
			<path class="st3" d="M45.22,62.61c0,0.03-0.01,0.06-0.02,0.08s-0.04,0.04-0.08,0.06c-0.04,0.02-0.09,0.03-0.16,0.04
				c-0.07,0.01-0.15,0.01-0.25,0.01c-0.1,0-0.19,0-0.26-0.01c-0.07-0.01-0.12-0.02-0.16-0.04c-0.04-0.02-0.06-0.04-0.08-0.06
				s-0.02-0.05-0.02-0.08v-3.29c0-0.32-0.02-0.58-0.07-0.77c-0.05-0.2-0.12-0.36-0.22-0.51c-0.1-0.14-0.22-0.25-0.37-0.32
				c-0.15-0.07-0.33-0.11-0.53-0.11c-0.26,0-0.52,0.09-0.77,0.27c-0.26,0.18-0.53,0.45-0.81,0.81v3.93c0,0.03-0.01,0.06-0.02,0.08
				s-0.04,0.04-0.08,0.06c-0.04,0.02-0.09,0.03-0.16,0.04c-0.07,0.01-0.15,0.01-0.26,0.01c-0.1,0-0.18,0-0.25-0.01
				c-0.07-0.01-0.12-0.02-0.16-0.04c-0.04-0.02-0.07-0.04-0.08-0.06c-0.01-0.02-0.02-0.05-0.02-0.08v-5.62
				c0-0.03,0.01-0.06,0.02-0.08c0.01-0.02,0.04-0.04,0.07-0.06c0.04-0.02,0.09-0.03,0.14-0.04c0.06-0.01,0.14-0.01,0.23-0.01
				c0.09,0,0.17,0,0.23,0.01c0.06,0.01,0.11,0.02,0.14,0.04c0.03,0.02,0.06,0.04,0.07,0.06c0.01,0.02,0.02,0.05,0.02,0.08v0.74
				c0.32-0.35,0.63-0.61,0.95-0.78c0.31-0.16,0.63-0.25,0.95-0.25c0.37,0,0.69,0.06,0.95,0.19c0.26,0.13,0.46,0.3,0.62,0.51
				s0.27,0.46,0.34,0.75c0.07,0.29,0.1,0.63,0.1,1.03V62.61z"/>
			<path class="st3" d="M51.65,62.62c0,0.05-0.02,0.09-0.05,0.11c-0.03,0.02-0.08,0.04-0.14,0.06c-0.06,0.01-0.14,0.02-0.26,0.02
				c-0.11,0-0.19-0.01-0.26-0.02c-0.06-0.01-0.11-0.03-0.14-0.06c-0.03-0.02-0.04-0.06-0.04-0.11v-0.56
				c-0.25,0.26-0.52,0.47-0.82,0.61c-0.3,0.15-0.62,0.22-0.96,0.22c-0.3,0-0.56-0.04-0.8-0.12c-0.24-0.08-0.44-0.19-0.61-0.33
				s-0.3-0.32-0.39-0.54s-0.14-0.45-0.14-0.72c0-0.32,0.06-0.59,0.19-0.82s0.31-0.43,0.56-0.58c0.24-0.15,0.54-0.27,0.89-0.35
				c0.35-0.08,0.74-0.12,1.18-0.12h0.77v-0.44c0-0.22-0.02-0.41-0.07-0.57c-0.05-0.17-0.12-0.3-0.22-0.42
				c-0.1-0.11-0.23-0.19-0.4-0.25c-0.16-0.06-0.36-0.08-0.6-0.08c-0.25,0-0.48,0.03-0.68,0.09c-0.2,0.06-0.38,0.13-0.53,0.2
				c-0.15,0.07-0.28,0.14-0.38,0.2s-0.18,0.09-0.23,0.09c-0.03,0-0.06-0.01-0.09-0.02c-0.02-0.02-0.05-0.04-0.07-0.07
				c-0.02-0.03-0.03-0.08-0.04-0.13c-0.01-0.05-0.01-0.11-0.01-0.17c0-0.1,0.01-0.19,0.02-0.25c0.01-0.06,0.05-0.12,0.11-0.17
				c0.06-0.05,0.15-0.12,0.29-0.19c0.14-0.07,0.3-0.14,0.47-0.2c0.18-0.06,0.37-0.11,0.59-0.15c0.21-0.04,0.43-0.06,0.64-0.06
				c0.4,0,0.75,0.05,1.03,0.14c0.28,0.09,0.51,0.23,0.69,0.4c0.17,0.18,0.3,0.4,0.38,0.66c0.08,0.26,0.12,0.57,0.12,0.92V62.62z
				 M50.63,60.05h-0.88c-0.28,0-0.53,0.02-0.74,0.07c-0.21,0.05-0.38,0.12-0.52,0.21c-0.14,0.09-0.24,0.21-0.3,0.34
				c-0.06,0.13-0.1,0.28-0.1,0.45c0,0.29,0.09,0.52,0.28,0.7s0.44,0.26,0.78,0.26c0.27,0,0.52-0.07,0.75-0.21
				c0.23-0.14,0.47-0.35,0.73-0.63V60.05z"/>
			<path class="st3" d="M59.03,59.73c0,0.49-0.05,0.93-0.16,1.31c-0.11,0.39-0.26,0.72-0.47,1c-0.21,0.27-0.46,0.48-0.76,0.63
				c-0.3,0.15-0.64,0.22-1.03,0.22c-0.18,0-0.34-0.02-0.5-0.05c-0.15-0.04-0.3-0.09-0.45-0.17c-0.15-0.08-0.29-0.18-0.44-0.3
				s-0.3-0.27-0.46-0.44v0.69c0,0.03-0.01,0.06-0.02,0.09c-0.02,0.02-0.04,0.04-0.08,0.06c-0.04,0.01-0.08,0.03-0.14,0.03
				c-0.06,0.01-0.13,0.01-0.22,0.01c-0.08,0-0.15,0-0.21-0.01c-0.06-0.01-0.11-0.02-0.14-0.03c-0.04-0.01-0.06-0.03-0.07-0.06
				c-0.01-0.02-0.02-0.05-0.02-0.09v-8.34c0-0.03,0.01-0.06,0.02-0.09c0.01-0.02,0.04-0.05,0.08-0.06s0.09-0.03,0.16-0.04
				c0.07-0.01,0.15-0.01,0.25-0.01c0.1,0,0.19,0,0.26,0.01c0.07,0.01,0.12,0.02,0.16,0.04s0.06,0.04,0.08,0.06
				c0.02,0.02,0.02,0.05,0.02,0.09v3.37c0.17-0.17,0.33-0.31,0.48-0.43c0.16-0.12,0.31-0.21,0.46-0.28c0.15-0.07,0.3-0.13,0.45-0.16
				c0.15-0.03,0.31-0.05,0.47-0.05c0.41,0,0.76,0.08,1.05,0.24s0.52,0.38,0.71,0.65c0.18,0.27,0.31,0.59,0.4,0.96
				C58.99,58.93,59.03,59.32,59.03,59.73z M57.97,59.85c0-0.29-0.02-0.57-0.07-0.84c-0.04-0.27-0.12-0.51-0.23-0.72
				c-0.11-0.21-0.25-0.38-0.43-0.5c-0.18-0.13-0.4-0.19-0.67-0.19c-0.13,0-0.27,0.02-0.4,0.06c-0.13,0.04-0.26,0.1-0.4,0.19
				c-0.13,0.09-0.27,0.2-0.42,0.34c-0.14,0.14-0.3,0.31-0.46,0.52v2.24c0.28,0.35,0.56,0.61,0.82,0.79
				c0.26,0.18,0.53,0.27,0.81,0.27c0.26,0,0.48-0.06,0.67-0.19s0.33-0.29,0.45-0.5c0.12-0.21,0.2-0.44,0.25-0.69
				C57.94,60.37,57.97,60.11,57.97,59.85z"/>
			<path class="st3" d="M61.93,62.61c0,0.03-0.01,0.06-0.02,0.08s-0.04,0.04-0.08,0.06c-0.04,0.02-0.09,0.03-0.16,0.04
				c-0.07,0.01-0.15,0.01-0.26,0.01c-0.1,0-0.18,0-0.25-0.01c-0.07-0.01-0.12-0.02-0.16-0.04c-0.04-0.02-0.07-0.04-0.08-0.06
				c-0.01-0.02-0.02-0.05-0.02-0.08v-8.34c0-0.03,0.01-0.06,0.02-0.09c0.01-0.02,0.04-0.05,0.08-0.06c0.04-0.02,0.09-0.03,0.16-0.04
				c0.07-0.01,0.15-0.01,0.25-0.01c0.1,0,0.19,0,0.26,0.01c0.07,0.01,0.12,0.02,0.16,0.04s0.06,0.04,0.08,0.06
				c0.02,0.02,0.02,0.05,0.02,0.09V62.61z"/>
			<path class="st3" d="M65.31,55.1c0,0.24-0.05,0.41-0.14,0.49c-0.09,0.09-0.26,0.13-0.51,0.13c-0.24,0-0.41-0.04-0.5-0.13
				c-0.09-0.09-0.13-0.25-0.13-0.48c0-0.24,0.05-0.41,0.14-0.49c0.09-0.09,0.26-0.13,0.51-0.13c0.24,0,0.41,0.04,0.5,0.13
				C65.26,54.7,65.31,54.86,65.31,55.1z M65.19,62.61c0,0.03-0.01,0.06-0.02,0.08c-0.02,0.02-0.04,0.04-0.08,0.06
				c-0.04,0.02-0.09,0.03-0.16,0.04c-0.07,0.01-0.15,0.01-0.26,0.01c-0.1,0-0.18,0-0.25-0.01c-0.07-0.01-0.12-0.02-0.16-0.04
				c-0.04-0.02-0.07-0.04-0.08-0.06s-0.02-0.05-0.02-0.08v-5.62c0-0.03,0.01-0.06,0.02-0.08s0.04-0.05,0.08-0.06
				c0.04-0.02,0.09-0.03,0.16-0.04c0.07-0.01,0.15-0.01,0.25-0.01c0.1,0,0.19,0,0.26,0.01c0.07,0.01,0.12,0.02,0.16,0.04
				c0.04,0.02,0.06,0.04,0.08,0.06c0.02,0.02,0.02,0.05,0.02,0.08V62.61z"/>
			<path class="st3" d="M72.25,62.61c0,0.03-0.01,0.06-0.02,0.08c-0.02,0.02-0.04,0.04-0.08,0.06c-0.04,0.02-0.09,0.03-0.16,0.04
				c-0.07,0.01-0.15,0.01-0.25,0.01c-0.1,0-0.19,0-0.26-0.01c-0.07-0.01-0.12-0.02-0.16-0.04c-0.04-0.02-0.06-0.04-0.08-0.06
				c-0.02-0.02-0.02-0.05-0.02-0.08v-3.29c0-0.32-0.02-0.58-0.07-0.77c-0.05-0.2-0.12-0.36-0.22-0.51s-0.22-0.25-0.37-0.32
				c-0.15-0.07-0.33-0.11-0.53-0.11c-0.26,0-0.52,0.09-0.77,0.27c-0.26,0.18-0.53,0.45-0.81,0.81v3.93c0,0.03-0.01,0.06-0.02,0.08
				c-0.02,0.02-0.04,0.04-0.08,0.06c-0.04,0.02-0.09,0.03-0.16,0.04c-0.07,0.01-0.15,0.01-0.26,0.01c-0.1,0-0.18,0-0.25-0.01
				c-0.07-0.01-0.12-0.02-0.16-0.04c-0.04-0.02-0.07-0.04-0.08-0.06s-0.02-0.05-0.02-0.08v-5.62c0-0.03,0.01-0.06,0.02-0.08
				c0.01-0.02,0.04-0.04,0.07-0.06c0.04-0.02,0.09-0.03,0.14-0.04c0.06-0.01,0.14-0.01,0.23-0.01c0.09,0,0.17,0,0.23,0.01
				c0.06,0.01,0.11,0.02,0.14,0.04c0.03,0.02,0.06,0.04,0.07,0.06c0.01,0.02,0.02,0.05,0.02,0.08v0.74
				c0.32-0.35,0.63-0.61,0.95-0.78c0.31-0.16,0.63-0.25,0.95-0.25c0.37,0,0.69,0.06,0.95,0.19c0.26,0.13,0.46,0.3,0.62,0.51
				c0.16,0.21,0.27,0.46,0.34,0.75c0.07,0.29,0.1,0.63,0.1,1.03V62.61z"/>
			<path class="st3" d="M79.14,57.25c0,0.15-0.02,0.25-0.06,0.32c-0.04,0.06-0.09,0.1-0.15,0.1h-0.81c0.15,0.15,0.25,0.32,0.31,0.5
				c0.06,0.18,0.09,0.37,0.09,0.57c0,0.32-0.05,0.61-0.16,0.86c-0.1,0.25-0.25,0.46-0.45,0.63c-0.19,0.17-0.42,0.31-0.69,0.4
				c-0.27,0.09-0.56,0.14-0.89,0.14c-0.23,0-0.45-0.03-0.65-0.09c-0.21-0.06-0.37-0.14-0.48-0.23c-0.07,0.07-0.14,0.16-0.18,0.26
				c-0.05,0.1-0.07,0.21-0.07,0.33c0,0.15,0.07,0.27,0.2,0.36c0.14,0.1,0.32,0.15,0.54,0.16l1.47,0.06
				c0.28,0.01,0.53,0.05,0.77,0.12c0.23,0.07,0.44,0.17,0.61,0.29c0.17,0.13,0.3,0.28,0.4,0.47c0.1,0.19,0.14,0.4,0.14,0.65
				c0,0.26-0.05,0.5-0.16,0.74s-0.27,0.44-0.5,0.61c-0.22,0.18-0.51,0.32-0.85,0.42c-0.35,0.1-0.75,0.15-1.22,0.15
				c-0.45,0-0.84-0.04-1.16-0.12c-0.32-0.08-0.58-0.18-0.78-0.32s-0.35-0.29-0.44-0.48s-0.14-0.39-0.14-0.6
				c0-0.14,0.02-0.27,0.05-0.4c0.03-0.13,0.08-0.25,0.15-0.37c0.07-0.12,0.15-0.23,0.26-0.33c0.1-0.11,0.22-0.21,0.35-0.32
				c-0.2-0.1-0.35-0.24-0.45-0.39s-0.15-0.33-0.15-0.51c0-0.25,0.05-0.48,0.16-0.68c0.1-0.2,0.23-0.38,0.39-0.54
				c-0.13-0.15-0.23-0.33-0.31-0.52c-0.07-0.19-0.11-0.43-0.11-0.7c0-0.32,0.05-0.61,0.16-0.86s0.26-0.47,0.45-0.64
				c0.19-0.17,0.42-0.31,0.69-0.4c0.27-0.09,0.56-0.14,0.88-0.14c0.17,0,0.33,0.01,0.48,0.03c0.15,0.02,0.29,0.04,0.42,0.08h1.7
				c0.07,0,0.12,0.03,0.16,0.1C79.13,57,79.14,57.11,79.14,57.25z M78.05,63.18c0-0.24-0.1-0.43-0.3-0.56
				c-0.2-0.13-0.47-0.2-0.8-0.21l-1.45-0.05c-0.13,0.1-0.24,0.2-0.33,0.3c-0.09,0.09-0.15,0.18-0.2,0.27
				c-0.05,0.09-0.08,0.17-0.1,0.25c-0.02,0.08-0.03,0.17-0.03,0.26c0,0.27,0.14,0.48,0.41,0.61c0.27,0.14,0.66,0.21,1.15,0.21
				c0.31,0,0.57-0.03,0.78-0.09c0.21-0.06,0.38-0.14,0.51-0.24c0.13-0.1,0.22-0.21,0.28-0.34C78.02,63.46,78.05,63.32,78.05,63.18z
				 M77.53,58.73c0-0.38-0.11-0.68-0.32-0.9c-0.21-0.21-0.51-0.32-0.9-0.32c-0.2,0-0.37,0.03-0.52,0.1
				c-0.15,0.07-0.27,0.16-0.37,0.27c-0.1,0.12-0.17,0.25-0.22,0.4c-0.05,0.15-0.07,0.31-0.07,0.48c0,0.37,0.11,0.66,0.32,0.87
				c0.21,0.21,0.5,0.32,0.88,0.32c0.2,0,0.38-0.03,0.53-0.1s0.27-0.15,0.37-0.27c0.1-0.11,0.17-0.25,0.22-0.4
				C77.51,59.05,77.53,58.89,77.53,58.73z"/>
			<path class="st3" d="M89.08,57.06c0,0.4-0.07,0.77-0.2,1.09c-0.13,0.32-0.32,0.6-0.57,0.83s-0.55,0.41-0.91,0.53
				s-0.79,0.19-1.29,0.19h-0.92v2.91c0,0.03-0.01,0.06-0.03,0.09c-0.02,0.02-0.05,0.04-0.09,0.06c-0.04,0.01-0.09,0.03-0.16,0.04
				c-0.07,0.01-0.16,0.02-0.26,0.02s-0.19-0.01-0.26-0.02c-0.07-0.01-0.12-0.02-0.17-0.04c-0.04-0.01-0.07-0.03-0.09-0.06
				c-0.02-0.02-0.02-0.05-0.02-0.09v-7.46c0-0.17,0.04-0.29,0.13-0.36s0.19-0.11,0.29-0.11h1.73c0.17,0,0.34,0.01,0.5,0.02
				c0.16,0.01,0.35,0.05,0.57,0.09c0.22,0.05,0.44,0.14,0.67,0.27c0.23,0.13,0.42,0.29,0.58,0.48c0.16,0.19,0.28,0.41,0.37,0.66
				C89.04,56.48,89.08,56.75,89.08,57.06z M87.95,57.14c0-0.33-0.06-0.6-0.18-0.82c-0.12-0.22-0.27-0.39-0.46-0.49
				c-0.18-0.11-0.37-0.18-0.56-0.21c-0.19-0.03-0.38-0.04-0.57-0.04h-0.99v3.24h0.97c0.32,0,0.59-0.04,0.81-0.12
				c0.21-0.08,0.39-0.2,0.54-0.35c0.15-0.15,0.26-0.32,0.33-0.53C87.91,57.61,87.95,57.39,87.95,57.14z"/>
			<path class="st3" d="M95.9,59.74c0,0.46-0.06,0.88-0.18,1.26c-0.12,0.39-0.3,0.72-0.54,1c-0.24,0.28-0.54,0.5-0.9,0.65
				c-0.36,0.16-0.78,0.23-1.25,0.23c-0.46,0-0.86-0.07-1.21-0.21c-0.34-0.14-0.63-0.34-0.86-0.6c-0.23-0.26-0.4-0.58-0.51-0.96
				c-0.11-0.37-0.17-0.8-0.17-1.27c0-0.46,0.06-0.88,0.18-1.26s0.3-0.72,0.54-1c0.24-0.28,0.54-0.5,0.9-0.65
				c0.36-0.15,0.78-0.23,1.26-0.23c0.46,0,0.86,0.07,1.21,0.21c0.34,0.14,0.63,0.34,0.86,0.6c0.23,0.26,0.4,0.58,0.52,0.96
				S95.9,59.27,95.9,59.74z M94.83,59.81c0-0.3-0.03-0.59-0.09-0.86c-0.06-0.27-0.15-0.51-0.28-0.71c-0.13-0.2-0.31-0.37-0.53-0.48
				c-0.22-0.12-0.5-0.18-0.83-0.18c-0.31,0-0.57,0.05-0.79,0.16c-0.22,0.11-0.4,0.26-0.54,0.46c-0.14,0.2-0.25,0.43-0.32,0.7
				c-0.07,0.27-0.1,0.57-0.1,0.89c0,0.31,0.03,0.6,0.09,0.87c0.06,0.27,0.15,0.51,0.28,0.71c0.13,0.2,0.31,0.36,0.53,0.48
				c0.22,0.12,0.5,0.18,0.83,0.18c0.3,0,0.56-0.05,0.79-0.16c0.22-0.11,0.41-0.26,0.55-0.46c0.14-0.2,0.25-0.43,0.31-0.7
				C94.79,60.43,94.83,60.14,94.83,59.81z"/>
			<path class="st3" d="M101.26,61.08c0,0.29-0.05,0.54-0.16,0.77c-0.11,0.22-0.26,0.41-0.45,0.57c-0.2,0.15-0.43,0.27-0.7,0.35
				c-0.27,0.08-0.57,0.12-0.89,0.12c-0.2,0-0.39-0.02-0.57-0.05c-0.18-0.03-0.34-0.07-0.49-0.12c-0.14-0.05-0.27-0.1-0.37-0.15
				c-0.1-0.05-0.17-0.1-0.22-0.14c-0.05-0.04-0.08-0.1-0.1-0.17c-0.02-0.07-0.03-0.18-0.03-0.31c0-0.08,0-0.15,0.01-0.2
				c0.01-0.05,0.02-0.1,0.03-0.13s0.03-0.06,0.05-0.07c0.02-0.01,0.05-0.02,0.08-0.02c0.05,0,0.11,0.03,0.2,0.08
				c0.09,0.06,0.2,0.12,0.33,0.18c0.13,0.07,0.29,0.13,0.47,0.18c0.18,0.06,0.39,0.08,0.62,0.08c0.17,0,0.33-0.02,0.47-0.06
				c0.14-0.04,0.26-0.09,0.37-0.17c0.1-0.07,0.18-0.17,0.24-0.28c0.06-0.11,0.08-0.25,0.08-0.4c0-0.16-0.04-0.29-0.12-0.4
				c-0.08-0.11-0.19-0.2-0.32-0.29c-0.13-0.08-0.28-0.16-0.45-0.22c-0.17-0.06-0.34-0.13-0.52-0.2c-0.18-0.07-0.35-0.15-0.52-0.24
				c-0.17-0.09-0.32-0.2-0.45-0.33c-0.13-0.13-0.24-0.28-0.32-0.46c-0.08-0.18-0.12-0.39-0.12-0.64c0-0.22,0.04-0.43,0.13-0.63
				c0.09-0.2,0.21-0.38,0.38-0.53s0.38-0.27,0.64-0.37c0.26-0.09,0.55-0.14,0.9-0.14c0.15,0,0.3,0.01,0.45,0.04
				c0.15,0.02,0.29,0.06,0.41,0.09c0.12,0.04,0.22,0.08,0.31,0.12c0.09,0.04,0.15,0.08,0.19,0.12s0.07,0.06,0.09,0.09
				c0.01,0.02,0.02,0.05,0.03,0.08c0.01,0.03,0.01,0.07,0.02,0.12c0.01,0.05,0.01,0.1,0.01,0.17c0,0.07,0,0.13-0.01,0.18
				c-0.01,0.05-0.02,0.09-0.03,0.13c-0.01,0.03-0.03,0.06-0.05,0.07c-0.02,0.01-0.04,0.02-0.07,0.02c-0.04,0-0.09-0.02-0.16-0.07
				c-0.07-0.05-0.16-0.09-0.27-0.15c-0.11-0.05-0.24-0.1-0.4-0.15c-0.15-0.05-0.33-0.07-0.52-0.07c-0.17,0-0.33,0.02-0.46,0.06
				c-0.13,0.04-0.24,0.1-0.33,0.17c-0.09,0.07-0.15,0.16-0.19,0.26c-0.04,0.1-0.07,0.21-0.07,0.32c0,0.16,0.04,0.3,0.12,0.41
				c0.08,0.11,0.19,0.21,0.32,0.29c0.13,0.08,0.29,0.16,0.46,0.22s0.34,0.14,0.52,0.21c0.18,0.07,0.35,0.15,0.52,0.24
				s0.33,0.19,0.46,0.32c0.13,0.12,0.24,0.27,0.32,0.45C101.22,60.64,101.26,60.84,101.26,61.08z"/>
			<path class="st3" d="M106.58,61.08c0,0.29-0.05,0.54-0.16,0.77c-0.11,0.22-0.26,0.41-0.45,0.57c-0.2,0.15-0.43,0.27-0.7,0.35
				c-0.27,0.08-0.57,0.12-0.89,0.12c-0.2,0-0.39-0.02-0.57-0.05c-0.18-0.03-0.34-0.07-0.49-0.12c-0.14-0.05-0.27-0.1-0.37-0.15
				s-0.17-0.1-0.22-0.14c-0.05-0.04-0.08-0.1-0.1-0.17c-0.02-0.07-0.03-0.18-0.03-0.31c0-0.08,0-0.15,0.01-0.2
				c0.01-0.05,0.02-0.1,0.03-0.13c0.01-0.03,0.03-0.06,0.05-0.07c0.02-0.01,0.05-0.02,0.08-0.02c0.05,0,0.11,0.03,0.2,0.08
				c0.09,0.06,0.2,0.12,0.33,0.18c0.13,0.07,0.29,0.13,0.47,0.18c0.18,0.06,0.39,0.08,0.62,0.08c0.17,0,0.33-0.02,0.47-0.06
				c0.14-0.04,0.26-0.09,0.37-0.17c0.1-0.07,0.18-0.17,0.24-0.28s0.08-0.25,0.08-0.4c0-0.16-0.04-0.29-0.12-0.4
				c-0.08-0.11-0.19-0.2-0.32-0.29c-0.13-0.08-0.28-0.16-0.45-0.22c-0.17-0.06-0.34-0.13-0.52-0.2c-0.18-0.07-0.35-0.15-0.52-0.24
				c-0.17-0.09-0.32-0.2-0.45-0.33c-0.13-0.13-0.24-0.28-0.32-0.46c-0.08-0.18-0.12-0.39-0.12-0.64c0-0.22,0.04-0.43,0.13-0.63
				c0.09-0.2,0.21-0.38,0.38-0.53c0.17-0.15,0.38-0.27,0.64-0.37c0.26-0.09,0.55-0.14,0.9-0.14c0.15,0,0.3,0.01,0.45,0.04
				c0.15,0.02,0.29,0.06,0.41,0.09c0.12,0.04,0.22,0.08,0.31,0.12c0.09,0.04,0.15,0.08,0.19,0.12s0.07,0.06,0.09,0.09
				c0.01,0.02,0.02,0.05,0.03,0.08c0.01,0.03,0.01,0.07,0.02,0.12s0.01,0.1,0.01,0.17c0,0.07,0,0.13-0.01,0.18
				c-0.01,0.05-0.02,0.09-0.03,0.13c-0.01,0.03-0.03,0.06-0.05,0.07c-0.02,0.01-0.04,0.02-0.07,0.02c-0.04,0-0.09-0.02-0.16-0.07
				c-0.07-0.05-0.16-0.09-0.27-0.15c-0.11-0.05-0.24-0.1-0.4-0.15c-0.15-0.05-0.33-0.07-0.52-0.07c-0.17,0-0.33,0.02-0.46,0.06
				c-0.13,0.04-0.24,0.1-0.33,0.17c-0.09,0.07-0.15,0.16-0.19,0.26c-0.04,0.1-0.07,0.21-0.07,0.32c0,0.16,0.04,0.3,0.12,0.41
				c0.08,0.11,0.19,0.21,0.32,0.29c0.13,0.08,0.29,0.16,0.46,0.22c0.17,0.07,0.34,0.14,0.52,0.21s0.35,0.15,0.52,0.24
				s0.33,0.19,0.46,0.32s0.24,0.27,0.32,0.45C106.54,60.64,106.58,60.84,106.58,61.08z"/>
			<path class="st3" d="M109.52,55.1c0,0.24-0.05,0.41-0.14,0.49c-0.09,0.09-0.26,0.13-0.51,0.13c-0.24,0-0.41-0.04-0.5-0.13
				c-0.09-0.09-0.13-0.25-0.13-0.48c0-0.24,0.05-0.41,0.14-0.49c0.09-0.09,0.26-0.13,0.51-0.13c0.24,0,0.41,0.04,0.5,0.13
				C109.48,54.7,109.52,54.86,109.52,55.1z M109.4,62.61c0,0.03-0.01,0.06-0.02,0.08c-0.02,0.02-0.04,0.04-0.08,0.06
				c-0.04,0.02-0.09,0.03-0.16,0.04c-0.07,0.01-0.15,0.01-0.26,0.01c-0.1,0-0.18,0-0.25-0.01c-0.07-0.01-0.12-0.02-0.16-0.04
				c-0.04-0.02-0.07-0.04-0.08-0.06c-0.01-0.02-0.02-0.05-0.02-0.08v-5.62c0-0.03,0.01-0.06,0.02-0.08
				c0.01-0.02,0.04-0.05,0.08-0.06c0.04-0.02,0.09-0.03,0.16-0.04c0.07-0.01,0.15-0.01,0.25-0.01c0.1,0,0.19,0,0.26,0.01
				c0.07,0.01,0.12,0.02,0.16,0.04c0.04,0.02,0.06,0.04,0.08,0.06c0.02,0.02,0.02,0.05,0.02,0.08V62.61z"/>
			<path class="st3" d="M116.8,59.73c0,0.49-0.05,0.93-0.16,1.31c-0.11,0.39-0.26,0.72-0.47,1c-0.21,0.27-0.46,0.48-0.76,0.63
				c-0.3,0.15-0.64,0.22-1.03,0.22c-0.18,0-0.34-0.02-0.5-0.05c-0.15-0.04-0.3-0.09-0.45-0.17c-0.15-0.08-0.29-0.18-0.44-0.3
				c-0.15-0.12-0.3-0.27-0.46-0.44v0.69c0,0.03-0.01,0.06-0.02,0.09c-0.02,0.02-0.04,0.04-0.08,0.06c-0.04,0.01-0.08,0.03-0.14,0.03
				c-0.06,0.01-0.13,0.01-0.22,0.01c-0.08,0-0.15,0-0.21-0.01c-0.06-0.01-0.11-0.02-0.14-0.03c-0.04-0.01-0.06-0.03-0.07-0.06
				c-0.01-0.02-0.02-0.05-0.02-0.09v-8.34c0-0.03,0.01-0.06,0.02-0.09c0.01-0.02,0.04-0.05,0.08-0.06s0.09-0.03,0.16-0.04
				c0.07-0.01,0.15-0.01,0.25-0.01c0.1,0,0.19,0,0.26,0.01c0.07,0.01,0.12,0.02,0.16,0.04c0.04,0.02,0.06,0.04,0.08,0.06
				c0.02,0.02,0.02,0.05,0.02,0.09v3.37c0.17-0.17,0.33-0.31,0.48-0.43c0.16-0.12,0.31-0.21,0.46-0.28c0.15-0.07,0.3-0.13,0.45-0.16
				c0.15-0.03,0.31-0.05,0.47-0.05c0.41,0,0.76,0.08,1.05,0.24c0.29,0.16,0.52,0.38,0.7,0.65c0.18,0.27,0.31,0.59,0.4,0.96
				C116.76,58.93,116.8,59.32,116.8,59.73z M115.73,59.85c0-0.29-0.02-0.57-0.07-0.84c-0.04-0.27-0.12-0.51-0.23-0.72
				c-0.11-0.21-0.25-0.38-0.43-0.5c-0.18-0.13-0.4-0.19-0.67-0.19c-0.13,0-0.27,0.02-0.4,0.06c-0.13,0.04-0.26,0.1-0.4,0.19
				c-0.13,0.09-0.27,0.2-0.42,0.34c-0.14,0.14-0.3,0.31-0.46,0.52v2.24c0.28,0.35,0.56,0.61,0.82,0.79
				c0.26,0.18,0.53,0.27,0.81,0.27c0.26,0,0.48-0.06,0.67-0.19s0.33-0.29,0.45-0.5c0.11-0.21,0.2-0.44,0.25-0.69
				C115.7,60.37,115.73,60.11,115.73,59.85z"/>
			<path class="st3" d="M119.82,55.1c0,0.24-0.05,0.41-0.14,0.49c-0.09,0.09-0.26,0.13-0.51,0.13c-0.24,0-0.41-0.04-0.5-0.13
				c-0.09-0.09-0.13-0.25-0.13-0.48c0-0.24,0.05-0.41,0.14-0.49c0.09-0.09,0.26-0.13,0.51-0.13c0.24,0,0.41,0.04,0.5,0.13
				C119.77,54.7,119.82,54.86,119.82,55.1z M119.7,62.61c0,0.03-0.01,0.06-0.02,0.08c-0.02,0.02-0.04,0.04-0.08,0.06
				c-0.04,0.02-0.09,0.03-0.16,0.04c-0.07,0.01-0.15,0.01-0.26,0.01c-0.1,0-0.18,0-0.25-0.01c-0.07-0.01-0.12-0.02-0.16-0.04
				c-0.04-0.02-0.07-0.04-0.08-0.06c-0.01-0.02-0.02-0.05-0.02-0.08v-5.62c0-0.03,0.01-0.06,0.02-0.08
				c0.01-0.02,0.04-0.05,0.08-0.06c0.04-0.02,0.09-0.03,0.16-0.04c0.07-0.01,0.15-0.01,0.25-0.01c0.1,0,0.19,0,0.26,0.01
				c0.07,0.01,0.12,0.02,0.16,0.04c0.04,0.02,0.06,0.04,0.08,0.06c0.02,0.02,0.02,0.05,0.02,0.08V62.61z"/>
			<path class="st3" d="M122.95,62.61c0,0.03-0.01,0.06-0.02,0.08c-0.02,0.02-0.04,0.04-0.08,0.06c-0.04,0.02-0.09,0.03-0.16,0.04
				c-0.07,0.01-0.15,0.01-0.26,0.01c-0.1,0-0.18,0-0.25-0.01c-0.07-0.01-0.12-0.02-0.16-0.04c-0.04-0.02-0.07-0.04-0.08-0.06
				c-0.01-0.02-0.02-0.05-0.02-0.08v-8.34c0-0.03,0.01-0.06,0.02-0.09c0.01-0.02,0.04-0.05,0.08-0.06c0.04-0.02,0.09-0.03,0.16-0.04
				c0.07-0.01,0.15-0.01,0.25-0.01c0.1,0,0.19,0,0.26,0.01c0.07,0.01,0.12,0.02,0.16,0.04c0.04,0.02,0.06,0.04,0.08,0.06
				c0.02,0.02,0.02,0.05,0.02,0.09V62.61z"/>
			<path class="st3" d="M126.33,55.1c0,0.24-0.05,0.41-0.14,0.49c-0.09,0.09-0.26,0.13-0.51,0.13c-0.24,0-0.41-0.04-0.5-0.13
				c-0.09-0.09-0.13-0.25-0.13-0.48c0-0.24,0.05-0.41,0.14-0.49c0.09-0.09,0.26-0.13,0.51-0.13c0.24,0,0.41,0.04,0.5,0.13
				C126.28,54.7,126.33,54.86,126.33,55.1z M126.21,62.61c0,0.03-0.01,0.06-0.02,0.08c-0.02,0.02-0.04,0.04-0.08,0.06
				c-0.04,0.02-0.09,0.03-0.16,0.04c-0.07,0.01-0.15,0.01-0.26,0.01c-0.1,0-0.18,0-0.25-0.01c-0.07-0.01-0.12-0.02-0.16-0.04
				c-0.04-0.02-0.07-0.04-0.08-0.06c-0.01-0.02-0.02-0.05-0.02-0.08v-5.62c0-0.03,0.01-0.06,0.02-0.08
				c0.01-0.02,0.04-0.05,0.08-0.06c0.04-0.02,0.09-0.03,0.16-0.04c0.07-0.01,0.15-0.01,0.25-0.01c0.1,0,0.19,0,0.26,0.01
				c0.07,0.01,0.12,0.02,0.16,0.04c0.04,0.02,0.06,0.04,0.08,0.06c0.02,0.02,0.02,0.05,0.02,0.08V62.61z"/>
			<path class="st3" d="M131.41,62.2c0,0.12-0.01,0.22-0.02,0.29c-0.02,0.07-0.04,0.12-0.07,0.16c-0.03,0.03-0.08,0.06-0.15,0.09
				s-0.14,0.05-0.23,0.07c-0.09,0.02-0.18,0.03-0.27,0.05s-0.19,0.02-0.29,0.02c-0.29,0-0.54-0.04-0.75-0.12
				c-0.21-0.08-0.38-0.19-0.51-0.35c-0.13-0.16-0.23-0.35-0.29-0.59c-0.06-0.24-0.09-0.52-0.09-0.85v-3.28h-0.79
				c-0.06,0-0.11-0.03-0.15-0.1c-0.04-0.07-0.06-0.17-0.06-0.32c0-0.08,0-0.15,0.02-0.2s0.02-0.1,0.04-0.13
				c0.02-0.04,0.04-0.06,0.07-0.07c0.03-0.01,0.06-0.02,0.09-0.02h0.78V55.5c0-0.03,0.01-0.06,0.02-0.08s0.04-0.05,0.08-0.07
				c0.04-0.02,0.09-0.03,0.16-0.04c0.07-0.01,0.15-0.01,0.25-0.01c0.1,0,0.19,0,0.26,0.01c0.07,0.01,0.12,0.02,0.16,0.04
				c0.04,0.02,0.06,0.04,0.08,0.07c0.02,0.02,0.02,0.05,0.02,0.08v1.34h1.44c0.03,0,0.06,0.01,0.09,0.02
				c0.02,0.01,0.05,0.04,0.07,0.07c0.02,0.04,0.03,0.08,0.04,0.13s0.01,0.12,0.01,0.2c0,0.15-0.02,0.26-0.06,0.32
				c-0.04,0.07-0.09,0.1-0.15,0.1h-1.44v3.13c0,0.39,0.06,0.68,0.17,0.88c0.11,0.2,0.32,0.3,0.61,0.3c0.1,0,0.18-0.01,0.26-0.03
				c0.07-0.02,0.14-0.04,0.2-0.06c0.06-0.02,0.11-0.04,0.15-0.06c0.04-0.02,0.08-0.03,0.11-0.03c0.02,0,0.04,0.01,0.06,0.02
				c0.02,0.01,0.03,0.03,0.04,0.06c0.01,0.03,0.02,0.07,0.03,0.12C131.41,62.07,131.41,62.13,131.41,62.2z"/>
			<path class="st3" d="M133.93,55.1c0,0.24-0.05,0.41-0.14,0.49s-0.26,0.13-0.51,0.13c-0.24,0-0.41-0.04-0.5-0.13
				c-0.09-0.09-0.13-0.25-0.13-0.48c0-0.24,0.05-0.41,0.14-0.49s0.26-0.13,0.51-0.13c0.24,0,0.41,0.04,0.5,0.13
				C133.88,54.7,133.93,54.86,133.93,55.1z M133.81,62.61c0,0.03-0.01,0.06-0.02,0.08s-0.04,0.04-0.08,0.06
				c-0.04,0.02-0.09,0.03-0.16,0.04c-0.07,0.01-0.15,0.01-0.26,0.01c-0.1,0-0.18,0-0.25-0.01c-0.07-0.01-0.12-0.02-0.16-0.04
				c-0.04-0.02-0.07-0.04-0.08-0.06c-0.01-0.02-0.02-0.05-0.02-0.08v-5.62c0-0.03,0.01-0.06,0.02-0.08
				c0.01-0.02,0.04-0.05,0.08-0.06c0.04-0.02,0.09-0.03,0.16-0.04c0.07-0.01,0.15-0.01,0.25-0.01c0.1,0,0.19,0,0.26,0.01
				c0.07,0.01,0.12,0.02,0.16,0.04c0.04,0.02,0.06,0.04,0.08,0.06s0.02,0.05,0.02,0.08V62.61z"/>
			<path class="st4" d="M133.32,56.83c0.12,0,0.21,0.03,0.26,0.08c0.05,0.06,0.07,0.14,0.07,0.25v5.45c0,0.03-0.01,0.06-0.02,0.08
				s-0.04,0.04-0.08,0.06c-0.04,0.02-0.09,0.03-0.16,0.04c-0.07,0.01-0.15,0.01-0.24,0.01c-0.1,0-0.19,0-0.26-0.01
				c-0.07-0.01-0.12-0.02-0.16-0.04c-0.04-0.02-0.07-0.04-0.08-0.06c-0.02-0.02-0.02-0.05-0.02-0.08v-4.93h-2.9v3.13
				c0,0.39,0.06,0.68,0.17,0.88c0.11,0.2,0.32,0.3,0.61,0.3c0.1,0,0.18-0.01,0.26-0.03c0.07-0.02,0.14-0.04,0.2-0.06
				s0.11-0.04,0.15-0.06c0.04-0.02,0.08-0.03,0.11-0.03c0.02,0,0.04,0.01,0.06,0.02c0.02,0.01,0.03,0.03,0.04,0.06
				c0.01,0.03,0.02,0.07,0.03,0.12c0.01,0.05,0.01,0.11,0.01,0.19c0,0.12-0.01,0.22-0.02,0.28c-0.02,0.07-0.04,0.12-0.07,0.16
				c-0.03,0.04-0.08,0.07-0.15,0.1c-0.07,0.03-0.14,0.05-0.23,0.07c-0.09,0.02-0.18,0.03-0.27,0.05c-0.1,0.01-0.19,0.02-0.29,0.02
				c-0.29,0-0.54-0.04-0.75-0.12c-0.21-0.08-0.38-0.19-0.51-0.35c-0.13-0.16-0.23-0.35-0.29-0.59c-0.06-0.24-0.09-0.52-0.09-0.85
				v-3.28h-0.79c-0.06,0-0.11-0.03-0.15-0.1c-0.04-0.07-0.06-0.17-0.06-0.32c0-0.08,0-0.15,0.02-0.2s0.02-0.1,0.04-0.13
				c0.02-0.04,0.04-0.06,0.07-0.07c0.03-0.01,0.06-0.02,0.09-0.02h0.78V55.5c0-0.03,0.01-0.06,0.02-0.08
				c0.01-0.02,0.04-0.05,0.08-0.07c0.04-0.02,0.09-0.03,0.16-0.04c0.07-0.01,0.15-0.01,0.25-0.01c0.1,0,0.19,0,0.26,0.01
				c0.07,0.01,0.12,0.02,0.16,0.04c0.04,0.02,0.06,0.04,0.08,0.07s0.02,0.05,0.02,0.08v1.34H133.32z M133.76,55.1
				c0,0.24-0.05,0.41-0.14,0.49c-0.09,0.09-0.26,0.13-0.51,0.13c-0.24,0-0.41-0.04-0.5-0.13c-0.09-0.09-0.13-0.25-0.13-0.48
				c0-0.24,0.05-0.41,0.14-0.49c0.09-0.09,0.26-0.13,0.51-0.13c0.24,0,0.41,0.04,0.5,0.13C133.72,54.7,133.76,54.86,133.76,55.1z"/>
			<path class="st3" d="M140.67,59.56c0,0.16-0.04,0.28-0.12,0.35c-0.08,0.07-0.17,0.1-0.28,0.1h-3.7c0,0.31,0.03,0.59,0.09,0.84
				c0.06,0.25,0.17,0.46,0.31,0.64c0.15,0.18,0.34,0.32,0.57,0.41c0.23,0.1,0.52,0.14,0.86,0.14c0.27,0,0.51-0.02,0.72-0.07
				c0.21-0.04,0.39-0.09,0.54-0.15c0.15-0.05,0.28-0.1,0.38-0.15c0.1-0.04,0.17-0.07,0.22-0.07c0.03,0,0.06,0.01,0.08,0.02
				c0.02,0.01,0.04,0.04,0.05,0.07c0.01,0.03,0.02,0.07,0.03,0.12c0.01,0.05,0.01,0.12,0.01,0.19c0,0.05,0,0.1-0.01,0.14
				c0,0.04-0.01,0.07-0.02,0.11c-0.01,0.03-0.02,0.06-0.03,0.08c-0.01,0.02-0.03,0.05-0.06,0.07c-0.02,0.02-0.09,0.06-0.2,0.11
				c-0.11,0.05-0.26,0.1-0.44,0.15s-0.39,0.09-0.62,0.13c-0.24,0.04-0.49,0.06-0.75,0.06c-0.46,0-0.87-0.06-1.21-0.19
				c-0.35-0.13-0.64-0.32-0.88-0.57s-0.42-0.57-0.54-0.96c-0.12-0.38-0.18-0.83-0.18-1.34c0-0.48,0.06-0.92,0.19-1.3
				s0.3-0.71,0.54-0.98c0.24-0.27,0.52-0.47,0.85-0.62c0.33-0.14,0.71-0.22,1.12-0.22c0.44,0,0.82,0.07,1.13,0.21
				c0.31,0.14,0.57,0.33,0.77,0.57c0.2,0.24,0.35,0.52,0.44,0.84c0.09,0.32,0.14,0.67,0.14,1.03V59.56z M139.63,59.26
				c0.01-0.54-0.11-0.97-0.36-1.27c-0.25-0.31-0.63-0.46-1.13-0.46c-0.26,0-0.48,0.05-0.67,0.14s-0.35,0.22-0.48,0.38
				c-0.13,0.16-0.23,0.34-0.3,0.55c-0.07,0.21-0.11,0.43-0.12,0.66H139.63z"/>
			<path class="st3" d="M146.09,61.08c0,0.29-0.05,0.54-0.16,0.77c-0.11,0.22-0.26,0.41-0.45,0.57c-0.2,0.15-0.43,0.27-0.7,0.35
				c-0.27,0.08-0.57,0.12-0.89,0.12c-0.2,0-0.39-0.02-0.57-0.05c-0.18-0.03-0.34-0.07-0.49-0.12c-0.14-0.05-0.27-0.1-0.37-0.15
				c-0.1-0.05-0.17-0.1-0.22-0.14c-0.05-0.04-0.08-0.1-0.1-0.17c-0.02-0.07-0.03-0.18-0.03-0.31c0-0.08,0-0.15,0.01-0.2
				s0.02-0.1,0.03-0.13s0.03-0.06,0.05-0.07c0.02-0.01,0.05-0.02,0.08-0.02c0.05,0,0.11,0.03,0.2,0.08c0.09,0.06,0.2,0.12,0.33,0.18
				c0.13,0.07,0.29,0.13,0.46,0.18c0.18,0.06,0.39,0.08,0.62,0.08c0.17,0,0.33-0.02,0.47-0.06c0.14-0.04,0.26-0.09,0.37-0.17
				c0.1-0.07,0.18-0.17,0.24-0.28c0.06-0.11,0.08-0.25,0.08-0.4c0-0.16-0.04-0.29-0.12-0.4c-0.08-0.11-0.19-0.2-0.32-0.29
				c-0.13-0.08-0.28-0.16-0.45-0.22c-0.17-0.06-0.34-0.13-0.52-0.2c-0.18-0.07-0.35-0.15-0.52-0.24c-0.17-0.09-0.32-0.2-0.45-0.33
				c-0.13-0.13-0.24-0.28-0.32-0.46c-0.08-0.18-0.12-0.39-0.12-0.64c0-0.22,0.04-0.43,0.13-0.63c0.09-0.2,0.21-0.38,0.38-0.53
				s0.38-0.27,0.64-0.37c0.26-0.09,0.55-0.14,0.9-0.14c0.15,0,0.3,0.01,0.45,0.04c0.15,0.02,0.29,0.06,0.41,0.09
				c0.12,0.04,0.22,0.08,0.31,0.12c0.09,0.04,0.15,0.08,0.19,0.12c0.04,0.03,0.07,0.06,0.09,0.09c0.01,0.02,0.02,0.05,0.03,0.08
				c0.01,0.03,0.01,0.07,0.02,0.12c0.01,0.05,0.01,0.1,0.01,0.17c0,0.07,0,0.13-0.01,0.18c-0.01,0.05-0.02,0.09-0.03,0.13
				c-0.01,0.03-0.03,0.06-0.05,0.07c-0.02,0.01-0.04,0.02-0.07,0.02c-0.04,0-0.09-0.02-0.16-0.07c-0.07-0.05-0.16-0.09-0.27-0.15
				c-0.11-0.05-0.24-0.1-0.4-0.15c-0.15-0.05-0.33-0.07-0.52-0.07c-0.17,0-0.33,0.02-0.46,0.06c-0.13,0.04-0.24,0.1-0.33,0.17
				c-0.09,0.07-0.15,0.16-0.19,0.26c-0.04,0.1-0.07,0.21-0.07,0.32c0,0.16,0.04,0.3,0.12,0.41c0.08,0.11,0.19,0.21,0.32,0.29
				c0.13,0.08,0.29,0.16,0.46,0.22c0.17,0.07,0.34,0.14,0.52,0.21c0.18,0.07,0.35,0.15,0.52,0.24c0.17,0.09,0.33,0.19,0.46,0.32
				s0.24,0.27,0.32,0.45C146.04,60.64,146.09,60.84,146.09,61.08z"/>
			<path class="st3" d="M155.7,62.33c0,0.07,0,0.14-0.01,0.2c-0.01,0.06-0.02,0.1-0.04,0.14s-0.04,0.06-0.07,0.08
				c-0.03,0.02-0.06,0.02-0.09,0.02h-3.88c-0.1,0-0.19-0.03-0.27-0.1c-0.09-0.06-0.13-0.18-0.13-0.34v-7.21
				c0-0.16,0.04-0.28,0.13-0.34c0.08-0.06,0.18-0.1,0.27-0.1h3.83c0.03,0,0.06,0.01,0.09,0.02c0.03,0.02,0.05,0.04,0.07,0.08
				s0.03,0.08,0.04,0.14c0.01,0.06,0.02,0.13,0.02,0.21c0,0.07-0.01,0.14-0.02,0.2c-0.01,0.06-0.02,0.1-0.04,0.14
				c-0.02,0.04-0.04,0.06-0.07,0.08c-0.03,0.02-0.06,0.02-0.09,0.02h-3.16v2.54h2.71c0.03,0,0.06,0.01,0.09,0.03
				c0.03,0.02,0.05,0.04,0.07,0.08c0.02,0.03,0.03,0.08,0.04,0.14c0.01,0.06,0.01,0.13,0.01,0.21c0,0.07,0,0.14-0.01,0.19
				c-0.01,0.05-0.02,0.1-0.04,0.13c-0.02,0.03-0.04,0.06-0.07,0.07c-0.03,0.01-0.06,0.02-0.09,0.02h-2.71v2.89h3.2
				c0.03,0,0.06,0.01,0.09,0.02c0.03,0.02,0.05,0.04,0.07,0.08c0.02,0.04,0.04,0.08,0.04,0.14C155.7,62.17,155.7,62.24,155.7,62.33z
				"/>
			<path class="st3" d="M162.49,62.61c0,0.03-0.01,0.06-0.02,0.08s-0.04,0.04-0.08,0.06c-0.04,0.02-0.09,0.03-0.16,0.04
				c-0.07,0.01-0.15,0.01-0.25,0.01c-0.1,0-0.19,0-0.26-0.01c-0.07-0.01-0.12-0.02-0.16-0.04c-0.04-0.02-0.06-0.04-0.08-0.06
				c-0.02-0.02-0.02-0.05-0.02-0.08v-3.29c0-0.32-0.02-0.58-0.07-0.77s-0.12-0.36-0.22-0.51c-0.1-0.14-0.22-0.25-0.37-0.32
				c-0.15-0.07-0.33-0.11-0.53-0.11c-0.26,0-0.52,0.09-0.77,0.27c-0.26,0.18-0.53,0.45-0.81,0.81v3.93c0,0.03-0.01,0.06-0.02,0.08
				s-0.04,0.04-0.08,0.06c-0.04,0.02-0.09,0.03-0.16,0.04c-0.07,0.01-0.15,0.01-0.26,0.01c-0.1,0-0.18,0-0.25-0.01
				c-0.07-0.01-0.12-0.02-0.16-0.04c-0.04-0.02-0.07-0.04-0.08-0.06c-0.01-0.02-0.02-0.05-0.02-0.08v-5.62
				c0-0.03,0.01-0.06,0.02-0.08c0.01-0.02,0.04-0.04,0.07-0.06c0.04-0.02,0.09-0.03,0.14-0.04c0.06-0.01,0.14-0.01,0.23-0.01
				c0.09,0,0.17,0,0.23,0.01c0.06,0.01,0.11,0.02,0.14,0.04c0.03,0.02,0.06,0.04,0.07,0.06c0.01,0.02,0.02,0.05,0.02,0.08v0.74
				c0.32-0.35,0.63-0.61,0.95-0.78c0.31-0.16,0.63-0.25,0.95-0.25c0.37,0,0.69,0.06,0.95,0.19c0.26,0.13,0.46,0.3,0.62,0.51
				c0.16,0.21,0.27,0.46,0.34,0.75c0.07,0.29,0.1,0.63,0.1,1.03V62.61z"/>
			<path class="st3" d="M167.98,57.36c0,0.09,0,0.17-0.01,0.23c0,0.06-0.01,0.11-0.02,0.15c-0.01,0.04-0.03,0.06-0.05,0.08
				c-0.02,0.02-0.04,0.03-0.08,0.03c-0.03,0-0.07-0.01-0.12-0.03c-0.05-0.02-0.1-0.04-0.16-0.06c-0.06-0.02-0.13-0.04-0.2-0.05
				c-0.07-0.02-0.16-0.02-0.24-0.02c-0.1,0-0.21,0.02-0.31,0.06c-0.1,0.04-0.21,0.11-0.32,0.21c-0.11,0.1-0.23,0.22-0.35,0.38
				s-0.25,0.35-0.4,0.58v3.7c0,0.03-0.01,0.06-0.02,0.08c-0.02,0.02-0.04,0.04-0.08,0.06c-0.04,0.02-0.09,0.03-0.16,0.04
				c-0.07,0.01-0.15,0.01-0.26,0.01c-0.1,0-0.18,0-0.25-0.01c-0.07-0.01-0.12-0.02-0.16-0.04c-0.04-0.02-0.07-0.04-0.08-0.06
				c-0.01-0.02-0.02-0.05-0.02-0.08v-5.62c0-0.03,0.01-0.06,0.02-0.08c0.01-0.02,0.04-0.04,0.07-0.06c0.04-0.02,0.09-0.03,0.14-0.04
				c0.06-0.01,0.14-0.01,0.23-0.01c0.09,0,0.17,0,0.23,0.01c0.06,0.01,0.11,0.02,0.14,0.04c0.03,0.02,0.06,0.04,0.07,0.06
				c0.01,0.02,0.02,0.05,0.02,0.08v0.82c0.15-0.22,0.3-0.41,0.43-0.55c0.14-0.14,0.26-0.25,0.38-0.33c0.12-0.08,0.24-0.14,0.36-0.17
				c0.12-0.03,0.24-0.05,0.36-0.05c0.05,0,0.12,0,0.18,0.01c0.07,0.01,0.14,0.02,0.22,0.03c0.07,0.02,0.14,0.04,0.2,0.06
				c0.06,0.02,0.1,0.04,0.13,0.06s0.04,0.04,0.05,0.06c0.01,0.02,0.02,0.04,0.02,0.07c0.01,0.03,0.01,0.07,0.01,0.13
				C167.97,57.19,167.98,57.27,167.98,57.36z"/>
			<path class="st3" d="M170.62,55.1c0,0.24-0.05,0.41-0.14,0.49s-0.26,0.13-0.51,0.13c-0.24,0-0.41-0.04-0.5-0.13
				c-0.09-0.09-0.13-0.25-0.13-0.48c0-0.24,0.05-0.41,0.14-0.49s0.26-0.13,0.51-0.13c0.24,0,0.41,0.04,0.5,0.13
				C170.57,54.7,170.62,54.86,170.62,55.1z M170.5,62.61c0,0.03-0.01,0.06-0.02,0.08s-0.04,0.04-0.08,0.06
				c-0.04,0.02-0.09,0.03-0.16,0.04c-0.07,0.01-0.15,0.01-0.26,0.01c-0.1,0-0.18,0-0.25-0.01c-0.07-0.01-0.12-0.02-0.16-0.04
				c-0.04-0.02-0.07-0.04-0.08-0.06c-0.01-0.02-0.02-0.05-0.02-0.08v-5.62c0-0.03,0.01-0.06,0.02-0.08
				c0.01-0.02,0.04-0.05,0.08-0.06c0.04-0.02,0.09-0.03,0.16-0.04c0.07-0.01,0.15-0.01,0.25-0.01c0.1,0,0.19,0,0.26,0.01
				c0.07,0.01,0.12,0.02,0.16,0.04c0.04,0.02,0.06,0.04,0.08,0.06s0.02,0.05,0.02,0.08V62.61z"/>
			<path class="st3" d="M176.76,61.76c0,0.07,0,0.13-0.01,0.18c0,0.05-0.01,0.1-0.02,0.13c-0.01,0.04-0.02,0.07-0.04,0.09
				c-0.01,0.03-0.05,0.07-0.1,0.12s-0.14,0.12-0.27,0.19c-0.12,0.08-0.27,0.15-0.42,0.21c-0.16,0.06-0.33,0.11-0.51,0.15
				c-0.18,0.04-0.37,0.06-0.57,0.06c-0.4,0-0.76-0.07-1.07-0.2c-0.31-0.13-0.57-0.33-0.78-0.58c-0.21-0.26-0.37-0.57-0.48-0.94
				c-0.11-0.37-0.17-0.8-0.17-1.29c0-0.55,0.07-1.03,0.2-1.43c0.13-0.4,0.32-0.72,0.56-0.98c0.24-0.25,0.51-0.44,0.83-0.56
				c0.32-0.12,0.66-0.18,1.03-0.18c0.18,0,0.35,0.02,0.52,0.05c0.17,0.03,0.32,0.08,0.47,0.13c0.14,0.05,0.27,0.12,0.38,0.19
				c0.11,0.07,0.19,0.13,0.24,0.18c0.05,0.05,0.08,0.09,0.1,0.12c0.02,0.03,0.03,0.06,0.05,0.1c0.01,0.04,0.02,0.08,0.02,0.13
				s0.01,0.11,0.01,0.19c0,0.16-0.02,0.28-0.06,0.34s-0.08,0.1-0.14,0.1c-0.06,0-0.13-0.03-0.22-0.1c-0.08-0.07-0.18-0.14-0.31-0.23
				c-0.12-0.08-0.28-0.16-0.45-0.23c-0.18-0.07-0.39-0.1-0.63-0.1c-0.5,0-0.88,0.19-1.14,0.57c-0.26,0.38-0.4,0.93-0.4,1.66
				c0,0.36,0.03,0.68,0.1,0.95c0.07,0.27,0.17,0.5,0.3,0.68s0.3,0.32,0.49,0.41c0.19,0.09,0.42,0.13,0.67,0.13
				c0.24,0,0.45-0.04,0.62-0.11c0.18-0.07,0.33-0.16,0.47-0.25c0.13-0.09,0.24-0.17,0.33-0.24c0.09-0.07,0.16-0.11,0.21-0.11
				c0.03,0,0.05,0.01,0.07,0.02s0.04,0.04,0.05,0.08c0.01,0.04,0.02,0.09,0.03,0.15C176.76,61.6,176.76,61.68,176.76,61.76z"/>
			<path class="st3" d="M183.29,62.61c0,0.03-0.01,0.06-0.02,0.08s-0.04,0.04-0.08,0.06c-0.04,0.02-0.09,0.03-0.16,0.04
				c-0.07,0.01-0.15,0.01-0.25,0.01c-0.1,0-0.19,0-0.26-0.01c-0.07-0.01-0.12-0.02-0.16-0.04c-0.04-0.02-0.06-0.04-0.08-0.06
				c-0.02-0.02-0.02-0.05-0.02-0.08v-3.29c0-0.32-0.02-0.58-0.07-0.77s-0.12-0.36-0.22-0.51c-0.1-0.14-0.22-0.25-0.37-0.32
				c-0.15-0.07-0.33-0.11-0.53-0.11c-0.26,0-0.52,0.09-0.77,0.27c-0.26,0.18-0.53,0.45-0.81,0.81v3.93c0,0.03-0.01,0.06-0.02,0.08
				s-0.04,0.04-0.08,0.06c-0.04,0.02-0.09,0.03-0.16,0.04c-0.07,0.01-0.15,0.01-0.26,0.01c-0.1,0-0.18,0-0.25-0.01
				c-0.07-0.01-0.12-0.02-0.16-0.04c-0.04-0.02-0.07-0.04-0.08-0.06c-0.01-0.02-0.02-0.05-0.02-0.08v-8.34
				c0-0.03,0.01-0.06,0.02-0.09c0.01-0.02,0.04-0.05,0.08-0.06c0.04-0.02,0.09-0.03,0.16-0.04c0.07-0.01,0.15-0.01,0.25-0.01
				c0.1,0,0.19,0,0.26,0.01c0.07,0.01,0.12,0.02,0.16,0.04c0.04,0.02,0.06,0.04,0.08,0.06c0.02,0.02,0.02,0.05,0.02,0.09v3.37
				c0.3-0.31,0.59-0.54,0.89-0.7c0.3-0.15,0.6-0.23,0.91-0.23c0.37,0,0.69,0.06,0.95,0.19c0.26,0.13,0.46,0.3,0.62,0.51
				c0.16,0.21,0.27,0.46,0.34,0.75c0.07,0.29,0.1,0.63,0.1,1.03V62.61z"/>
			<path class="st3" d="M186.64,55.1c0,0.24-0.05,0.41-0.14,0.49s-0.26,0.13-0.51,0.13c-0.24,0-0.41-0.04-0.5-0.13
				c-0.09-0.09-0.13-0.25-0.13-0.48c0-0.24,0.05-0.41,0.14-0.49s0.26-0.13,0.51-0.13c0.24,0,0.41,0.04,0.5,0.13
				C186.59,54.7,186.64,54.86,186.64,55.1z M186.52,62.61c0,0.03-0.01,0.06-0.02,0.08c-0.02,0.02-0.04,0.04-0.08,0.06
				c-0.04,0.02-0.09,0.03-0.16,0.04c-0.07,0.01-0.15,0.01-0.26,0.01c-0.1,0-0.18,0-0.25-0.01c-0.07-0.01-0.12-0.02-0.16-0.04
				c-0.04-0.02-0.07-0.04-0.08-0.06c-0.01-0.02-0.02-0.05-0.02-0.08v-5.62c0-0.03,0.01-0.06,0.02-0.08
				c0.01-0.02,0.04-0.05,0.08-0.06c0.04-0.02,0.09-0.03,0.16-0.04c0.07-0.01,0.15-0.01,0.25-0.01c0.1,0,0.19,0,0.26,0.01
				c0.07,0.01,0.12,0.02,0.16,0.04c0.04,0.02,0.06,0.04,0.08,0.06c0.02,0.02,0.02,0.05,0.02,0.08V62.61z"/>
			<path class="st3" d="M193.58,62.61c0,0.03-0.01,0.06-0.02,0.08c-0.02,0.02-0.04,0.04-0.08,0.06c-0.04,0.02-0.09,0.03-0.16,0.04
				c-0.07,0.01-0.15,0.01-0.25,0.01c-0.1,0-0.19,0-0.26-0.01c-0.07-0.01-0.12-0.02-0.16-0.04c-0.04-0.02-0.06-0.04-0.08-0.06
				c-0.02-0.02-0.02-0.05-0.02-0.08v-3.29c0-0.32-0.02-0.58-0.07-0.77s-0.12-0.36-0.22-0.51c-0.1-0.14-0.22-0.25-0.37-0.32
				c-0.15-0.07-0.33-0.11-0.53-0.11c-0.26,0-0.52,0.09-0.77,0.27c-0.26,0.18-0.53,0.45-0.81,0.81v3.93c0,0.03-0.01,0.06-0.02,0.08
				s-0.04,0.04-0.08,0.06c-0.04,0.02-0.09,0.03-0.16,0.04c-0.07,0.01-0.15,0.01-0.26,0.01c-0.1,0-0.18,0-0.25-0.01
				c-0.07-0.01-0.12-0.02-0.16-0.04c-0.04-0.02-0.07-0.04-0.08-0.06c-0.01-0.02-0.02-0.05-0.02-0.08v-5.62
				c0-0.03,0.01-0.06,0.02-0.08c0.01-0.02,0.04-0.04,0.07-0.06c0.04-0.02,0.09-0.03,0.14-0.04c0.06-0.01,0.14-0.01,0.23-0.01
				c0.09,0,0.17,0,0.23,0.01c0.06,0.01,0.11,0.02,0.14,0.04c0.03,0.02,0.06,0.04,0.07,0.06c0.01,0.02,0.02,0.05,0.02,0.08v0.74
				c0.32-0.35,0.63-0.61,0.95-0.78c0.31-0.16,0.63-0.25,0.95-0.25c0.37,0,0.69,0.06,0.95,0.19c0.26,0.13,0.46,0.3,0.62,0.51
				c0.16,0.21,0.27,0.46,0.34,0.75c0.07,0.29,0.1,0.63,0.1,1.03V62.61z"/>
			<path class="st3" d="M200.48,57.25c0,0.15-0.02,0.25-0.06,0.32s-0.09,0.1-0.15,0.1h-0.81c0.15,0.15,0.25,0.32,0.31,0.5
				c0.06,0.18,0.09,0.37,0.09,0.57c0,0.32-0.05,0.61-0.16,0.86c-0.1,0.25-0.25,0.46-0.45,0.63c-0.19,0.17-0.42,0.31-0.69,0.4
				s-0.56,0.14-0.89,0.14c-0.23,0-0.45-0.03-0.65-0.09c-0.21-0.06-0.37-0.14-0.48-0.23c-0.07,0.07-0.14,0.16-0.18,0.26
				c-0.05,0.1-0.07,0.21-0.07,0.33c0,0.15,0.07,0.27,0.2,0.36c0.13,0.1,0.32,0.15,0.54,0.16l1.47,0.06
				c0.28,0.01,0.53,0.05,0.77,0.12c0.23,0.07,0.43,0.17,0.61,0.29c0.17,0.13,0.3,0.28,0.4,0.47c0.1,0.19,0.14,0.4,0.14,0.65
				c0,0.26-0.05,0.5-0.16,0.74s-0.27,0.44-0.5,0.61c-0.22,0.18-0.51,0.32-0.85,0.42c-0.35,0.1-0.75,0.15-1.22,0.15
				c-0.45,0-0.84-0.04-1.16-0.12c-0.32-0.08-0.58-0.18-0.78-0.32c-0.2-0.13-0.35-0.29-0.44-0.48c-0.09-0.19-0.14-0.39-0.14-0.6
				c0-0.14,0.02-0.27,0.05-0.4c0.03-0.13,0.08-0.25,0.15-0.37c0.07-0.12,0.15-0.23,0.26-0.33c0.1-0.11,0.22-0.21,0.35-0.32
				c-0.2-0.1-0.36-0.24-0.45-0.39c-0.1-0.16-0.15-0.33-0.15-0.51c0-0.25,0.05-0.48,0.16-0.68c0.1-0.2,0.23-0.38,0.39-0.54
				c-0.13-0.15-0.23-0.33-0.31-0.52c-0.07-0.19-0.11-0.43-0.11-0.7c0-0.32,0.05-0.61,0.16-0.86s0.26-0.47,0.45-0.64
				c0.19-0.17,0.42-0.31,0.69-0.4c0.27-0.09,0.56-0.14,0.88-0.14c0.17,0,0.33,0.01,0.48,0.03c0.15,0.02,0.29,0.04,0.42,0.08h1.7
				c0.07,0,0.12,0.03,0.16,0.1C200.46,57,200.48,57.11,200.48,57.25z M199.38,63.18c0-0.24-0.1-0.43-0.3-0.56
				c-0.2-0.13-0.47-0.2-0.8-0.21l-1.45-0.05c-0.13,0.1-0.24,0.2-0.33,0.3c-0.09,0.09-0.15,0.18-0.2,0.27
				c-0.05,0.09-0.08,0.17-0.1,0.25c-0.02,0.08-0.03,0.17-0.03,0.26c0,0.27,0.14,0.48,0.41,0.61c0.27,0.14,0.66,0.21,1.15,0.21
				c0.31,0,0.57-0.03,0.78-0.09c0.21-0.06,0.38-0.14,0.51-0.24c0.13-0.1,0.22-0.21,0.28-0.34
				C199.36,63.46,199.38,63.32,199.38,63.18z M198.87,58.73c0-0.38-0.11-0.68-0.32-0.9c-0.21-0.21-0.51-0.32-0.9-0.32
				c-0.2,0-0.37,0.03-0.52,0.1s-0.27,0.16-0.37,0.27c-0.1,0.12-0.17,0.25-0.22,0.4s-0.07,0.31-0.07,0.48c0,0.37,0.1,0.66,0.32,0.87
				c0.21,0.21,0.5,0.32,0.88,0.32c0.2,0,0.38-0.03,0.53-0.1s0.27-0.15,0.37-0.27c0.1-0.11,0.17-0.25,0.22-0.4
				C198.84,59.05,198.87,58.89,198.87,58.73z"/>
			<path class="st3" d="M209.64,62.3c0,0.08,0,0.15-0.01,0.21c-0.01,0.06-0.02,0.1-0.04,0.14c-0.02,0.04-0.04,0.07-0.07,0.09
				c-0.03,0.02-0.06,0.03-0.1,0.03h-3.57c-0.1,0-0.19-0.03-0.27-0.1c-0.09-0.06-0.13-0.18-0.13-0.34v-7.48
				c0-0.03,0.01-0.06,0.02-0.09c0.02-0.02,0.05-0.04,0.09-0.06s0.1-0.03,0.17-0.04s0.16-0.02,0.26-0.02c0.1,0,0.19,0.01,0.26,0.02
				c0.07,0.01,0.12,0.02,0.17,0.04s0.07,0.03,0.09,0.06c0.02,0.02,0.02,0.05,0.02,0.09v6.99h2.9c0.04,0,0.07,0.01,0.1,0.03
				c0.03,0.02,0.05,0.05,0.07,0.08c0.02,0.04,0.03,0.08,0.04,0.14C209.64,62.15,209.64,62.22,209.64,62.3z"/>
			<path class="st3" d="M212.18,55.1c0,0.24-0.05,0.41-0.14,0.49s-0.26,0.13-0.51,0.13c-0.24,0-0.41-0.04-0.5-0.13
				c-0.09-0.09-0.13-0.25-0.13-0.48c0-0.24,0.05-0.41,0.14-0.49s0.26-0.13,0.51-0.13c0.24,0,0.41,0.04,0.5,0.13
				C212.13,54.7,212.18,54.86,212.18,55.1z M212.06,62.61c0,0.03-0.01,0.06-0.02,0.08c-0.02,0.02-0.04,0.04-0.08,0.06
				c-0.04,0.02-0.09,0.03-0.16,0.04c-0.07,0.01-0.15,0.01-0.26,0.01c-0.1,0-0.18,0-0.25-0.01c-0.07-0.01-0.12-0.02-0.16-0.04
				c-0.04-0.02-0.07-0.04-0.08-0.06c-0.01-0.02-0.02-0.05-0.02-0.08v-5.62c0-0.03,0.01-0.06,0.02-0.08
				c0.01-0.02,0.04-0.05,0.08-0.06c0.04-0.02,0.09-0.03,0.16-0.04c0.07-0.01,0.15-0.01,0.25-0.01c0.1,0,0.19,0,0.26,0.01
				c0.07,0.01,0.12,0.02,0.16,0.04c0.04,0.02,0.06,0.04,0.08,0.06c0.02,0.02,0.02,0.05,0.02,0.08V62.61z"/>
			<path class="st3" d="M217.36,54.68c0,0.08,0,0.14-0.01,0.19c-0.01,0.05-0.02,0.09-0.03,0.12c-0.01,0.03-0.02,0.05-0.04,0.06
				c-0.02,0.01-0.04,0.02-0.06,0.02c-0.03,0-0.07-0.01-0.11-0.03c-0.04-0.02-0.1-0.04-0.16-0.06c-0.06-0.02-0.14-0.04-0.22-0.06
				c-0.09-0.02-0.18-0.03-0.3-0.03c-0.15,0-0.29,0.02-0.39,0.07s-0.2,0.13-0.26,0.23c-0.07,0.11-0.11,0.24-0.14,0.41
				c-0.03,0.17-0.04,0.37-0.04,0.61v0.61h1.26c0.03,0,0.06,0.01,0.08,0.02c0.02,0.01,0.04,0.04,0.06,0.07
				c0.02,0.04,0.03,0.08,0.04,0.13c0.01,0.05,0.02,0.12,0.02,0.2c0,0.15-0.02,0.26-0.06,0.32c-0.04,0.07-0.09,0.1-0.15,0.1h-1.26
				v4.93c0,0.03-0.01,0.06-0.02,0.08c-0.02,0.02-0.04,0.04-0.08,0.06c-0.04,0.02-0.09,0.03-0.16,0.04
				c-0.07,0.01-0.15,0.01-0.25,0.01c-0.1,0-0.18,0-0.25-0.01c-0.07-0.01-0.12-0.02-0.16-0.04c-0.04-0.02-0.07-0.04-0.08-0.06
				s-0.02-0.05-0.02-0.08v-4.93h-0.79c-0.07,0-0.12-0.03-0.15-0.1c-0.03-0.07-0.05-0.17-0.05-0.32c0-0.08,0-0.15,0.01-0.2
				c0.01-0.05,0.02-0.1,0.04-0.13c0.02-0.04,0.04-0.06,0.06-0.07c0.02-0.01,0.05-0.02,0.09-0.02h0.79v-0.58
				c0-0.39,0.04-0.73,0.11-1.01c0.07-0.28,0.18-0.51,0.33-0.69s0.34-0.31,0.56-0.4c0.23-0.09,0.49-0.13,0.8-0.13
				c0.15,0,0.29,0.01,0.42,0.04c0.14,0.03,0.24,0.06,0.32,0.09c0.07,0.03,0.12,0.06,0.15,0.08c0.02,0.02,0.05,0.06,0.06,0.1
				c0.02,0.04,0.03,0.09,0.03,0.14C217.36,54.54,217.36,54.61,217.36,54.68z"/>
			<path class="st3" d="M222.98,59.56c0,0.16-0.04,0.28-0.12,0.35c-0.08,0.07-0.17,0.1-0.28,0.1h-3.7c0,0.31,0.03,0.59,0.09,0.84
				c0.06,0.25,0.17,0.46,0.31,0.64c0.15,0.18,0.34,0.32,0.57,0.41c0.23,0.1,0.52,0.14,0.86,0.14c0.27,0,0.51-0.02,0.72-0.07
				c0.21-0.04,0.39-0.09,0.54-0.15c0.15-0.05,0.28-0.1,0.38-0.15c0.1-0.04,0.17-0.07,0.22-0.07c0.03,0,0.06,0.01,0.08,0.02
				c0.02,0.01,0.04,0.04,0.05,0.07c0.01,0.03,0.02,0.07,0.03,0.12c0.01,0.05,0.01,0.12,0.01,0.19c0,0.05,0,0.1-0.01,0.14
				c0,0.04-0.01,0.07-0.02,0.11c-0.01,0.03-0.02,0.06-0.03,0.08c-0.01,0.02-0.03,0.05-0.06,0.07c-0.02,0.02-0.09,0.06-0.2,0.11
				c-0.11,0.05-0.26,0.1-0.44,0.15c-0.18,0.05-0.39,0.09-0.62,0.13c-0.24,0.04-0.49,0.06-0.75,0.06c-0.46,0-0.87-0.06-1.21-0.19
				c-0.35-0.13-0.64-0.32-0.88-0.57s-0.42-0.57-0.54-0.96c-0.12-0.38-0.18-0.83-0.18-1.34c0-0.48,0.06-0.92,0.19-1.3
				c0.12-0.39,0.3-0.71,0.54-0.98c0.24-0.27,0.52-0.47,0.85-0.62c0.33-0.14,0.71-0.22,1.12-0.22c0.44,0,0.82,0.07,1.13,0.21
				s0.57,0.33,0.77,0.57c0.2,0.24,0.35,0.52,0.44,0.84c0.09,0.32,0.14,0.67,0.14,1.03V59.56z M221.94,59.26
				c0.01-0.54-0.11-0.97-0.36-1.27c-0.25-0.31-0.63-0.46-1.13-0.46c-0.26,0-0.48,0.05-0.67,0.14c-0.19,0.1-0.35,0.22-0.48,0.38
				c-0.13,0.16-0.23,0.34-0.3,0.55c-0.07,0.21-0.11,0.43-0.12,0.66H221.94z"/>
		</g>
	</g>
</g>
</svg>
