<svg width="448" height="75" viewBox="0 0 448 75" fill="none" xmlns="http://www.w3.org/2000/svg">
<g filter="url(#filter0_d_59_3)">
<path d="M31.0443 62.9474V63.789H25.1345V55.0016H30.9332V55.8433H26.0722V58.9003H30.304V59.6924H26.0722V62.9474H31.0443Z" fill="white"/>
<path d="M38.9594 63.789H38.0464V60.1875C38.0464 59.4531 37.9354 58.9168 37.7133 58.5785C37.4994 58.2319 37.1622 58.0587 36.7016 58.0587C36.3808 58.0587 36.0641 58.1371 35.7516 58.2938C35.439 58.4506 35.1635 58.6651 34.925 58.9374C34.6864 59.2014 34.5178 59.5067 34.4191 59.8533V63.789H33.5061V57.3408H34.3327V58.7765C34.5137 58.463 34.7399 58.1907 35.0113 57.9597C35.291 57.7286 35.6035 57.5512 35.949 57.4275C36.3027 57.2954 36.6687 57.2294 37.047 57.2294C37.4089 57.2294 37.7133 57.2954 37.96 57.4275C38.2068 57.5595 38.4042 57.7493 38.5522 57.9968C38.7003 58.2361 38.8031 58.5249 38.8607 58.8631C38.9265 59.2014 38.9594 59.5769 38.9594 59.9894V63.789Z" fill="white"/>
<path d="M41.3154 61.9202C41.3154 61.5241 41.4306 61.1776 41.6609 60.8805C41.8912 60.5835 42.2119 60.3525 42.6232 60.1875C43.0345 60.0224 43.5074 59.9399 44.042 59.9399C44.3464 59.9399 44.663 59.9647 44.992 60.0142C45.3293 60.0637 45.6254 60.1379 45.8804 60.237V59.7171C45.8804 59.1808 45.7241 58.76 45.4115 58.4547C45.099 58.1412 44.663 57.9844 44.1037 57.9844C43.7583 57.9844 43.4169 58.0504 43.0797 58.1824C42.7507 58.3145 42.4052 58.5001 42.0433 58.7394L41.6979 58.0834C42.1174 57.8029 42.5327 57.5925 42.944 57.4522C43.3552 57.3037 43.7747 57.2294 44.2024 57.2294C45.0003 57.2294 45.6295 57.4563 46.0901 57.9102C46.5589 58.364 46.7934 58.9952 46.7934 59.8038V62.6999C46.7934 62.8237 46.818 62.9144 46.8674 62.9722C46.925 63.0299 47.0072 63.0629 47.1141 63.0712V63.789C47.0154 63.8055 46.9332 63.8138 46.8674 63.8138C46.8016 63.822 46.7481 63.8262 46.707 63.8262C46.4849 63.8179 46.3163 63.7519 46.2011 63.6281C46.0942 63.4961 46.0325 63.3559 46.0161 63.2073L46.0037 62.7618C45.7159 63.1248 45.3416 63.4095 44.881 63.6158C44.4286 63.8138 43.968 63.9128 43.4992 63.9128C43.0797 63.9128 42.7055 63.8262 42.3765 63.6529C42.0474 63.4714 41.7884 63.2321 41.5992 62.9351C41.41 62.6298 41.3154 62.2915 41.3154 61.9202ZM45.5966 62.4029C45.6871 62.2956 45.757 62.1883 45.8063 62.0811C45.8557 61.9656 45.8804 61.8665 45.8804 61.784V60.8805C45.6089 60.7733 45.3252 60.6949 45.0291 60.6454C44.7412 60.5876 44.4492 60.5587 44.1531 60.5587C43.5691 60.5587 43.0962 60.6743 42.7342 60.9053C42.3723 61.1363 42.1914 61.454 42.1914 61.8583C42.1914 62.0893 42.249 62.308 42.3641 62.5143C42.4875 62.7205 42.6643 62.8897 42.8946 63.0217C43.1249 63.1455 43.4046 63.2073 43.7336 63.2073C44.112 63.2073 44.4698 63.1331 44.807 62.9846C45.1442 62.836 45.4074 62.6421 45.5966 62.4029Z" fill="white"/>
<path d="M52.8987 63.9128C52.397 63.9128 51.9322 63.7849 51.5045 63.5291C51.085 63.2734 50.756 62.9474 50.5175 62.5514V63.789H49.7032V54.7541H50.6162V58.6651C50.8959 58.2361 51.2372 57.8895 51.6402 57.6255C52.0433 57.3615 52.5121 57.2294 53.0467 57.2294C53.4909 57.2294 53.8898 57.3243 54.2435 57.5141C54.6054 57.6956 54.9097 57.9473 55.1565 58.2691C55.4115 58.5909 55.6048 58.9498 55.7364 59.3458C55.8762 59.7419 55.9461 60.1544 55.9461 60.5835C55.9461 61.0373 55.868 61.4664 55.7117 61.8707C55.5636 62.2667 55.3498 62.6215 55.0701 62.9351C54.7905 63.2403 54.4656 63.4796 54.0954 63.6529C53.7335 63.8262 53.3346 63.9128 52.8987 63.9128ZM52.6766 63.1083C53.0138 63.1083 53.3264 63.0382 53.6143 62.8979C53.9022 62.7577 54.1489 62.572 54.3545 62.341C54.5684 62.1017 54.7288 61.8294 54.8357 61.5241C54.9509 61.2188 55.0084 60.9053 55.0084 60.5835C55.0084 60.1462 54.9138 59.7336 54.7247 59.3458C54.5437 58.9498 54.2846 58.6321 53.9474 58.3928C53.6102 58.1453 53.2195 58.0215 52.7753 58.0215C52.4545 58.0215 52.1543 58.0958 51.8747 58.2443C51.595 58.3928 51.3482 58.5867 51.1344 58.826C50.9288 59.0653 50.756 59.3252 50.6162 59.6058V61.5736C50.6491 61.7882 50.7355 61.9903 50.8753 62.1801C51.0151 62.3699 51.1837 62.5349 51.3811 62.6751C51.5868 62.8072 51.8006 62.9144 52.0227 62.9969C52.253 63.0712 52.471 63.1083 52.6766 63.1083Z" fill="white"/>
<path d="M58.4771 54.7541H59.4024V62.2667C59.4024 62.5968 59.4559 62.8113 59.5628 62.9103C59.6697 63.0011 59.8054 63.0464 59.9699 63.0464C60.1262 63.0464 60.2784 63.0299 60.4264 62.9969C60.5745 62.9639 60.702 62.9268 60.8089 62.8856L60.9693 63.6281C60.8048 63.6942 60.6033 63.7519 60.3647 63.8014C60.1344 63.8509 59.9329 63.8757 59.7602 63.8757C59.3654 63.8757 59.0528 63.7602 58.8225 63.5291C58.5922 63.2981 58.4771 62.9804 58.4771 62.5761V54.7541Z" fill="white"/>
<path d="M62.9725 63.789V57.3408H63.8855V63.789H62.9725ZM62.9725 56.0289V54.7541H63.8855V56.0289H62.9725Z" fill="white"/>
<path d="M72.2592 63.789H71.3462V60.1875C71.3462 59.4531 71.2351 58.9168 71.013 58.5785C70.7992 58.2319 70.462 58.0587 70.0014 58.0587C69.6806 58.0587 69.3639 58.1371 69.0514 58.2938C68.7388 58.4506 68.4633 58.6651 68.2247 58.9374C67.9862 59.2014 67.8176 59.5067 67.7189 59.8533V63.789H66.8059V57.3408H67.6325V58.7765C67.8135 58.463 68.0397 58.1907 68.3111 57.9597C68.5907 57.7286 68.9033 57.5512 69.2488 57.4275C69.6024 57.2954 69.9685 57.2294 70.3468 57.2294C70.7087 57.2294 71.013 57.2954 71.2598 57.4275C71.5066 57.5595 71.704 57.7493 71.852 57.9968C72.0001 58.2361 72.1029 58.5249 72.1605 58.8631C72.2263 59.2014 72.2592 59.5769 72.2592 59.9894V63.789Z" fill="white"/>
<path d="M77.6996 63.8757C77.2637 63.8757 76.8606 63.7849 76.4905 63.6034C76.1286 63.4219 75.8119 63.1785 75.5405 62.8732C75.2773 62.5596 75.0717 62.2048 74.9236 61.8088C74.7838 61.4127 74.7139 61.0002 74.7139 60.5711C74.7139 60.1256 74.7838 59.7006 74.9236 59.2963C75.0717 58.892 75.2773 58.5372 75.5405 58.2319C75.8037 57.9184 76.1163 57.675 76.4782 57.5017C76.8483 57.3202 77.2513 57.2294 77.6873 57.2294C78.2384 57.2294 78.7154 57.3656 79.1184 57.6379C79.5215 57.9102 79.8628 58.2526 80.1425 58.6651V57.3408H80.9568V63.789C80.9568 64.3831 80.8128 64.8864 80.5249 65.299C80.2371 65.7115 79.8505 66.021 79.3652 66.2272C78.8881 66.4418 78.3576 66.549 77.7736 66.549C77.0416 66.549 76.4453 66.417 75.9847 66.153C75.5323 65.8972 75.1622 65.5465 74.8743 65.101L75.4295 64.643C75.6845 65.0473 76.0176 65.3444 76.4288 65.5341C76.8483 65.7322 77.2966 65.8312 77.7736 65.8312C78.1767 65.8312 78.5509 65.7569 78.8964 65.6084C79.2418 65.4599 79.5174 65.233 79.723 64.9277C79.9368 64.6224 80.0438 64.2429 80.0438 63.789V62.5514C79.797 62.9557 79.4598 63.2775 79.0321 63.5168C78.6126 63.756 78.1684 63.8757 77.6996 63.8757ZM77.971 63.1083C78.2178 63.1083 78.4522 63.0671 78.6743 62.9846C78.9046 62.8938 79.1143 62.7742 79.3035 62.6256C79.5009 62.4771 79.6654 62.3121 79.797 62.1306C79.9286 61.9408 80.0109 61.751 80.0438 61.5613V59.6058C79.9204 59.3005 79.7436 59.0282 79.5133 58.7889C79.2912 58.5496 79.0362 58.364 78.7483 58.2319C78.4687 58.0917 78.1767 58.0215 77.8723 58.0215C77.5187 58.0215 77.202 58.0958 76.9223 58.2443C76.6509 58.3928 76.4206 58.595 76.2314 58.8508C76.0422 59.0983 75.8942 59.3747 75.7873 59.68C75.6886 59.9771 75.6392 60.2823 75.6392 60.5959C75.6392 60.9342 75.6968 61.256 75.8119 61.5613C75.9353 61.8583 76.0998 62.1265 76.3054 62.3657C76.5193 62.5968 76.7702 62.7783 77.058 62.9103C77.3459 63.0423 77.6503 63.1083 77.971 63.1083Z" fill="white"/>
<path d="M88.3224 63.789V55.0016H91.9497C92.3362 55.0016 92.6858 55.0842 92.9984 55.2492C93.3192 55.406 93.5947 55.6164 93.825 55.8804C94.0635 56.1444 94.2445 56.4415 94.3679 56.7715C94.4995 57.1015 94.5653 57.4398 94.5653 57.7864C94.5653 58.2567 94.4583 58.7064 94.2445 59.1354C94.0388 59.5645 93.7469 59.911 93.3685 60.1751C92.9901 60.4391 92.546 60.5711 92.036 60.5711H89.26V63.789H88.3224ZM89.26 59.7295H91.9867C92.3157 59.7295 92.6036 59.6429 92.8503 59.4696C93.0971 59.2881 93.2862 59.0488 93.4179 58.7518C93.5577 58.4465 93.6276 58.1247 93.6276 57.7864C93.6276 57.4233 93.5453 57.0933 93.3808 56.7963C93.2246 56.4992 93.0148 56.2682 92.7516 56.1032C92.4966 55.9299 92.2129 55.8433 91.9003 55.8433H89.26V59.7295Z" fill="white"/>
<path d="M99.5781 63.9128C99.1011 63.9128 98.6693 63.8262 98.2827 63.6529C97.8961 63.4714 97.5589 63.228 97.271 62.9227C96.9831 62.6091 96.761 62.2543 96.6047 61.8583C96.4485 61.454 96.3703 61.0249 96.3703 60.5711C96.3703 60.1173 96.4485 59.6924 96.6047 59.2963C96.761 58.892 96.9831 58.5372 97.271 58.2319C97.5589 57.9184 97.8961 57.675 98.2827 57.5017C98.6775 57.3202 99.1093 57.2294 99.5781 57.2294C100.047 57.2294 100.475 57.3202 100.861 57.5017C101.256 57.675 101.597 57.9184 101.885 58.2319C102.173 58.5372 102.395 58.892 102.552 59.2963C102.708 59.6924 102.786 60.1173 102.786 60.5711C102.786 61.0249 102.708 61.454 102.552 61.8583C102.395 62.2543 102.173 62.6091 101.885 62.9227C101.606 63.228 101.268 63.4714 100.874 63.6529C100.479 63.8262 100.047 63.9128 99.5781 63.9128ZM97.308 60.5959C97.308 61.0579 97.4108 61.4829 97.6164 61.8707C97.8221 62.2502 98.0935 62.5514 98.4307 62.7742C98.7762 62.9969 99.1586 63.1083 99.5781 63.1083C99.9894 63.1083 100.368 62.9969 100.713 62.7742C101.059 62.5431 101.334 62.2337 101.54 61.8459C101.754 61.4581 101.861 61.0291 101.861 60.5587C101.861 60.0967 101.754 59.6759 101.54 59.2963C101.334 58.9085 101.059 58.5991 100.713 58.3681C100.368 58.1371 99.9894 58.0215 99.5781 58.0215C99.1586 58.0215 98.7762 58.1412 98.4307 58.3805C98.0935 58.6115 97.8221 58.9209 97.6164 59.3087C97.4108 59.6883 97.308 60.1173 97.308 60.5959Z" fill="white"/>
<path d="M107.409 63.9128C106.883 63.9128 106.389 63.8262 105.928 63.6529C105.476 63.4714 105.081 63.2032 104.744 62.8484L105.126 62.2048C105.488 62.5514 105.85 62.7989 106.212 62.9474C106.582 63.096 106.969 63.1702 107.372 63.1702C107.849 63.1702 108.24 63.0753 108.544 62.8856C108.848 62.6958 109 62.4194 109 62.0563C109 61.8005 108.926 61.6108 108.778 61.487C108.63 61.355 108.416 61.2477 108.137 61.1652C107.857 61.0827 107.524 60.9878 107.137 60.8805C106.702 60.7568 106.331 60.6248 106.027 60.4845C105.723 60.3442 105.492 60.1668 105.336 59.9523C105.188 59.7378 105.114 59.4614 105.114 59.1231C105.114 58.7105 105.221 58.364 105.435 58.0834C105.649 57.8029 105.937 57.5925 106.299 57.4522C106.669 57.3037 107.084 57.2294 107.545 57.2294C108.03 57.2294 108.462 57.3078 108.84 57.4646C109.227 57.6131 109.547 57.8318 109.802 58.1206L109.358 58.7394C109.128 58.4754 108.852 58.2815 108.532 58.1577C108.219 58.0257 107.87 57.9597 107.483 57.9597C107.236 57.9597 106.998 57.9927 106.767 58.0587C106.537 58.1247 106.348 58.2361 106.2 58.3928C106.052 58.5414 105.978 58.7518 105.978 59.024C105.978 59.2386 106.035 59.4119 106.15 59.5439C106.266 59.6676 106.434 59.7749 106.656 59.8657C106.878 59.9482 107.158 60.0389 107.495 60.1379C107.981 60.27 108.404 60.4061 108.766 60.5464C109.128 60.6784 109.408 60.8558 109.605 61.0786C109.802 61.2931 109.901 61.5984 109.901 61.9944C109.901 62.5885 109.671 63.0588 109.21 63.4054C108.758 63.7437 108.157 63.9128 107.409 63.9128Z" fill="white"/>
<path d="M114.507 63.9128C113.981 63.9128 113.488 63.8262 113.027 63.6529C112.575 63.4714 112.18 63.2032 111.842 62.8484L112.225 62.2048C112.587 62.5514 112.949 62.7989 113.311 62.9474C113.681 63.096 114.067 63.1702 114.47 63.1702C114.947 63.1702 115.338 63.0753 115.642 62.8856C115.947 62.6958 116.099 62.4194 116.099 62.0563C116.099 61.8005 116.025 61.6108 115.877 61.487C115.729 61.355 115.515 61.2477 115.235 61.1652C114.956 61.0827 114.623 60.9878 114.236 60.8805C113.8 60.7568 113.43 60.6248 113.126 60.4845C112.821 60.3442 112.591 60.1668 112.435 59.9523C112.287 59.7378 112.213 59.4614 112.213 59.1231C112.213 58.7105 112.32 58.364 112.533 58.0834C112.747 57.8029 113.035 57.5925 113.397 57.4522C113.767 57.3037 114.183 57.2294 114.643 57.2294C115.128 57.2294 115.56 57.3078 115.939 57.4646C116.325 57.6131 116.646 57.8318 116.901 58.1206L116.457 58.7394C116.226 58.4754 115.951 58.2815 115.63 58.1577C115.318 58.0257 114.968 57.9597 114.581 57.9597C114.335 57.9597 114.096 57.9927 113.866 58.0587C113.636 58.1247 113.446 58.2361 113.298 58.3928C113.15 58.5414 113.076 58.7518 113.076 59.024C113.076 59.2386 113.134 59.4119 113.249 59.5439C113.364 59.6676 113.533 59.7749 113.755 59.8657C113.977 59.9482 114.257 60.0389 114.594 60.1379C115.079 60.27 115.503 60.4061 115.865 60.5464C116.226 60.6784 116.506 60.8558 116.704 61.0786C116.901 61.2931 117 61.5984 117 61.9944C117 62.5885 116.769 63.0588 116.309 63.4054C115.856 63.7437 115.256 63.9128 114.507 63.9128Z" fill="white"/>
<path d="M119.472 63.789V57.3408H120.385V63.789H119.472ZM119.472 56.0289V54.7541H120.385V56.0289H119.472Z" fill="white"/>
<path d="M126.5 63.9128C125.999 63.9128 125.534 63.7849 125.106 63.5291C124.687 63.2734 124.358 62.9474 124.119 62.5514V63.789H123.305V54.7541H124.218V58.6651C124.498 58.2361 124.839 57.8895 125.242 57.6255C125.645 57.3615 126.114 57.2294 126.648 57.2294C127.093 57.2294 127.492 57.3243 127.845 57.5141C128.207 57.6956 128.511 57.9473 128.758 58.2691C129.013 58.5909 129.206 58.9498 129.338 59.3458C129.478 59.7419 129.548 60.1544 129.548 60.5835C129.548 61.0373 129.47 61.4664 129.313 61.8707C129.165 62.2667 128.951 62.6215 128.672 62.9351C128.392 63.2403 128.067 63.4796 127.697 63.6529C127.335 63.8262 126.936 63.9128 126.5 63.9128ZM126.278 63.1083C126.616 63.1083 126.928 63.0382 127.216 62.8979C127.504 62.7577 127.751 62.572 127.956 62.341C128.17 62.1017 128.33 61.8294 128.437 61.5241C128.553 61.2188 128.61 60.9053 128.61 60.5835C128.61 60.1462 128.516 59.7336 128.326 59.3458C128.145 58.9498 127.886 58.6321 127.549 58.3928C127.212 58.1453 126.821 58.0215 126.377 58.0215C126.056 58.0215 125.756 58.0958 125.476 58.2443C125.197 58.3928 124.95 58.5867 124.736 58.826C124.53 59.0653 124.358 59.3252 124.218 59.6058V61.5736C124.251 61.7882 124.337 61.9903 124.477 62.1801C124.617 62.3699 124.785 62.5349 124.983 62.6751C125.188 62.8072 125.402 62.9144 125.624 62.9969C125.855 63.0712 126.073 63.1083 126.278 63.1083Z" fill="white"/>
<path d="M132.054 63.789V57.3408H132.967V63.789H132.054ZM132.054 56.0289V54.7541H132.967V56.0289H132.054Z" fill="white"/>
<path d="M135.912 54.7541H136.837V62.2667C136.837 62.5968 136.891 62.8113 136.998 62.9103C137.105 63.0011 137.24 63.0464 137.405 63.0464C137.561 63.0464 137.713 63.0299 137.861 62.9969C138.01 62.9639 138.137 62.9268 138.244 62.8856L138.404 63.6281C138.24 63.6942 138.038 63.7519 137.8 63.8014C137.569 63.8509 137.368 63.8757 137.195 63.8757C136.8 63.8757 136.488 63.7602 136.258 63.5291C136.027 63.2981 135.912 62.9804 135.912 62.5761V54.7541Z" fill="white"/>
<path d="M140.408 63.789V57.3408H141.321V63.789H140.408ZM140.408 56.0289V54.7541H141.321V56.0289H140.408Z" fill="white"/>
<path d="M147.399 63.4673C147.325 63.5003 147.214 63.5498 147.066 63.6158C146.926 63.6818 146.754 63.7395 146.548 63.789C146.351 63.8468 146.137 63.8757 145.907 63.8757C145.66 63.8757 145.429 63.8303 145.216 63.7395C145.01 63.6405 144.841 63.4961 144.71 63.3064C144.586 63.1166 144.525 62.8773 144.525 62.5885V58.0711H143.636V57.3408H144.525V55.1625H145.438V57.3408H146.906V58.0711H145.438V62.3286C145.454 62.5596 145.536 62.7329 145.684 62.8484C145.832 62.9639 146.001 63.0217 146.19 63.0217C146.421 63.0217 146.626 62.9846 146.807 62.9103C146.996 62.8278 147.116 62.77 147.165 62.737L147.399 63.4673Z" fill="white"/>
<path d="M149.544 63.789V57.3408H150.457V63.789H149.544ZM149.544 56.0289V54.7541H150.457V56.0289H149.544Z" fill="white"/>
<path d="M156.178 63.9128C155.701 63.9128 155.265 63.8262 154.87 63.6529C154.484 63.4714 154.143 63.228 153.846 62.9227C153.559 62.6091 153.332 62.2502 153.168 61.8459C153.012 61.4416 152.933 61.0126 152.933 60.5587C152.933 59.9482 153.073 59.3912 153.353 58.8879C153.633 58.3846 154.015 57.9844 154.5 57.6874C154.994 57.3821 155.553 57.2294 156.178 57.2294C156.812 57.2294 157.367 57.3821 157.844 57.6874C158.321 57.9927 158.691 58.397 158.954 58.9003C159.226 59.3953 159.361 59.9358 159.361 60.5216C159.361 60.5959 159.361 60.666 159.361 60.732C159.361 60.798 159.357 60.8517 159.349 60.8929H153.896C153.929 61.3385 154.052 61.7387 154.266 62.0934C154.48 62.44 154.755 62.7123 155.093 62.9103C155.438 63.1083 155.808 63.2073 156.203 63.2073C156.622 63.2073 157.013 63.1042 157.375 62.8979C157.745 62.6917 158 62.4194 158.14 62.0811L158.93 62.3039C158.798 62.6091 158.596 62.8856 158.325 63.1331C158.054 63.3724 157.733 63.5621 157.363 63.7024C156.993 63.8427 156.598 63.9128 156.178 63.9128ZM153.871 60.237H158.51C158.477 59.7831 158.35 59.383 158.128 59.0364C157.914 58.6899 157.638 58.4176 157.301 58.2196C156.964 58.0215 156.59 57.9225 156.178 57.9225C155.775 57.9225 155.401 58.0215 155.056 58.2196C154.718 58.4176 154.443 58.6899 154.229 59.0364C154.023 59.383 153.904 59.7831 153.871 60.237Z" fill="white"/>
<path d="M163.876 63.9128C163.349 63.9128 162.856 63.8262 162.395 63.6529C161.943 63.4714 161.548 63.2032 161.211 62.8484L161.593 62.2048C161.955 62.5514 162.317 62.7989 162.679 62.9474C163.049 63.096 163.436 63.1702 163.839 63.1702C164.316 63.1702 164.706 63.0753 165.011 62.8856C165.315 62.6958 165.467 62.4194 165.467 62.0563C165.467 61.8005 165.393 61.6108 165.245 61.487C165.097 61.355 164.883 61.2477 164.604 61.1652C164.324 61.0827 163.991 60.9878 163.604 60.8805C163.168 60.7568 162.798 60.6248 162.494 60.4845C162.189 60.3442 161.959 60.1668 161.803 59.9523C161.655 59.7378 161.581 59.4614 161.581 59.1231C161.581 58.7105 161.688 58.364 161.902 58.0834C162.115 57.8029 162.403 57.5925 162.765 57.4522C163.135 57.3037 163.551 57.2294 164.011 57.2294C164.497 57.2294 164.928 57.3078 165.307 57.4646C165.693 57.6131 166.014 57.8318 166.269 58.1206L165.825 58.7394C165.595 58.4754 165.319 58.2815 164.998 58.1577C164.686 58.0257 164.336 57.9597 163.95 57.9597C163.703 57.9597 163.464 57.9927 163.234 58.0587C163.004 58.1247 162.815 58.2361 162.667 58.3928C162.518 58.5414 162.444 58.7518 162.444 59.024C162.444 59.2386 162.502 59.4119 162.617 59.5439C162.732 59.6676 162.901 59.7749 163.123 59.8657C163.345 59.9482 163.625 60.0389 163.962 60.1379C164.447 60.27 164.871 60.4061 165.233 60.5464C165.595 60.6784 165.874 60.8558 166.072 61.0786C166.269 61.2931 166.368 61.5984 166.368 61.9944C166.368 62.5885 166.138 63.0588 165.677 63.4054C165.225 63.7437 164.624 63.9128 163.876 63.9128Z" fill="white"/>
<path d="M179.177 62.9474V63.789H173.268V55.0016H179.066V55.8433H174.205V58.9003H178.437V59.6924H174.205V62.9474H179.177Z" fill="white"/>
<path d="M187.092 63.789H186.179V60.1875C186.179 59.4531 186.068 58.9168 185.846 58.5785C185.632 58.2319 185.295 58.0587 184.835 58.0587C184.514 58.0587 184.197 58.1371 183.885 58.2938C183.572 58.4506 183.297 58.6651 183.058 58.9374C182.819 59.2014 182.651 59.5067 182.552 59.8533V63.789H181.639V57.3408H182.466V58.7765C182.647 58.463 182.873 58.1907 183.144 57.9597C183.424 57.7286 183.737 57.5512 184.082 57.4275C184.436 57.2954 184.802 57.2294 185.18 57.2294C185.542 57.2294 185.846 57.2954 186.093 57.4275C186.34 57.5595 186.537 57.7493 186.685 57.9968C186.833 58.2361 186.936 58.5249 186.994 58.8631C187.06 59.2014 187.092 59.5769 187.092 59.9894V63.789Z" fill="white"/>
<path d="M193.236 58.1453C192.677 58.1536 192.187 58.3062 191.768 58.6032C191.348 58.892 191.052 59.2881 190.88 59.7914V63.789H189.967V57.3408H190.818V58.8631C191.04 58.4176 191.332 58.0545 191.694 57.774C192.064 57.4935 192.455 57.3367 192.866 57.3037C192.948 57.3037 193.018 57.3037 193.076 57.3037C193.133 57.2954 193.187 57.2954 193.236 57.3037V58.1453Z" fill="white"/>
<path d="M195.463 63.789V57.3408H196.376V63.789H195.463ZM195.463 56.0289V54.7541H196.376V56.0289H195.463Z" fill="white"/>
<path d="M202.097 63.9128C201.628 63.9128 201.196 63.8262 200.801 63.6529C200.406 63.4714 200.061 63.2238 199.765 62.9103C199.477 62.5968 199.251 62.2378 199.086 61.8335C198.93 61.4292 198.852 61.0002 198.852 60.5464C198.852 59.9358 198.988 59.3788 199.259 58.8755C199.53 58.3722 199.909 57.972 200.394 57.675C200.888 57.378 201.451 57.2294 202.084 57.2294C202.701 57.2294 203.24 57.3697 203.701 57.6502C204.161 57.9225 204.507 58.298 204.737 58.7765L203.836 59.0612C203.664 58.7311 203.417 58.4753 203.096 58.2938C202.784 58.1123 202.438 58.0215 202.06 58.0215C201.64 58.0215 201.258 58.1329 200.912 58.3557C200.567 58.5702 200.291 58.8673 200.086 59.2468C199.888 59.6264 199.79 60.0596 199.79 60.5464C199.79 61.0249 199.892 61.4581 200.098 61.8459C200.304 62.2337 200.579 62.5431 200.925 62.7742C201.27 62.9969 201.653 63.1083 202.072 63.1083C202.343 63.1083 202.603 63.063 202.849 62.9722C203.104 62.8732 203.326 62.7412 203.516 62.5761C203.705 62.4111 203.832 62.2337 203.898 62.0439L204.799 62.3162C204.675 62.6215 204.478 62.8938 204.206 63.1331C203.943 63.3724 203.631 63.5621 203.269 63.7024C202.907 63.8427 202.516 63.9128 202.097 63.9128Z" fill="white"/>
<path d="M212.655 63.789H211.742V60.1875C211.742 59.4779 211.619 58.9457 211.372 58.5909C211.125 58.2361 210.767 58.0587 210.299 58.0587C210.002 58.0587 209.702 58.1371 209.398 58.2938C209.094 58.4506 208.826 58.6651 208.596 58.9374C208.374 59.2014 208.214 59.5067 208.115 59.8533V63.789H207.202V54.7541H208.115V58.7765C208.37 58.298 208.719 57.9225 209.164 57.6502C209.616 57.3697 210.101 57.2294 210.619 57.2294C210.998 57.2294 211.314 57.2954 211.569 57.4275C211.833 57.5595 212.042 57.7493 212.199 57.9968C212.363 58.2443 212.478 58.5372 212.544 58.8755C212.618 59.2056 212.655 59.5769 212.655 59.9894V63.789Z" fill="white"/>
<path d="M215.529 63.789V57.3408H216.442V63.789H215.529ZM215.529 56.0289V54.7541H216.442V56.0289H215.529Z" fill="white"/>
<path d="M224.816 63.789H223.903V60.1875C223.903 59.4531 223.792 58.9168 223.57 58.5785C223.356 58.2319 223.019 58.0587 222.558 58.0587C222.237 58.0587 221.921 58.1371 221.608 58.2938C221.296 58.4506 221.02 58.6651 220.781 58.9374C220.543 59.2014 220.374 59.5067 220.276 59.8533V63.789H219.363V57.3408H220.189V58.7765C220.37 58.463 220.596 58.1907 220.868 57.9597C221.148 57.7286 221.46 57.5512 221.806 57.4275C222.159 57.2954 222.525 57.2294 222.904 57.2294C223.265 57.2294 223.57 57.2954 223.817 57.4275C224.063 57.5595 224.261 57.7493 224.409 57.9968C224.557 58.2361 224.66 58.5249 224.717 58.8631C224.783 59.2014 224.816 59.5769 224.816 59.9894V63.789Z" fill="white"/>
<path d="M230.256 63.8757C229.82 63.8757 229.417 63.7849 229.047 63.6034C228.685 63.4219 228.369 63.1785 228.097 62.8732C227.834 62.5596 227.628 62.2048 227.48 61.8088C227.341 61.4127 227.271 61.0002 227.271 60.5711C227.271 60.1256 227.341 59.7006 227.48 59.2963C227.628 58.892 227.834 58.5372 228.097 58.2319C228.36 57.9184 228.673 57.675 229.035 57.5017C229.405 57.3202 229.808 57.2294 230.244 57.2294C230.795 57.2294 231.272 57.3656 231.675 57.6379C232.078 57.9102 232.42 58.2526 232.699 58.6651V57.3408H233.514V63.789C233.514 64.3831 233.37 64.8864 233.082 65.299C232.794 65.7115 232.407 66.021 231.922 66.2272C231.445 66.4418 230.914 66.549 230.33 66.549C229.598 66.549 229.002 66.417 228.541 66.153C228.089 65.8972 227.719 65.5465 227.431 65.101L227.986 64.643C228.241 65.0473 228.574 65.3444 228.986 65.5341C229.405 65.7322 229.853 65.8312 230.33 65.8312C230.733 65.8312 231.108 65.7569 231.453 65.6084C231.799 65.4599 232.074 65.233 232.28 64.9277C232.494 64.6224 232.601 64.2429 232.601 63.789V62.5514C232.354 62.9557 232.017 63.2775 231.589 63.5168C231.169 63.756 230.725 63.8757 230.256 63.8757ZM230.528 63.1083C230.775 63.1083 231.009 63.0671 231.231 62.9846C231.461 62.8938 231.671 62.7742 231.86 62.6256C232.058 62.4771 232.222 62.3121 232.354 62.1306C232.485 61.9408 232.568 61.751 232.601 61.5613V59.6058C232.477 59.3005 232.3 59.0282 232.07 58.7889C231.848 58.5496 231.593 58.364 231.305 58.2319C231.025 58.0917 230.733 58.0215 230.429 58.0215C230.075 58.0215 229.759 58.0958 229.479 58.2443C229.208 58.3928 228.977 58.595 228.788 58.8508C228.599 59.0983 228.451 59.3747 228.344 59.68C228.245 59.9771 228.196 60.2823 228.196 60.5959C228.196 60.9342 228.254 61.256 228.369 61.5613C228.492 61.8583 228.657 62.1265 228.862 62.3657C229.076 62.5968 229.327 62.7783 229.615 62.9103C229.903 63.0423 230.207 63.1083 230.528 63.1083Z" fill="white"/>
<path d="M240.879 63.789V55.0016H241.817V62.9474H246.826V63.789H240.879Z" fill="white"/>
<path d="M249.01 63.789V57.3408H249.923V63.789H249.01ZM249.01 56.0289V54.7541H249.923V56.0289H249.01Z" fill="white"/>
<path d="M253.164 63.789V58.0711H252.276V57.3408H253.164V57.1799C253.164 56.6519 253.242 56.1981 253.398 55.8185C253.555 55.4307 253.773 55.1378 254.052 54.9398C254.34 54.7335 254.681 54.6304 255.076 54.6304C255.331 54.6304 255.578 54.6675 255.817 54.7417C256.055 54.8077 256.265 54.9026 256.446 55.0264L256.187 55.7071C256.08 55.6164 255.94 55.5462 255.767 55.4967C255.594 55.4472 255.426 55.4225 255.261 55.4225C254.883 55.4225 254.591 55.571 254.385 55.868C254.18 56.1651 254.077 56.59 254.077 57.1428V57.3408H255.829V58.0711H254.077V63.789H253.164Z" fill="white"/>
<path d="M260.682 63.9128C260.205 63.9128 259.769 63.8262 259.374 63.6529C258.988 63.4714 258.646 63.228 258.35 62.9227C258.062 62.6091 257.836 62.2502 257.672 61.8459C257.515 61.4416 257.437 61.0126 257.437 60.5587C257.437 59.9482 257.577 59.3912 257.857 58.8879C258.136 58.3846 258.519 57.9844 259.004 57.6874C259.498 57.3821 260.057 57.2294 260.682 57.2294C261.315 57.2294 261.871 57.3821 262.348 57.6874C262.825 57.9927 263.195 58.397 263.458 58.9003C263.729 59.3953 263.865 59.9358 263.865 60.5216C263.865 60.5959 263.865 60.666 263.865 60.732C263.865 60.798 263.861 60.8517 263.853 60.8929H258.4C258.432 61.3385 258.556 61.7387 258.77 62.0934C258.984 62.44 259.259 62.7123 259.596 62.9103C259.942 63.1083 260.312 63.2073 260.707 63.2073C261.126 63.2073 261.517 63.1042 261.879 62.8979C262.249 62.6917 262.504 62.4194 262.644 62.0811L263.433 62.3039C263.302 62.6091 263.1 62.8856 262.829 63.1331C262.557 63.3724 262.237 63.5621 261.866 63.7024C261.496 63.8427 261.102 63.9128 260.682 63.9128ZM258.375 60.237H263.014C262.981 59.7831 262.853 59.383 262.631 59.0364C262.418 58.6899 262.142 58.4176 261.805 58.2196C261.468 58.0215 261.093 57.9225 260.682 57.9225C260.279 57.9225 259.905 58.0215 259.559 58.2196C259.222 58.4176 258.947 58.6899 258.733 59.0364C258.527 59.383 258.408 59.7831 258.375 60.237Z" fill="white"/>
<path fill-rule="evenodd" clip-rule="evenodd" d="M4 64.7641V8.0493C4.20264 7.03291 4.97267 5.00012 6.43168 5.00012H39.0567C40.205 5.27116 42.5015 6.26045 42.5015 8.0493V23.2952C42.1638 24.8537 41.002 27.9706 39.0567 27.9706H17.1716V67.0001H6.63432C5.75621 66.9324 4 66.3903 4 64.7641ZM16.7663 12.1149V23.905H27.5062C28.5194 23.2952 30.5458 21.669 30.5458 20.0427V15.7739C30.208 14.5542 29.0057 12.1149 26.8983 12.1149H16.7663Z" fill="#00AEEF"/>
<path d="M47.1622 43.6231V7.84602C47.1622 6.21979 48.9185 5.27116 49.7966 5.00012H86.0691V9.67553H62.1576C61.0228 9.67553 60.3338 10.7597 60.1312 11.3018V23.0919H86.2717V27.7673H59.9286V39.5575C59.9286 40.5332 61.4146 41.3193 62.1576 41.5903H86.4744V47.2821H50.2018C48.4186 47.2821 47.4324 44.8428 47.1622 43.6231Z" fill="#00AEEF"/>
<path fill-rule="evenodd" clip-rule="evenodd" d="M90.3245 7.64275V45.046C90.3245 45.7236 90.6487 47.0788 91.9456 47.0788H103.293V32.0362H103.901L115.047 47.0788H132.676L117.681 28.1739V27.5641H125.381C126.394 27.2253 128.421 26.1818 128.421 24.7182V8.65914C128.083 7.43947 127.002 5.00012 125.381 5.00012H93.1614C92.1482 5.00012 90.3245 6.34176 90.3245 7.64275ZM103.091 11.3018V23.2952H116.262C116.938 22.9564 118.289 21.9942 118.289 20.8559V13.7411C118.289 12.928 117.397 11.3018 116.262 11.3018H103.091Z" fill="#00AEEF"/>
<path d="M136.932 6.21979V46.8755H140.984L141.187 13.1313L163.275 46.8755H177.257V5.00012H173.204V37.3214L149.698 5.00012H137.945C137.296 5.00012 136.999 5.81324 136.932 6.21979Z" fill="#00AEEF"/>
<path d="M220.622 41.387V47.2821H184.552C183.539 47.2821 181.715 45.046 181.715 43.6231V7.84602C181.715 6.21979 183.336 5.00012 184.552 5.00012H220.622V9.67553H196.913C195.778 9.67553 195.089 10.7597 194.887 11.3018V23.4985H220.622V27.5641H194.887V39.5575C194.887 40.8585 195.697 41.3193 196.102 41.387H220.622Z" fill="#00AEEF"/>
<path d="M264.797 47.0788V41.9968H244.939C243.318 41.9968 238.454 37.9313 238.454 35.6952V15.9772C238.454 14.3509 242.912 10.0821 244.533 10.0821H265V5.00012H235.009C231.564 5.00012 225.485 10.8952 225.485 13.9444V38.5411C225.485 41.1431 232.375 47.0788 235.82 47.0788H264.797Z" fill="#00AEEF"/>
</g>
<rect x="292" y="5.00012" width="4" height="62" fill="url(#paint0_linear_59_3)"/>
<g filter="url(#filter1_d_59_3)">
<path fill-rule="evenodd" clip-rule="evenodd" d="M386.009 0.202501C374.986 1.93904 365.834 9.70832 362.55 20.1175C359.182 30.7886 362.155 42.3475 370.209 49.8996C372.537 52.0819 375.438 54.1295 377.276 54.8859C378.186 55.2604 378.656 55.8692 378.036 55.8692C377.9 55.8692 377.605 56.1606 377.382 56.5166C377.158 56.8726 377.021 57.164 377.078 57.164C377.318 57.164 389.203 45.1351 389.319 44.7748C389.389 44.557 389.005 44.8742 388.466 45.4795L387.486 46.5806L385.915 46.1873C378.346 44.2932 372.421 36.8527 372.421 29.2424C372.421 26.7038 373.275 23.0977 374.406 20.8604C374.915 19.8531 376.179 18.1175 377.214 17.0037C380.633 13.3267 384.274 11.5944 389.208 11.2973C392.873 11.0768 394.928 11.4947 398.31 13.1484C402.982 15.4329 406.376 19.5356 407.606 24.383C408.019 26.0121 408.007 26.0985 407.272 26.7319C406.853 27.0935 406.58 27.4596 406.666 27.5453C406.782 27.6602 417.93 16.7642 418.988 15.5015C419.078 15.3947 418.654 15.6579 418.046 16.0868C417.383 16.5545 416.891 16.7247 416.815 16.5127C416.745 16.3185 415.949 14.9646 415.045 13.5044C411.302 7.45907 404.652 2.62977 397.577 0.818463C394.668 0.073676 388.808 -0.238351 386.009 0.202501ZM334.493 7.71834C334.401 8.121 333.513 12.1644 332.519 16.704C331.525 21.2436 330.358 26.5601 329.925 28.5183C329.493 30.4766 328.83 33.5353 328.454 35.3156C328.077 37.0958 327.697 38.7997 327.609 39.102C327.434 39.7073 327.492 39.7267 333.254 40.9735L336.582 41.6937L337.928 40.5485C342.535 36.6291 347.842 37.459 350.866 42.5712C351.661 43.9154 351.743 44.3595 351.743 47.2917C351.743 50.9163 351.269 52.2317 349.246 54.2156C347.426 55.9997 345.852 56.6389 343.277 56.6402C339.845 56.6419 337.07 55.0989 335.279 52.1926L334.709 51.2672L328.913 51.2568C325.285 51.2503 323.076 51.3688 323.008 51.5737C322.947 51.754 323.251 52.8305 323.682 53.966C325.736 59.3773 328.728 62.7575 333.528 65.0899C336.646 66.6057 338.698 67.0145 343.114 66.9996C346.311 66.9886 347.232 66.8591 349.408 66.1153C355.31 64.0972 359.99 59.4556 362.023 53.6035C363.032 50.7017 363.281 44.601 362.513 41.6167C360.953 35.5541 356.741 30.6879 351.304 28.6656C348.788 27.7302 344.679 27.2463 342.544 27.634C341.419 27.8383 340.834 27.8344 340.834 27.623C340.834 27.266 342.326 20.4736 342.825 18.5561L343.144 17.3336L352.654 17.3614L362.164 17.3892V12.2725V7.15546L348.413 7.07098L334.661 6.9865L334.493 7.71834Z" fill="url(#paint1_linear_59_3)"/>
</g>
<g filter="url(#filter2_d_59_3)">
<path d="M391.01 30.0389H391.76L392.768 31.8279C393.002 32.2446 393.208 32.6118 393.385 32.9295H393.401C393.479 32.7889 393.598 32.5779 393.76 32.2967C393.921 32.0154 394.01 31.8592 394.026 31.8279L395.026 30.0389H395.776L393.713 33.4842V35.8904H393.088V33.4842L391.01 30.0389ZM396.673 33.7576C396.673 33.1014 396.85 32.5701 397.204 32.1639C397.558 31.7524 398.017 31.5467 398.579 31.5467C399.152 31.5467 399.603 31.7472 399.931 32.1483C400.259 32.5441 400.423 33.0519 400.423 33.6717C400.423 33.7446 400.418 33.8488 400.407 33.9842H397.282C397.282 34.4061 397.4 34.768 397.634 35.0701C397.868 35.3722 398.194 35.5233 398.611 35.5233C398.881 35.5233 399.121 35.4608 399.329 35.3358C399.538 35.2055 399.699 35.0337 399.814 34.8201L400.329 34.9764C400.199 35.2837 399.988 35.5363 399.696 35.7342C399.405 35.9321 399.043 36.0311 398.611 36.0311C398.027 36.0311 397.558 35.8227 397.204 35.4061C396.85 34.9894 396.673 34.4399 396.673 33.7576ZM397.298 33.5233H399.814C399.814 33.1118 399.702 32.7654 399.478 32.4842C399.254 32.1977 398.954 32.0545 398.579 32.0545C398.199 32.0545 397.892 32.2003 397.657 32.492C397.428 32.7837 397.308 33.1274 397.298 33.5233ZM402.649 34.8123C402.649 35.0102 402.732 35.1795 402.899 35.3201C403.065 35.4555 403.294 35.5233 403.586 35.5233C403.956 35.5233 404.271 35.4035 404.531 35.1639C404.797 34.9243 404.93 34.6196 404.93 34.2498V33.6639C404.701 33.7212 404.336 33.7889 403.836 33.867C403.43 33.9399 403.13 34.0519 402.938 34.2029C402.745 34.354 402.649 34.5571 402.649 34.8123ZM402.039 34.8592C402.039 34.0779 402.643 33.5936 403.852 33.4061C404.393 33.3175 404.753 33.2446 404.93 33.1873V32.9451C404.93 32.6847 404.836 32.4686 404.649 32.2967C404.461 32.1248 404.196 32.0389 403.852 32.0389C403.602 32.0389 403.36 32.0988 403.125 32.2186C402.896 32.3332 402.701 32.4894 402.539 32.6873L402.149 32.3592C402.357 32.1196 402.607 31.9243 402.899 31.7733C403.196 31.6222 403.508 31.5467 403.836 31.5467C404.961 31.5467 405.524 32.0962 405.524 33.1951V35.8904H404.946V35.2029C404.862 35.4269 404.69 35.6222 404.43 35.7889C404.169 35.9503 403.862 36.0311 403.508 36.0311C403.044 36.0311 402.682 35.9217 402.422 35.7029C402.167 35.4842 402.039 35.2029 402.039 34.8592ZM407.695 35.8904V31.6873H408.273V32.2967C408.356 32.1092 408.494 31.9373 408.687 31.7811C408.879 31.6248 409.127 31.5467 409.429 31.5467C409.653 31.5467 409.851 31.5832 410.023 31.6561V32.2029C409.835 32.13 409.637 32.0936 409.429 32.0936C409.075 32.0936 408.799 32.2264 408.601 32.492C408.403 32.7576 408.304 33.1092 408.304 33.5467V35.8904H407.695Z" fill="white"/>
</g>
<g filter="url(#filter3_d_59_3)">
<path d="M392.438 41.8125H394.641L393.953 39.8438C393.911 39.724 393.844 39.5339 393.75 39.2734C393.661 39.0078 393.599 38.8229 393.562 38.7188H393.516C393.297 39.3594 393.169 39.7344 393.133 39.8438L392.438 41.8125ZM390.969 44L393.156 38.1484H393.922L396.109 44H395.422L394.828 42.3125H392.25L391.656 44H390.969ZM397.663 44V39.7969H398.257V40.5156H398.265C398.327 40.3073 398.481 40.112 398.726 39.9297C398.97 39.7474 399.262 39.6562 399.601 39.6562C399.991 39.6562 400.312 39.7786 400.562 40.0234C400.817 40.2682 400.944 40.6875 400.944 41.2812V44H400.335V41.3828C400.335 40.5703 400.043 40.1641 399.46 40.1641C399.137 40.1641 398.858 40.2943 398.624 40.5547C398.39 40.8151 398.273 41.1276 398.273 41.4922V44H397.663ZM403.108 44V39.7969H403.701V40.5156H403.709C403.772 40.3073 403.925 40.112 404.17 39.9297C404.415 39.7474 404.706 39.6562 405.045 39.6562C405.436 39.6562 405.756 39.7786 406.006 40.0234C406.261 40.2682 406.389 40.6875 406.389 41.2812V44H405.779V41.3828C405.779 40.5703 405.488 40.1641 404.904 40.1641C404.581 40.1641 404.303 40.2943 404.068 40.5547C403.834 40.8151 403.717 41.1276 403.717 41.4922V44H403.108ZM408.614 38.8516V38.0625H409.38V38.8516H408.614ZM408.708 44V39.7969H409.302V44H408.708ZM411.098 39.7969H411.77L412.676 42.4297C412.718 42.5599 412.775 42.7422 412.848 42.9766C412.921 43.2109 412.973 43.3776 413.004 43.4766H413.02C413.056 43.3568 413.113 43.1823 413.192 42.9531C413.27 42.724 413.327 42.5495 413.363 42.4297L414.254 39.7969H414.926L413.379 44H412.645L411.098 39.7969ZM416.198 41.8672C416.198 41.2109 416.376 40.6797 416.73 40.2734C417.084 39.862 417.542 39.6562 418.105 39.6562C418.678 39.6562 419.128 39.8568 419.456 40.2578C419.784 40.6536 419.948 41.1615 419.948 41.7812C419.948 41.8542 419.943 41.9583 419.933 42.0938H416.808C416.808 42.5156 416.925 42.8776 417.159 43.1797C417.394 43.4818 417.719 43.6328 418.136 43.6328C418.407 43.6328 418.646 43.5703 418.855 43.4453C419.063 43.3151 419.224 43.1432 419.339 42.9297L419.855 43.0859C419.724 43.3932 419.514 43.6458 419.222 43.8438C418.93 44.0417 418.568 44.1406 418.136 44.1406C417.553 44.1406 417.084 43.9323 416.73 43.5156C416.376 43.099 416.198 42.5495 416.198 41.8672ZM416.823 41.6328H419.339C419.339 41.2214 419.227 40.875 419.003 40.5938C418.779 40.3073 418.48 40.1641 418.105 40.1641C417.724 40.1641 417.417 40.3099 417.183 40.6016C416.954 40.8932 416.834 41.237 416.823 41.6328ZM421.862 44V39.7969H422.44V40.4062C422.523 40.2188 422.661 40.0469 422.854 39.8906C423.046 39.7344 423.294 39.6562 423.596 39.6562C423.82 39.6562 424.018 39.6927 424.19 39.7656V40.3125C424.002 40.2396 423.804 40.2031 423.596 40.2031C423.242 40.2031 422.966 40.3359 422.768 40.6016C422.57 40.8672 422.471 41.2188 422.471 41.6562V44H421.862ZM425.408 43.1719L425.861 42.9062C426.168 43.3906 426.585 43.6328 427.111 43.6328C427.428 43.6328 427.681 43.5755 427.868 43.4609C428.061 43.3464 428.158 43.1797 428.158 42.9609C428.158 42.8672 428.134 42.7839 428.087 42.7109C428.04 42.6328 427.988 42.5703 427.931 42.5234C427.879 42.4714 427.783 42.4167 427.642 42.3594C427.501 42.2969 427.384 42.2526 427.29 42.2266C427.202 42.1953 427.053 42.1458 426.845 42.0781C426.663 42.0208 426.506 41.9635 426.376 41.9062C426.246 41.849 426.111 41.7734 425.97 41.6797C425.829 41.5807 425.72 41.4609 425.642 41.3203C425.569 41.1797 425.533 41.0182 425.533 40.8359C425.533 40.487 425.673 40.2031 425.954 39.9844C426.236 39.7656 426.621 39.6562 427.111 39.6562C427.454 39.6562 427.769 39.7474 428.056 39.9297C428.342 40.112 428.548 40.3255 428.673 40.5703L428.267 40.8359C428.158 40.6536 427.999 40.4974 427.79 40.3672C427.587 40.2318 427.361 40.1641 427.111 40.1641C426.793 40.1641 426.551 40.2266 426.384 40.3516C426.223 40.4714 426.142 40.6354 426.142 40.8438C426.142 40.9635 426.173 41.0729 426.236 41.1719C426.298 41.2656 426.392 41.349 426.517 41.4219C426.647 41.4896 426.764 41.5443 426.868 41.5859C426.978 41.6224 427.121 41.6693 427.298 41.7266C427.449 41.7734 427.582 41.8177 427.697 41.8594C427.816 41.901 427.947 41.9583 428.087 42.0312C428.228 42.1042 428.345 42.1823 428.439 42.2656C428.533 42.3438 428.611 42.4453 428.673 42.5703C428.736 42.6901 428.767 42.8203 428.767 42.9609C428.767 43.2943 428.618 43.5755 428.322 43.8047C428.03 44.0286 427.626 44.1406 427.111 44.1406C426.736 44.1406 426.402 44.0573 426.111 43.8906C425.819 43.7188 425.585 43.4792 425.408 43.1719ZM430.938 42.9219C430.938 43.1198 431.021 43.2891 431.188 43.4297C431.354 43.5651 431.584 43.6328 431.875 43.6328C432.245 43.6328 432.56 43.513 432.821 43.2734C433.086 43.0339 433.219 42.7292 433.219 42.3594V41.7734C432.99 41.8307 432.625 41.8984 432.125 41.9766C431.719 42.0495 431.42 42.1615 431.227 42.3125C431.034 42.4635 430.938 42.6667 430.938 42.9219ZM430.328 42.9688C430.328 42.1875 430.933 41.7031 432.141 41.5156C432.683 41.4271 433.042 41.3542 433.219 41.2969V41.0547C433.219 40.7943 433.125 40.5781 432.938 40.4062C432.75 40.2344 432.485 40.1484 432.141 40.1484C431.891 40.1484 431.649 40.2083 431.414 40.3281C431.185 40.4427 430.99 40.599 430.828 40.7969L430.438 40.4688C430.646 40.2292 430.896 40.0339 431.188 39.8828C431.485 39.7318 431.797 39.6562 432.125 39.6562C433.25 39.6562 433.813 40.2057 433.813 41.3047V44H433.235V43.3125C433.151 43.5365 432.979 43.7318 432.719 43.8984C432.459 44.0599 432.151 44.1406 431.797 44.1406C431.334 44.1406 430.972 44.0312 430.711 43.8125C430.456 43.5938 430.328 43.3125 430.328 42.9688ZM435.984 44V39.7969H436.562V40.4062C436.645 40.2188 436.783 40.0469 436.976 39.8906C437.169 39.7344 437.416 39.6562 437.718 39.6562C437.942 39.6562 438.14 39.6927 438.312 39.7656V40.3125C438.124 40.2396 437.926 40.2031 437.718 40.2031C437.364 40.2031 437.088 40.3359 436.89 40.6016C436.692 40.8672 436.593 41.2188 436.593 41.6562V44H435.984ZM439.553 39.7969H440.256L441.123 42.2578C441.254 42.6224 441.371 42.9766 441.475 43.3203H441.506C441.584 43.0651 441.699 42.7109 441.85 42.2578L442.678 39.7969H443.366L441.553 44.7031C441.397 45.1198 441.215 45.4115 441.006 45.5781C440.803 45.75 440.553 45.8359 440.256 45.8359H440.022V45.3359H440.162C440.36 45.3359 440.527 45.2786 440.662 45.1641C440.803 45.0495 440.928 44.8438 441.037 44.5469L441.194 44.0547L439.553 39.7969Z" fill="white"/>
</g>
<defs>
<filter id="filter0_d_59_3" x="0" y="5.00012" width="269" height="70" filterUnits="userSpaceOnUse" color-interpolation-filters="sRGB">
<feFlood flood-opacity="0" result="BackgroundImageFix"/>
<feColorMatrix in="SourceAlpha" type="matrix" values="0 0 0 0 0 0 0 0 0 0 0 0 0 0 0 0 0 0 127 0" result="hardAlpha"/>
<feOffset dy="4"/>
<feGaussianBlur stdDeviation="2"/>
<feComposite in2="hardAlpha" operator="out"/>
<feColorMatrix type="matrix" values="0 0 0 0 0 0 0 0 0 0 0 0 0 0 0 0 0 0 0.1 0"/>
<feBlend mode="normal" in2="BackgroundImageFix" result="effect1_dropShadow_59_3"/>
<feBlend mode="normal" in="SourceGraphic" in2="effect1_dropShadow_59_3" result="shape"/>
</filter>
<filter id="filter1_d_59_3" x="319" y="0" width="104" height="75" filterUnits="userSpaceOnUse" color-interpolation-filters="sRGB">
<feFlood flood-opacity="0" result="BackgroundImageFix"/>
<feColorMatrix in="SourceAlpha" type="matrix" values="0 0 0 0 0 0 0 0 0 0 0 0 0 0 0 0 0 0 127 0" result="hardAlpha"/>
<feOffset dy="4"/>
<feGaussianBlur stdDeviation="2"/>
<feComposite in2="hardAlpha" operator="out"/>
<feColorMatrix type="matrix" values="0 0 0 0 0 0 0 0 0 0 0 0 0 0 0 0 0 0 0.1 0"/>
<feBlend mode="normal" in2="BackgroundImageFix" result="effect1_dropShadow_59_3"/>
<feBlend mode="normal" in="SourceGraphic" in2="effect1_dropShadow_59_3" result="shape"/>
</filter>
<filter id="filter2_d_59_3" x="387.01" y="30.0389" width="27.0128" height="13.9922" filterUnits="userSpaceOnUse" color-interpolation-filters="sRGB">
<feFlood flood-opacity="0" result="BackgroundImageFix"/>
<feColorMatrix in="SourceAlpha" type="matrix" values="0 0 0 0 0 0 0 0 0 0 0 0 0 0 0 0 0 0 127 0" result="hardAlpha"/>
<feOffset dy="4"/>
<feGaussianBlur stdDeviation="2"/>
<feComposite in2="hardAlpha" operator="out"/>
<feColorMatrix type="matrix" values="0 0 0 0 0 0 0 0 0 0 0 0 0 0 0 0 0 0 0.1 0"/>
<feBlend mode="normal" in2="BackgroundImageFix" result="effect1_dropShadow_59_3"/>
<feBlend mode="normal" in="SourceGraphic" in2="effect1_dropShadow_59_3" result="shape"/>
</filter>
<filter id="filter3_d_59_3" x="386.969" y="38.0625" width="60.3969" height="15.7734" filterUnits="userSpaceOnUse" color-interpolation-filters="sRGB">
<feFlood flood-opacity="0" result="BackgroundImageFix"/>
<feColorMatrix in="SourceAlpha" type="matrix" values="0 0 0 0 0 0 0 0 0 0 0 0 0 0 0 0 0 0 127 0" result="hardAlpha"/>
<feOffset dy="4"/>
<feGaussianBlur stdDeviation="2"/>
<feComposite in2="hardAlpha" operator="out"/>
<feColorMatrix type="matrix" values="0 0 0 0 0 0 0 0 0 0 0 0 0 0 0 0 0 0 0.1 0"/>
<feBlend mode="normal" in2="BackgroundImageFix" result="effect1_dropShadow_59_3"/>
<feBlend mode="normal" in="SourceGraphic" in2="effect1_dropShadow_59_3" result="shape"/>
</filter>
<linearGradient id="paint0_linear_59_3" x1="294" y1="5.00012" x2="294" y2="67.0001" gradientUnits="userSpaceOnUse">
<stop stop-color="#FFFC91"/>
<stop offset="0.5" stop-color="#D6BF4D"/>
<stop offset="1" stop-color="#A77B00"/>
</linearGradient>
<linearGradient id="paint1_linear_59_3" x1="371" y1="0" x2="371" y2="67" gradientUnits="userSpaceOnUse">
<stop offset="0.115" stop-color="#E5BF5A"/>
<stop offset="0.26" stop-color="#FFFC91"/>
<stop offset="0.5" stop-color="#A77B00"/>
<stop offset="0.545" stop-color="#C19943"/>
<stop offset="0.715" stop-color="#FFFC91"/>
<stop offset="0.87" stop-color="#E5BF5A"/>
</linearGradient>
</defs>
</svg>
