<svg width="427" height="69" viewBox="0 0 427 69" fill="none" xmlns="http://www.w3.org/2000/svg">
<path d="M27.0443 57.9473V58.7889H21.1345V50.0015H26.9332V50.8431H22.0722V53.9002H26.304V54.6923H22.0722V57.9473H27.0443Z" fill="white"/>
<path d="M34.9594 58.7889H34.0464V55.1873C34.0464 54.453 33.9354 53.9167 33.7133 53.5784C33.4994 53.2318 33.1622 53.0586 32.7016 53.0586C32.3808 53.0586 32.0641 53.1369 31.7516 53.2937C31.439 53.4505 31.1635 53.665 30.925 53.9373C30.6864 54.2013 30.5178 54.5066 30.4191 54.8532V58.7889H29.5061V52.3407H30.3327V53.7764C30.5137 53.4629 30.7399 53.1906 31.0113 52.9595C31.291 52.7285 31.6035 52.5511 31.949 52.4273C32.3027 52.2953 32.6687 52.2293 33.047 52.2293C33.4089 52.2293 33.7133 52.2953 33.96 52.4273C34.2068 52.5594 34.4042 52.7491 34.5522 52.9967C34.7003 53.2359 34.8031 53.5247 34.8607 53.863C34.9265 54.2013 34.9594 54.5767 34.9594 54.9893V58.7889Z" fill="white"/>
<path d="M37.3154 56.9201C37.3154 56.524 37.4306 56.1775 37.6609 55.8804C37.8912 55.5834 38.2119 55.3524 38.6232 55.1873C39.0345 55.0223 39.5074 54.9398 40.042 54.9398C40.3464 54.9398 40.663 54.9646 40.992 55.0141C41.3293 55.0636 41.6254 55.1378 41.8804 55.2368V54.717C41.8804 54.1807 41.7241 53.7599 41.4115 53.4546C41.099 53.1411 40.663 52.9843 40.1037 52.9843C39.7583 52.9843 39.4169 53.0503 39.0797 53.1823C38.7507 53.3143 38.4052 53.5 38.0433 53.7393L37.6979 53.0833C38.1174 52.8028 38.5327 52.5924 38.944 52.4521C39.3552 52.3036 39.7747 52.2293 40.2024 52.2293C41.0003 52.2293 41.6295 52.4562 42.0901 52.91C42.5589 53.3638 42.7934 53.995 42.7934 54.8037V57.6998C42.7934 57.8235 42.818 57.9143 42.8674 57.9721C42.925 58.0298 43.0072 58.0628 43.1141 58.0711V58.7889C43.0154 58.8054 42.9332 58.8137 42.8674 58.8137C42.8016 58.8219 42.7481 58.8261 42.707 58.8261C42.4849 58.8178 42.3163 58.7518 42.2011 58.628C42.0942 58.496 42.0325 58.3557 42.0161 58.2072L42.0037 57.7617C41.7159 58.1247 41.3416 58.4094 40.881 58.6157C40.4286 58.8137 39.968 58.9127 39.4992 58.9127C39.0797 58.9127 38.7055 58.8261 38.3765 58.6528C38.0474 58.4713 37.7884 58.232 37.5992 57.9349C37.41 57.6296 37.3154 57.2914 37.3154 56.9201ZM41.5966 57.4027C41.6871 57.2955 41.757 57.1882 41.8063 57.081C41.8557 56.9654 41.8804 56.8664 41.8804 56.7839V55.8804C41.6089 55.7732 41.3252 55.6948 41.0291 55.6453C40.7412 55.5875 40.4492 55.5586 40.1531 55.5586C39.5691 55.5586 39.0962 55.6741 38.7342 55.9052C38.3723 56.1362 38.1914 56.4539 38.1914 56.8582C38.1914 57.0892 38.249 57.3079 38.3641 57.5141C38.4875 57.7204 38.6643 57.8896 38.8946 58.0216C39.1249 58.1453 39.4046 58.2072 39.7336 58.2072C40.112 58.2072 40.4698 58.133 40.807 57.9844C41.1442 57.8359 41.4074 57.642 41.5966 57.4027Z" fill="white"/>
<path d="M48.8987 58.9127C48.397 58.9127 47.9322 58.7848 47.5045 58.529C47.085 58.2732 46.756 57.9473 46.5175 57.5513V58.7889H45.7032V49.754H46.6162V53.665C46.8959 53.2359 47.2372 52.8894 47.6402 52.6254C48.0433 52.3613 48.5121 52.2293 49.0467 52.2293C49.4909 52.2293 49.8898 52.3242 50.2435 52.514C50.6054 52.6955 50.9097 52.9472 51.1565 53.269C51.4115 53.5907 51.6048 53.9497 51.7364 54.3457C51.8762 54.7418 51.9461 55.1543 51.9461 55.5834C51.9461 56.0372 51.868 56.4662 51.7117 56.8705C51.5636 57.2666 51.3498 57.6214 51.0701 57.9349C50.7905 58.2402 50.4656 58.4795 50.0954 58.6528C49.7335 58.8261 49.3346 58.9127 48.8987 58.9127ZM48.6766 58.1082C49.0138 58.1082 49.3264 58.0381 49.6143 57.8978C49.9022 57.7575 50.1489 57.5719 50.3545 57.3409C50.5684 57.1016 50.7288 56.8293 50.8357 56.524C50.9509 56.2187 51.0084 55.9052 51.0084 55.5834C51.0084 55.1461 50.9138 54.7335 50.7247 54.3457C50.5437 53.9497 50.2846 53.632 49.9474 53.3927C49.6102 53.1452 49.2195 53.0214 48.7753 53.0214C48.4545 53.0214 48.1543 53.0957 47.8747 53.2442C47.595 53.3927 47.3482 53.5866 47.1344 53.8259C46.9288 54.0652 46.756 54.3251 46.6162 54.6056V56.5735C46.6491 56.788 46.7355 56.9902 46.8753 57.18C47.0151 57.3697 47.1837 57.5348 47.3811 57.675C47.5868 57.807 47.8006 57.9143 48.0227 57.9968C48.253 58.0711 48.471 58.1082 48.6766 58.1082Z" fill="white"/>
<path d="M54.4771 49.754H55.4024V57.2666C55.4024 57.5966 55.4559 57.8112 55.5628 57.9102C55.6697 58.0009 55.8054 58.0463 55.9699 58.0463C56.1262 58.0463 56.2784 58.0298 56.4264 57.9968C56.5745 57.9638 56.702 57.9267 56.8089 57.8854L56.9693 58.628C56.8048 58.694 56.6033 58.7518 56.3647 58.8013C56.1344 58.8508 55.9329 58.8756 55.7602 58.8756C55.3654 58.8756 55.0528 58.76 54.8225 58.529C54.5922 58.298 54.4771 57.9803 54.4771 57.576V49.754Z" fill="white"/>
<path d="M58.9725 58.7889V52.3407H59.8855V58.7889H58.9725ZM58.9725 51.0288V49.754H59.8855V51.0288H58.9725Z" fill="white"/>
<path d="M68.2592 58.7889H67.3462V55.1873C67.3462 54.453 67.2351 53.9167 67.013 53.5784C66.7992 53.2318 66.462 53.0586 66.0014 53.0586C65.6806 53.0586 65.3639 53.1369 65.0514 53.2937C64.7388 53.4505 64.4633 53.665 64.2247 53.9373C63.9862 54.2013 63.8176 54.5066 63.7189 54.8532V58.7889H62.8059V52.3407H63.6325V53.7764C63.8135 53.4629 64.0397 53.1906 64.3111 52.9595C64.5907 52.7285 64.9033 52.5511 65.2488 52.4273C65.6024 52.2953 65.9685 52.2293 66.3468 52.2293C66.7087 52.2293 67.013 52.2953 67.2598 52.4273C67.5066 52.5594 67.704 52.7491 67.852 52.9967C68.0001 53.2359 68.1029 53.5247 68.1605 53.863C68.2263 54.2013 68.2592 54.5767 68.2592 54.9893V58.7889Z" fill="white"/>
<path d="M73.6996 58.8756C73.2637 58.8756 72.8606 58.7848 72.4905 58.6033C72.1286 58.4218 71.8119 58.1783 71.5405 57.8731C71.2773 57.5595 71.0717 57.2047 70.9236 56.8087C70.7838 56.4126 70.7139 56.0001 70.7139 55.571C70.7139 55.1254 70.7838 54.7005 70.9236 54.2962C71.0717 53.8919 71.2773 53.5371 71.5405 53.2318C71.8037 52.9183 72.1163 52.6749 72.4782 52.5016C72.8483 52.3201 73.2513 52.2293 73.6873 52.2293C74.2384 52.2293 74.7154 52.3655 75.1184 52.6377C75.5215 52.91 75.8628 53.2525 76.1425 53.665V52.3407H76.9568V58.7889C76.9568 59.383 76.8128 59.8863 76.5249 60.2989C76.2371 60.7114 75.8505 61.0208 75.3652 61.2271C74.8881 61.4416 74.3576 61.5489 73.7736 61.5489C73.0416 61.5489 72.4453 61.4169 71.9847 61.1529C71.5323 60.8971 71.1622 60.5464 70.8743 60.1008L71.4295 59.6429C71.6845 60.0472 72.0176 60.3442 72.4288 60.534C72.8483 60.732 73.2966 60.8311 73.7736 60.8311C74.1767 60.8311 74.5509 60.7568 74.8964 60.6083C75.2418 60.4598 75.5174 60.2329 75.723 59.9276C75.9368 59.6223 76.0438 59.2427 76.0438 58.7889V57.5513C75.797 57.9556 75.4598 58.2774 75.0321 58.5166C74.6126 58.7559 74.1684 58.8756 73.6996 58.8756ZM73.971 58.1082C74.2178 58.1082 74.4522 58.067 74.6743 57.9844C74.9046 57.8937 75.1143 57.774 75.3035 57.6255C75.5009 57.477 75.6654 57.312 75.797 57.1305C75.9286 56.9407 76.0109 56.7509 76.0438 56.5611V54.6056C75.9204 54.3003 75.7436 54.0281 75.5133 53.7888C75.2912 53.5495 75.0362 53.3638 74.7483 53.2318C74.4687 53.0916 74.1767 53.0214 73.8723 53.0214C73.5187 53.0214 73.202 53.0957 72.9223 53.2442C72.6509 53.3927 72.4206 53.5949 72.2314 53.8507C72.0422 54.0982 71.8942 54.3746 71.7873 54.6799C71.6886 54.9769 71.6392 55.2822 71.6392 55.5958C71.6392 55.9341 71.6968 56.2558 71.8119 56.5611C71.9353 56.8582 72.0998 57.1263 72.3054 57.3656C72.5193 57.5966 72.7702 57.7782 73.058 57.9102C73.3459 58.0422 73.6503 58.1082 73.971 58.1082Z" fill="white"/>
<path d="M84.3224 58.7889V50.0015H87.9497C88.3362 50.0015 88.6858 50.084 88.9984 50.2491C89.3192 50.4058 89.5947 50.6162 89.825 50.8803C90.0635 51.1443 90.2445 51.4413 90.3679 51.7714C90.4995 52.1014 90.5653 52.4397 90.5653 52.7863C90.5653 53.2566 90.4583 53.7063 90.2445 54.1353C90.0388 54.5644 89.7469 54.9109 89.3685 55.175C88.9901 55.439 88.546 55.571 88.036 55.571H85.26V58.7889H84.3224ZM85.26 54.7294H87.9867C88.3157 54.7294 88.6036 54.6428 88.8503 54.4695C89.0971 54.288 89.2862 54.0487 89.4179 53.7516C89.5577 53.4464 89.6276 53.1246 89.6276 52.7863C89.6276 52.4232 89.5453 52.0932 89.3808 51.7961C89.2246 51.4991 89.0148 51.2681 88.7516 51.103C88.4966 50.9298 88.2129 50.8431 87.9003 50.8431H85.26V54.7294Z" fill="white"/>
<path d="M95.5781 58.9127C95.1011 58.9127 94.6693 58.8261 94.2827 58.6528C93.8961 58.4713 93.5589 58.2278 93.271 57.9226C92.9831 57.609 92.761 57.2542 92.6047 56.8582C92.4485 56.4539 92.3703 56.0248 92.3703 55.571C92.3703 55.1172 92.4485 54.6923 92.6047 54.2962C92.761 53.8919 92.9831 53.5371 93.271 53.2318C93.5589 52.9183 93.8961 52.6749 94.2827 52.5016C94.6775 52.3201 95.1093 52.2293 95.5781 52.2293C96.047 52.2293 96.4747 52.3201 96.8613 52.5016C97.2561 52.6749 97.5974 52.9183 97.8853 53.2318C98.1732 53.5371 98.3952 53.8919 98.5515 54.2962C98.7078 54.6923 98.7859 55.1172 98.7859 55.571C98.7859 56.0248 98.7078 56.4539 98.5515 56.8582C98.3952 57.2542 98.1732 57.609 97.8853 57.9226C97.6056 58.2278 97.2684 58.4713 96.8736 58.6528C96.4788 58.8261 96.047 58.9127 95.5781 58.9127ZM93.308 55.5958C93.308 56.0578 93.4108 56.4827 93.6164 56.8705C93.8221 57.2501 94.0935 57.5513 94.4307 57.774C94.7762 57.9968 95.1586 58.1082 95.5781 58.1082C95.9894 58.1082 96.3677 57.9968 96.7132 57.774C97.0587 57.543 97.3342 57.2336 97.5398 56.8458C97.7537 56.458 97.8606 56.0289 97.8606 55.5586C97.8606 55.0966 97.7537 54.6758 97.5398 54.2962C97.3342 53.9084 97.0587 53.599 96.7132 53.368C96.3677 53.1369 95.9894 53.0214 95.5781 53.0214C95.1586 53.0214 94.7762 53.1411 94.4307 53.3803C94.0935 53.6114 93.8221 53.9208 93.6164 54.3086C93.4108 54.6881 93.308 55.1172 93.308 55.5958Z" fill="white"/>
<path d="M103.409 58.9127C102.883 58.9127 102.389 58.8261 101.928 58.6528C101.476 58.4713 101.081 58.2031 100.744 57.8483L101.126 57.2047C101.488 57.5513 101.85 57.7988 102.212 57.9473C102.582 58.0958 102.969 58.1701 103.372 58.1701C103.849 58.1701 104.24 58.0752 104.544 57.8854C104.848 57.6957 105 57.4192 105 57.0562C105 56.8004 104.926 56.6106 104.778 56.4869C104.63 56.3549 104.416 56.2476 104.137 56.1651C103.857 56.0826 103.524 55.9877 103.137 55.8804C102.702 55.7567 102.331 55.6246 102.027 55.4844C101.723 55.3441 101.492 55.1667 101.336 54.9522C101.188 54.7376 101.114 54.4612 101.114 54.1229C101.114 53.7104 101.221 53.3638 101.435 53.0833C101.649 52.8028 101.937 52.5924 102.299 52.4521C102.669 52.3036 103.084 52.2293 103.545 52.2293C104.03 52.2293 104.462 52.3077 104.84 52.4645C105.227 52.613 105.547 52.8316 105.802 53.1204L105.358 53.7393C105.128 53.4752 104.852 53.2813 104.532 53.1576C104.219 53.0255 103.87 52.9595 103.483 52.9595C103.236 52.9595 102.998 52.9925 102.767 53.0586C102.537 53.1246 102.348 53.236 102.2 53.3927C102.052 53.5412 101.978 53.7516 101.978 54.0239C101.978 54.2385 102.035 54.4117 102.15 54.5437C102.266 54.6675 102.434 54.7748 102.656 54.8655C102.878 54.948 103.158 55.0388 103.495 55.1378C103.981 55.2698 104.404 55.406 104.766 55.5462C105.128 55.6783 105.408 55.8557 105.605 56.0784C105.802 56.293 105.901 56.5983 105.901 56.9943C105.901 57.5884 105.671 58.0587 105.21 58.4052C104.758 58.7435 104.157 58.9127 103.409 58.9127Z" fill="white"/>
<path d="M110.507 58.9127C109.981 58.9127 109.488 58.8261 109.027 58.6528C108.575 58.4713 108.18 58.2031 107.842 57.8483L108.225 57.2047C108.587 57.5513 108.949 57.7988 109.311 57.9473C109.681 58.0958 110.067 58.1701 110.47 58.1701C110.947 58.1701 111.338 58.0752 111.642 57.8854C111.947 57.6957 112.099 57.4192 112.099 57.0562C112.099 56.8004 112.025 56.6106 111.877 56.4869C111.729 56.3549 111.515 56.2476 111.235 56.1651C110.956 56.0826 110.623 55.9877 110.236 55.8804C109.8 55.7567 109.43 55.6246 109.126 55.4844C108.821 55.3441 108.591 55.1667 108.435 54.9522C108.287 54.7376 108.213 54.4612 108.213 54.1229C108.213 53.7104 108.32 53.3638 108.533 53.0833C108.747 52.8028 109.035 52.5924 109.397 52.4521C109.767 52.3036 110.183 52.2293 110.643 52.2293C111.128 52.2293 111.56 52.3077 111.939 52.4645C112.325 52.613 112.646 52.8316 112.901 53.1204L112.457 53.7393C112.226 53.4752 111.951 53.2813 111.63 53.1576C111.318 53.0255 110.968 52.9595 110.581 52.9595C110.335 52.9595 110.096 52.9925 109.866 53.0586C109.636 53.1246 109.446 53.236 109.298 53.3927C109.15 53.5412 109.076 53.7516 109.076 54.0239C109.076 54.2385 109.134 54.4117 109.249 54.5437C109.364 54.6675 109.533 54.7748 109.755 54.8655C109.977 54.948 110.257 55.0388 110.594 55.1378C111.079 55.2698 111.503 55.406 111.865 55.5462C112.226 55.6783 112.506 55.8557 112.704 56.0784C112.901 56.293 113 56.5983 113 56.9943C113 57.5884 112.769 58.0587 112.309 58.4052C111.856 58.7435 111.256 58.9127 110.507 58.9127Z" fill="white"/>
<path d="M115.472 58.7889V52.3407H116.385V58.7889H115.472ZM115.472 51.0288V49.754H116.385V51.0288H115.472Z" fill="white"/>
<path d="M122.5 58.9127C121.999 58.9127 121.534 58.7848 121.106 58.529C120.687 58.2732 120.358 57.9473 120.119 57.5513V58.7889H119.305V49.754H120.218V53.665C120.498 53.2359 120.839 52.8894 121.242 52.6254C121.645 52.3613 122.114 52.2293 122.648 52.2293C123.093 52.2293 123.492 52.3242 123.845 52.514C124.207 52.6955 124.511 52.9472 124.758 53.269C125.013 53.5907 125.206 53.9497 125.338 54.3457C125.478 54.7418 125.548 55.1543 125.548 55.5834C125.548 56.0372 125.47 56.4662 125.313 56.8705C125.165 57.2666 124.951 57.6214 124.672 57.9349C124.392 58.2402 124.067 58.4795 123.697 58.6528C123.335 58.8261 122.936 58.9127 122.5 58.9127ZM122.278 58.1082C122.616 58.1082 122.928 58.0381 123.216 57.8978C123.504 57.7575 123.751 57.5719 123.956 57.3409C124.17 57.1016 124.33 56.8293 124.437 56.524C124.553 56.2187 124.61 55.9052 124.61 55.5834C124.61 55.1461 124.516 54.7335 124.326 54.3457C124.145 53.9497 123.886 53.632 123.549 53.3927C123.212 53.1452 122.821 53.0214 122.377 53.0214C122.056 53.0214 121.756 53.0957 121.476 53.2442C121.197 53.3927 120.95 53.5866 120.736 53.8259C120.53 54.0652 120.358 54.3251 120.218 54.6056V56.5735C120.251 56.788 120.337 56.9902 120.477 57.18C120.617 57.3697 120.785 57.5348 120.983 57.675C121.188 57.807 121.402 57.9143 121.624 57.9968C121.855 58.0711 122.073 58.1082 122.278 58.1082Z" fill="white"/>
<path d="M128.054 58.7889V52.3407H128.967V58.7889H128.054ZM128.054 51.0288V49.754H128.967V51.0288H128.054Z" fill="white"/>
<path d="M131.912 49.754H132.837V57.2666C132.837 57.5966 132.891 57.8112 132.998 57.9102C133.105 58.0009 133.24 58.0463 133.405 58.0463C133.561 58.0463 133.713 58.0298 133.861 57.9968C134.01 57.9638 134.137 57.9267 134.244 57.8854L134.404 58.628C134.24 58.694 134.038 58.7518 133.8 58.8013C133.569 58.8508 133.368 58.8756 133.195 58.8756C132.8 58.8756 132.488 58.76 132.258 58.529C132.027 58.298 131.912 57.9803 131.912 57.576V49.754Z" fill="white"/>
<path d="M136.408 58.7889V52.3407H137.321V58.7889H136.408ZM136.408 51.0288V49.754H137.321V51.0288H136.408Z" fill="white"/>
<path d="M143.399 58.4671C143.325 58.5001 143.214 58.5496 143.066 58.6157C142.926 58.6817 142.754 58.7394 142.548 58.7889C142.351 58.8467 142.137 58.8756 141.907 58.8756C141.66 58.8756 141.429 58.8302 141.216 58.7394C141.01 58.6404 140.841 58.496 140.71 58.3062C140.586 58.1165 140.525 57.8772 140.525 57.5884V53.0709H139.636V52.3407H140.525V50.1624H141.438V52.3407H142.906V53.0709H141.438V57.3285C141.454 57.5595 141.536 57.7328 141.684 57.8483C141.832 57.9638 142.001 58.0216 142.19 58.0216C142.421 58.0216 142.626 57.9844 142.807 57.9102C142.996 57.8277 143.116 57.7699 143.165 57.7369L143.399 58.4671Z" fill="white"/>
<path d="M145.544 58.7889V52.3407H146.457V58.7889H145.544ZM145.544 51.0288V49.754H146.457V51.0288H145.544Z" fill="white"/>
<path d="M152.178 58.9127C151.701 58.9127 151.265 58.8261 150.87 58.6528C150.484 58.4713 150.143 58.2278 149.846 57.9226C149.559 57.609 149.332 57.2501 149.168 56.8458C149.012 56.4415 148.933 56.0124 148.933 55.5586C148.933 54.948 149.073 54.3911 149.353 53.8878C149.633 53.3845 150.015 52.9843 150.5 52.6873C150.994 52.382 151.553 52.2293 152.178 52.2293C152.812 52.2293 153.367 52.382 153.844 52.6873C154.321 52.9925 154.691 53.3968 154.954 53.9002C155.226 54.3952 155.361 54.9357 155.361 55.5215C155.361 55.5958 155.361 55.6659 155.361 55.7319C155.361 55.7979 155.357 55.8515 155.349 55.8928H149.896C149.929 56.3384 150.052 56.7385 150.266 57.0933C150.48 57.4399 150.755 57.7122 151.093 57.9102C151.438 58.1082 151.808 58.2072 152.203 58.2072C152.622 58.2072 153.013 58.1041 153.375 57.8978C153.745 57.6915 154 57.4192 154.14 57.081L154.93 57.3037C154.798 57.609 154.596 57.8854 154.325 58.133C154.054 58.3722 153.733 58.562 153.363 58.7023C152.993 58.8426 152.598 58.9127 152.178 58.9127ZM149.871 55.2368H154.51C154.477 54.783 154.35 54.3829 154.128 54.0363C153.914 53.6898 153.638 53.4175 153.301 53.2194C152.964 53.0214 152.59 52.9224 152.178 52.9224C151.775 52.9224 151.401 53.0214 151.056 53.2194C150.718 53.4175 150.443 53.6898 150.229 54.0363C150.023 54.3829 149.904 54.783 149.871 55.2368Z" fill="white"/>
<path d="M159.876 58.9127C159.349 58.9127 158.856 58.8261 158.395 58.6528C157.943 58.4713 157.548 58.2031 157.211 57.8483L157.593 57.2047C157.955 57.5513 158.317 57.7988 158.679 57.9473C159.049 58.0958 159.436 58.1701 159.839 58.1701C160.316 58.1701 160.706 58.0752 161.011 57.8854C161.315 57.6957 161.467 57.4192 161.467 57.0562C161.467 56.8004 161.393 56.6106 161.245 56.4869C161.097 56.3549 160.883 56.2476 160.604 56.1651C160.324 56.0826 159.991 55.9877 159.604 55.8804C159.168 55.7567 158.798 55.6246 158.494 55.4844C158.189 55.3441 157.959 55.1667 157.803 54.9522C157.655 54.7376 157.581 54.4612 157.581 54.1229C157.581 53.7104 157.688 53.3638 157.902 53.0833C158.115 52.8028 158.403 52.5924 158.765 52.4521C159.135 52.3036 159.551 52.2293 160.011 52.2293C160.497 52.2293 160.928 52.3077 161.307 52.4645C161.693 52.613 162.014 52.8316 162.269 53.1204L161.825 53.7393C161.595 53.4752 161.319 53.2813 160.998 53.1576C160.686 53.0255 160.336 52.9595 159.95 52.9595C159.703 52.9595 159.464 52.9925 159.234 53.0586C159.004 53.1246 158.815 53.236 158.667 53.3927C158.518 53.5412 158.444 53.7516 158.444 54.0239C158.444 54.2385 158.502 54.4117 158.617 54.5437C158.732 54.6675 158.901 54.7748 159.123 54.8655C159.345 54.948 159.625 55.0388 159.962 55.1378C160.447 55.2698 160.871 55.406 161.233 55.5462C161.595 55.6783 161.874 55.8557 162.072 56.0784C162.269 56.293 162.368 56.5983 162.368 56.9943C162.368 57.5884 162.138 58.0587 161.677 58.4052C161.225 58.7435 160.624 58.9127 159.876 58.9127Z" fill="white"/>
<path d="M175.177 57.9473V58.7889H169.268V50.0015H175.066V50.8431H170.205V53.9002H174.437V54.6923H170.205V57.9473H175.177Z" fill="white"/>
<path d="M183.092 58.7889H182.179V55.1873C182.179 54.453 182.068 53.9167 181.846 53.5784C181.632 53.2318 181.295 53.0586 180.835 53.0586C180.514 53.0586 180.197 53.1369 179.885 53.2937C179.572 53.4505 179.297 53.665 179.058 53.9373C178.819 54.2013 178.651 54.5066 178.552 54.8532V58.7889H177.639V52.3407H178.466V53.7764C178.647 53.4629 178.873 53.1906 179.144 52.9595C179.424 52.7285 179.737 52.5511 180.082 52.4273C180.436 52.2953 180.802 52.2293 181.18 52.2293C181.542 52.2293 181.846 52.2953 182.093 52.4273C182.34 52.5594 182.537 52.7491 182.685 52.9967C182.833 53.2359 182.936 53.5247 182.994 53.863C183.06 54.2013 183.092 54.5767 183.092 54.9893V58.7889Z" fill="white"/>
<path d="M189.236 53.1452C188.677 53.1534 188.187 53.3061 187.768 53.6031C187.348 53.8919 187.052 54.288 186.88 54.7913V58.7889H185.967V52.3407H186.818V53.863C187.04 53.4175 187.332 53.0544 187.694 52.7739C188.064 52.4934 188.455 52.3366 188.866 52.3036C188.948 52.3036 189.018 52.3036 189.076 52.3036C189.133 52.2953 189.187 52.2953 189.236 52.3036V53.1452Z" fill="white"/>
<path d="M191.463 58.7889V52.3407H192.376V58.7889H191.463ZM191.463 51.0288V49.754H192.376V51.0288H191.463Z" fill="white"/>
<path d="M198.097 58.9127C197.628 58.9127 197.196 58.8261 196.801 58.6528C196.406 58.4713 196.061 58.2237 195.765 57.9102C195.477 57.5966 195.251 57.2377 195.086 56.8334C194.93 56.4291 194.852 56.0001 194.852 55.5462C194.852 54.9357 194.988 54.3787 195.259 53.8754C195.53 53.3721 195.909 52.9719 196.394 52.6749C196.888 52.3778 197.451 52.2293 198.084 52.2293C198.701 52.2293 199.24 52.3696 199.701 52.6501C200.161 52.9224 200.507 53.2978 200.737 53.7764L199.836 54.0611C199.664 53.731 199.417 53.4752 199.096 53.2937C198.784 53.1122 198.438 53.0214 198.06 53.0214C197.64 53.0214 197.258 53.1328 196.912 53.3556C196.567 53.5701 196.291 53.8672 196.086 54.2467C195.888 54.6263 195.79 55.0594 195.79 55.5462C195.79 56.0248 195.892 56.458 196.098 56.8458C196.304 57.2336 196.579 57.543 196.925 57.774C197.27 57.9968 197.653 58.1082 198.072 58.1082C198.343 58.1082 198.603 58.0628 198.849 57.9721C199.104 57.8731 199.326 57.741 199.516 57.576C199.705 57.411 199.832 57.2336 199.898 57.0438L200.799 57.3161C200.675 57.6214 200.478 57.8937 200.206 58.133C199.943 58.3722 199.631 58.562 199.269 58.7023C198.907 58.8426 198.516 58.9127 198.097 58.9127Z" fill="white"/>
<path d="M208.655 58.7889H207.742V55.1873C207.742 54.4777 207.619 53.9455 207.372 53.5907C207.125 53.2359 206.767 53.0586 206.299 53.0586C206.002 53.0586 205.702 53.1369 205.398 53.2937C205.094 53.4505 204.826 53.665 204.596 53.9373C204.374 54.2013 204.214 54.5066 204.115 54.8532V58.7889H203.202V49.754H204.115V53.7764C204.37 53.2978 204.719 52.9224 205.164 52.6501C205.616 52.3696 206.101 52.2293 206.619 52.2293C206.998 52.2293 207.314 52.2953 207.569 52.4273C207.833 52.5594 208.042 52.7491 208.199 52.9967C208.363 53.2442 208.478 53.5371 208.544 53.8754C208.618 54.2055 208.655 54.5767 208.655 54.9893V58.7889Z" fill="white"/>
<path d="M211.529 58.7889V52.3407H212.442V58.7889H211.529ZM211.529 51.0288V49.754H212.442V51.0288H211.529Z" fill="white"/>
<path d="M220.816 58.7889H219.903V55.1873C219.903 54.453 219.792 53.9167 219.57 53.5784C219.356 53.2318 219.019 53.0586 218.558 53.0586C218.237 53.0586 217.921 53.1369 217.608 53.2937C217.296 53.4505 217.02 53.665 216.781 53.9373C216.543 54.2013 216.374 54.5066 216.276 54.8532V58.7889H215.363V52.3407H216.189V53.7764C216.37 53.4629 216.596 53.1906 216.868 52.9595C217.148 52.7285 217.46 52.5511 217.806 52.4273C218.159 52.2953 218.525 52.2293 218.904 52.2293C219.265 52.2293 219.57 52.2953 219.817 52.4273C220.063 52.5594 220.261 52.7491 220.409 52.9967C220.557 53.2359 220.66 53.5247 220.717 53.863C220.783 54.2013 220.816 54.5767 220.816 54.9893V58.7889Z" fill="white"/>
<path d="M226.256 58.8756C225.82 58.8756 225.417 58.7848 225.047 58.6033C224.685 58.4218 224.369 58.1783 224.097 57.8731C223.834 57.5595 223.628 57.2047 223.48 56.8087C223.341 56.4126 223.271 56.0001 223.271 55.571C223.271 55.1254 223.341 54.7005 223.48 54.2962C223.628 53.8919 223.834 53.5371 224.097 53.2318C224.36 52.9183 224.673 52.6749 225.035 52.5016C225.405 52.3201 225.808 52.2293 226.244 52.2293C226.795 52.2293 227.272 52.3655 227.675 52.6377C228.078 52.91 228.42 53.2525 228.699 53.665V52.3407H229.514V58.7889C229.514 59.383 229.37 59.8863 229.082 60.2989C228.794 60.7114 228.407 61.0208 227.922 61.2271C227.445 61.4416 226.914 61.5489 226.33 61.5489C225.598 61.5489 225.002 61.4169 224.541 61.1529C224.089 60.8971 223.719 60.5464 223.431 60.1008L223.986 59.6429C224.241 60.0472 224.574 60.3442 224.986 60.534C225.405 60.732 225.853 60.8311 226.33 60.8311C226.733 60.8311 227.108 60.7568 227.453 60.6083C227.799 60.4598 228.074 60.2329 228.28 59.9276C228.494 59.6223 228.601 59.2427 228.601 58.7889V57.5513C228.354 57.9556 228.017 58.2774 227.589 58.5166C227.169 58.7559 226.725 58.8756 226.256 58.8756ZM226.528 58.1082C226.775 58.1082 227.009 58.067 227.231 57.9844C227.461 57.8937 227.671 57.774 227.86 57.6255C228.058 57.477 228.222 57.312 228.354 57.1305C228.485 56.9407 228.568 56.7509 228.601 56.5611V54.6056C228.477 54.3003 228.3 54.0281 228.07 53.7888C227.848 53.5495 227.593 53.3638 227.305 53.2318C227.025 53.0916 226.733 53.0214 226.429 53.0214C226.075 53.0214 225.759 53.0957 225.479 53.2442C225.208 53.3927 224.977 53.5949 224.788 53.8507C224.599 54.0982 224.451 54.3746 224.344 54.6799C224.245 54.9769 224.196 55.2822 224.196 55.5958C224.196 55.9341 224.254 56.2558 224.369 56.5611C224.492 56.8582 224.657 57.1263 224.862 57.3656C225.076 57.5966 225.327 57.7782 225.615 57.9102C225.903 58.0422 226.207 58.1082 226.528 58.1082Z" fill="white"/>
<path d="M236.879 58.7889V50.0015H237.817V57.9473H242.826V58.7889H236.879Z" fill="white"/>
<path d="M245.01 58.7889V52.3407H245.923V58.7889H245.01ZM245.01 51.0288V49.754H245.923V51.0288H245.01Z" fill="white"/>
<path d="M249.164 58.7889V53.0709H248.276V52.3407H249.164V52.1798C249.164 51.6517 249.242 51.1979 249.398 50.8184C249.555 50.4306 249.773 50.1377 250.052 49.9396C250.34 49.7334 250.681 49.6302 251.076 49.6302C251.331 49.6302 251.578 49.6674 251.817 49.7416C252.055 49.8076 252.265 49.9025 252.446 50.0263L252.187 50.707C252.08 50.6162 251.94 50.5461 251.767 50.4966C251.594 50.4471 251.426 50.4223 251.261 50.4223C250.883 50.4223 250.591 50.5709 250.385 50.8679C250.18 51.1649 250.077 51.5899 250.077 52.1427V52.3407H251.829V53.0709H250.077V58.7889H249.164Z" fill="white"/>
<path d="M256.682 58.9127C256.205 58.9127 255.769 58.8261 255.374 58.6528C254.988 58.4713 254.646 58.2278 254.35 57.9226C254.062 57.609 253.836 57.2501 253.672 56.8458C253.515 56.4415 253.437 56.0124 253.437 55.5586C253.437 54.948 253.577 54.3911 253.857 53.8878C254.136 53.3845 254.519 52.9843 255.004 52.6873C255.498 52.382 256.057 52.2293 256.682 52.2293C257.315 52.2293 257.871 52.382 258.348 52.6873C258.825 52.9925 259.195 53.3968 259.458 53.9002C259.729 54.3952 259.865 54.9357 259.865 55.5215C259.865 55.5958 259.865 55.6659 259.865 55.7319C259.865 55.7979 259.861 55.8515 259.853 55.8928H254.4C254.432 56.3384 254.556 56.7385 254.77 57.0933C254.984 57.4399 255.259 57.7122 255.596 57.9102C255.942 58.1082 256.312 58.2072 256.707 58.2072C257.126 58.2072 257.517 58.1041 257.879 57.8978C258.249 57.6915 258.504 57.4192 258.644 57.081L259.433 57.3037C259.302 57.609 259.1 57.8854 258.829 58.133C258.557 58.3722 258.237 58.562 257.866 58.7023C257.496 58.8426 257.102 58.9127 256.682 58.9127ZM254.375 55.2368H259.014C258.981 54.783 258.853 54.3829 258.631 54.0363C258.418 53.6898 258.142 53.4175 257.805 53.2194C257.468 53.0214 257.093 52.9224 256.682 52.9224C256.279 52.9224 255.905 53.0214 255.559 53.2194C255.222 53.4175 254.947 53.6898 254.733 54.0363C254.527 54.3829 254.408 54.783 254.375 55.2368Z" fill="white"/>
<path fill-rule="evenodd" clip-rule="evenodd" d="M0 59.7639V3.04918C0.20264 2.03279 0.972671 0 2.43168 0H35.0567C36.205 0.271038 38.5015 1.26033 38.5015 3.04918V18.2951C38.1638 19.8536 37.002 22.9705 35.0567 22.9705H13.1716V62H2.63432C1.75621 61.9322 0 61.3902 0 59.7639ZM12.7663 7.11475V18.9049H23.5062C24.5194 18.2951 26.5458 16.6689 26.5458 15.0426V10.7738C26.208 9.5541 25.0057 7.11475 22.8983 7.11475H12.7663Z" fill="#00AEEF"/>
<path d="M43.1622 38.623V2.8459C43.1622 1.21967 44.9185 0.271038 45.7966 0H82.0691V4.67541H58.1576C57.0228 4.67541 56.3338 5.75956 56.1312 6.30164V18.0918H82.2717V22.7672H55.9286V34.5574C55.9286 35.5331 57.4146 36.3191 58.1576 36.5902H82.4744V42.282H46.2018C44.4186 42.282 43.4324 39.8426 43.1622 38.623Z" fill="#00AEEF"/>
<path fill-rule="evenodd" clip-rule="evenodd" d="M86.3245 2.64262V40.0459C86.3245 40.7235 86.6487 42.0787 87.9456 42.0787H99.2934V27.0361H99.9014L111.047 42.0787H128.676L113.681 23.1738V22.5639H121.381C122.394 22.2251 124.421 21.1816 124.421 19.718V3.65902C124.083 2.43934 123.002 0 121.381 0H89.1614C88.1482 0 86.3245 1.34164 86.3245 2.64262ZM99.0909 6.30164V18.2951H112.262C112.938 17.9563 114.289 16.9941 114.289 15.8557V8.74098C114.289 7.92787 113.397 6.30164 112.262 6.30164H99.0909Z" fill="#00AEEF"/>
<path d="M132.932 1.21967V41.8754H136.984L137.187 8.13115L159.275 41.8754H173.257V0H169.204V32.3213L145.698 0H133.945C133.296 0 132.999 0.813115 132.932 1.21967Z" fill="#00AEEF"/>
<path d="M216.622 36.3869V42.282H180.552C179.539 42.282 177.715 40.0459 177.715 38.623V2.8459C177.715 1.21967 179.336 0 180.552 0H216.622V4.67541H192.913C191.778 4.67541 191.089 5.75956 190.887 6.30164V18.4984H216.622V22.5639H190.887V34.5574C190.887 35.8584 191.697 36.3191 192.102 36.3869H216.622Z" fill="#00AEEF"/>
<path d="M260.797 42.0787V36.9967H240.939C239.318 36.9967 234.454 32.9311 234.454 30.6951V10.977C234.454 9.35082 238.912 5.08197 240.533 5.08197H261V0H231.009C227.564 0 221.485 5.89508 221.485 8.94426V33.541C221.485 36.143 228.375 42.0787 231.82 42.0787H260.797Z" fill="#00AEEF"/>
<rect x="291" width="3" height="62" fill="#D9D9D9"/>
<path fill-rule="evenodd" clip-rule="evenodd" d="M329.325 1.15301C328.786 3.31053 322.829 32.7434 322.836 33.2133C322.841 33.5509 324.291 34.1151 328.042 35.2395L333.24 36.7977L334.404 35.5912C336.151 33.7808 337.641 33.1278 340.402 32.9624C342.604 32.8305 342.932 32.8932 344.753 33.7919C346.986 34.8942 348.058 36.0168 349.146 38.3898C349.798 39.8113 349.882 40.3592 349.761 42.3869C349.596 45.1511 348.913 46.6937 347.035 48.5391C342.991 52.5144 336.018 51.5403 332.956 46.5728L332.298 45.5056H326.651C320.206 45.5056 320.549 45.3162 321.576 48.3085C323.783 54.7411 328.762 59.6978 335.378 62.0478L337.714 62.8777L368.133 62.9632C397.943 63.0468 398.616 63.0357 401.709 62.4066C407.686 61.1909 412.796 58.5445 417.069 54.4508C422.758 49.0003 425.849 42.7691 426.811 34.8127C427.785 26.7484 424.943 17.6116 419.51 11.3392C413.519 4.42388 406.004 0.763139 397.046 0.396635C388.423 0.0436587 380.695 2.85763 374.619 8.56244C367.821 14.9461 364.495 22.5739 364.527 31.707C364.546 37.1864 365.664 41.8612 368.01 46.2743L368.99 48.1191L377.214 48.2009L385.438 48.283L383.554 46.7103C380.665 44.2991 378.397 41.0107 377.317 37.6651C374.381 28.5744 378.555 18.6376 387.081 14.4228C394.713 10.6499 403.384 12.0873 409.315 18.1088C413.163 22.0164 414.924 26.2245 414.924 31.5157C414.924 36.918 413.088 41.4024 409.313 45.2184C406.873 47.685 404.803 49.0151 401.611 50.1672C399.658 50.8725 399.605 50.8744 380.268 50.97L360.883 51.0659L361.355 49.7462C362.112 47.6336 362.704 44.0937 362.704 41.6844C362.704 35.4218 359.126 28.4727 354.065 24.9094C350.172 22.1674 345.732 20.8573 340.244 20.8311C337.935 20.8204 337.254 20.722 337.254 20.3988C337.254 20.1688 337.599 18.4943 338.02 16.6778C338.441 14.8613 338.857 13.0638 338.945 12.6832L339.106 11.9913H350.445H361.784V6.19922V0.407092L350.516 0.204161C344.318 0.0922416 337.08 0.000617118 334.43 0.000309647L329.612 0L329.325 1.15301Z" fill="url(#paint0_linear_65_25)"/>
<g filter="url(#filter0_d_65_25)">
<path d="M340.118 59V57.026L340.202 57.416L338.192 54.8H339.416L340.904 56.804L340.382 56.798L341.792 54.8H342.95L341.09 57.356L341.144 56.978V59H340.118ZM344.668 59.06C344.264 59.06 343.91 58.99 343.606 58.85C343.306 58.706 343.072 58.51 342.904 58.262C342.74 58.014 342.658 57.734 342.658 57.422C342.658 57.17 342.706 56.942 342.802 56.738C342.902 56.53 343.038 56.354 343.21 56.21C343.382 56.062 343.582 55.948 343.81 55.868C344.042 55.788 344.288 55.748 344.548 55.748C344.804 55.748 345.04 55.788 345.256 55.868C345.476 55.948 345.666 56.06 345.826 56.204C345.99 56.344 346.114 56.512 346.198 56.708C346.286 56.904 346.326 57.12 346.318 57.356L346.312 57.638H343.306L343.168 57.062H345.532L345.43 57.188V57.068C345.418 56.96 345.372 56.866 345.292 56.786C345.212 56.706 345.108 56.644 344.98 56.6C344.856 56.552 344.716 56.528 344.56 56.528C344.368 56.528 344.196 56.558 344.044 56.618C343.892 56.678 343.772 56.77 343.684 56.894C343.6 57.014 343.558 57.166 343.558 57.35C343.558 57.522 343.608 57.676 343.708 57.812C343.808 57.944 343.952 58.05 344.14 58.13C344.328 58.206 344.548 58.244 344.8 58.244C345.032 58.244 345.224 58.218 345.376 58.166C345.528 58.11 345.656 58.046 345.76 57.974L346.186 58.598C346.05 58.698 345.9 58.782 345.736 58.85C345.572 58.918 345.398 58.97 345.214 59.006C345.034 59.042 344.852 59.06 344.668 59.06ZM348.51 59.054C348.182 59.054 347.894 58.984 347.646 58.844C347.398 58.7 347.204 58.504 347.064 58.256C346.924 58.008 346.854 57.726 346.854 57.41C346.854 57.086 346.924 56.8 347.064 56.552C347.208 56.3 347.404 56.104 347.652 55.964C347.904 55.82 348.198 55.748 348.534 55.748C348.722 55.748 348.896 55.772 349.056 55.82C349.216 55.868 349.358 55.932 349.482 56.012C349.606 56.088 349.706 56.174 349.782 56.27C349.862 56.366 349.912 56.462 349.932 56.558L349.71 56.57V55.814H350.664V59H349.692V58.166L349.896 58.208C349.88 58.312 349.832 58.414 349.752 58.514C349.672 58.614 349.57 58.706 349.446 58.79C349.322 58.87 349.18 58.934 349.02 58.982C348.86 59.03 348.69 59.054 348.51 59.054ZM348.762 58.244C348.962 58.244 349.132 58.21 349.272 58.142C349.416 58.07 349.526 57.972 349.602 57.848C349.682 57.72 349.722 57.574 349.722 57.41C349.722 57.238 349.682 57.09 349.602 56.966C349.526 56.842 349.416 56.744 349.272 56.672C349.132 56.6 348.962 56.564 348.762 56.564C348.57 56.564 348.402 56.6 348.258 56.672C348.118 56.744 348.008 56.842 347.928 56.966C347.848 57.09 347.808 57.238 347.808 57.41C347.808 57.574 347.848 57.72 347.928 57.848C348.008 57.972 348.118 58.07 348.258 58.142C348.402 58.21 348.57 58.244 348.762 58.244ZM351.927 59V55.814H352.839L352.881 56.942L352.635 56.858C352.691 56.65 352.785 56.464 352.917 56.3C353.053 56.132 353.211 55.998 353.391 55.898C353.575 55.798 353.767 55.748 353.967 55.748C354.083 55.748 354.193 55.76 354.297 55.784C354.405 55.808 354.497 55.838 354.573 55.874L354.309 56.918C354.241 56.87 354.149 56.834 354.033 56.81C353.921 56.782 353.809 56.768 353.697 56.768C353.569 56.768 353.455 56.788 353.355 56.828C353.259 56.868 353.175 56.924 353.103 56.996C353.035 57.064 352.983 57.142 352.947 57.23C352.911 57.314 352.893 57.406 352.893 57.506V59H351.927ZM356.679 59.06C356.307 59.06 355.975 59.01 355.683 58.91C355.391 58.81 355.155 58.664 354.975 58.472L355.563 57.956C355.699 58.084 355.867 58.184 356.067 58.256C356.271 58.324 356.489 58.358 356.721 58.358C356.793 58.358 356.863 58.354 356.931 58.346C356.999 58.338 357.059 58.322 357.111 58.298C357.167 58.274 357.209 58.246 357.237 58.214C357.269 58.178 357.285 58.138 357.285 58.094C357.285 58.014 357.231 57.952 357.123 57.908C357.055 57.884 356.963 57.862 356.847 57.842C356.731 57.818 356.607 57.794 356.475 57.77C356.239 57.726 356.033 57.678 355.857 57.626C355.681 57.574 355.535 57.504 355.419 57.416C355.311 57.332 355.227 57.236 355.167 57.128C355.111 57.02 355.083 56.89 355.083 56.738C355.083 56.582 355.123 56.444 355.203 56.324C355.287 56.204 355.399 56.1 355.539 56.012C355.683 55.924 355.847 55.858 356.031 55.814C356.215 55.77 356.411 55.748 356.619 55.748C356.815 55.748 357.009 55.766 357.201 55.802C357.393 55.838 357.577 55.892 357.753 55.964C357.929 56.036 358.083 56.126 358.215 56.234L357.723 56.816C357.631 56.748 357.521 56.686 357.393 56.63C357.269 56.57 357.135 56.524 356.991 56.492C356.851 56.456 356.711 56.438 356.571 56.438C356.495 56.438 356.425 56.442 356.361 56.45C356.297 56.458 356.237 56.472 356.181 56.492C356.129 56.512 356.087 56.538 356.055 56.57C356.027 56.602 356.013 56.64 356.013 56.684C356.013 56.716 356.023 56.748 356.043 56.78C356.063 56.808 356.093 56.834 356.133 56.858C356.193 56.894 356.283 56.928 356.403 56.96C356.527 56.988 356.673 57.018 356.841 57.05C357.109 57.094 357.337 57.15 357.525 57.218C357.713 57.286 357.861 57.364 357.969 57.452C358.065 57.524 358.133 57.606 358.173 57.698C358.213 57.79 358.233 57.894 358.233 58.01C358.233 58.218 358.167 58.402 358.035 58.562C357.903 58.718 357.719 58.84 357.483 58.928C357.251 59.016 356.983 59.06 356.679 59.06ZM360.537 59L362.433 54.8H363.351L365.241 59H364.197L363.153 56.666C363.113 56.582 363.075 56.498 363.039 56.414C363.007 56.326 362.975 56.24 362.943 56.156C362.911 56.068 362.881 55.982 362.853 55.898C362.825 55.81 362.799 55.726 362.775 55.646L362.985 55.64C362.957 55.732 362.929 55.82 362.901 55.904C362.873 55.988 362.841 56.074 362.805 56.162C362.773 56.246 362.739 56.33 362.703 56.414C362.667 56.498 362.631 56.584 362.595 56.672L361.557 59H360.537ZM361.425 58.232L361.749 57.464H364.011L364.227 58.232H361.425ZM365.874 59V55.814H366.786L366.822 56.594L366.582 56.66C366.634 56.5 366.724 56.352 366.852 56.216C366.984 56.076 367.144 55.964 367.332 55.88C367.524 55.792 367.734 55.748 367.962 55.748C368.25 55.748 368.49 55.804 368.682 55.916C368.878 56.028 369.026 56.186 369.126 56.39C369.23 56.59 369.282 56.822 369.282 57.086V59H368.322V57.242C368.322 57.102 368.292 56.98 368.232 56.876C368.176 56.772 368.094 56.692 367.986 56.636C367.882 56.58 367.76 56.554 367.62 56.558C367.5 56.558 367.392 56.58 367.296 56.624C367.2 56.664 367.116 56.718 367.044 56.786C366.976 56.854 366.924 56.928 366.888 57.008C366.856 57.088 366.84 57.168 366.84 57.248V59H366.36C366.22 59 366.11 59 366.03 59C365.95 59 365.898 59 365.874 59ZM370.544 59V55.814H371.456L371.492 56.594L371.252 56.66C371.304 56.5 371.394 56.352 371.522 56.216C371.654 56.076 371.814 55.964 372.002 55.88C372.194 55.792 372.404 55.748 372.632 55.748C372.92 55.748 373.16 55.804 373.352 55.916C373.548 56.028 373.696 56.186 373.796 56.39C373.9 56.59 373.952 56.822 373.952 57.086V59H372.992V57.242C372.992 57.102 372.962 56.98 372.902 56.876C372.846 56.772 372.764 56.692 372.656 56.636C372.552 56.58 372.43 56.554 372.29 56.558C372.17 56.558 372.062 56.58 371.966 56.624C371.87 56.664 371.786 56.718 371.714 56.786C371.646 56.854 371.594 56.928 371.558 57.008C371.526 57.088 371.51 57.168 371.51 57.248V59H371.03C370.89 59 370.78 59 370.7 59C370.62 59 370.568 59 370.544 59ZM375.262 59V55.814H376.228V59H375.262ZM375.742 55.148C375.562 55.148 375.422 55.106 375.322 55.022C375.222 54.934 375.172 54.81 375.172 54.65C375.172 54.506 375.222 54.388 375.322 54.296C375.422 54.204 375.562 54.158 375.742 54.158C375.922 54.158 376.062 54.202 376.162 54.29C376.266 54.374 376.318 54.494 376.318 54.65C376.318 54.798 376.266 54.918 376.162 55.01C376.058 55.102 375.918 55.148 375.742 55.148ZM378.609 59L377.019 55.814H378.117L379.179 58.274L378.909 58.292L379.995 55.814H381.075L379.431 59H378.609ZM383.257 59.06C382.853 59.06 382.499 58.99 382.195 58.85C381.895 58.706 381.661 58.51 381.493 58.262C381.329 58.014 381.247 57.734 381.247 57.422C381.247 57.17 381.295 56.942 381.391 56.738C381.491 56.53 381.627 56.354 381.799 56.21C381.971 56.062 382.171 55.948 382.399 55.868C382.631 55.788 382.877 55.748 383.137 55.748C383.393 55.748 383.629 55.788 383.845 55.868C384.065 55.948 384.255 56.06 384.415 56.204C384.579 56.344 384.703 56.512 384.787 56.708C384.875 56.904 384.915 57.12 384.907 57.356L384.901 57.638H381.895L381.757 57.062H384.121L384.019 57.188V57.068C384.007 56.96 383.961 56.866 383.881 56.786C383.801 56.706 383.697 56.644 383.569 56.6C383.445 56.552 383.305 56.528 383.149 56.528C382.957 56.528 382.785 56.558 382.633 56.618C382.481 56.678 382.361 56.77 382.273 56.894C382.189 57.014 382.147 57.166 382.147 57.35C382.147 57.522 382.197 57.676 382.297 57.812C382.397 57.944 382.541 58.05 382.729 58.13C382.917 58.206 383.137 58.244 383.389 58.244C383.621 58.244 383.813 58.218 383.965 58.166C384.117 58.11 384.245 58.046 384.349 57.974L384.775 58.598C384.639 58.698 384.489 58.782 384.325 58.85C384.161 58.918 383.987 58.97 383.803 59.006C383.623 59.042 383.441 59.06 383.257 59.06ZM385.857 59V55.814H386.769L386.811 56.942L386.565 56.858C386.621 56.65 386.715 56.464 386.847 56.3C386.983 56.132 387.141 55.998 387.321 55.898C387.505 55.798 387.697 55.748 387.897 55.748C388.013 55.748 388.123 55.76 388.227 55.784C388.335 55.808 388.427 55.838 388.503 55.874L388.239 56.918C388.171 56.87 388.079 56.834 387.963 56.81C387.851 56.782 387.739 56.768 387.627 56.768C387.499 56.768 387.385 56.788 387.285 56.828C387.189 56.868 387.105 56.924 387.033 56.996C386.965 57.064 386.913 57.142 386.877 57.23C386.841 57.314 386.823 57.406 386.823 57.506V59H385.857ZM390.609 59.06C390.237 59.06 389.905 59.01 389.613 58.91C389.321 58.81 389.085 58.664 388.905 58.472L389.493 57.956C389.629 58.084 389.797 58.184 389.997 58.256C390.201 58.324 390.419 58.358 390.651 58.358C390.723 58.358 390.793 58.354 390.861 58.346C390.929 58.338 390.989 58.322 391.041 58.298C391.097 58.274 391.139 58.246 391.167 58.214C391.199 58.178 391.215 58.138 391.215 58.094C391.215 58.014 391.161 57.952 391.053 57.908C390.985 57.884 390.893 57.862 390.777 57.842C390.661 57.818 390.537 57.794 390.405 57.77C390.169 57.726 389.963 57.678 389.787 57.626C389.611 57.574 389.465 57.504 389.349 57.416C389.241 57.332 389.157 57.236 389.097 57.128C389.041 57.02 389.013 56.89 389.013 56.738C389.013 56.582 389.053 56.444 389.133 56.324C389.217 56.204 389.329 56.1 389.469 56.012C389.613 55.924 389.777 55.858 389.961 55.814C390.145 55.77 390.341 55.748 390.549 55.748C390.745 55.748 390.939 55.766 391.131 55.802C391.323 55.838 391.507 55.892 391.683 55.964C391.859 56.036 392.013 56.126 392.145 56.234L391.653 56.816C391.561 56.748 391.451 56.686 391.323 56.63C391.199 56.57 391.065 56.524 390.921 56.492C390.781 56.456 390.641 56.438 390.501 56.438C390.425 56.438 390.355 56.442 390.291 56.45C390.227 56.458 390.167 56.472 390.111 56.492C390.059 56.512 390.017 56.538 389.985 56.57C389.957 56.602 389.943 56.64 389.943 56.684C389.943 56.716 389.953 56.748 389.973 56.78C389.993 56.808 390.023 56.834 390.063 56.858C390.123 56.894 390.213 56.928 390.333 56.96C390.457 56.988 390.603 57.018 390.771 57.05C391.039 57.094 391.267 57.15 391.455 57.218C391.643 57.286 391.791 57.364 391.899 57.452C391.995 57.524 392.063 57.606 392.103 57.698C392.143 57.79 392.163 57.894 392.163 58.01C392.163 58.218 392.097 58.402 391.965 58.562C391.833 58.718 391.649 58.84 391.413 58.928C391.181 59.016 390.913 59.06 390.609 59.06ZM394.248 59.054C393.92 59.054 393.632 58.984 393.384 58.844C393.136 58.7 392.942 58.504 392.802 58.256C392.662 58.008 392.592 57.726 392.592 57.41C392.592 57.086 392.662 56.8 392.802 56.552C392.946 56.3 393.142 56.104 393.39 55.964C393.642 55.82 393.936 55.748 394.272 55.748C394.46 55.748 394.634 55.772 394.794 55.82C394.954 55.868 395.096 55.932 395.22 56.012C395.344 56.088 395.444 56.174 395.52 56.27C395.6 56.366 395.65 56.462 395.67 56.558L395.448 56.57V55.814H396.402V59H395.43V58.166L395.634 58.208C395.618 58.312 395.57 58.414 395.49 58.514C395.41 58.614 395.308 58.706 395.184 58.79C395.06 58.87 394.918 58.934 394.758 58.982C394.598 59.03 394.428 59.054 394.248 59.054ZM394.5 58.244C394.7 58.244 394.87 58.21 395.01 58.142C395.154 58.07 395.264 57.972 395.34 57.848C395.42 57.72 395.46 57.574 395.46 57.41C395.46 57.238 395.42 57.09 395.34 56.966C395.264 56.842 395.154 56.744 395.01 56.672C394.87 56.6 394.7 56.564 394.5 56.564C394.308 56.564 394.14 56.6 393.996 56.672C393.856 56.744 393.746 56.842 393.666 56.966C393.586 57.09 393.546 57.238 393.546 57.41C393.546 57.574 393.586 57.72 393.666 57.848C393.746 57.972 393.856 58.07 393.996 58.142C394.14 58.21 394.308 58.244 394.5 58.244ZM397.665 59V55.814H398.577L398.619 56.942L398.373 56.858C398.429 56.65 398.523 56.464 398.655 56.3C398.791 56.132 398.949 55.998 399.129 55.898C399.313 55.798 399.505 55.748 399.705 55.748C399.821 55.748 399.931 55.76 400.035 55.784C400.143 55.808 400.235 55.838 400.311 55.874L400.047 56.918C399.979 56.87 399.887 56.834 399.771 56.81C399.659 56.782 399.547 56.768 399.435 56.768C399.307 56.768 399.193 56.788 399.093 56.828C398.997 56.868 398.913 56.924 398.841 56.996C398.773 57.064 398.721 57.142 398.685 57.23C398.649 57.314 398.631 57.406 398.631 57.506V59H397.665ZM401.541 60.38L402.417 58.676L402.381 59.15L400.629 55.814H401.739L402.543 57.494C402.607 57.614 402.665 57.738 402.717 57.866C402.773 57.99 402.821 58.112 402.861 58.232L402.657 58.268C402.697 58.172 402.745 58.058 402.801 57.926C402.857 57.794 402.915 57.66 402.975 57.524L403.731 55.814H404.835L403.191 59.018L402.519 60.38H401.541Z" fill="#001220"/>
</g>
<defs>
<filter id="filter0_d_65_25" x="334.192" y="54.158" width="74.6433" height="14.222" filterUnits="userSpaceOnUse" color-interpolation-filters="sRGB">
<feFlood flood-opacity="0" result="BackgroundImageFix"/>
<feColorMatrix in="SourceAlpha" type="matrix" values="0 0 0 0 0 0 0 0 0 0 0 0 0 0 0 0 0 0 127 0" result="hardAlpha"/>
<feOffset dy="4"/>
<feGaussianBlur stdDeviation="2"/>
<feComposite in2="hardAlpha" operator="out"/>
<feColorMatrix type="matrix" values="0 0 0 0 0 0 0 0 0 0 0 0 0 0 0 0 0 0 0.1 0"/>
<feBlend mode="normal" in2="BackgroundImageFix" result="effect1_dropShadow_65_25"/>
<feBlend mode="normal" in="SourceGraphic" in2="effect1_dropShadow_65_25" result="shape"/>
</filter>
<linearGradient id="paint0_linear_65_25" x1="376.556" y1="1.04255e-06" x2="394.682" y2="63.005" gradientUnits="userSpaceOnUse">
<stop stop-color="#E5BF5A"/>
<stop offset="0.288559" stop-color="#FFFC91"/>
<stop offset="0.494277" stop-color="#A77B00"/>
<stop offset="0.688148" stop-color="#FFFC91"/>
<stop offset="1" stop-color="#E5BF5A"/>
</linearGradient>
</defs>
</svg>