<svg xmlns="http://www.w3.org/2000/svg" xmlns:xlink="http://www.w3.org/1999/xlink" width="1200" zoomAndPan="magnify" viewBox="0 0 900 164.249993" height="219" preserveAspectRatio="xMidYMid meet" version="1.0"><defs><filter x="0%" y="0%" width="100%" height="100%" id="48750aaa27"><feColorMatrix values="0 0 0 0 1 0 0 0 0 1 0 0 0 0 1 0 0 0 1 0" color-interpolation-filters="sRGB"/></filter><g/><clipPath id="e2ea8ac675"><path d="M 28 0 L 874 0 L 874 163.503906 L 28 163.503906 Z M 28 0 " clip-rule="nonzero"/></clipPath><mask id="e9c38fe878"><g filter="url(#48750aaa27)"><rect x="-90" width="1080" fill="#000000" y="-16.424999" height="197.099992" fill-opacity="0.38"/></g></mask><clipPath id="d6be9930a0"><rect x="0" width="846" y="0" height="164"/></clipPath></defs><g clip-path="url(#e2ea8ac675)"><g mask="url(#e9c38fe878)"><g transform="matrix(1, 0, 0, 1, 28, 0)"><g clip-path="url(#d6be9930a0)"><g fill="#ffffff" fill-opacity="1"><g transform="translate(0.817741, 127.602738)"><g><path d="M 41.8125 0.9375 C 35.25 0.9375 29.335938 -0.179688 24.078125 -2.421875 C 18.816406 -4.671875 14.65625 -7.910156 11.59375 -12.140625 C 8.539062 -16.367188 6.96875 -21.359375 6.875 -27.109375 L 27.109375 -27.109375 C 27.378906 -23.242188 28.75 -20.1875 31.21875 -17.9375 C 33.695312 -15.6875 37.09375 -14.5625 41.40625 -14.5625 C 45.8125 -14.5625 49.273438 -15.617188 51.796875 -17.734375 C 54.316406 -19.847656 55.578125 -22.613281 55.578125 -26.03125 C 55.578125 -28.820312 54.722656 -31.113281 53.015625 -32.90625 C 51.304688 -34.707031 49.171875 -36.125 46.609375 -37.15625 C 44.046875 -38.195312 40.515625 -39.347656 36.015625 -40.609375 C 29.898438 -42.398438 24.929688 -44.171875 21.109375 -45.921875 C 17.285156 -47.679688 14.003906 -50.335938 11.265625 -53.890625 C 8.523438 -57.441406 7.15625 -62.1875 7.15625 -68.125 C 7.15625 -73.695312 8.546875 -78.550781 11.328125 -82.6875 C 14.117188 -86.820312 18.03125 -89.988281 23.0625 -92.1875 C 28.101562 -94.394531 33.859375 -95.5 40.328125 -95.5 C 50.046875 -95.5 57.9375 -93.140625 64 -88.421875 C 70.070312 -83.703125 73.425781 -77.113281 74.0625 -68.65625 L 53.28125 -68.65625 C 53.101562 -71.894531 51.734375 -74.570312 49.171875 -76.6875 C 46.609375 -78.800781 43.210938 -79.859375 38.984375 -79.859375 C 35.296875 -79.859375 32.347656 -78.910156 30.140625 -77.015625 C 27.941406 -75.128906 26.84375 -72.390625 26.84375 -68.796875 C 26.84375 -66.273438 27.671875 -64.179688 29.328125 -62.515625 C 30.992188 -60.859375 33.0625 -59.507812 35.53125 -58.46875 C 38.007812 -57.4375 41.5 -56.25 46 -54.90625 C 52.113281 -53.101562 57.101562 -51.300781 60.96875 -49.5 C 64.832031 -47.707031 68.160156 -45.007812 70.953125 -41.40625 C 73.742188 -37.8125 75.140625 -33.09375 75.140625 -27.25 C 75.140625 -22.207031 73.832031 -17.53125 71.21875 -13.21875 C 68.613281 -8.90625 64.789062 -5.46875 59.75 -2.90625 C 54.71875 -0.34375 48.738281 0.9375 41.8125 0.9375 Z M 41.8125 0.9375 "/></g></g></g><g fill="#ffffff" fill-opacity="1"><g transform="translate(82.962605, 127.602738)"><g><path d="M 51.390625 -75.8125 C 57.054688 -75.8125 62.09375 -74.570312 66.5 -72.09375 C 70.90625 -69.625 74.34375 -65.984375 76.8125 -61.171875 C 79.289062 -56.359375 80.53125 -50.582031 80.53125 -43.84375 L 80.53125 0 L 61.640625 0 L 61.640625 -41.28125 C 61.640625 -47.207031 60.15625 -51.765625 57.1875 -54.953125 C 54.226562 -58.148438 50.179688 -59.75 45.046875 -59.75 C 39.835938 -59.75 35.722656 -58.148438 32.703125 -54.953125 C 29.691406 -51.765625 28.1875 -47.207031 28.1875 -41.28125 L 28.1875 0 L 9.3125 0 L 9.3125 -99.8125 L 28.1875 -99.8125 L 28.1875 -65.421875 C 30.613281 -68.660156 33.847656 -71.203125 37.890625 -73.046875 C 41.941406 -74.890625 46.441406 -75.8125 51.390625 -75.8125 Z M 51.390625 -75.8125 "/></g></g></g><g fill="#ffffff" fill-opacity="1"><g transform="translate(172.121492, 127.602738)"><g><path d="M 4.453125 -37.640625 C 4.453125 -45.191406 5.957031 -51.890625 8.96875 -57.734375 C 11.976562 -63.578125 16.066406 -68.070312 21.234375 -71.21875 C 26.410156 -74.363281 32.191406 -75.9375 38.578125 -75.9375 C 44.148438 -75.9375 49.023438 -74.8125 53.203125 -72.5625 C 57.390625 -70.320312 60.742188 -67.492188 63.265625 -64.078125 L 63.265625 -74.734375 L 82.28125 -74.734375 L 82.28125 0 L 63.265625 0 L 63.265625 -10.921875 C 60.835938 -7.421875 57.488281 -4.519531 53.21875 -2.21875 C 48.945312 0.0703125 44.019531 1.21875 38.4375 1.21875 C 32.144531 1.21875 26.410156 -0.398438 21.234375 -3.640625 C 16.066406 -6.878906 11.976562 -11.441406 8.96875 -17.328125 C 5.957031 -23.222656 4.453125 -29.992188 4.453125 -37.640625 Z M 63.265625 -37.359375 C 63.265625 -41.953125 62.363281 -45.890625 60.5625 -49.171875 C 58.769531 -52.453125 56.34375 -54.96875 53.28125 -56.71875 C 50.226562 -58.476562 46.945312 -59.359375 43.4375 -59.359375 C 39.925781 -59.359375 36.6875 -58.5 33.71875 -56.78125 C 30.75 -55.070312 28.34375 -52.578125 26.5 -49.296875 C 24.65625 -46.015625 23.734375 -42.128906 23.734375 -37.640625 C 23.734375 -33.140625 24.65625 -29.203125 26.5 -25.828125 C 28.34375 -22.453125 30.769531 -19.863281 33.78125 -18.0625 C 36.800781 -16.269531 40.019531 -15.375 43.4375 -15.375 C 46.945312 -15.375 50.226562 -16.25 53.28125 -18 C 56.34375 -19.757812 58.769531 -22.28125 60.5625 -25.5625 C 62.363281 -28.84375 63.265625 -32.773438 63.265625 -37.359375 Z M 63.265625 -37.359375 "/></g></g></g><g fill="#ffffff" fill-opacity="1"><g transform="translate(263.57343, 127.602738)"><g><path d="M 28.1875 -63.125 C 30.613281 -67.082031 33.78125 -70.1875 37.6875 -72.4375 C 41.601562 -74.6875 46.082031 -75.8125 51.125 -75.8125 L 51.125 -55.984375 L 46.125 -55.984375 C 40.195312 -55.984375 35.722656 -54.585938 32.703125 -51.796875 C 29.691406 -49.003906 28.1875 -44.148438 28.1875 -37.234375 L 28.1875 0 L 9.3125 0 L 9.3125 -74.734375 L 28.1875 -74.734375 Z M 28.1875 -63.125 "/></g></g></g><g fill="#ffffff" fill-opacity="1"><g transform="translate(318.066888, 127.602738)"><g><path d="M 78.78125 -38.984375 C 78.78125 -36.285156 78.597656 -33.859375 78.234375 -31.703125 L 23.609375 -31.703125 C 24.054688 -26.304688 25.941406 -22.078125 29.265625 -19.015625 C 32.597656 -15.960938 36.691406 -14.4375 41.546875 -14.4375 C 48.554688 -14.4375 53.546875 -17.445312 56.515625 -23.46875 L 76.890625 -23.46875 C 74.734375 -16.28125 70.597656 -10.367188 64.484375 -5.734375 C 58.367188 -1.097656 50.859375 1.21875 41.953125 1.21875 C 34.753906 1.21875 28.300781 -0.375 22.59375 -3.5625 C 16.882812 -6.757812 12.429688 -11.28125 9.234375 -17.125 C 6.046875 -22.976562 4.453125 -29.722656 4.453125 -37.359375 C 4.453125 -45.097656 6.023438 -51.890625 9.171875 -57.734375 C 12.316406 -63.578125 16.722656 -68.070312 22.390625 -71.21875 C 28.054688 -74.363281 34.578125 -75.9375 41.953125 -75.9375 C 49.054688 -75.9375 55.414062 -74.40625 61.03125 -71.34375 C 66.65625 -68.289062 71.019531 -63.953125 74.125 -58.328125 C 77.226562 -52.710938 78.78125 -46.265625 78.78125 -38.984375 Z M 59.21875 -44.375 C 59.125 -49.226562 57.367188 -53.117188 53.953125 -56.046875 C 50.535156 -58.972656 46.351562 -60.4375 41.40625 -60.4375 C 36.726562 -60.4375 32.789062 -59.019531 29.59375 -56.1875 C 26.40625 -53.351562 24.453125 -49.414062 23.734375 -44.375 Z M 59.21875 -44.375 "/></g></g></g><g fill="#ffffff" fill-opacity="1"><g transform="translate(401.290826, 127.602738)"><g><path d="M 51.390625 -75.8125 C 57.054688 -75.8125 62.09375 -74.570312 66.5 -72.09375 C 70.90625 -69.625 74.34375 -65.984375 76.8125 -61.171875 C 79.289062 -56.359375 80.53125 -50.582031 80.53125 -43.84375 L 80.53125 0 L 61.640625 0 L 61.640625 -41.28125 C 61.640625 -47.207031 60.15625 -51.765625 57.1875 -54.953125 C 54.226562 -58.148438 50.179688 -59.75 45.046875 -59.75 C 39.835938 -59.75 35.722656 -58.148438 32.703125 -54.953125 C 29.691406 -51.765625 28.1875 -47.207031 28.1875 -41.28125 L 28.1875 0 L 9.3125 0 L 9.3125 -99.8125 L 28.1875 -99.8125 L 28.1875 -65.421875 C 30.613281 -68.660156 33.847656 -71.203125 37.890625 -73.046875 C 41.941406 -74.890625 46.441406 -75.8125 51.390625 -75.8125 Z M 51.390625 -75.8125 "/></g></g></g><g fill="#ffffff" fill-opacity="1"><g transform="translate(490.449713, 127.602738)"><g><path d="M 42.484375 1.21875 C 35.296875 1.21875 28.820312 -0.375 23.0625 -3.5625 C 17.3125 -6.757812 12.796875 -11.28125 9.515625 -17.125 C 6.234375 -22.976562 4.59375 -29.722656 4.59375 -37.359375 C 4.59375 -45.003906 6.273438 -51.75 9.640625 -57.59375 C 13.015625 -63.4375 17.625 -67.953125 23.46875 -71.140625 C 29.3125 -74.335938 35.832031 -75.9375 43.03125 -75.9375 C 50.226562 -75.9375 56.75 -74.335938 62.59375 -71.140625 C 68.4375 -67.953125 73.039062 -63.4375 76.40625 -57.59375 C 79.78125 -51.75 81.46875 -45.003906 81.46875 -37.359375 C 81.46875 -29.722656 79.738281 -22.976562 76.28125 -17.125 C 72.820312 -11.28125 68.144531 -6.757812 62.25 -3.5625 C 56.363281 -0.375 49.773438 1.21875 42.484375 1.21875 Z M 42.484375 -15.25 C 45.898438 -15.25 49.113281 -16.078125 52.125 -17.734375 C 55.144531 -19.398438 57.550781 -21.894531 59.34375 -25.21875 C 61.144531 -28.550781 62.046875 -32.597656 62.046875 -37.359375 C 62.046875 -44.460938 60.179688 -49.925781 56.453125 -53.75 C 52.722656 -57.570312 48.160156 -59.484375 42.765625 -59.484375 C 37.367188 -59.484375 32.847656 -57.570312 29.203125 -53.75 C 25.554688 -49.925781 23.734375 -44.460938 23.734375 -37.359375 C 23.734375 -30.253906 25.507812 -24.789062 29.0625 -20.96875 C 32.613281 -17.15625 37.085938 -15.25 42.484375 -15.25 Z M 42.484375 -15.25 "/></g></g></g><g fill="#ffffff" fill-opacity="1"><g transform="translate(576.50624, 127.602738)"><g><path d="M 28.1875 -99.8125 L 28.1875 0 L 9.3125 0 L 9.3125 -99.8125 Z M 28.1875 -99.8125 "/></g></g></g><g fill="#ffffff" fill-opacity="1"><g transform="translate(614.004208, 127.602738)"><g><path d="M 4.453125 -37.640625 C 4.453125 -45.191406 5.957031 -51.890625 8.96875 -57.734375 C 11.976562 -63.578125 16.09375 -68.070312 21.3125 -71.21875 C 26.53125 -74.363281 32.332031 -75.9375 38.71875 -75.9375 C 43.570312 -75.9375 48.203125 -74.878906 52.609375 -72.765625 C 57.015625 -70.660156 60.519531 -67.851562 63.125 -64.34375 L 63.125 -99.8125 L 82.28125 -99.8125 L 82.28125 0 L 63.125 0 L 63.125 -11.0625 C 60.789062 -7.375 57.507812 -4.40625 53.28125 -2.15625 C 49.050781 0.09375 44.148438 1.21875 38.578125 1.21875 C 32.285156 1.21875 26.53125 -0.398438 21.3125 -3.640625 C 16.09375 -6.878906 11.976562 -11.441406 8.96875 -17.328125 C 5.957031 -23.222656 4.453125 -29.992188 4.453125 -37.640625 Z M 63.265625 -37.359375 C 63.265625 -41.953125 62.363281 -45.890625 60.5625 -49.171875 C 58.769531 -52.453125 56.34375 -54.96875 53.28125 -56.71875 C 50.226562 -58.476562 46.945312 -59.359375 43.4375 -59.359375 C 39.925781 -59.359375 36.6875 -58.5 33.71875 -56.78125 C 30.75 -55.070312 28.34375 -52.578125 26.5 -49.296875 C 24.65625 -46.015625 23.734375 -42.128906 23.734375 -37.640625 C 23.734375 -33.140625 24.65625 -29.203125 26.5 -25.828125 C 28.34375 -22.453125 30.769531 -19.863281 33.78125 -18.0625 C 36.800781 -16.269531 40.019531 -15.375 43.4375 -15.375 C 46.945312 -15.375 50.226562 -16.25 53.28125 -18 C 56.34375 -19.757812 58.769531 -22.28125 60.5625 -25.5625 C 62.363281 -28.84375 63.265625 -32.773438 63.265625 -37.359375 Z M 63.265625 -37.359375 "/></g></g></g><g fill="#ffffff" fill-opacity="1"><g transform="translate(705.456146, 127.602738)"><g><path d="M 78.78125 -38.984375 C 78.78125 -36.285156 78.597656 -33.859375 78.234375 -31.703125 L 23.609375 -31.703125 C 24.054688 -26.304688 25.941406 -22.078125 29.265625 -19.015625 C 32.597656 -15.960938 36.691406 -14.4375 41.546875 -14.4375 C 48.554688 -14.4375 53.546875 -17.445312 56.515625 -23.46875 L 76.890625 -23.46875 C 74.734375 -16.28125 70.597656 -10.367188 64.484375 -5.734375 C 58.367188 -1.097656 50.859375 1.21875 41.953125 1.21875 C 34.753906 1.21875 28.300781 -0.375 22.59375 -3.5625 C 16.882812 -6.757812 12.429688 -11.28125 9.234375 -17.125 C 6.046875 -22.976562 4.453125 -29.722656 4.453125 -37.359375 C 4.453125 -45.097656 6.023438 -51.890625 9.171875 -57.734375 C 12.316406 -63.578125 16.722656 -68.070312 22.390625 -71.21875 C 28.054688 -74.363281 34.578125 -75.9375 41.953125 -75.9375 C 49.054688 -75.9375 55.414062 -74.40625 61.03125 -71.34375 C 66.65625 -68.289062 71.019531 -63.953125 74.125 -58.328125 C 77.226562 -52.710938 78.78125 -46.265625 78.78125 -38.984375 Z M 59.21875 -44.375 C 59.125 -49.226562 57.367188 -53.117188 53.953125 -56.046875 C 50.535156 -58.972656 46.351562 -60.4375 41.40625 -60.4375 C 36.726562 -60.4375 32.789062 -59.019531 29.59375 -56.1875 C 26.40625 -53.351562 24.453125 -49.414062 23.734375 -44.375 Z M 59.21875 -44.375 "/></g></g></g><g fill="#ffffff" fill-opacity="1"><g transform="translate(788.680084, 127.602738)"><g><path d="M 28.1875 -63.125 C 30.613281 -67.082031 33.78125 -70.1875 37.6875 -72.4375 C 41.601562 -74.6875 46.082031 -75.8125 51.125 -75.8125 L 51.125 -55.984375 L 46.125 -55.984375 C 40.195312 -55.984375 35.722656 -54.585938 32.703125 -51.796875 C 29.691406 -49.003906 28.1875 -44.148438 28.1875 -37.234375 L 28.1875 0 L 9.3125 0 L 9.3125 -74.734375 L 28.1875 -74.734375 Z M 28.1875 -63.125 "/></g></g></g></g></g></g></g></svg>