<svg xmlns="http://www.w3.org/2000/svg" xmlns:xlink="http://www.w3.org/1999/xlink" width="62" zoomAndPan="magnify" viewBox="0 0 46.5 46.5" height="62" preserveAspectRatio="xMidYMid meet" version="1.0"><defs><clipPath id="5a4d0e7555"><path d="M 5.613281 1.84375 L 40.488281 1.84375 L 40.488281 44.136719 L 5.613281 44.136719 Z M 5.613281 1.84375 " clip-rule="nonzero"/></clipPath><clipPath id="a9ad18b627"><path d="M 22.558594 1.84375 L 40.367188 1.84375 L 40.367188 44.136719 L 22.558594 44.136719 Z M 22.558594 1.84375 " clip-rule="nonzero"/></clipPath></defs><g clip-path="url(#5a4d0e7555)"><path fill="#accdf2" d="M 10.144531 15.035156 C 10.019531 15.277344 9.824219 15.4375 9.566406 15.519531 C 9.484375 15.542969 9.402344 15.554688 9.316406 15.554688 C 9.167969 15.554688 9.027344 15.519531 8.898438 15.445312 C 7.90625 14.90625 7.007812 14.382812 6.144531 13.851562 C 5.980469 13.734375 5.867188 13.582031 5.804688 13.394531 C 5.792969 13.371094 5.785156 13.347656 5.769531 13.328125 L 5.730469 13.253906 L 5.730469 13.171875 C 5.722656 12.761719 5.894531 12.449219 6.246094 12.234375 C 6.53125 12.066406 6.820312 12.066406 7.109375 12.226562 C 8.070312 12.75 9.019531 13.3125 9.832031 13.792969 C 10.039062 13.925781 10.175781 14.109375 10.234375 14.351562 C 10.296875 14.589844 10.265625 14.816406 10.144531 15.035156 Z M 23.570312 6.886719 L 23.59375 6.886719 C 23.847656 6.890625 24.066406 6.808594 24.25 6.636719 C 24.457031 6.421875 24.558594 6.164062 24.550781 5.867188 C 24.558594 5.53125 24.558594 5.191406 24.558594 4.855469 L 24.550781 4.203125 L 24.550781 3.980469 C 24.550781 3.644531 24.558594 3.308594 24.550781 2.972656 C 24.558594 2.84375 24.539062 2.714844 24.496094 2.589844 C 24.449219 2.464844 24.382812 2.355469 24.289062 2.261719 C 24.199219 2.164062 24.09375 2.089844 23.972656 2.039062 C 23.851562 1.988281 23.722656 1.960938 23.59375 1.960938 C 23.460938 1.960938 23.332031 1.988281 23.210938 2.039062 C 23.089844 2.09375 22.984375 2.167969 22.894531 2.265625 C 22.804688 2.359375 22.738281 2.472656 22.691406 2.59375 C 22.648438 2.71875 22.628906 2.847656 22.640625 2.980469 C 22.632812 3.941406 22.628906 4.898438 22.632812 5.859375 C 22.621094 5.992188 22.636719 6.121094 22.675781 6.246094 C 22.71875 6.371094 22.785156 6.484375 22.875 6.582031 C 22.964844 6.679688 23.070312 6.753906 23.191406 6.808594 C 23.3125 6.859375 23.4375 6.886719 23.570312 6.886719 Z M 9.296875 27.453125 L 9.195312 27.464844 C 9.101562 27.46875 9.011719 27.496094 8.925781 27.539062 L 8.453125 27.8125 C 7.671875 28.257812 6.886719 28.703125 6.117188 29.167969 C 5.917969 29.304688 5.792969 29.488281 5.746094 29.722656 C 5.695312 29.960938 5.730469 30.179688 5.855469 30.382812 C 6.027344 30.714844 6.300781 30.882812 6.671875 30.890625 C 6.816406 30.890625 6.949219 30.859375 7.074219 30.789062 C 7.960938 30.304688 8.871094 29.78125 9.859375 29.183594 C 10.039062 29.074219 10.160156 28.914062 10.226562 28.714844 C 10.289062 28.511719 10.28125 28.3125 10.203125 28.117188 C 10.144531 27.917969 10.03125 27.757812 9.863281 27.632812 C 9.695312 27.507812 9.507812 27.449219 9.296875 27.453125 Z M 40.359375 13.097656 C 40.328125 12.707031 40.140625 12.421875 39.792969 12.238281 C 39.453125 12.074219 39.125 12.089844 38.800781 12.28125 C 37.957031 12.753906 37.109375 13.25 36.269531 13.746094 C 36.15625 13.808594 36.0625 13.890625 35.980469 13.988281 C 35.902344 14.089844 35.84375 14.199219 35.808594 14.324219 C 35.773438 14.445312 35.761719 14.570312 35.777344 14.699219 C 35.792969 14.824219 35.828125 14.945312 35.890625 15.054688 C 36.070312 15.382812 36.34375 15.546875 36.714844 15.550781 C 36.894531 15.546875 37.058594 15.5 37.214844 15.410156 C 38.054688 14.941406 38.945312 14.429688 39.808594 13.902344 C 39.972656 13.789062 40.101562 13.644531 40.199219 13.46875 C 40.234375 13.410156 40.265625 13.359375 40.300781 13.304688 L 40.378906 13.214844 Z M 39.808594 29.085938 C 38.96875 28.601562 38.128906 28.113281 37.28125 27.632812 C 37.023438 27.46875 36.746094 27.421875 36.449219 27.5 C 36.199219 27.566406 36.015625 27.714844 35.890625 27.945312 C 35.828125 28.0625 35.792969 28.1875 35.78125 28.324219 C 35.769531 28.457031 35.785156 28.585938 35.824219 28.714844 C 35.867188 28.839844 35.929688 28.957031 36.019531 29.054688 C 36.109375 29.15625 36.210938 29.238281 36.332031 29.296875 C 37.136719 29.765625 37.949219 30.234375 38.765625 30.703125 C 38.875 30.761719 38.988281 30.804688 39.101562 30.84375 L 39.234375 30.890625 L 39.300781 30.890625 C 39.523438 30.898438 39.722656 30.832031 39.902344 30.699219 C 40.082031 30.566406 40.199219 30.390625 40.257812 30.175781 C 40.320312 29.964844 40.3125 29.757812 40.226562 29.550781 C 40.144531 29.347656 40.003906 29.191406 39.808594 29.085938 Z M 27.367188 39.140625 L 23.941406 39.140625 C 23.730469 39.140625 23.550781 39.214844 23.402344 39.363281 C 23.253906 39.515625 23.175781 39.695312 23.179688 39.90625 L 23.179688 43.359375 C 23.175781 43.570312 23.253906 43.75 23.402344 43.902344 C 23.550781 44.050781 23.730469 44.125 23.941406 44.125 L 27.367188 44.125 C 27.578125 44.125 27.757812 44.046875 27.90625 43.898438 C 28.054688 43.75 28.128906 43.570312 28.125 43.359375 L 28.125 39.90625 C 28.128906 39.695312 28.054688 39.515625 27.90625 39.367188 C 27.757812 39.21875 27.578125 39.140625 27.367188 39.140625 Z M 33.070312 24.042969 C 32.664062 25.105469 32.058594 26.035156 31.257812 26.839844 C 29.589844 28.453125 28.539062 30.402344 28.105469 32.683594 C 27.855469 33.84375 27.757812 35.03125 27.59375 36.207031 C 27.566406 36.398438 27.566406 36.585938 27.546875 36.789062 L 23.582031 36.789062 C 23.570312 36.550781 23.558594 36.3125 23.546875 36.09375 C 23.546875 36.074219 23.535156 36.058594 23.535156 36.039062 C 23.535156 36.023438 23.542969 36.011719 23.542969 35.996094 C 23.460938 34.453125 23.402344 33.300781 23.402344 32.707031 C 23.414062 32.433594 23.347656 32.179688 23.195312 31.949219 C 22.996094 31.703125 22.742188 31.542969 22.4375 31.46875 C 21.582031 31.1875 20.761719 30.828125 19.972656 30.390625 C 19.109375 29.933594 18.957031 29.910156 18.234375 30.574219 C 17.894531 30.890625 17.539062 31.183594 17.226562 31.449219 C 17.117188 31.542969 17.007812 31.636719 16.90625 31.722656 L 15.535156 30.523438 C 15.679688 30.351562 15.824219 30.183594 15.960938 30.019531 C 16.328125 29.589844 16.675781 29.183594 17.039062 28.789062 C 17.207031 28.613281 17.296875 28.40625 17.320312 28.167969 C 17.339844 27.929688 17.285156 27.707031 17.15625 27.503906 C 16.78125 26.664062 16.421875 25.765625 16.0625 24.757812 C 16.011719 24.53125 15.898438 24.347656 15.71875 24.199219 C 15.539062 24.054688 15.335938 23.980469 15.105469 23.976562 C 14.371094 23.929688 13.75 23.882812 13.128906 23.800781 C 12.976562 23.785156 12.753906 23.621094 12.746094 23.550781 C 12.714844 23.15625 12.703125 22.757812 12.71875 22.359375 C 12.722656 22.230469 12.722656 22.101562 12.722656 21.976562 L 13.4375 21.90625 C 14.019531 21.84375 14.578125 21.789062 15.128906 21.75 C 15.359375 21.742188 15.558594 21.667969 15.734375 21.519531 C 15.910156 21.371094 16.019531 21.1875 16.066406 20.960938 C 16.425781 19.953125 16.773438 19.074219 17.140625 18.273438 C 17.265625 18.070312 17.320312 17.847656 17.296875 17.609375 C 17.273438 17.371094 17.179688 17.164062 17.015625 16.984375 C 16.652344 16.570312 16.300781 16.132812 15.960938 15.71875 C 15.828125 15.5625 15.703125 15.402344 15.574219 15.253906 L 16.847656 13.972656 C 17 14.09375 17.15625 14.222656 17.308594 14.347656 C 17.707031 14.675781 18.113281 15.011719 18.507812 15.359375 C 18.6875 15.535156 18.90625 15.632812 19.160156 15.648438 C 19.414062 15.664062 19.640625 15.597656 19.84375 15.445312 C 20.71875 14.988281 21.617188 14.585938 22.539062 14.238281 C 22.785156 14.183594 22.988281 14.058594 23.148438 13.863281 C 23.308594 13.667969 23.390625 13.441406 23.390625 13.191406 C 23.414062 12.703125 23.46875 12.210938 23.515625 11.730469 L 23.566406 11.15625 L 23.570312 11.152344 C 29.917969 11.320312 35.566406 17.953125 33.070312 24.042969 Z M 23.527344 27.804688 C 23.515625 27.742188 23.507812 27.679688 23.507812 27.613281 L 23.507812 17.953125 C 23.4375 17.9375 23.371094 17.910156 23.304688 17.878906 C 22.734375 18.003906 22.199219 18.222656 21.699219 18.53125 C 21.203125 18.839844 20.773438 19.222656 20.40625 19.683594 C 20.042969 20.140625 19.765625 20.648438 19.574219 21.199219 C 19.386719 21.753906 19.292969 22.324219 19.300781 22.910156 C 19.308594 23.496094 19.410156 24.0625 19.613281 24.613281 C 19.816406 25.164062 20.105469 25.664062 20.480469 26.113281 C 20.855469 26.5625 21.292969 26.9375 21.796875 27.234375 C 22.300781 27.535156 22.839844 27.738281 23.414062 27.851562 C 23.4375 27.847656 23.457031 27.828125 23.480469 27.824219 C 23.496094 27.816406 23.511719 27.8125 23.527344 27.804688 Z M 23.527344 27.804688 " fill-opacity="1" fill-rule="nonzero"/></g><g clip-path="url(#a9ad18b627)"><path fill="#05dac3" d="M 10.144531 15.035156 C 10.019531 15.277344 9.824219 15.4375 9.566406 15.519531 C 9.484375 15.542969 9.402344 15.554688 9.316406 15.554688 C 9.167969 15.554688 9.027344 15.519531 8.898438 15.445312 C 7.90625 14.90625 7.007812 14.382812 6.144531 13.851562 C 5.980469 13.734375 5.867188 13.582031 5.804688 13.394531 C 5.792969 13.371094 5.785156 13.347656 5.769531 13.328125 L 5.730469 13.253906 L 5.730469 13.171875 C 5.722656 12.761719 5.894531 12.449219 6.246094 12.234375 C 6.53125 12.066406 6.820312 12.066406 7.109375 12.226562 C 8.070312 12.75 9.019531 13.3125 9.832031 13.792969 C 10.039062 13.925781 10.175781 14.109375 10.234375 14.351562 C 10.296875 14.589844 10.265625 14.816406 10.144531 15.035156 Z M 23.570312 6.886719 L 23.59375 6.886719 C 23.847656 6.890625 24.066406 6.808594 24.25 6.636719 C 24.457031 6.421875 24.558594 6.164062 24.550781 5.867188 C 24.558594 5.53125 24.558594 5.191406 24.558594 4.855469 L 24.550781 4.203125 L 24.550781 3.980469 C 24.550781 3.644531 24.558594 3.308594 24.550781 2.972656 C 24.558594 2.84375 24.539062 2.714844 24.496094 2.589844 C 24.449219 2.464844 24.382812 2.355469 24.289062 2.261719 C 24.199219 2.164062 24.09375 2.089844 23.972656 2.039062 C 23.851562 1.988281 23.722656 1.960938 23.59375 1.960938 C 23.460938 1.960938 23.332031 1.988281 23.210938 2.039062 C 23.089844 2.09375 22.984375 2.167969 22.894531 2.265625 C 22.804688 2.359375 22.738281 2.472656 22.691406 2.59375 C 22.648438 2.71875 22.628906 2.847656 22.640625 2.980469 C 22.632812 3.941406 22.628906 4.898438 22.632812 5.859375 C 22.621094 5.992188 22.636719 6.121094 22.675781 6.246094 C 22.71875 6.371094 22.785156 6.484375 22.875 6.582031 C 22.964844 6.679688 23.070312 6.753906 23.191406 6.808594 C 23.3125 6.859375 23.4375 6.886719 23.570312 6.886719 Z M 9.296875 27.453125 L 9.195312 27.464844 C 9.101562 27.46875 9.011719 27.496094 8.925781 27.539062 L 8.453125 27.8125 C 7.671875 28.257812 6.886719 28.703125 6.117188 29.167969 C 5.917969 29.304688 5.792969 29.488281 5.746094 29.722656 C 5.695312 29.960938 5.730469 30.179688 5.855469 30.382812 C 6.027344 30.714844 6.300781 30.882812 6.671875 30.890625 C 6.816406 30.890625 6.949219 30.859375 7.074219 30.789062 C 7.960938 30.304688 8.871094 29.78125 9.859375 29.183594 C 10.039062 29.074219 10.160156 28.914062 10.226562 28.714844 C 10.289062 28.511719 10.28125 28.3125 10.203125 28.117188 C 10.144531 27.917969 10.03125 27.757812 9.863281 27.632812 C 9.695312 27.507812 9.507812 27.449219 9.296875 27.453125 Z M 40.359375 13.097656 C 40.328125 12.707031 40.140625 12.421875 39.792969 12.238281 C 39.453125 12.074219 39.125 12.089844 38.800781 12.28125 C 37.957031 12.753906 37.109375 13.25 36.269531 13.746094 C 36.15625 13.808594 36.0625 13.890625 35.980469 13.988281 C 35.902344 14.089844 35.84375 14.199219 35.808594 14.324219 C 35.773438 14.445312 35.761719 14.570312 35.777344 14.699219 C 35.792969 14.824219 35.828125 14.945312 35.890625 15.054688 C 36.070312 15.382812 36.34375 15.546875 36.714844 15.550781 C 36.894531 15.546875 37.058594 15.5 37.214844 15.410156 C 38.054688 14.941406 38.945312 14.429688 39.808594 13.902344 C 39.972656 13.789062 40.101562 13.644531 40.199219 13.46875 C 40.234375 13.410156 40.265625 13.359375 40.300781 13.304688 L 40.378906 13.214844 Z M 39.808594 29.085938 C 38.96875 28.601562 38.128906 28.113281 37.28125 27.632812 C 37.023438 27.46875 36.746094 27.421875 36.449219 27.5 C 36.199219 27.566406 36.015625 27.714844 35.890625 27.945312 C 35.828125 28.0625 35.792969 28.1875 35.78125 28.324219 C 35.769531 28.457031 35.785156 28.585938 35.824219 28.714844 C 35.867188 28.839844 35.929688 28.957031 36.019531 29.054688 C 36.109375 29.15625 36.210938 29.238281 36.332031 29.296875 C 37.136719 29.765625 37.949219 30.234375 38.765625 30.703125 C 38.875 30.761719 38.988281 30.804688 39.101562 30.84375 L 39.234375 30.890625 L 39.300781 30.890625 C 39.523438 30.898438 39.722656 30.832031 39.902344 30.699219 C 40.082031 30.566406 40.199219 30.390625 40.257812 30.175781 C 40.320312 29.964844 40.3125 29.757812 40.226562 29.550781 C 40.144531 29.347656 40.003906 29.191406 39.808594 29.085938 Z M 27.367188 39.140625 L 23.941406 39.140625 C 23.730469 39.140625 23.550781 39.214844 23.402344 39.363281 C 23.253906 39.515625 23.175781 39.695312 23.179688 39.90625 L 23.179688 43.359375 C 23.175781 43.570312 23.253906 43.75 23.402344 43.902344 C 23.550781 44.050781 23.730469 44.125 23.941406 44.125 L 27.367188 44.125 C 27.578125 44.125 27.757812 44.046875 27.90625 43.898438 C 28.054688 43.75 28.128906 43.570312 28.125 43.359375 L 28.125 39.90625 C 28.128906 39.695312 28.054688 39.515625 27.90625 39.367188 C 27.757812 39.21875 27.578125 39.140625 27.367188 39.140625 Z M 33.070312 24.042969 C 32.664062 25.105469 32.058594 26.035156 31.257812 26.839844 C 29.589844 28.453125 28.539062 30.402344 28.105469 32.683594 C 27.855469 33.84375 27.757812 35.03125 27.59375 36.207031 C 27.566406 36.398438 27.566406 36.585938 27.546875 36.789062 L 23.582031 36.789062 C 23.570312 36.550781 23.558594 36.3125 23.546875 36.09375 C 23.546875 36.074219 23.535156 36.058594 23.535156 36.039062 C 23.535156 36.023438 23.542969 36.011719 23.542969 35.996094 C 23.460938 34.453125 23.402344 33.300781 23.402344 32.707031 C 23.414062 32.433594 23.347656 32.179688 23.195312 31.949219 C 22.996094 31.703125 22.742188 31.542969 22.4375 31.46875 C 21.582031 31.1875 20.761719 30.828125 19.972656 30.390625 C 19.109375 29.933594 18.957031 29.910156 18.234375 30.574219 C 17.894531 30.890625 17.539062 31.183594 17.226562 31.449219 C 17.117188 31.542969 17.007812 31.636719 16.90625 31.722656 L 15.535156 30.523438 C 15.679688 30.351562 15.824219 30.183594 15.960938 30.019531 C 16.328125 29.589844 16.675781 29.183594 17.039062 28.789062 C 17.207031 28.613281 17.296875 28.40625 17.320312 28.167969 C 17.339844 27.929688 17.285156 27.707031 17.15625 27.503906 C 16.78125 26.664062 16.421875 25.765625 16.0625 24.757812 C 16.011719 24.53125 15.898438 24.347656 15.71875 24.199219 C 15.539062 24.054688 15.335938 23.980469 15.105469 23.976562 C 14.371094 23.929688 13.75 23.882812 13.128906 23.800781 C 12.976562 23.785156 12.753906 23.621094 12.746094 23.550781 C 12.714844 23.15625 12.703125 22.757812 12.71875 22.359375 C 12.722656 22.230469 12.722656 22.101562 12.722656 21.976562 L 13.4375 21.90625 C 14.019531 21.84375 14.578125 21.789062 15.128906 21.75 C 15.359375 21.742188 15.558594 21.667969 15.734375 21.519531 C 15.910156 21.371094 16.019531 21.1875 16.066406 20.960938 C 16.425781 19.953125 16.773438 19.074219 17.140625 18.273438 C 17.265625 18.070312 17.320312 17.847656 17.296875 17.609375 C 17.273438 17.371094 17.179688 17.164062 17.015625 16.984375 C 16.652344 16.570312 16.300781 16.132812 15.960938 15.71875 C 15.828125 15.5625 15.703125 15.402344 15.574219 15.253906 L 16.847656 13.972656 C 17 14.09375 17.15625 14.222656 17.308594 14.347656 C 17.707031 14.675781 18.113281 15.011719 18.507812 15.359375 C 18.6875 15.535156 18.90625 15.632812 19.160156 15.648438 C 19.414062 15.664062 19.640625 15.597656 19.84375 15.445312 C 20.71875 14.988281 21.617188 14.585938 22.539062 14.238281 C 22.785156 14.183594 22.988281 14.058594 23.148438 13.863281 C 23.308594 13.667969 23.390625 13.441406 23.390625 13.191406 C 23.414062 12.703125 23.46875 12.210938 23.515625 11.730469 L 23.566406 11.15625 L 23.570312 11.152344 C 29.917969 11.320312 35.566406 17.953125 33.070312 24.042969 Z M 23.527344 27.804688 C 23.515625 27.742188 23.507812 27.679688 23.507812 27.613281 L 23.507812 17.953125 C 23.4375 17.9375 23.371094 17.910156 23.304688 17.878906 C 22.734375 18.003906 22.199219 18.222656 21.699219 18.53125 C 21.203125 18.839844 20.773438 19.222656 20.40625 19.683594 C 20.042969 20.140625 19.765625 20.648438 19.574219 21.199219 C 19.386719 21.753906 19.292969 22.324219 19.300781 22.910156 C 19.308594 23.496094 19.410156 24.0625 19.613281 24.613281 C 19.816406 25.164062 20.105469 25.664062 20.480469 26.113281 C 20.855469 26.5625 21.292969 26.9375 21.796875 27.234375 C 22.300781 27.535156 22.839844 27.738281 23.414062 27.851562 C 23.4375 27.847656 23.457031 27.828125 23.480469 27.824219 C 23.496094 27.816406 23.511719 27.8125 23.527344 27.804688 Z M 23.527344 27.804688 " fill-opacity="1" fill-rule="nonzero"/></g></svg>