<svg width="56" height="58" viewBox="0 0 56 58" fill="none" xmlns="http://www.w3.org/2000/svg">
<path d="M19.367 24.1668C19.0662 24.1838 18.7668 24.1143 18.5017 23.966C18.2367 23.8178 18.0164 23.5964 17.8652 23.3266C17.7141 23.0567 17.6379 22.7488 17.6452 22.4369C17.6524 22.125 17.7428 21.8212 17.9064 21.5592L26.6004 7.25014C26.737 6.99535 26.9348 6.78143 27.1748 6.62913C27.4147 6.47683 27.6885 6.3913 27.9697 6.38085C28.2509 6.3704 28.53 6.43537 28.7798 6.56946C29.0297 6.70356 29.2418 6.90223 29.3957 7.14622L38.0337 21.5085C38.204 21.7617 38.3041 22.0584 38.3233 22.3663C38.3424 22.6743 38.2799 22.9818 38.1424 23.2556C38.005 23.5294 37.7978 23.759 37.5434 23.9196C37.289 24.0803 36.997 24.1657 36.699 24.1668H19.367Z" stroke="#00AEEF" stroke-width="4" stroke-linecap="round" stroke-linejoin="round"/>
<path d="M21 33.8334H9.33333C8.04467 33.8334 7 34.9153 7 36.25V48.3334C7 49.668 8.04467 50.75 9.33333 50.75H21C22.2887 50.75 23.3333 49.668 23.3333 48.3334V36.25C23.3333 34.9153 22.2887 33.8334 21 33.8334Z" stroke="#00AEEF" stroke-width="4" stroke-linecap="round" stroke-linejoin="round"/>
<path d="M40.8333 50.75C45.3437 50.75 49 46.9631 49 42.2917C49 37.6203 45.3437 33.8334 40.8333 33.8334C36.323 33.8334 32.6667 37.6203 32.6667 42.2917C32.6667 46.9631 36.323 50.75 40.8333 50.75Z" stroke="#00AEEF" stroke-width="4" stroke-linecap="round" stroke-linejoin="round"/>
</svg>
