<svg xmlns="http://www.w3.org/2000/svg" xmlns:xlink="http://www.w3.org/1999/xlink" width="62" zoomAndPan="magnify" viewBox="0 0 46.5 46.5" height="62" preserveAspectRatio="xMidYMid meet" version="1.0"><defs><clipPath id="538d7edf5e"><path d="M 4.042969 4.042969 L 41.886719 4.042969 L 41.886719 41.886719 L 4.042969 41.886719 Z M 4.042969 4.042969 " clip-rule="nonzero"/></clipPath><clipPath id="fbb0db3f15"><path d="M 4.042969 3.488281 L 41.886719 3.488281 L 41.886719 22.78125 L 4.042969 22.78125 Z M 4.042969 3.488281 " clip-rule="nonzero"/></clipPath></defs><g clip-path="url(#538d7edf5e)"><path fill="#accdf2" d="M 40.933594 9.074219 L 39.425781 8.195312 C 39.144531 8.03125 38.773438 7.949219 38.402344 7.949219 C 38.03125 7.949219 37.660156 8.03125 37.378906 8.195312 L 35.871094 9.074219 C 35.308594 9.402344 34.847656 10.207031 34.847656 10.855469 L 34.847656 12.632812 C 34.847656 12.828125 34.894531 13.035156 34.964844 13.238281 L 25.082031 18.921875 C 24.949219 18.769531 24.800781 18.640625 24.644531 18.546875 L 20.171875 15.902344 C 20.074219 15.847656 19.964844 15.800781 19.855469 15.765625 L 19.855469 11.613281 C 20.007812 11.574219 20.15625 11.519531 20.285156 11.445312 L 21.792969 10.566406 C 22.355469 10.238281 22.816406 9.433594 22.816406 8.785156 L 22.816406 7.007812 C 22.816406 6.355469 22.355469 5.554688 21.792969 5.222656 L 20.285156 4.34375 C 20.003906 4.179688 19.632812 4.097656 19.261719 4.097656 C 18.890625 4.097656 18.519531 4.179688 18.238281 4.34375 L 16.730469 5.222656 C 16.167969 5.554688 15.707031 6.355469 15.707031 7.007812 L 15.707031 8.785156 C 15.707031 9.433594 16.167969 10.238281 16.730469 10.566406 L 18.238281 11.445312 C 18.367188 11.519531 18.511719 11.574219 18.667969 11.613281 L 18.667969 15.703125 C 18.472656 15.746094 18.285156 15.808594 18.128906 15.902344 L 13.652344 18.546875 C 13.09375 18.878906 12.632812 19.683594 12.632812 20.335938 L 12.632812 25.667969 C 12.632812 25.789062 12.65625 25.921875 12.6875 26.050781 L 10.476562 27.324219 C 10.367188 27.210938 10.253906 27.117188 10.128906 27.042969 L 8.621094 26.164062 C 8.339844 26 7.96875 25.917969 7.597656 25.917969 C 7.226562 25.917969 6.855469 26 6.574219 26.164062 L 5.066406 27.042969 C 4.503906 27.371094 4.042969 28.175781 4.042969 28.824219 L 4.042969 30.601562 C 4.042969 31.253906 4.503906 32.054688 5.066406 32.386719 L 6.574219 33.265625 C 6.855469 33.429688 7.226562 33.511719 7.597656 33.511719 C 7.96875 33.511719 8.339844 33.429688 8.621094 33.265625 L 10.128906 32.386719 C 10.691406 32.054688 11.152344 31.253906 11.152344 30.601562 L 11.152344 28.824219 C 11.152344 28.671875 11.125 28.507812 11.078125 28.34375 L 13.238281 27.101562 C 13.363281 27.242188 13.503906 27.367188 13.652344 27.453125 L 18.128906 30.097656 C 18.285156 30.191406 18.472656 30.253906 18.667969 30.296875 L 18.667969 34.386719 C 18.511719 34.425781 18.367188 34.480469 18.238281 34.558594 L 16.730469 35.4375 C 16.167969 35.765625 15.707031 36.566406 15.707031 37.21875 L 15.707031 38.996094 C 15.707031 39.648438 16.167969 40.449219 16.730469 40.777344 L 18.238281 41.65625 C 18.519531 41.820312 18.890625 41.902344 19.261719 41.902344 C 19.632812 41.902344 20.003906 41.820312 20.285156 41.65625 L 21.792969 40.777344 C 22.355469 40.449219 22.816406 39.648438 22.816406 38.996094 L 22.816406 37.21875 C 22.816406 36.566406 22.355469 35.765625 21.792969 35.4375 L 20.285156 34.558594 C 20.15625 34.480469 20.007812 34.425781 19.855469 34.386719 L 19.855469 30.234375 C 19.964844 30.199219 20.074219 30.15625 20.171875 30.097656 L 24.644531 27.453125 C 24.769531 27.382812 24.882812 27.285156 24.992188 27.175781 L 34.597656 31.230469 C 34.570312 31.351562 34.550781 31.472656 34.550781 31.589844 L 34.550781 33.367188 C 34.550781 34.019531 35.011719 34.820312 35.574219 35.148438 L 37.082031 36.027344 C 37.363281 36.191406 37.734375 36.273438 38.105469 36.273438 C 38.476562 36.273438 38.847656 36.191406 39.128906 36.027344 L 40.636719 35.148438 C 41.199219 34.820312 41.660156 34.019531 41.660156 33.367188 L 41.660156 31.589844 C 41.660156 30.9375 41.199219 30.136719 40.636719 29.808594 L 39.128906 28.929688 C 38.847656 28.765625 38.476562 28.683594 38.105469 28.683594 C 37.734375 28.683594 37.363281 28.765625 37.082031 28.929688 L 35.574219 29.808594 C 35.421875 29.898438 35.277344 30.027344 35.144531 30.175781 L 25.59375 26.144531 C 25.640625 25.980469 25.667969 25.820312 25.667969 25.667969 L 25.667969 20.335938 C 25.667969 20.21875 25.648438 20.101562 25.621094 19.980469 L 35.621094 14.226562 C 35.699219 14.300781 35.785156 14.363281 35.871094 14.414062 L 37.378906 15.296875 C 37.660156 15.460938 38.03125 15.542969 38.402344 15.542969 C 38.773438 15.542969 39.144531 15.460938 39.425781 15.296875 L 40.933594 14.414062 C 41.496094 14.085938 41.957031 13.285156 41.957031 12.632812 L 41.957031 10.855469 C 41.957031 10.207031 41.496094 9.402344 40.933594 9.074219 Z M 40.933594 9.074219 " fill-opacity="1" fill-rule="nonzero"/></g><g clip-path="url(#fbb0db3f15)"><path fill="#05dac3" d="M 40.933594 8.519531 L 39.425781 7.640625 C 39.144531 7.476562 38.773438 7.394531 38.402344 7.394531 C 38.03125 7.394531 37.660156 7.476562 37.378906 7.640625 L 35.871094 8.519531 C 35.308594 8.847656 34.847656 9.648438 34.847656 10.300781 L 34.847656 12.078125 C 34.847656 12.269531 34.894531 12.476562 34.964844 12.679688 L 25.082031 18.367188 C 24.949219 18.214844 24.800781 18.082031 24.644531 17.992188 L 20.171875 15.347656 C 20.074219 15.289062 19.964844 15.246094 19.855469 15.210938 L 19.855469 11.058594 C 20.007812 11.019531 20.15625 10.960938 20.285156 10.886719 L 21.792969 10.007812 C 22.355469 9.679688 22.816406 8.878906 22.816406 8.226562 L 22.816406 6.449219 C 22.816406 5.796875 22.355469 4.996094 21.792969 4.667969 L 20.285156 3.789062 C 20.003906 3.625 19.632812 3.542969 19.261719 3.542969 C 18.890625 3.542969 18.519531 3.625 18.238281 3.789062 L 16.730469 4.667969 C 16.167969 4.996094 15.707031 5.796875 15.707031 6.449219 L 15.707031 8.226562 C 15.707031 8.878906 16.167969 9.679688 16.730469 10.007812 L 18.238281 10.886719 C 18.367188 10.960938 18.511719 11.019531 18.667969 11.058594 L 18.667969 15.148438 C 18.472656 15.191406 18.285156 15.253906 18.128906 15.347656 L 13.652344 17.992188 C 13.09375 18.324219 12.632812 19.125 12.632812 19.777344 L 12.632812 25.109375 C 12.632812 25.234375 12.65625 25.363281 12.6875 25.496094 L 10.476562 26.765625 C 10.367188 26.65625 10.253906 26.558594 10.128906 26.488281 L 8.621094 25.609375 C 8.339844 25.445312 7.96875 25.363281 7.597656 25.363281 C 7.226562 25.363281 6.855469 25.445312 6.574219 25.609375 L 5.066406 26.488281 C 4.503906 26.816406 4.042969 27.617188 4.042969 28.269531 L 4.042969 30.046875 C 4.042969 30.699219 4.503906 31.5 5.066406 31.828125 L 6.574219 32.707031 C 6.855469 32.871094 7.226562 32.953125 7.597656 32.953125 C 7.96875 32.953125 8.339844 32.871094 8.621094 32.707031 L 10.128906 31.828125 C 10.691406 31.5 11.152344 30.699219 11.152344 30.046875 L 11.152344 28.269531 C 11.152344 28.113281 11.125 27.953125 11.078125 27.789062 L 13.238281 26.546875 C 13.363281 26.6875 13.503906 26.808594 13.652344 26.898438 L 18.128906 29.542969 C 18.285156 29.636719 18.472656 29.699219 18.667969 29.738281 L 18.667969 33.832031 C 18.511719 33.871094 18.367188 33.925781 18.238281 34 L 16.730469 34.878906 C 16.167969 35.207031 15.707031 36.011719 15.707031 36.660156 L 15.707031 38.4375 C 15.707031 39.089844 16.167969 39.890625 16.730469 40.21875 L 18.238281 41.101562 C 18.519531 41.265625 18.890625 41.347656 19.261719 41.347656 C 19.632812 41.347656 20.003906 41.265625 20.285156 41.101562 L 21.792969 40.21875 C 22.355469 39.890625 22.816406 39.089844 22.816406 38.4375 L 22.816406 36.660156 C 22.816406 36.011719 22.355469 35.207031 21.792969 34.878906 L 20.285156 34 C 20.15625 33.925781 20.007812 33.871094 19.855469 33.832031 L 19.855469 29.679688 C 19.964844 29.640625 20.074219 29.597656 20.171875 29.542969 L 24.644531 26.898438 C 24.769531 26.824219 24.882812 26.730469 24.992188 26.617188 L 34.597656 30.671875 C 34.570312 30.796875 34.550781 30.917969 34.550781 31.035156 L 34.550781 32.8125 C 34.550781 33.464844 35.011719 34.265625 35.574219 34.59375 L 37.082031 35.472656 C 37.363281 35.636719 37.734375 35.71875 38.105469 35.71875 C 38.476562 35.71875 38.847656 35.636719 39.128906 35.472656 L 40.636719 34.59375 C 41.199219 34.265625 41.660156 33.464844 41.660156 32.8125 L 41.660156 31.035156 C 41.660156 30.382812 41.199219 29.582031 40.636719 29.253906 L 39.128906 28.371094 C 38.847656 28.207031 38.476562 28.125 38.105469 28.125 C 37.734375 28.125 37.363281 28.207031 37.082031 28.371094 L 35.574219 29.253906 C 35.421875 29.34375 35.277344 29.46875 35.144531 29.617188 L 25.59375 25.585938 C 25.640625 25.425781 25.667969 25.261719 25.667969 25.109375 L 25.667969 19.777344 C 25.667969 19.664062 25.648438 19.542969 25.621094 19.421875 L 35.621094 13.671875 C 35.699219 13.742188 35.785156 13.808594 35.871094 13.859375 L 37.378906 14.738281 C 37.660156 14.902344 38.03125 14.984375 38.402344 14.984375 C 38.773438 14.984375 39.144531 14.902344 39.425781 14.738281 L 40.933594 13.859375 C 41.496094 13.53125 41.957031 12.730469 41.957031 12.078125 L 41.957031 10.300781 C 41.957031 9.648438 41.496094 8.847656 40.933594 8.519531 Z M 40.933594 8.519531 " fill-opacity="1" fill-rule="nonzero"/></g></svg>