<svg width="56" height="58" viewBox="0 0 56 58" fill="none" xmlns="http://www.w3.org/2000/svg">
<path d="M16.3333 24.1667V16.9167C16.3333 13.712 17.5625 10.6386 19.7504 8.3725C21.9383 6.10644 24.9058 4.83337 28 4.83337C31.0942 4.83337 34.0617 6.10644 36.2496 8.3725C38.4375 10.6386 39.6667 13.712 39.6667 16.9167V24.1667M30.3333 38.6667C30.3333 40.0014 29.2887 41.0834 28 41.0834C26.7113 41.0834 25.6667 40.0014 25.6667 38.6667C25.6667 37.332 26.7113 36.25 28 36.25C29.2887 36.25 30.3333 37.332 30.3333 38.6667ZM11.6667 24.1667H44.3333C46.9107 24.1667 49 26.3307 49 29V48.3334C49 51.0027 46.9107 53.1667 44.3333 53.1667H11.6667C9.08934 53.1667 7 51.0027 7 48.3334V29C7 26.3307 9.08934 24.1667 11.6667 24.1667Z" stroke="#00AEEF" stroke-width="4" stroke-linecap="round" stroke-linejoin="round"/>
</svg>
