<svg xmlns="http://www.w3.org/2000/svg" xmlns:xlink="http://www.w3.org/1999/xlink" width="62" zoomAndPan="magnify" viewBox="0 0 46.5 46.5" height="62" preserveAspectRatio="xMidYMid meet" version="1.0"><defs><clipPath id="6a9acdc23f"><path d="M 0 3 L 46 3 L 46 43.425781 L 0 43.425781 Z M 0 3 " clip-rule="nonzero"/></clipPath><clipPath id="3a1c1eec31"><path d="M 13.046875 13.535156 L 34.5625 13.535156 L 34.5625 43.214844 L 13.046875 43.214844 Z M 13.046875 13.535156 " clip-rule="nonzero"/></clipPath></defs><g clip-path="url(#6a9acdc23f)"><path fill="#accdf2" d="M 37.066406 12.261719 C 36.972656 11.6875 36.828125 11.121094 36.640625 10.566406 C 36.453125 10.011719 36.222656 9.476562 35.949219 8.957031 C 35.675781 8.441406 35.363281 7.949219 35.011719 7.480469 C 34.660156 7.015625 34.269531 6.578125 33.847656 6.175781 C 33.425781 5.769531 32.972656 5.402344 32.492188 5.070312 C 32.007812 4.738281 31.503906 4.445312 30.976562 4.195312 C 30.445312 3.945312 29.902344 3.738281 29.339844 3.574219 C 28.777344 3.414062 28.207031 3.296875 27.625 3.222656 C 27.042969 3.152344 26.460938 3.128906 25.875 3.152344 C 25.292969 3.171875 24.710938 3.242188 24.140625 3.359375 C 23.566406 3.472656 23.003906 3.632812 22.457031 3.839844 C 21.910156 4.046875 21.378906 4.292969 20.871094 4.582031 C 20.363281 4.875 19.882812 5.203125 19.429688 5.570312 C 18.972656 5.9375 18.550781 6.339844 18.160156 6.777344 C 17.769531 7.210938 17.417969 7.675781 17.101562 8.167969 C 16.785156 8.664062 16.511719 9.175781 16.277344 9.714844 C 15.851562 9.644531 15.425781 9.609375 14.992188 9.605469 C 14.414062 9.605469 13.835938 9.664062 13.265625 9.777344 C 12.695312 9.890625 12.140625 10.058594 11.605469 10.28125 C 11.066406 10.503906 10.554688 10.777344 10.074219 11.101562 C 9.589844 11.425781 9.140625 11.792969 8.730469 12.203125 C 8.320312 12.613281 7.953125 13.0625 7.628906 13.546875 C 7.304688 14.03125 7.03125 14.539062 6.808594 15.078125 C 6.585938 15.613281 6.417969 16.167969 6.304688 16.738281 C 6.1875 17.308594 6.132812 17.886719 6.132812 18.46875 C 6.132812 18.675781 6.160156 18.882812 6.175781 19.097656 C 5.992188 19.078125 5.808594 19.066406 5.625 19.066406 C 5.261719 19.066406 4.898438 19.105469 4.542969 19.175781 C 4.1875 19.246094 3.839844 19.351562 3.503906 19.492188 C 3.167969 19.628906 2.847656 19.800781 2.546875 20.003906 C 2.242188 20.207031 1.960938 20.4375 1.707031 20.691406 C 1.449219 20.949219 1.21875 21.230469 1.015625 21.535156 C 0.8125 21.835938 0.644531 22.15625 0.503906 22.492188 C 0.367188 22.828125 0.261719 23.175781 0.1875 23.53125 C 0.117188 23.886719 0.0820312 24.25 0.0820312 24.613281 C 0.0820312 24.976562 0.117188 25.335938 0.1875 25.695312 C 0.261719 26.050781 0.367188 26.398438 0.503906 26.734375 C 0.644531 27.070312 0.8125 27.390625 1.015625 27.691406 C 1.21875 27.996094 1.449219 28.273438 1.707031 28.53125 C 1.960938 28.789062 2.242188 29.019531 2.546875 29.222656 C 2.847656 29.425781 3.167969 29.59375 3.503906 29.734375 C 3.839844 29.875 4.1875 29.980469 4.542969 30.050781 C 4.898438 30.121094 5.261719 30.15625 5.625 30.15625 L 17.859375 30.15625 C 17.996094 30.15625 18.128906 30.132812 18.253906 30.078125 C 18.382812 30.027344 18.492188 29.953125 18.589844 29.855469 C 18.6875 29.757812 18.761719 29.644531 18.816406 29.519531 C 18.867188 29.390625 18.894531 29.257812 18.894531 29.121094 L 18.894531 23.53125 C 18.894531 23.394531 18.867188 23.261719 18.816406 23.136719 C 18.761719 23.007812 18.6875 22.894531 18.589844 22.796875 C 18.492188 22.703125 18.382812 22.625 18.253906 22.574219 C 18.128906 22.519531 17.996094 22.496094 17.859375 22.496094 L 16.8125 22.496094 L 20.898438 16.664062 L 24.984375 22.496094 L 23.9375 22.496094 C 23.796875 22.496094 23.667969 22.519531 23.539062 22.574219 C 23.414062 22.625 23.300781 22.703125 23.203125 22.796875 C 23.105469 22.894531 23.03125 23.007812 22.976562 23.136719 C 22.925781 23.261719 22.898438 23.394531 22.898438 23.53125 L 22.898438 32.617188 L 20.898438 32.617188 C 20.476562 32.617188 20.171875 32.804688 19.976562 33.175781 C 19.78125 33.546875 19.804688 33.90625 20.046875 34.25 L 26.125 42.929688 C 26.222656 43.066406 26.34375 43.175781 26.496094 43.253906 C 26.644531 43.332031 26.804688 43.371094 26.976562 43.371094 C 27.144531 43.371094 27.304688 43.332031 27.453125 43.253906 C 27.605469 43.175781 27.726562 43.066406 27.824219 42.929688 L 33.902344 34.253906 C 34.144531 33.910156 34.167969 33.550781 33.972656 33.179688 C 33.78125 32.808594 33.472656 32.621094 33.054688 32.621094 L 31.050781 32.621094 L 31.050781 30.164062 L 36.765625 30.164062 C 37.351562 30.171875 37.933594 30.125 38.511719 30.019531 C 39.089844 29.914062 39.652344 29.753906 40.199219 29.539062 C 40.746094 29.320312 41.265625 29.054688 41.761719 28.738281 C 42.253906 28.417969 42.710938 28.054688 43.132812 27.648438 C 43.554688 27.238281 43.933594 26.792969 44.269531 26.308594 C 44.605469 25.828125 44.886719 25.316406 45.121094 24.777344 C 45.355469 24.238281 45.535156 23.679688 45.660156 23.105469 C 45.785156 22.53125 45.851562 21.953125 45.859375 21.363281 C 45.871094 20.777344 45.824219 20.195312 45.71875 19.617188 C 45.613281 19.039062 45.453125 18.476562 45.238281 17.929688 C 45.023438 17.382812 44.757812 16.863281 44.4375 16.367188 C 44.121094 15.875 43.757812 15.414062 43.347656 14.992188 C 42.941406 14.570312 42.496094 14.191406 42.011719 13.855469 C 41.53125 13.523438 41.019531 13.238281 40.480469 13.003906 C 39.941406 12.769531 39.382812 12.589844 38.808594 12.464844 C 38.234375 12.339844 37.65625 12.273438 37.066406 12.261719 Z M 36.761719 28.082031 L 30.011719 28.082031 C 29.875 28.082031 29.742188 28.109375 29.617188 28.164062 C 29.488281 28.214844 29.375 28.289062 29.277344 28.386719 C 29.183594 28.484375 29.105469 28.597656 29.054688 28.722656 C 29 28.851562 28.976562 28.984375 28.976562 29.121094 L 28.976562 33.652344 C 28.976562 33.792969 29 33.921875 29.054688 34.050781 C 29.105469 34.179688 29.183594 34.289062 29.277344 34.386719 C 29.375 34.484375 29.488281 34.558594 29.617188 34.613281 C 29.742188 34.664062 29.875 34.691406 30.011719 34.691406 L 31.058594 34.691406 L 26.976562 40.527344 L 22.890625 34.691406 L 23.9375 34.691406 C 24.074219 34.691406 24.207031 34.664062 24.332031 34.613281 C 24.460938 34.558594 24.574219 34.484375 24.667969 34.386719 C 24.765625 34.292969 24.84375 34.179688 24.894531 34.050781 C 24.945312 33.925781 24.972656 33.792969 24.972656 33.65625 L 24.972656 24.570312 L 26.976562 24.570312 C 27.394531 24.570312 27.703125 24.382812 27.894531 24.011719 C 28.089844 23.636719 28.066406 23.28125 27.824219 22.9375 L 21.746094 14.257812 C 21.644531 14.128906 21.519531 14.023438 21.371094 13.953125 C 21.222656 13.878906 21.0625 13.84375 20.898438 13.84375 C 20.730469 13.84375 20.574219 13.878906 20.425781 13.953125 C 20.273438 14.023438 20.148438 14.128906 20.046875 14.257812 L 13.96875 22.9375 C 13.730469 23.28125 13.707031 23.636719 13.898438 24.011719 C 14.09375 24.382812 14.398438 24.570312 14.820312 24.570312 L 16.820312 24.570312 L 16.820312 28.085938 L 5.625 28.085938 C 5.363281 28.085938 5.109375 28.058594 4.855469 28.003906 C 4.601562 27.945312 4.359375 27.863281 4.125 27.753906 C 3.890625 27.644531 3.671875 27.507812 3.46875 27.347656 C 3.265625 27.1875 3.078125 27.007812 2.917969 26.808594 C 2.753906 26.605469 2.613281 26.390625 2.496094 26.160156 C 2.382812 25.925781 2.292969 25.683594 2.234375 25.433594 C 2.171875 25.179688 2.140625 24.925781 2.136719 24.667969 C 2.132812 24.40625 2.15625 24.152344 2.210938 23.898438 C 2.261719 23.644531 2.34375 23.398438 2.453125 23.164062 C 2.558594 22.929688 2.691406 22.710938 2.851562 22.503906 C 3.007812 22.296875 3.1875 22.113281 3.386719 21.945312 C 3.585938 21.78125 3.800781 21.640625 4.03125 21.519531 C 4.261719 21.402344 4.503906 21.3125 4.753906 21.25 C 5.003906 21.1875 5.257812 21.152344 5.519531 21.144531 C 5.777344 21.136719 6.035156 21.160156 6.289062 21.210938 C 6.542969 21.261719 6.785156 21.339844 7.023438 21.445312 C 7.035156 21.453125 7.050781 21.445312 7.0625 21.457031 C 7.160156 21.492188 7.257812 21.515625 7.363281 21.523438 C 7.386719 21.523438 7.414062 21.535156 7.4375 21.535156 L 7.445312 21.535156 C 7.535156 21.535156 7.625 21.523438 7.714844 21.5 C 7.730469 21.492188 7.742188 21.480469 7.757812 21.476562 C 7.882812 21.421875 8 21.359375 8.113281 21.28125 C 8.160156 21.234375 8.203125 21.1875 8.238281 21.132812 C 8.285156 21.082031 8.328125 21.023438 8.363281 20.960938 C 8.371094 20.945312 8.382812 20.933594 8.394531 20.917969 C 8.40625 20.875 8.414062 20.832031 8.421875 20.789062 C 8.445312 20.71875 8.460938 20.648438 8.46875 20.574219 C 8.472656 20.503906 8.464844 20.4375 8.453125 20.367188 C 8.453125 20.320312 8.453125 20.273438 8.445312 20.230469 C 8.367188 19.945312 8.308594 19.65625 8.269531 19.363281 C 8.226562 19.070312 8.207031 18.777344 8.207031 18.480469 C 8.203125 18.1875 8.222656 17.890625 8.257812 17.597656 C 8.292969 17.304688 8.351562 17.015625 8.425781 16.730469 C 8.5 16.445312 8.59375 16.164062 8.703125 15.890625 C 8.816406 15.617188 8.945312 15.351562 9.089844 15.097656 C 9.238281 14.839844 9.398438 14.59375 9.578125 14.359375 C 9.757812 14.121094 9.949219 13.898438 10.15625 13.6875 C 10.363281 13.480469 10.585938 13.285156 10.816406 13.101562 C 11.050781 12.921875 11.296875 12.757812 11.550781 12.605469 C 11.804688 12.457031 12.070312 12.324219 12.339844 12.210938 C 12.613281 12.097656 12.890625 12 13.175781 11.921875 C 13.460938 11.84375 13.75 11.785156 14.042969 11.742188 C 14.335938 11.703125 14.628906 11.683594 14.925781 11.679688 C 15.21875 11.679688 15.515625 11.695312 15.808594 11.730469 C 16.101562 11.769531 16.390625 11.824219 16.675781 11.898438 C 16.726562 11.90625 16.777344 11.90625 16.828125 11.90625 C 16.902344 11.917969 16.976562 11.921875 17.054688 11.917969 C 17.105469 11.90625 17.15625 11.894531 17.207031 11.875 C 17.285156 11.859375 17.359375 11.832031 17.429688 11.796875 C 17.476562 11.765625 17.519531 11.730469 17.5625 11.691406 C 17.621094 11.648438 17.679688 11.601562 17.726562 11.546875 C 17.769531 11.492188 17.800781 11.433594 17.832031 11.375 C 17.863281 11.328125 17.894531 11.277344 17.917969 11.226562 C 18.078125 10.746094 18.28125 10.285156 18.523438 9.839844 C 18.765625 9.394531 19.042969 8.972656 19.359375 8.578125 C 19.671875 8.179688 20.015625 7.8125 20.394531 7.472656 C 20.769531 7.136719 21.175781 6.832031 21.605469 6.566406 C 22.03125 6.296875 22.480469 6.066406 22.949219 5.875 C 23.417969 5.683594 23.898438 5.53125 24.394531 5.421875 C 24.890625 5.316406 25.390625 5.25 25.894531 5.226562 C 26.402344 5.203125 26.90625 5.222656 27.40625 5.285156 C 27.910156 5.347656 28.402344 5.453125 28.886719 5.601562 C 29.371094 5.75 29.839844 5.9375 30.289062 6.164062 C 30.742188 6.394531 31.171875 6.660156 31.578125 6.960938 C 31.984375 7.261719 32.363281 7.597656 32.710938 7.964844 C 33.0625 8.328125 33.375 8.722656 33.65625 9.144531 C 33.941406 9.566406 34.183594 10.007812 34.390625 10.46875 C 34.59375 10.933594 34.761719 11.410156 34.882812 11.898438 C 35.007812 12.390625 35.089844 12.886719 35.128906 13.394531 C 35.148438 13.664062 35.257812 13.890625 35.457031 14.074219 C 35.660156 14.261719 35.894531 14.351562 36.164062 14.351562 C 36.191406 14.351562 36.21875 14.351562 36.246094 14.351562 C 36.417969 14.335938 36.59375 14.324219 36.769531 14.324219 C 37.226562 14.320312 37.679688 14.359375 38.125 14.441406 C 38.574219 14.527344 39.007812 14.652344 39.429688 14.824219 C 39.851562 14.992188 40.253906 15.203125 40.636719 15.453125 C 41.015625 15.703125 41.367188 15.988281 41.691406 16.308594 C 42.015625 16.628906 42.304688 16.976562 42.558594 17.355469 C 42.816406 17.734375 43.03125 18.132812 43.207031 18.550781 C 43.378906 18.972656 43.511719 19.40625 43.601562 19.851562 C 43.691406 20.296875 43.738281 20.75 43.738281 21.203125 C 43.738281 21.660156 43.691406 22.109375 43.601562 22.558594 C 43.511719 23.003906 43.378906 23.4375 43.207031 23.859375 C 43.03125 24.277344 42.816406 24.675781 42.558594 25.054688 C 42.304688 25.433594 42.015625 25.78125 41.691406 26.101562 C 41.367188 26.421875 41.015625 26.707031 40.636719 26.957031 C 40.253906 27.207031 39.851562 27.414062 39.429688 27.585938 C 39.007812 27.757812 38.574219 27.882812 38.125 27.96875 C 37.679688 28.050781 37.226562 28.089844 36.769531 28.085938 Z M 36.761719 28.082031 " fill-opacity="1" fill-rule="nonzero"/></g><g clip-path="url(#3a1c1eec31)"><path fill="#05dac3" d="M 37.066406 12.261719 C 36.972656 11.6875 36.828125 11.121094 36.640625 10.566406 C 36.453125 10.011719 36.222656 9.476562 35.949219 8.957031 C 35.675781 8.441406 35.363281 7.949219 35.011719 7.480469 C 34.660156 7.015625 34.269531 6.578125 33.847656 6.175781 C 33.425781 5.769531 32.972656 5.402344 32.492188 5.070312 C 32.007812 4.738281 31.503906 4.445312 30.976562 4.195312 C 30.445312 3.945312 29.902344 3.738281 29.339844 3.574219 C 28.777344 3.414062 28.207031 3.296875 27.625 3.222656 C 27.042969 3.152344 26.460938 3.128906 25.875 3.152344 C 25.292969 3.171875 24.710938 3.242188 24.140625 3.359375 C 23.566406 3.472656 23.003906 3.632812 22.457031 3.839844 C 21.910156 4.046875 21.378906 4.292969 20.871094 4.582031 C 20.363281 4.875 19.882812 5.203125 19.429688 5.570312 C 18.972656 5.9375 18.550781 6.339844 18.160156 6.777344 C 17.769531 7.210938 17.417969 7.675781 17.101562 8.167969 C 16.785156 8.664062 16.511719 9.175781 16.277344 9.714844 C 15.851562 9.644531 15.425781 9.609375 14.992188 9.605469 C 14.414062 9.605469 13.835938 9.664062 13.265625 9.777344 C 12.695312 9.890625 12.140625 10.058594 11.605469 10.28125 C 11.066406 10.503906 10.554688 10.777344 10.074219 11.101562 C 9.589844 11.425781 9.140625 11.792969 8.730469 12.203125 C 8.320312 12.613281 7.953125 13.0625 7.628906 13.546875 C 7.304688 14.03125 7.03125 14.539062 6.808594 15.078125 C 6.585938 15.613281 6.417969 16.167969 6.304688 16.738281 C 6.1875 17.308594 6.132812 17.886719 6.132812 18.46875 C 6.132812 18.675781 6.160156 18.882812 6.175781 19.097656 C 5.992188 19.078125 5.808594 19.066406 5.625 19.066406 C 5.261719 19.066406 4.898438 19.105469 4.542969 19.175781 C 4.1875 19.246094 3.839844 19.351562 3.503906 19.492188 C 3.167969 19.628906 2.847656 19.800781 2.546875 20.003906 C 2.242188 20.207031 1.960938 20.4375 1.707031 20.691406 C 1.449219 20.949219 1.21875 21.230469 1.015625 21.535156 C 0.8125 21.835938 0.644531 22.15625 0.503906 22.492188 C 0.367188 22.828125 0.261719 23.175781 0.1875 23.53125 C 0.117188 23.886719 0.0820312 24.25 0.0820312 24.613281 C 0.0820312 24.976562 0.117188 25.335938 0.1875 25.695312 C 0.261719 26.050781 0.367188 26.398438 0.503906 26.734375 C 0.644531 27.070312 0.8125 27.390625 1.015625 27.691406 C 1.21875 27.996094 1.449219 28.273438 1.707031 28.53125 C 1.960938 28.789062 2.242188 29.019531 2.546875 29.222656 C 2.847656 29.425781 3.167969 29.59375 3.503906 29.734375 C 3.839844 29.875 4.1875 29.980469 4.542969 30.050781 C 4.898438 30.121094 5.261719 30.15625 5.625 30.160156 L 17.859375 30.160156 C 17.996094 30.15625 18.128906 30.132812 18.253906 30.078125 C 18.382812 30.027344 18.492188 29.953125 18.589844 29.855469 C 18.6875 29.757812 18.761719 29.644531 18.816406 29.519531 C 18.867188 29.390625 18.894531 29.257812 18.894531 29.121094 L 18.894531 23.53125 C 18.894531 23.394531 18.867188 23.261719 18.816406 23.136719 C 18.761719 23.007812 18.6875 22.894531 18.589844 22.796875 C 18.492188 22.703125 18.382812 22.625 18.253906 22.574219 C 18.128906 22.519531 17.996094 22.496094 17.859375 22.496094 L 16.8125 22.496094 L 20.898438 16.664062 L 24.984375 22.496094 L 23.9375 22.496094 C 23.796875 22.496094 23.667969 22.519531 23.539062 22.574219 C 23.414062 22.625 23.300781 22.703125 23.203125 22.796875 C 23.105469 22.894531 23.03125 23.007812 22.976562 23.136719 C 22.925781 23.261719 22.898438 23.394531 22.898438 23.53125 L 22.898438 32.617188 L 20.898438 32.617188 C 20.476562 32.617188 20.171875 32.804688 19.976562 33.175781 C 19.78125 33.546875 19.804688 33.90625 20.046875 34.25 L 26.125 42.929688 C 26.222656 43.066406 26.34375 43.175781 26.496094 43.253906 C 26.644531 43.332031 26.804688 43.371094 26.976562 43.371094 C 27.144531 43.371094 27.304688 43.332031 27.453125 43.253906 C 27.605469 43.175781 27.726562 43.066406 27.824219 42.929688 L 33.902344 34.253906 C 34.144531 33.910156 34.167969 33.550781 33.972656 33.179688 C 33.78125 32.808594 33.472656 32.621094 33.054688 32.621094 L 31.050781 32.621094 L 31.050781 30.164062 L 36.765625 30.164062 C 37.351562 30.171875 37.933594 30.125 38.511719 30.019531 C 39.089844 29.914062 39.652344 29.753906 40.199219 29.539062 C 40.746094 29.320312 41.265625 29.054688 41.761719 28.738281 C 42.253906 28.417969 42.710938 28.054688 43.132812 27.648438 C 43.554688 27.238281 43.933594 26.792969 44.269531 26.308594 C 44.605469 25.828125 44.886719 25.316406 45.121094 24.777344 C 45.355469 24.238281 45.535156 23.679688 45.660156 23.105469 C 45.785156 22.53125 45.851562 21.953125 45.859375 21.363281 C 45.871094 20.777344 45.824219 20.195312 45.71875 19.617188 C 45.613281 19.039062 45.453125 18.476562 45.238281 17.929688 C 45.023438 17.382812 44.757812 16.863281 44.4375 16.367188 C 44.121094 15.875 43.757812 15.414062 43.347656 14.992188 C 42.941406 14.570312 42.496094 14.191406 42.011719 13.855469 C 41.53125 13.523438 41.019531 13.238281 40.480469 13.003906 C 39.941406 12.769531 39.382812 12.589844 38.808594 12.464844 C 38.234375 12.339844 37.65625 12.273438 37.066406 12.261719 Z M 36.761719 28.082031 L 30.011719 28.082031 C 29.875 28.082031 29.742188 28.109375 29.617188 28.164062 C 29.488281 28.214844 29.375 28.289062 29.277344 28.386719 C 29.183594 28.484375 29.105469 28.597656 29.054688 28.722656 C 29 28.851562 28.976562 28.984375 28.976562 29.121094 L 28.976562 33.652344 C 28.976562 33.792969 29 33.921875 29.054688 34.050781 C 29.105469 34.179688 29.183594 34.289062 29.277344 34.386719 C 29.375 34.484375 29.488281 34.558594 29.617188 34.613281 C 29.742188 34.664062 29.875 34.691406 30.011719 34.691406 L 31.058594 34.691406 L 26.976562 40.527344 L 22.890625 34.691406 L 23.9375 34.691406 C 24.074219 34.691406 24.207031 34.664062 24.332031 34.613281 C 24.460938 34.558594 24.574219 34.484375 24.667969 34.386719 C 24.765625 34.292969 24.84375 34.179688 24.894531 34.050781 C 24.945312 33.925781 24.972656 33.792969 24.972656 33.65625 L 24.972656 24.570312 L 26.976562 24.570312 C 27.394531 24.570312 27.703125 24.382812 27.894531 24.011719 C 28.089844 23.636719 28.066406 23.28125 27.824219 22.9375 L 21.746094 14.257812 C 21.644531 14.128906 21.519531 14.023438 21.371094 13.953125 C 21.222656 13.878906 21.0625 13.84375 20.898438 13.84375 C 20.730469 13.84375 20.574219 13.878906 20.425781 13.953125 C 20.273438 14.023438 20.148438 14.128906 20.046875 14.257812 L 13.96875 22.9375 C 13.730469 23.28125 13.707031 23.636719 13.898438 24.011719 C 14.09375 24.382812 14.398438 24.570312 14.820312 24.570312 L 16.820312 24.570312 L 16.820312 28.085938 L 5.625 28.085938 C 5.363281 28.085938 5.109375 28.058594 4.855469 28.003906 C 4.601562 27.945312 4.359375 27.863281 4.125 27.753906 C 3.890625 27.644531 3.671875 27.507812 3.46875 27.347656 C 3.265625 27.1875 3.078125 27.007812 2.917969 26.808594 C 2.753906 26.605469 2.613281 26.390625 2.496094 26.160156 C 2.382812 25.925781 2.292969 25.683594 2.234375 25.433594 C 2.171875 25.179688 2.140625 24.925781 2.136719 24.667969 C 2.132812 24.40625 2.15625 24.152344 2.210938 23.898438 C 2.261719 23.644531 2.34375 23.398438 2.453125 23.164062 C 2.558594 22.929688 2.691406 22.710938 2.851562 22.503906 C 3.007812 22.296875 3.1875 22.113281 3.386719 21.945312 C 3.585938 21.78125 3.800781 21.640625 4.03125 21.519531 C 4.261719 21.402344 4.503906 21.3125 4.753906 21.25 C 5.003906 21.1875 5.257812 21.152344 5.519531 21.144531 C 5.777344 21.136719 6.035156 21.160156 6.289062 21.210938 C 6.542969 21.261719 6.785156 21.339844 7.023438 21.445312 C 7.035156 21.453125 7.050781 21.445312 7.0625 21.457031 C 7.160156 21.492188 7.257812 21.515625 7.363281 21.523438 C 7.386719 21.523438 7.414062 21.535156 7.4375 21.535156 L 7.445312 21.535156 C 7.535156 21.535156 7.625 21.523438 7.714844 21.5 C 7.730469 21.492188 7.742188 21.480469 7.757812 21.476562 C 7.882812 21.421875 8 21.359375 8.113281 21.28125 C 8.160156 21.234375 8.203125 21.1875 8.238281 21.132812 C 8.285156 21.082031 8.328125 21.023438 8.363281 20.960938 C 8.371094 20.945312 8.382812 20.933594 8.394531 20.917969 C 8.40625 20.875 8.414062 20.832031 8.421875 20.789062 C 8.445312 20.71875 8.460938 20.648438 8.46875 20.574219 C 8.472656 20.503906 8.464844 20.4375 8.453125 20.367188 C 8.453125 20.320312 8.453125 20.273438 8.445312 20.230469 C 8.367188 19.945312 8.308594 19.65625 8.269531 19.363281 C 8.226562 19.070312 8.207031 18.777344 8.207031 18.480469 C 8.203125 18.1875 8.222656 17.890625 8.257812 17.597656 C 8.292969 17.304688 8.351562 17.015625 8.425781 16.730469 C 8.5 16.445312 8.59375 16.164062 8.703125 15.890625 C 8.816406 15.617188 8.945312 15.351562 9.089844 15.097656 C 9.238281 14.839844 9.398438 14.59375 9.578125 14.359375 C 9.757812 14.121094 9.949219 13.898438 10.15625 13.6875 C 10.363281 13.480469 10.585938 13.285156 10.816406 13.101562 C 11.050781 12.921875 11.296875 12.757812 11.550781 12.605469 C 11.804688 12.457031 12.070312 12.324219 12.339844 12.210938 C 12.613281 12.097656 12.890625 12 13.175781 11.921875 C 13.460938 11.84375 13.75 11.785156 14.042969 11.742188 C 14.335938 11.703125 14.628906 11.683594 14.925781 11.679688 C 15.21875 11.679688 15.515625 11.695312 15.808594 11.730469 C 16.101562 11.769531 16.390625 11.824219 16.675781 11.898438 C 16.726562 11.90625 16.777344 11.90625 16.828125 11.90625 C 16.902344 11.917969 16.976562 11.921875 17.054688 11.917969 C 17.105469 11.90625 17.15625 11.894531 17.207031 11.875 C 17.285156 11.859375 17.359375 11.832031 17.429688 11.796875 C 17.476562 11.765625 17.519531 11.730469 17.5625 11.691406 C 17.621094 11.648438 17.679688 11.601562 17.726562 11.546875 C 17.769531 11.492188 17.800781 11.433594 17.832031 11.375 C 17.863281 11.328125 17.894531 11.277344 17.917969 11.226562 C 18.078125 10.746094 18.28125 10.285156 18.523438 9.839844 C 18.765625 9.394531 19.042969 8.972656 19.359375 8.578125 C 19.671875 8.179688 20.015625 7.8125 20.394531 7.472656 C 20.769531 7.136719 21.175781 6.832031 21.605469 6.566406 C 22.03125 6.296875 22.480469 6.066406 22.949219 5.875 C 23.417969 5.683594 23.898438 5.53125 24.394531 5.421875 C 24.890625 5.316406 25.390625 5.25 25.894531 5.226562 C 26.402344 5.203125 26.90625 5.222656 27.40625 5.285156 C 27.910156 5.347656 28.402344 5.453125 28.886719 5.601562 C 29.371094 5.75 29.839844 5.9375 30.289062 6.164062 C 30.742188 6.394531 31.171875 6.660156 31.578125 6.960938 C 31.984375 7.261719 32.363281 7.597656 32.710938 7.964844 C 33.0625 8.328125 33.375 8.722656 33.65625 9.144531 C 33.941406 9.566406 34.183594 10.007812 34.390625 10.46875 C 34.59375 10.933594 34.761719 11.410156 34.882812 11.898438 C 35.007812 12.390625 35.089844 12.886719 35.128906 13.394531 C 35.148438 13.664062 35.257812 13.890625 35.457031 14.074219 C 35.660156 14.261719 35.894531 14.351562 36.164062 14.351562 C 36.191406 14.351562 36.21875 14.351562 36.246094 14.351562 C 36.417969 14.335938 36.59375 14.324219 36.769531 14.324219 C 37.226562 14.320312 37.679688 14.359375 38.125 14.441406 C 38.574219 14.527344 39.007812 14.652344 39.429688 14.824219 C 39.851562 14.992188 40.253906 15.203125 40.636719 15.453125 C 41.015625 15.703125 41.367188 15.988281 41.691406 16.308594 C 42.015625 16.628906 42.304688 16.976562 42.558594 17.355469 C 42.816406 17.734375 43.03125 18.132812 43.207031 18.550781 C 43.378906 18.972656 43.511719 19.40625 43.601562 19.851562 C 43.691406 20.296875 43.738281 20.75 43.738281 21.203125 C 43.738281 21.660156 43.691406 22.109375 43.601562 22.558594 C 43.511719 23.003906 43.378906 23.4375 43.207031 23.859375 C 43.03125 24.277344 42.816406 24.675781 42.558594 25.054688 C 42.304688 25.433594 42.015625 25.78125 41.691406 26.101562 C 41.367188 26.421875 41.015625 26.707031 40.636719 26.957031 C 40.253906 27.207031 39.851562 27.414062 39.429688 27.585938 C 39.007812 27.757812 38.574219 27.882812 38.125 27.96875 C 37.679688 28.050781 37.226562 28.089844 36.769531 28.085938 Z M 36.761719 28.082031 " fill-opacity="1" fill-rule="nonzero"/></g></svg>