<svg width="56" height="58" viewBox="0 0 56 58" fill="none" xmlns="http://www.w3.org/2000/svg">
<path d="M38.4207 18.125C36.5004 10.2395 32.5547 4.83337 28 4.83337C21.5577 4.83337 16.3334 15.6528 16.3334 29C16.3334 42.3473 21.5577 53.1667 28 53.1667C28.798 53.1667 29.5797 53 30.3334 52.6834M35.4523 33.1254L44.3517 37.6204L40.0117 46.8375M44.3334 37.6275C40.124 39.7663 34.3607 41.0834 28 41.0834C15.113 41.0834 4.66669 35.6725 4.66669 29C4.66669 22.3276 15.113 16.9167 28 16.9167C39.2887 16.9167 48.7037 21.0685 50.8667 26.5834" stroke="#00AEEF" stroke-width="4" stroke-linecap="round" stroke-linejoin="round"/>
</svg>
