<svg xmlns="http://www.w3.org/2000/svg" version="1.1" xmlns:xlink="http://www.w3.org/1999/xlink" xmlns:svgjs="http://svgjs.dev/svgjs" width="1280" height="500" preserveAspectRatio="none" viewBox="0 0 1280 500"><g mask="url(&quot;#SvgjsMask1062&quot;)" fill="none"><rect width="1280" height="500" x="0" y="0" fill="#0e2a47"></rect><path d="M133.91840674170467 463.4827971450092L269.8457753274743 505.0399641716191 175.47557376831455 327.55542855923954z" fill="rgba(28, 83, 142, 0.4)" class="triangle-float2"></path><path d="M797.455410953481 423.08307746283407L925.9309443270741 365.88208464459626 868.7299515088363 237.40655127100305 740.2544181352431 294.6075440892409z" fill="rgba(28, 83, 142, 0.4)" class="triangle-float1"></path><path d="M1136.072311622983 233.91731556363285L1192.8258323863529 268.01827118150464 1215.6005054314755 165.83751222751425z" fill="rgba(28, 83, 142, 0.4)" class="triangle-float2"></path><path d="M-21.03 50.29 a118.01 118.01 0 1 0 236.02 0 a118.01 118.01 0 1 0 -236.02 0z" fill="rgba(28, 83, 142, 0.4)" class="triangle-float1"></path><path d="M73.06468264766369-45.176562665653805L9.088381220999658 23.429621167408172 77.69456505406163 87.40592259407221 141.67086648072566 18.799738761010225z" fill="rgba(28, 83, 142, 0.4)" class="triangle-float2"></path><path d="M461.2589102241058 425.1760206360311L439.3364417897879 380.2282993882483 382.8760941352725 435.5858626636166z" fill="rgba(28, 83, 142, 0.4)" class="triangle-float2"></path><path d="M1054.7497121236224 402.1237725678708L1147.1815189524063 295.7931421696826 1040.8508885542183 203.3613353408986 948.4190817254342 309.6919657390868z" fill="rgba(28, 83, 142, 0.4)" class="triangle-float3"></path><path d="M524.885,277.352C545.029,277.69,564.657,269.386,575.442,252.369C587.024,234.094,588.575,211.336,579.034,191.917C568.194,169.854,549.45,148.549,524.885,149.467C501.199,150.352,487.421,174.275,477.319,195.718C468.944,213.495,467.29,233.741,477.183,250.72C487.009,267.584,505.37,277.025,524.885,277.352" fill="rgba(28, 83, 142, 0.4)" class="triangle-float2"></path><path d="M1279.9928879034344 157.14562467454994L1292.1358897309647 41.61267971913557 1176.6029447755502 29.4696778916053 1164.45994294802 145.00262284701967z" fill="rgba(28, 83, 142, 0.4)" class="triangle-float3"></path><path d="M383.223,172.47C404.932,172.683,418.065,151.415,429.279,132.826C441.06,113.297,455.551,90.807,444.533,70.838C433.32,50.516,406.417,48.479,383.223,49.353C361.919,50.156,339.542,56.41,329.426,75.176C319.676,93.264,328.765,113.955,338.708,131.937C349.116,150.76,361.715,172.259,383.223,172.47" fill="rgba(28, 83, 142, 0.4)" class="triangle-float2"></path><path d="M-4.353,191.707C9.944,192.014,23.151,184.716,30.857,172.67C39.258,159.537,42.898,143.052,35.573,129.29C27.858,114.796,12.022,105.305,-4.353,106.523C-19.193,107.627,-28.455,121.27,-35.166,134.552C-41.08,146.258,-43.263,159.669,-37.039,171.213C-30.498,183.345,-18.133,191.411,-4.353,191.707" fill="rgba(28, 83, 142, 0.4)" class="triangle-float3"></path><path d="M523.8719259891217 499.60285985364226L634.9801825788148 574.5463252149038 709.9236479400764 463.4380686252107 598.8153913503833 388.4946032639491z" fill="rgba(28, 83, 142, 0.4)" class="triangle-float2"></path></g><defs><mask id="SvgjsMask1062"><rect width="1280" height="500" fill="#ffffff"></rect></mask><style>
                @keyframes float1 {
                    0%{transform: translate(0, 0)}
                    50%{transform: translate(-10px, 0)}
                    100%{transform: translate(0, 0)}
                }

                .triangle-float1 {
                    animation: float1 5s infinite;
                }

                @keyframes float2 {
                    0%{transform: translate(0, 0)}
                    50%{transform: translate(-5px, -5px)}
                    100%{transform: translate(0, 0)}
                }

                .triangle-float2 {
                    animation: float2 4s infinite;
                }

                @keyframes float3 {
                    0%{transform: translate(0, 0)}
                    50%{transform: translate(0, -10px)}
                    100%{transform: translate(0, 0)}
                }

                .triangle-float3 {
                    animation: float3 6s infinite;
                }
            </style></defs></svg>