<svg xmlns="http://www.w3.org/2000/svg" version="1.1" xmlns:xlink="http://www.w3.org/1999/xlink" xmlns:svgjs="http://svgjs.dev/svgjs" width="1440" height="560" preserveAspectRatio="none" viewBox="0 0 1440 560"><g mask="url(&quot;#SvgjsMask1142&quot;)" fill="none"><rect width="1440" height="560" x="0" y="0" fill="url(&quot;#SvgjsLinearGradient1143&quot;)"></rect><path d="M1440 0L1412.82 0L1440 55.11z" fill="rgba(255, 255, 255, .1)"></path><path d="M1412.82 0L1440 55.11L1440 328.98L1085.53 0z" fill="rgba(255, 255, 255, .075)"></path><path d="M1085.53 0L1440 328.98L1440 336.31L779.25 0z" fill="rgba(255, 255, 255, .05)"></path><path d="M779.25 0L1440 336.31L1440 340.48L407.92 0z" fill="rgba(255, 255, 255, .025)"></path><path d="M0 560L211.17 560L0 280.44z" fill="rgba(0, 0, 0, .1)"></path><path d="M0 280.44L211.17 560L342.04999999999995 560L0 193.7z" fill="rgba(0, 0, 0, .075)"></path><path d="M0 193.7L342.04999999999995 560L888.8399999999999 560L0 186.33999999999997z" fill="rgba(0, 0, 0, .05)"></path><path d="M0 186.33999999999997L888.8399999999999 560L991.2399999999999 560L0 155.70999999999998z" fill="rgba(0, 0, 0, .025)"></path></g><defs><mask id="SvgjsMask1142"><rect width="1440" height="560" fill="#ffffff"></rect></mask><linearGradient x1="15.28%" y1="-39.29%" x2="84.72%" y2="139.29%" gradientUnits="userSpaceOnUse" id="SvgjsLinearGradient1143"><stop stop-color="rgba(255, 255, 255, 1)" offset="0"></stop><stop stop-color="rgba(232, 232, 232, 1)" offset="1"></stop></linearGradient></defs></svg>