<svg width="115" height="137" viewBox="0 0 115 137" fill="none" xmlns="http://www.w3.org/2000/svg">
<path d="M61.7627 81.663C64.3406 80.6809 66.5081 78.8517 67.9094 76.4755L68.2583 75.8838C75.5635 63.4968 94.5472 68.6776 94.5472 83.0583V90.4967C94.5472 98.6125 87.9681 105.192 79.8524 105.192H66.0926C52.5877 105.192 49.1425 86.4707 61.7627 81.663V81.663Z" fill="#00AEEF"/>
<path d="M40.636 65.9599C40.4613 68.713 41.2276 71.4436 42.8093 73.7038L43.2032 74.2666C51.4484 86.0488 38.8654 101.178 25.778 95.2176L19.0086 92.1346C11.6227 88.7709 8.36213 80.0566 11.7258 72.6708L17.4288 60.1485C23.0262 47.8581 41.4914 52.4821 40.636 65.9599V65.9599Z" fill="#00AEEF"/>
<path d="M63.1363 58.3192C60.9949 56.5802 58.3259 55.6208 55.5674 55.5985L54.8805 55.593C40.5002 55.4767 35.473 36.4518 47.9187 29.2469L54.3563 25.5203C61.38 21.4542 70.37 23.8519 74.4361 30.8756L81.3298 42.7839C88.0958 54.4717 73.6199 66.8326 63.1363 58.3192V58.3192Z" fill="#00AEEF"/>
</svg>