<svg width="66" height="197" viewBox="0 0 66 197" fill="none" xmlns="http://www.w3.org/2000/svg">
<rect width="66" height="197" fill="#00AEEF"/>
<path d="M40.24 171.2C40.24 172.547 39.94 173.74 39.34 174.78C38.7267 175.807 37.88 176.613 36.8 177.2C35.7067 177.787 34.44 178.08 33 178.08C31.5733 178.08 30.32 177.787 29.24 177.2C28.1467 176.613 27.2933 175.807 26.68 174.78C26.0667 173.74 25.76 172.547 25.76 171.2C25.76 169.827 26.0667 168.62 26.68 167.58C27.2933 166.54 28.1467 165.733 29.24 165.16C30.32 164.587 31.5733 164.3 33 164.3C34.44 164.3 35.7067 164.587 36.8 165.16C37.88 165.733 38.7267 166.54 39.34 167.58C39.94 168.62 40.24 169.827 40.24 171.2ZM38.08 171.18C38.08 170.287 37.88 169.507 37.48 168.84C37.0667 168.173 36.48 167.66 35.72 167.3C34.96 166.94 34.0533 166.76 33 166.76C31.9467 166.76 31.04 166.94 30.28 167.3C29.52 167.66 28.94 168.173 28.54 168.84C28.1267 169.507 27.92 170.287 27.92 171.18C27.92 172.073 28.1267 172.853 28.54 173.52C28.94 174.187 29.52 174.707 30.28 175.08C31.04 175.44 31.9467 175.62 33 175.62C34.0533 175.62 34.96 175.44 35.72 175.08C36.48 174.707 37.0667 174.187 37.48 173.52C37.88 172.853 38.08 172.073 38.08 171.18ZM40.24 158.295C40.24 159.108 40.08 159.808 39.76 160.395C39.4267 160.968 38.9333 161.408 38.28 161.715C37.6133 162.022 36.7933 162.175 35.82 162.175L29.92 162.175L29.92 159.775L35.58 159.775C36.4467 159.775 37.1067 159.595 37.56 159.235C38 158.862 38.22 158.302 38.22 157.555C38.22 157.075 38.1067 156.648 37.88 156.275C37.6533 155.888 37.3267 155.588 36.9 155.375C36.46 155.148 35.9267 155.035 35.3 155.035L29.92 155.035L29.92 152.635L40 152.635L40 154.755L38.32 154.935C38.9067 155.242 39.3733 155.688 39.72 156.275C40.0667 156.848 40.24 157.522 40.24 158.295ZM40 149.965L29.92 149.965L29.92 147.825L31.8 147.605C31.36 147.365 30.9867 147.065 30.68 146.705C30.36 146.345 30.1133 145.925 29.94 145.445C29.7667 144.951 29.68 144.411 29.68 143.825L32.22 143.825L32.22 144.665C32.22 145.065 32.2733 145.445 32.38 145.805C32.4733 146.165 32.6333 146.478 32.86 146.745C33.0733 146.998 33.3733 147.198 33.76 147.345C34.1333 147.491 34.6067 147.565 35.18 147.565L40 147.565L40 149.965ZM40 137.053L26 137.053L26 128.013L27.94 128.013L27.94 134.653L31.96 134.653L31.96 128.613L33.86 128.613L33.86 134.653L38.06 134.653L38.06 128.013L40 128.013L40 137.053ZM40 126.51L34.96 122.95L29.92 126.51L29.92 123.93L33.58 121.41L29.92 118.89L29.92 116.31L34.96 119.87L40 116.31L40 118.89L36.34 121.41L40 123.93L40 126.51ZM44.4 114.594L29.92 114.594L29.92 112.454L31.38 112.194C31.0867 111.98 30.8133 111.727 30.56 111.434C30.2933 111.127 30.08 110.76 29.92 110.334C29.76 109.894 29.68 109.394 29.68 108.834C29.68 107.887 29.9133 107.054 30.38 106.334C30.8467 105.6 31.48 105.027 32.28 104.614C33.0667 104.2 33.9667 103.994 34.98 103.994C35.9933 103.994 36.9 104.207 37.7 104.634C38.4867 105.047 39.1067 105.62 39.56 106.354C40.0133 107.074 40.24 107.9 40.24 108.834C40.24 109.594 40.1 110.26 39.82 110.834C39.5267 111.394 39.1133 111.847 38.58 112.194L44.4 112.194L44.4 114.594ZM38.16 109.334C38.16 108.774 38.0267 108.274 37.76 107.834C37.4933 107.394 37.12 107.054 36.64 106.814C36.16 106.56 35.6067 106.434 34.98 106.434C34.34 106.434 33.78 106.56 33.3 106.814C32.82 107.054 32.4467 107.394 32.18 107.834C31.9133 108.274 31.78 108.774 31.78 109.334C31.78 109.907 31.9133 110.414 32.18 110.854C32.4467 111.28 32.82 111.62 33.3 111.874C33.78 112.114 34.3333 112.234 34.96 112.234C35.6 112.234 36.16 112.114 36.64 111.874C37.1067 111.62 37.48 111.28 37.76 110.854C38.0267 110.414 38.16 109.907 38.16 109.334ZM40.24 96.9439C40.24 97.9439 40.0267 98.8239 39.6 99.5839C39.16 100.344 38.5467 100.937 37.76 101.364C36.9733 101.791 36.0667 102.004 35.04 102.004C33.9733 102.004 33.04 101.797 32.24 101.384C31.44 100.957 30.8133 100.364 30.36 99.6039C29.9067 98.8306 29.68 97.9372 29.68 96.9239C29.68 95.9372 29.9 95.0772 30.34 94.3439C30.78 93.6106 31.3733 93.0439 32.12 92.6439C32.8533 92.2439 33.68 92.0439 34.6 92.0439C34.7333 92.0439 34.88 92.0439 35.04 92.0439C35.2 92.0439 35.3667 92.0572 35.54 92.0839L35.54 100.284L34 100.284L34 94.4639C33.2667 94.4906 32.6933 94.7372 32.28 95.2039C31.8533 95.6706 31.64 96.2506 31.64 96.9439C31.64 97.4372 31.7533 97.8906 31.98 98.3039C32.2067 98.7172 32.5467 99.0439 33 99.2839C33.44 99.5239 34 99.6439 34.68 99.6439L35.26 99.6439C35.8867 99.6439 36.4267 99.5306 36.88 99.3039C37.3333 99.0639 37.68 98.7439 37.92 98.3439C38.1467 97.9306 38.26 97.4706 38.26 96.9639C38.26 96.4039 38.14 95.9439 37.9 95.5839C37.66 95.2106 37.34 94.9372 36.94 94.7639L36.94 92.3239C37.5667 92.5106 38.1333 92.8172 38.64 93.2439C39.1333 93.6706 39.5267 94.1972 39.82 94.8239C40.1 95.4506 40.24 96.1572 40.24 96.9439ZM40 89.828L29.92 89.828L29.92 87.688L31.8 87.468C31.36 87.228 30.9867 86.928 30.68 86.568C30.36 86.208 30.1133 85.788 29.94 85.308C29.7667 84.8146 29.68 84.2746 29.68 83.688L32.22 83.688L32.22 84.528C32.22 84.928 32.2733 85.308 32.38 85.668C32.4733 86.028 32.6333 86.3413 32.86 86.608C33.0733 86.8613 33.3733 87.0613 33.76 87.208C34.1333 87.3546 34.6067 87.428 35.18 87.428L40 87.428L40 89.828ZM40 81.7787L29.92 81.7787L29.92 79.3787L40 79.3787L40 81.7787ZM28.32 80.5787C28.32 81.0187 28.1867 81.3854 27.92 81.6787C27.64 81.9587 27.3 82.0987 26.9 82.0987C26.4867 82.0987 26.1533 81.9587 25.9 81.6787C25.6333 81.3854 25.5 81.0187 25.5 80.5787C25.5 80.1387 25.6333 79.7787 25.9 79.4987C26.1533 79.2054 26.4867 79.0587 26.9 79.0587C27.3 79.0587 27.64 79.2054 27.92 79.4987C28.1867 79.7787 28.32 80.1387 28.32 80.5787ZM40.24 71.8853C40.24 72.8853 40.0267 73.7653 39.6 74.5253C39.16 75.2853 38.5467 75.8786 37.76 76.3053C36.9733 76.732 36.0667 76.9453 35.04 76.9453C33.9733 76.9453 33.04 76.7386 32.24 76.3253C31.44 75.8986 30.8133 75.3053 30.36 74.5453C29.9067 73.772 29.68 72.8786 29.68 71.8653C29.68 70.8786 29.9 70.0186 30.34 69.2853C30.78 68.552 31.3733 67.9853 32.12 67.5853C32.8533 67.1853 33.68 66.9853 34.6 66.9853C34.7333 66.9853 34.88 66.9853 35.04 66.9853C35.2 66.9853 35.3667 66.9986 35.54 67.0253L35.54 75.2253L34 75.2253L34 69.4053C33.2667 69.432 32.6933 69.6786 32.28 70.1453C31.8533 70.612 31.64 71.192 31.64 71.8853C31.64 72.3786 31.7533 72.832 31.98 73.2453C32.2067 73.6586 32.5467 73.9853 33 74.2253C33.44 74.4653 34 74.5853 34.68 74.5853L35.26 74.5853C35.8867 74.5853 36.4267 74.472 36.88 74.2453C37.3333 74.0053 37.68 73.6853 37.92 73.2853C38.1467 72.872 38.26 72.412 38.26 71.9053C38.26 71.3453 38.14 70.8853 37.9 70.5253C37.66 70.152 37.34 69.8786 36.94 69.7053L36.94 67.2653C37.5667 67.452 38.1333 67.7586 38.64 68.1853C39.1333 68.612 39.5267 69.1386 39.82 69.7653C40.1 70.392 40.24 71.0986 40.24 71.8853ZM40 64.7694L29.92 64.7694L29.92 62.6494L31.6 62.4694C31.0133 62.1627 30.5467 61.7227 30.2 61.1494C29.8533 60.576 29.68 59.896 29.68 59.1094C29.68 58.296 29.8533 57.6027 30.2 57.0294C30.5333 56.456 31.0267 56.016 31.68 55.7094C32.3333 55.3894 33.1467 55.2294 34.12 55.2294L40 55.2294L40 57.6294L34.34 57.6294C33.5 57.6294 32.8533 57.816 32.4 58.1894C31.9467 58.5627 31.72 59.116 31.72 59.8494C31.72 60.3294 31.8333 60.7627 32.06 61.1494C32.2867 61.5227 32.62 61.8227 33.06 62.0494C33.4867 62.2627 34.0067 62.3694 34.62 62.3694L40 62.3694L40 64.7694ZM40.24 47.9191C40.24 48.9057 40.02 49.7924 39.58 50.5791C39.1267 51.3524 38.5067 51.9591 37.72 52.3991C36.92 52.8257 36.0133 53.0391 35 53.0391C33.9467 53.0391 33.0267 52.8257 32.24 52.3991C31.44 51.9591 30.8133 51.3524 30.36 50.5791C29.9067 49.7924 29.68 48.8991 29.68 47.8991C29.68 46.6457 30.0133 45.5924 30.68 44.7391C31.3333 43.8857 32.2333 43.3391 33.38 43.0991L33.38 45.6191C32.8733 45.7524 32.4733 46.0324 32.18 46.4591C31.8867 46.8724 31.74 47.3657 31.74 47.9391C31.74 48.4324 31.8667 48.8857 32.12 49.2991C32.3733 49.6991 32.74 50.0191 33.22 50.2591C33.7 50.4857 34.28 50.5991 34.96 50.5991C35.48 50.5991 35.94 50.5324 36.34 50.3991C36.74 50.2657 37.08 50.0791 37.36 49.8391C37.6267 49.5857 37.8333 49.2991 37.98 48.9791C38.1267 48.6591 38.2 48.3124 38.2 47.9391C38.2 47.5524 38.14 47.2057 38.02 46.8991C37.8867 46.5791 37.6933 46.3124 37.44 46.0991C37.1867 45.8724 36.8867 45.7124 36.54 45.6191L36.54 43.0991C37.66 43.3391 38.56 43.8857 39.24 44.7391C39.9067 45.5924 40.24 46.6524 40.24 47.9191ZM40.24 36.065C40.24 37.065 40.0267 37.945 39.6 38.705C39.16 39.465 38.5467 40.0583 37.76 40.485C36.9733 40.9117 36.0667 41.125 35.04 41.125C33.9733 41.125 33.04 40.9183 32.24 40.505C31.44 40.0783 30.8133 39.485 30.36 38.725C29.9067 37.9517 29.68 37.0583 29.68 36.045C29.68 35.0583 29.9 34.1983 30.34 33.465C30.78 32.7317 31.3733 32.165 32.12 31.765C32.8533 31.365 33.68 31.165 34.6 31.165C34.7333 31.165 34.88 31.165 35.04 31.165C35.2 31.165 35.3667 31.1783 35.54 31.205L35.54 39.405L34 39.405L34 33.585C33.2667 33.6117 32.6933 33.8583 32.28 34.325C31.8533 34.7917 31.64 35.3717 31.64 36.065C31.64 36.5583 31.7533 37.0117 31.98 37.425C32.2067 37.8383 32.5467 38.165 33 38.405C33.44 38.645 34 38.765 34.68 38.765L35.26 38.765C35.8867 38.765 36.4267 38.6517 36.88 38.425C37.3333 38.185 37.68 37.865 37.92 37.465C38.1467 37.0517 38.26 36.5917 38.26 36.085C38.26 35.525 38.14 35.065 37.9 34.705C37.66 34.3317 37.34 34.0583 36.94 33.885L36.94 31.445C37.5667 31.6317 38.1333 31.9383 38.64 32.365C39.1333 32.7917 39.5267 33.3183 39.82 33.945C40.1 34.5717 40.24 35.2783 40.24 36.065ZM40.24 24.9291C40.24 25.8224 40.1 26.6024 39.82 27.2691C39.5267 27.9224 39.1267 28.4424 38.62 28.8291C38.1 29.2024 37.5067 29.4224 36.84 29.4891L36.84 27.0891C37.12 27.0224 37.38 26.9024 37.62 26.7291C37.8467 26.5557 38.0267 26.3224 38.16 26.0291C38.2933 25.7224 38.36 25.3624 38.36 24.9491C38.36 24.5491 38.3067 24.2224 38.2 23.9691C38.08 23.7157 37.9267 23.5291 37.74 23.4091C37.5533 23.2891 37.3533 23.2291 37.14 23.2291C36.82 23.2291 36.5733 23.3157 36.4 23.4891C36.2267 23.6624 36.0933 23.9157 36 24.2491C35.8933 24.5691 35.7933 24.9557 35.7 25.4091C35.6067 25.8891 35.4933 26.3557 35.36 26.8091C35.2133 27.2491 35.0333 27.6491 34.82 28.0091C34.6067 28.3557 34.3333 28.6357 34 28.8491C33.6667 29.0491 33.26 29.1491 32.78 29.1491C32.1933 29.1491 31.6667 28.9957 31.2 28.6891C30.7333 28.3691 30.3667 27.9157 30.1 27.3291C29.82 26.7291 29.68 26.0157 29.68 25.1891C29.68 24.0157 29.9533 23.0824 30.5 22.3891C31.0333 21.6824 31.7867 21.2691 32.76 21.1491L32.76 23.4291C32.3867 23.4957 32.1 23.6824 31.9 23.9891C31.6867 24.2957 31.58 24.7024 31.58 25.2091C31.58 25.7291 31.68 26.1291 31.88 26.4091C32.0667 26.6757 32.32 26.8091 32.64 26.8091C32.84 26.8091 33.0267 26.7291 33.2 26.5691C33.36 26.3957 33.5 26.1491 33.62 25.8291C33.7267 25.5091 33.8333 25.1157 33.94 24.6491C34.0867 23.9024 34.26 23.2424 34.46 22.6691C34.66 22.0957 34.9533 21.6424 35.34 21.3091C35.7267 20.9757 36.2733 20.8091 36.98 20.8091C37.62 20.7957 38.1867 20.9624 38.68 21.3091C39.1733 21.6424 39.56 22.1157 39.84 22.7291C40.1067 23.3424 40.24 24.0757 40.24 24.9291Z" fill="white"/>
</svg>
